<?xml version="1.0" encoding="utf-8"?>
<!-- Generator: Adobe Illustrator 24.3.0, SVG Export Plug-In . SVG Version: 6.00 Build 0)  -->
<svg version="1.1" id="레이어_2_1_" xmlns="http://www.w3.org/2000/svg" xmlns:xlink="http://www.w3.org/1999/xlink" x="0px"
	 y="0px" viewBox="0 0 120 30" style="enable-background:new 0 0 120 30;" xml:space="preserve">
<style type="text/css">
	.st0{fill:#231815;}
	.st1{fill:#221714;}
</style>
<g>
	<path class="st0" d="M3.2,25.3c-1-0.5-1.8-1.3-2.4-2.3C0.3,22,0,20.9,0,19.6v-8.5c0-1.3,0.3-2.4,0.8-3.4c0.6-1,1.3-1.8,2.4-2.3
		c1-0.5,2.2-0.8,3.5-0.8c1.3,0,2.5,0.3,3.5,0.8c1,0.5,1.8,1.3,2.4,2.3c0.6,1,0.8,2.1,0.8,3.4v8.5c0,1.3-0.3,2.5-0.8,3.4
		c-0.6,1-1.4,1.8-2.4,2.3c-1,0.5-2.2,0.8-3.5,0.8C5.4,26.1,4.2,25.8,3.2,25.3z M9.1,22.2c0.6-0.6,0.9-1.5,0.9-2.5V11
		c0-1-0.3-1.9-0.9-2.5C8.5,7.8,7.7,7.5,6.7,7.5c-1,0-1.7,0.3-2.3,0.9C3.8,9.1,3.5,9.9,3.5,11v8.7c0,1,0.3,1.8,0.9,2.5
		c0.6,0.6,1.4,0.9,2.3,0.9C7.7,23.1,8.5,22.8,9.1,22.2z"/>
	<path class="st0" d="M27,11.6c0.8,0.9,1.2,2.2,1.2,3.8v10.1c0,0.1,0,0.2-0.1,0.3c-0.1,0.1-0.2,0.1-0.3,0.1h-2.8
		c-0.1,0-0.2,0-0.3-0.1c-0.1-0.1-0.1-0.2-0.1-0.3v-9.6c0-0.8-0.2-1.5-0.6-2c-0.4-0.5-1-0.7-1.7-0.7c-0.7,0-1.3,0.2-1.7,0.7
		c-0.4,0.5-0.6,1.1-0.6,2v9.6c0,0.1,0,0.2-0.1,0.3c-0.1,0.1-0.2,0.1-0.3,0.1h-2.8c-0.1,0-0.2,0-0.3-0.1c-0.1-0.1-0.1-0.2-0.1-0.3
		V10.8c0-0.1,0-0.2,0.1-0.3c0.1-0.1,0.2-0.1,0.3-0.1h2.8c0.1,0,0.2,0,0.3,0.1c0.1,0.1,0.1,0.2,0.1,0.3v0.8c0,0.1,0,0.1,0.1,0.1
		c0,0,0.1,0,0.1-0.1c0.8-1,1.9-1.4,3.3-1.4C25,10.2,26.1,10.7,27,11.6z"/>
	<path class="st0" d="M39.6,4.9c0.1-0.1,0.2-0.1,0.3-0.1h2.8c0.1,0,0.2,0,0.3,0.1C43,4.9,43,5,43,5.1v20.4c0,0.1,0,0.2-0.1,0.3
		c-0.1,0.1-0.2,0.1-0.3,0.1h-2.8c-0.1,0-0.2,0-0.3-0.1c-0.1-0.1-0.1-0.2-0.1-0.3v-0.8c0-0.1,0-0.1-0.1-0.1c0,0-0.1,0-0.1,0.1
		c-0.8,1-1.9,1.4-3.3,1.4c-2.5,0-4-1.5-4.7-4.6c-0.2-0.9-0.3-2.1-0.3-3.4c0-1.3,0.1-2.4,0.3-3.3c0.6-3.1,2.2-4.6,4.9-4.6
		c1.4,0,2.5,0.5,3.2,1.4c0,0.1,0.1,0.1,0.1,0.1c0,0,0.1-0.1,0.1-0.1V5.1C39.5,5,39.5,4.9,39.6,4.9z M39.5,18.1
		c0-1.4-0.1-2.4-0.3-3.1c-0.3-1.2-1-1.8-2-1.8c-1.1,0-1.8,0.6-2.2,1.8c-0.3,0.8-0.4,1.8-0.4,3.1c0,1.2,0.1,2.2,0.3,3
		c0.4,1.3,1.1,1.9,2.2,1.9c1.1,0,1.8-0.6,2.1-1.9C39.4,20.5,39.5,19.5,39.5,18.1z"/>
	<path class="st0" d="M48,24.8c-1-0.9-1.7-2.1-1.9-3.5c-0.2-1-0.2-2-0.2-3.1c0-1.1,0.1-2.2,0.2-3.2c0.2-1.5,0.9-2.6,1.9-3.5
		c1.1-0.9,2.4-1.3,4-1.3c1.6,0,2.9,0.4,3.9,1.3c1,0.9,1.7,2,1.9,3.4c0.2,1,0.2,2.1,0.2,3.2c0,1.2-0.1,2.2-0.2,3.1
		c-0.2,1.5-0.9,2.7-1.9,3.6c-1,0.9-2.4,1.3-4,1.3C50.4,26.1,49.1,25.7,48,24.8z M53.7,22.4c0.5-0.4,0.7-1,0.8-1.7
		c0.1-1,0.1-1.9,0.1-2.5c0-0.7,0-1.5-0.1-2.6c-0.1-0.7-0.4-1.3-0.8-1.7c-0.5-0.4-1-0.6-1.7-0.6c-0.7,0-1.2,0.2-1.7,0.6
		c-0.4,0.4-0.7,1-0.8,1.7c-0.1,0.7-0.1,1.6-0.1,2.6c0,1,0,1.9,0.1,2.5c0.1,0.7,0.4,1.3,0.8,1.7c0.4,0.4,1,0.7,1.7,0.7
		C52.7,23.1,53.3,22.9,53.7,22.4z"/>
	<path class="st0" d="M70.8,25.3c-1-0.5-1.8-1.3-2.3-2.2c-0.6-1-0.8-2.1-0.8-3.3v-8.9c0-1.3,0.3-2.4,0.8-3.3c0.6-1,1.3-1.7,2.3-2.2
		c1-0.5,2.2-0.8,3.5-0.8c1.3,0,2.5,0.3,3.5,0.8c1,0.5,1.8,1.2,2.3,2.2c0.6,0.9,0.8,2,0.8,3.3v0.2c0,0.1,0,0.2-0.1,0.3
		c-0.1,0.1-0.2,0.1-0.3,0.1l-2.8,0.1c-0.2,0-0.4-0.1-0.4-0.4v-0.4c0-0.9-0.3-1.7-0.9-2.3c-0.6-0.6-1.3-0.9-2.2-0.9
		c-0.9,0-1.7,0.3-2.3,0.9c-0.6,0.6-0.9,1.3-0.9,2.3v9.3c0,0.9,0.3,1.7,0.9,2.3c0.6,0.6,1.3,0.9,2.3,0.9c0.9,0,1.7-0.3,2.2-0.9
		c0.6-0.6,0.9-1.3,0.9-2.3v-0.4c0-0.2,0.1-0.3,0.4-0.3l2.8,0.1c0.1,0,0.2,0,0.3,0.1c0.1,0.1,0.1,0.2,0.1,0.3v0.1
		c0,1.2-0.3,2.3-0.8,3.3c-0.6,1-1.3,1.7-2.3,2.2c-1,0.5-2.2,0.8-3.5,0.8C73,26.1,71.8,25.8,70.8,25.3z"/>
	<path class="st0" d="M92.4,10.9c0.9,0.4,1.6,1,2.1,1.8c0.5,0.8,0.7,1.6,0.7,2.6v10.2c0,0.1,0,0.2-0.1,0.3c-0.1,0.1-0.2,0.1-0.3,0.1
		h-2.8c-0.1,0-0.2,0-0.3-0.1c-0.1-0.1-0.1-0.2-0.1-0.3v-0.8c0-0.1,0-0.1-0.1-0.1c0,0-0.1,0-0.1,0c-0.8,1-2.1,1.4-3.6,1.4
		c-1.3,0-2.5-0.4-3.4-1.1c-0.9-0.7-1.4-1.9-1.4-3.5c0-1.7,0.5-2.9,1.6-3.8c1.1-0.8,2.6-1.2,4.4-1.2h2.4c0.1,0,0.2,0,0.2-0.2v-0.8
		c0-0.7-0.2-1.3-0.6-1.8c-0.4-0.4-1-0.6-1.7-0.6c-0.6,0-1.1,0.1-1.4,0.4c-0.4,0.3-0.6,0.6-0.7,1.1c-0.1,0.2-0.2,0.3-0.4,0.3
		l-2.9-0.2c-0.1,0-0.2,0-0.3-0.1c-0.1-0.1-0.1-0.1-0.1-0.2c0.1-1.3,0.7-2.3,1.8-3.1c1.1-0.8,2.4-1.2,4-1.2
		C90.5,10.2,91.5,10.4,92.4,10.9z M90.8,22.6c0.6-0.5,0.9-1,0.9-1.8v-1.6c0-0.1,0-0.2-0.2-0.2h-2c-0.9,0-1.6,0.2-2.1,0.6
		c-0.5,0.4-0.8,0.9-0.8,1.7c0,0.6,0.2,1.1,0.6,1.5c0.4,0.3,0.9,0.5,1.5,0.5C89.6,23.3,90.3,23,90.8,22.6z"/>
	<path class="st0" d="M106.4,10.6c0.2,0.1,0.2,0.2,0.2,0.5l-0.5,2.7c0,0.2-0.2,0.3-0.4,0.2c-0.3-0.1-0.6-0.2-0.9-0.2
		c-0.1,0-0.4,0-0.6,0.1c-0.7,0.1-1.3,0.4-1.7,0.9c-0.5,0.6-0.7,1.3-0.7,2.1v8.5c0,0.1,0,0.2-0.1,0.3c-0.1,0.1-0.2,0.1-0.3,0.1h-2.8
		c-0.1,0-0.2,0-0.3-0.1c-0.1-0.1-0.1-0.2-0.1-0.3V10.8c0-0.1,0-0.2,0.1-0.3c0.1-0.1,0.2-0.1,0.3-0.1h2.8c0.1,0,0.2,0,0.3,0.1
		c0.1,0.1,0.1,0.2,0.1,0.3v1.3c0,0.1,0,0.1,0,0.1c0,0,0.1,0,0.1-0.1c0.7-1.3,1.7-1.9,3-1.9C105.4,10.3,105.9,10.4,106.4,10.6z"/>
	<path class="st0" d="M116.6,4.9c0.1-0.1,0.2-0.1,0.3-0.1h2.8c0.1,0,0.2,0,0.3,0.1C120,4.9,120,5,120,5.1v20.4c0,0.1,0,0.2-0.1,0.3
		c-0.1,0.1-0.2,0.1-0.3,0.1h-2.8c-0.1,0-0.2,0-0.3-0.1c-0.1-0.1-0.1-0.2-0.1-0.3v-0.8c0-0.1,0-0.1-0.1-0.1c0,0-0.1,0-0.1,0.1
		c-0.8,1-1.9,1.4-3.3,1.4c-2.5,0-4-1.5-4.7-4.6c-0.2-0.9-0.3-2.1-0.3-3.4c0-1.3,0.1-2.4,0.3-3.3c0.6-3.1,2.2-4.6,4.9-4.6
		c1.4,0,2.5,0.5,3.2,1.4c0,0.1,0.1,0.1,0.1,0.1c0,0,0.1-0.1,0.1-0.1V5.1C116.5,5,116.5,4.9,116.6,4.9z M116.5,18.1
		c0-1.4-0.1-2.4-0.3-3.1c-0.3-1.2-1-1.8-2-1.8c-1.1,0-1.8,0.6-2.2,1.8c-0.3,0.8-0.4,1.8-0.4,3.1c0,1.2,0.1,2.2,0.3,3
		c0.4,1.3,1.1,1.9,2.2,1.9c1.1,0,1.8-0.6,2.1-1.9C116.4,20.5,116.5,19.5,116.5,18.1z"/>
	<path class="st1" d="M61.9,12.7c-2.4,0-4.4-2-4.4-4.4s2-4.4,4.4-4.4s4.4,2,4.4,4.4S64.4,12.7,61.9,12.7z M61.9,6
		c-1.3,0-2.3,1-2.3,2.3s1,2.3,2.3,2.3c1.3,0,2.3-1,2.3-2.3S63.2,6,61.9,6z"/>
</g>
</svg>
