<?xml version="1.0" encoding="utf-8"?>
<!-- Generator: Adobe Illustrator 27.6.1, SVG Export Plug-In . SVG Version: 6.00 Build 0)  -->
<svg version="1.1" id="레이어_1" xmlns="http://www.w3.org/2000/svg" xmlns:xlink="http://www.w3.org/1999/xlink" x="0px"
	 y="0px" viewBox="0 0 256 94" style="enable-background:new 0 0 256 94;" xml:space="preserve">
<path d="M205.5,71.3v5.2h-26.7v-5.1c0,0,2.6,0.2,4.1-0.9c1.5-1.1,1.9-3.5,1.9-4.9s0-17.6,0-17.6s0-1.5-0.9-2.4
	c-0.9-0.9-2.3-1.2-2.7-1.2c-0.4,0-1.9,0-1.9,0v-5l16.2-4.9h4V66c0,0,0.1,2.5,1.3,3.7c1.2,1.2,2.5,1.6,3,1.6
	C204.1,71.3,205.5,71.3,205.5,71.3z M192.2,33.2c4.5,0,8.1-3.6,8.1-8.1s-3.6-8.1-8.1-8.1c-4.5,0-8.1,3.6-8.1,8.1
	S187.7,33.2,192.2,33.2z M175.4,67.9c-0.2,0.1-2.3,0.9-4.3,1c-1.9,0.1-3.4-0.3-4.8-1.7c-1.4-1.4-1.5-4.1-1.5-4.1V42.3h10.2v-4.9
	h-10.2v-13h-3.5c0,0,0,0.1-0.1,0.6c-0.2,0.5-1.1,2.2-2.3,4.2s-3.6,4.1-6,6c-1,0.8-2.5,1.6-4,2.3h-12.6v-13h-3.5c0,0,0,0.1-0.1,0.6
	c-0.2,0.5-1.1,2.2-2.3,4.2c-1.2,2-3.6,4.1-6,6c-2.4,1.9-8.3,4.1-8.3,4.1v3.1l5.6,0c0,0-0.1,19.8,0.1,23.1c0.2,3.2,1.2,6,2.7,8
	c1.4,2,4.2,3.5,6.4,3.9c2.3,0.5,5.7,0.3,9.1-0.5c3.4-0.8,6.2-3.3,7-4c0.8-0.6,1.9-2.5,1.9-2.5l-1.8-2.7c0,0-0.1,0.1-0.3,0.2
	c-0.2,0.1-2.3,0.9-4.3,1c-1.9,0.1-3.4-0.3-4.8-1.7c-1.4-1.4-1.5-4.1-1.5-4.1V42.3h8.3l5.6,0c0,0-0.1,19.8,0.1,23.1
	c0.2,3.2,1.2,6,2.7,8c1.4,2,4.2,3.5,6.4,3.9c2.3,0.5,5.7,0.3,9.1-0.5c3.4-0.8,6.2-3.3,7-4c0.8-0.6,1.9-2.5,1.9-2.5l-1.8-2.7
	C175.8,67.7,175.7,67.8,175.4,67.9z M242.5,46l-23.2,14.8c2,2,4.7,3.4,7.3,3.6c3.9,0.4,7.8-1,9.2-2.2c1.3-1.3,2.5-2.9,2.7-3.2
	c0.2-0.4,0.3-0.8,0.3-0.8l3.2,1.6c0,0-2,8.4-4.6,11c-2.7,2.6-5,5.1-10.5,5.6c-5.5,0.5-12.1-0.6-16-5.1c-1.3-1.5-2.9-3-4.1-6.7
	c-1.3-3.7-1.5-6.4-1.4-9.5c0.2-3,0.5-7.1,2.9-11.6s5.7-7,8.9-8.6c3.2-1.6,6.4-1.8,8.4-1.8c6.7,0,12.3,4.3,14.7,8.2
	C242.6,45.2,242.5,46,242.5,46z M230.4,42.9c-2.1-2.8-6.1-3.8-8-3.5c-2.1,0.3-5,2.4-6.1,6.1c-1,3.3-1.1,7.8,0.5,11.5l9.7-5.9
	C226.4,51.1,232.5,45.8,230.4,42.9z M112.5,44.7c1.9,4.1,2,10,2,10s0,5.9-2,10c-1.9,4.1-5,7.1-8.4,9c-3.4,1.9-7.4,2.6-8.8,2.7
	c-1.5,0-1.5,0.1-2,0.1c-0.5,0-0.6,0-2-0.1c-1.5,0-5.4-0.8-8.8-2.7c-3.4-1.9-6.5-4.9-8.4-9c-1.9-4.1-2-10-2-10s0-5.9,2-10
	c1.9-4.1,5-7.1,8.4-9c3.4-1.9,7.4-2.6,8.8-2.7c1.5,0,1.5,0,2,0c0.5,0,0.6,0,2,0s5.4,0.8,8.8,2.7C107.4,37.5,110.5,40.6,112.5,44.7z
	 M98.2,48.7c0-0.6-0.1-3.8-0.2-4.6c-0.1-0.8-0.3-2.1-0.7-3.4c-0.4-1.3-1.1-2.4-1.9-3.1c-0.8-0.7-1.8-0.7-1.8-0.7l-0.5,0l-0.5,0
	c0,0-1,0-1.8,0.7c-0.8,0.7-1.5,1.8-1.9,3.1c-0.4,1.3-0.6,2.7-0.7,3.4s-0.2,3.9-0.2,4.6c0,0.6,0,6.1,0,6.1s0,5.4,0,6.1
	s0.1,3.8,0.2,4.6c0.1,0.8,0.3,2.1,0.7,3.4c0.4,1.3,1.1,2.4,1.9,3.1c0.8,0.7,1.8,0.7,1.8,0.7s0.4,0,0.5,0c0.1,0,0.5,0,0.5,0
	s1,0,1.8-0.7c0.8-0.7,1.5-1.8,1.9-3.1c0.4-1.3,0.6-2.7,0.7-3.4c0.1-0.8,0.2-3.9,0.2-4.6s0-6.1,0-6.1S98.2,49.3,98.2,48.7z
	 M72.2,21.5v-5.1h-5.6h-0.7h-5.7h-0.7h-8v5.1c0,0,3.1,0,4.3,1c1.1,0.9,2,2.7,2.1,4.6v19.4c-5.6-7-13.5-15.6-23.5-30l-0.2,0.2v-0.2
	h-23v5c0,0,0.4,0,0.9,0c2.1,0.5,3.9,2.8,5,4.5v8.3h0v31.9c0,0.8-0.2,2.2-0.9,3.1c-1,1.2-2.8,1.9-3.3,2c-0.5,0.1-2,0.1-2,0.1v5.1H17
	h1.2h3.8h2.6h9.4v-5.1h-1.2c0,0-2.3,0-4.8-0.9c-2-0.8-2.8-2.8-3-5.1V33.4l25.7,32.9c2,2.4,7.9,10.2,11.1,10.2h3.9l0-0.1l0.1,0.1V27
	c0.1-1.9,1-3.6,2.1-4.6C69,21.5,72.2,21.5,72.2,21.5z"/>
</svg>
