<?xml version="1.0" encoding="utf-8"?>
<!-- Generator: Adobe Illustrator 27.6.1, SVG Export Plug-In . SVG Version: 6.00 Build 0)  -->
<svg version="1.1" id="레이어_1" xmlns="http://www.w3.org/2000/svg" xmlns:xlink="http://www.w3.org/1999/xlink" x="0px"
	 y="0px" viewBox="0 0 256 256" style="enable-background:new 0 0 256 256;" xml:space="preserve">
<style type="text/css">
	.st0{fill:#D8EDFF;}
	.st1{fill:#B0CDB3;}
	.st2{fill:#FFFFFF;}
	.st3{fill:none;stroke:#000000;stroke-width:4;stroke-miterlimit:10;}
</style>
<rect y="0" class="st0" width="256" height="256"/>
<g id="레이어_3">
	<g id="레이어_2_00000028294748792410720060000002976314615636819873_">
		<g>
			<path class="st1" d="M187.4,127.6c4.9-6.6,6.9-17.6,3.4-25.4c-8.6-12.3-26.3-21.1-40.4-12.1c-10.9,8.1-17.9,20-23.3,32.2
				c-14.1,24.5-16.6,5.7-25.9,12.8c-9.5,9-3.4,29,10.7,28c4.1,4.5,8,8.1,7.7,14.2c-2,2.9-3.3,6.2-4.1,9.7c-8.4,0-15.8-0.8-24,0.4
				c-10.6,0.7-21.4-7.1-30.7,2c-24.1,11.6-39.4-12.9-60.7-8.9L0,156.2c8.4-7.9,18.7-8.3,29-10.5c-10.3-0.8-19.7-6-29-10.7v-29.2
				c58.9-0.3,73.4-53,136.6-51.7c24.3-0.1,52.2,9.1,65.8,30.3c9.3,16.7,7.6,41.1-8.4,53c-1.6-0.2-2.6,1.3-4,1.5
				C186.6,137.2,188.2,131,187.4,127.6z"/>
		</g>
	</g>
</g>
<g id="레이어_6">
	<g id="레이어_2_00000139256085607937513030000000282889613418606210_">
		<g>
			<path class="st2" d="M112.1,103.5c-7.1,17.8-32.1,3.5-23.6-7C68.2,87.2,88.1,61,98.6,80c-1.7-4,2-8.8,6.3-9.5
				c8.7-1.7,19.9,11.1,12.2,18.3c4.9,0.3,15.2,4.3,10.5,10.4C124.9,105.2,117.2,109.1,112.1,103.5z"/>
		</g>
	</g>
</g>
<g id="레이어_7">
	<g id="레이어_2_00000080196761570388566330000001749551703432161971_">
		<g>
			<path class="st0" d="M106.8,93.5c1.4-7.5-11.1-8.1-6.8,0.1C101.6,96,105.8,96.9,106.8,93.5z"/>
		</g>
	</g>
</g>
<g id="레이어_5">
	<g id="레이어_2_00000020384734703363687160000000217930948462059710_">
		<g>
			<path class="st2" d="M65.6,186.4c-10.8,8.7-26,2.9-38.6,7.5c-1.9,17.3-3.4,35.2,0.7,52.1c6.1-0.5,13.8,2,19.8,3.4v6.5l132.5-0.2
				c-13.1-13.5-7.1-40.2-26-48.7c-1.8-0.6-3.4-1.1-5.3-1.4c-1.1,0.2-0.8,0.9-1.1,2c-1.5,4.8-3.5,8.4-4.5,13.4
				c-8.8-9.8-23.5-25.2-32.9-34.5c-1.4-1.4-7.1,0.6-8.8,0.7c-6.1,0.4-12.6,0.8-18.6-0.6C77,185.4,71.2,183.3,65.6,186.4z"/>
		</g>
	</g>
</g>
<g id="레이어_4">
	<g id="레이어_2_00000183964856487068265650000006652632602847721614_">
		<g>
			<path class="st2" d="M0.2,204.3c8.5-1.2,17.2,0.4,25.7,0.6c-1,11.2-1.3,22.5,0.3,33.5c-8.2-3.4-17.6-3.6-26.2-1L0.2,204.3z"/>
			<path class="st2" d="M115,191.3c9.1,9.2,20.8,21.5,28.2,29.8c1.9-10.4,8.3-19.1,14.5-27.4c3.8-3.1,9.7-2.6,13.7-5.7
				c14.4-8.4,21.6-26.3,19-42.5c-1-6.5-3.4-11.2-3.1-17.8c4.9-6.6,6.9-17.6,3.4-25.4c-8.6-12.3-26.3-21.1-40.4-12.1
				c-10.9,8.1-17.9,20-23.3,32.2c-14.1,24.5-16.6,5.7-25.9,12.8c-9.5,9-3.4,29,10.7,28c4.1,4.5,8,8.1,7.7,14.2
				C116.9,181.4,115.5,186.4,115,191.3z"/>
		</g>
	</g>
</g>
<path id="레이어_2_00000023971850185667337430000001022969926362568584_" class="st3" d="M145.4,223.3c3.3,3.5,6.5,7.1,9.5,10.9
	c1.1-9.7-0.6-19.7-4.9-28.6 M91.6,187.5c-9,1.3-17.2-5.9-26-1.1c-1.6,0.9-3.1,2.2-4.7,3.1c-4,2.2-8.8,1.9-13.4,1.9
	c-6.9,0-13.8,0.9-20.5,2.6c-1.9,17.3-3.4,35.2,0.7,52.1c6.1-0.5,13.8,2,19.8,3.4 M40.4,196.3c-1.5,12.7-1.9,25.5-1.3,38.2
	 M23.2,204.9c-7.6-0.7-15.4-1.5-23-0.6 M0,237.4c7.5-2.1,15.6-2.6,23,0 M154.1,207.1c7.8,3.1,12.1,11.4,14.3,19.5
	c2.3,8.1,3.3,16.6,7.7,23.8c1.2,1.9,2.6,3.7,3.9,5.5 M138.2,240.5c-0.7,5.3-1.9,10.5-3.4,15.5 M115.6,187.1c0.7-3.5,2.1-6.8,4.1-9.7
	 M135.4,222.6c-6.7,2.4-12.8,6.2-17.9,11c-4.4-15.6-9.6-30.9-15.7-46c2.7-1.1,5.6-1.4,8.5-1.1c9.5,9.2,24.1,24.6,32.9,34.5
	c0.9-5,2.9-8.5,4.5-13.4c3.2-4.2,6.8-9.9,10-14.1 M140.7,189.6c29.3,11.9,54.2-15.4,49.7-44.2 M191.4,103c2.6,8.2,1,17.7-4.1,24.7
	 M0,135c9.3,4.7,18.6,9.9,29,10.7 M202.4,84.4c-3.9-6.9-10-12.4-16.7-16.6s-14.1-7.1-21.6-9.8c-8.6-3.1-18.4-4-27.6-3.9
	c-15.6,0.1-31.1,3.5-45.4,9.8c-13.6,6-22.9,13.8-34.6,22.6C43.2,96.6,27.1,103.1,10.4,105c-3.5,0.4-6.9,0.6-10.4,0.8 M0.2,180.6
	c7.7-1.4,15.9,0.2,22.5,4.4 M22.6,147.2c-8.3-0.2-16,3.6-22.6,9 M179.6,92.2c-2.1-2-4.5-3.8-7.2-4.7c-7.2-2.5-15.5-1.5-21.9,2.6
	c-8.3,5.3-12.8,14.9-19.6,21.9c-12.9,13.3-32.7,16.7-51.2,17.7c-6.1,0.3-12.6,0.4-17.9-2.6 M141.7,114.8c5.8-1.4,12-1.1,17.7,0.9
	 M181.4,119.8c1.3-0.3,2.6,0.1,3.8,0.4c2.9,0.8,5.7,1.9,8.4,3.2 M170.5,140.6c0.6,1.8,1.4,3.4,2.5,5c0.4,0.7,0.9,1.3,1.1,2.1
	c0.3,1.5-0.7,2.9-1.7,4c-0.5,0.6-1.1,1.2-1.7,1.7 M181.5,139.4c-0.9-0.1-1.9,0.8-1.8,1.7s1,1.7,1.9,1.7c0.9-0.1,1.8-0.9,1.8-1.9
	c0-0.1,0-0.3-0.1-0.4c-0.1-0.1-0.2-0.1-0.4-0.1c-0.6-0.1-1.2-0.2-1.7,0.1s-0.8,1-0.4,1.4c0.6,0.2,1.3-0.4,1.1-1 M140.4,136.6
	c-0.4,0.6-0.8,1.2-0.9,1.9s0.5,1.5,1.2,1.5c0.3,0,0.6-0.2,0.8-0.3c0.3-0.2,0.6-0.4,0.8-0.8c0.3-0.6-0.1-1.3-0.7-1.6
	c-0.6-0.3-1.3-0.3-1.9-0.3c-0.5,0-1,0-1.3,0.4c-0.3,0.5,0,1.1,0.5,1.3s1.1,0.1,1.6,0 M108.1,133.7c-2.3-0.9-5-0.2-6.9,1.4
	c-1.9,1.6-3,3.9-3.7,6.3c-1.4,4.9-1,10.4,1.6,14.8c2.7,4.4,7.7,7.3,12.8,7 M127.1,122.3c-1.2,2.4-2.6,4.7-4.3,6.8
	c-2.3,2.9-5.3,5.6-8.9,6.3 M167.1,164.4c-2.5,0-5.1,0-7.6,0c0.5,1,1,2.1,1.9,2.8s2.3,0.9,3.2,0.2 M188.6,96.4c8.4-6.1,16-2.7,18.5,7
	c1.6,6.2,0.9,12.9-1.5,18.9c-2.4,5.9-6.6,11.1-11.5,15.2 M112.1,103.5c-2.4,4-5.4,8.4-10,8.7c-1.7,0.1-3.3-0.4-4.9-0.9
	c-3.3-1.1-6.7-2.6-8.7-5.4s-2.4-7.1,0.1-9.5c-2.1-0.8-4.1-2.6-5.6-4.2c-2.8-3-4-7.6-2.7-11.5s5-7,9.1-7.3s8.3,2.6,9.4,6.5
	c-1.7-4,2-8.8,6.3-9.5s8.6,1.6,11.5,4.9c1.6,1.9,3,4.2,3.3,6.7s-0.5,5.2-2.5,6.7c3.2,0.2,6.6,1.5,9.2,3.4c1.3,0.9,2.6,2.3,2.6,3.9
	c0,1.2-0.7,2.2-1.3,3.1c-1.6,2.4-3.4,5-5.9,6.4C119.1,107,113.9,105.9,112.1,103.5z M104,95.4c1.2,0.3,2.5-0.7,2.8-1.9
	c0.4-1.2,0-2.5-0.6-3.6c-1.2-1.9-3.6-3.2-5.6-2.3s-2.2,4.5,0,5.1"/>
</svg>
