<?xml version="1.0" encoding="utf-8"?>
<!-- Generator: Adobe Illustrator 27.6.1, SVG Export Plug-In . SVG Version: 6.00 Build 0)  -->
<svg version="1.1" xmlns="http://www.w3.org/2000/svg" xmlns:xlink="http://www.w3.org/1999/xlink" x="0px" y="0px"
	 viewBox="0 0 256 256" style="enable-background:new 0 0 256 256;" xml:space="preserve">
<style type="text/css">
	.st0{fill:#FFD5CF;}
	.st1{fill:#B09373;}
	.st2{fill:#DDD9D7;}
	.st3{fill:#F4ECE9;}
	.st4{fill:#FFFFFF;}
	.st5{fill:#B0CDB4;}
	.st6{fill:#4E4228;}
	.st7{fill:#FFA485;}
	.st8{fill:#FFE266;}
	.st9{fill:none;stroke:#000000;stroke-width:0.8;stroke-linecap:round;stroke-linejoin:round;stroke-miterlimit:10;}
</style>
<g id="skin">
	<path class="st0" d="M153.5,101.2c0.2-0.1,0.3-0.4,0.1-0.6c0.3-1.4,2.3-1.1,2.8,0c1.1,1.3,1.1-1.4,1.6-1.9c0.8,0,1.5-0.1,2.2-0.3
		c3.4,2.1,7.2-0.9,7.6-4.4c1.4,1.8-1.5,4.8,0.5,5.8c0.2,3.6-0.4,8.3-4.7,8.9c-0.1,0.6-0.1,1.3-0.1,1.9c-0.6-0.2-1,0.6-1.1,1
		c-2.1-0.6-4.1-1.4-6-2.5c0-0.9,0.2-1.7,0.6-2.5C155.5,105.2,153.5,103.4,153.5,101.2z M143.9,119.9c-0.8-1-1.8-2-2.2-3.2
		c-0.2-0.2-0.3-0.4-0.3-0.6c-3,2.6-4.8,6.6-5.7,10.3c-1.3,0.1-2.6,0.8-3.2,2c-2.1-1.8-3.8-4-5.6-6c-0.6,1.5-2,2.5-3.4,3.1
		c1,5.2,13.2,10.4,16.6,5.4c2.3-0.5,1.2-3.2-0.5-3.8c0.8-2.7,2.8-4.9,5.3-6.2C144.5,120.6,144.2,120.3,143.9,119.9z M91.5,124
		c1.3-4.5,6.8-7.6,11.5-6.7c0-1.3-0.1-2.7,0.3-4c-0.1-0.2-0.1-0.5-0.1-0.7c-4.8-1.1-9.6,1.8-12.6,5.5
		C82.1,115.8,84.7,128.2,91.5,124z M128.5,98.9c-0.1-0.7-0.1-1.5-0.6-2.1c-1.5-0.9-2.9-2-4.8-1.8c-3.6,1.5-3.3,8-7.7,7.5
		c-1.8-0.1-1.6,2.2-1.2,3.4c0.3,0.2,0.7,0.4,1,0.5c2.1,0.3,2.7,1.6,1.2,3.1c0,0,0,0,0.1,0c0.5,1.4,1.6,2.3,2.5,3.5
		c0.8,0.2,0.9,1.1,1.5,1.5c0.2-0.1,0.4-0.2,0.5-0.3c0.1-0.4,0.3-0.8,0.6-1c0.3-0.7,0.5-1.5,0.9-2.1c4,0,6.4-4.1,5.6-7.7
		c-0.5-0.5-0.3-1.6-0.2-2.2c0-0.1,0-0.2,0-0.3C128.3,100.2,128.6,99.6,128.5,98.9z M111.6,143.3c-2.6,0.9-5.6,2.5-8.4,1.5
		c-0.3,0.3-0.5,0.8-0.9,1c-0.2,0.4-0.4,0.8-0.6,1.2c-0.5,0.7-1.2,1.3-1.9,1.6c0.6,0.8-0.1,1.8,0.1,2.8c-0.1,0.9,0.7,1.9,0.1,2.7
		C106.5,155.8,112.5,149.8,111.6,143.3z M121.8,152.6c1.1-1.1,3.6-3,4.9-1.3c-0.2-1.5-1.2-2.8-1.6-4.2c-0.2,0-0.5-0.1-0.6-0.3
		c0-1.6-1.1-3.2-1.2-4.7c-0.3-0.6-0.7-1.2-1-1.9c-1.5-0.4-2.7,0.8-4.1,0.7c-1.8,0.8-3.7,1.3-5.5,2c3.9,2.8,5.4,7.5,7.8,11.3
		C120.9,153.6,121.4,153.1,121.8,152.6z M192.2,110.2c-0.4-2-2.9-4.2-4.7-2.3c-1.5-4.3-4.3,1.1-3.4,3.4c-3,1.6-6.6,2.2-10,1.9
		c0.6,2.1-0.5,4.5-1,6.6c4.8,0.1,9.9-1.6,13.3-5.1C188.9,114.8,192.9,113.3,192.2,110.2z M75.3,163.3c-0.9-0.6-2.1-0.4-3.1-0.4
		c-0.4-0.7-0.6-1.5-0.8-2.2c-1,0.1-7-3.7-4-3.6c0.7,0.7,2,0.9,3,0.6c0-0.1-0.1-0.2-0.1-0.3c2.4-1.1,0.5-2.3,0-3.7
		c-0.4-1.3-1.7-1.3-2.4-2.2c-2.3,0.1-0.8-2.5,0.4-3.1c0,0,0-0.1,0-0.1c1.3-1.6,3.2-3,3.9-5c0-0.1-0.1-0.1-0.1-0.2
		c0.1-0.4,0-0.8-0.1-1.2c-1-1.4,0-3-0.2-4.6c-0.1-0.1-0.2-0.2-0.3-0.4c-1,0.7-2.4,0.8-3.5,0.4c-1.2,1.2-2.8,1.9-4.5,1.8
		c-1.1,1.7-3,3.5-5.2,3c-0.5,0.8-0.9,2.3,0.2,2.8c0,0,0,0,0,0c0.3,0.1,0.4,0.4,0.3,0.6c4,2.2-1.1,7.4,1.1,10.9
		c-1.3,1.7-0.8,3.9,0.5,5.4c-9,5.3,5.7,14.2,3.7,2.2c2.3,1.5,4.3,3.4,6.7,4.6C73.3,169.6,78.1,165.7,75.3,163.3z M47.8,151.3
		c-1.3-1.9-4.1-1.4-6-2.5c-1.3-0.4-1.9-1.5-2.6-2.7c1-1.5,2-3,2.2-5c-1.2,0.2-1.4-1.3-1.1-2.2c-0.2-0.5-0.2-1.1-0.2-1.6
		c-1-0.1-1.8-0.7-2.4-1.5c-0.1,0-0.2,0-0.3-0.1c-1.2,1.7-3,3.4-5.2,3.2c-0.7,0.9-1.6,1.7-2.7,2.1c-0.5,1-1.8,0.8-2.7,1.2
		c0,0,0,0,0,0c-0.5,1.5,0.3,2.8,1.6,3.3c0,0,0,0,0,0c0,0,0.1,0.1,0.1,0.1c0.2,0,0.5,0.1,0.7-0.1l0,0c1.6-0.4,0.5,1.6-0.7,1
		c-0.2,0.4-0.7,0.6-1.1,0.4c-0.7,2.8-11.9,6.7-6.5,8.7c0.5,0.5,1.2,0.3,1.9,0.4c0.1,1.6,2.5-0.7,2.8-1.3c1.2-1.2,2.6-2.2,3.8-3.4
		c-0.6,3.2-2.1,6.8-0.3,9.8c-1,2-3.8,3.7-2.4,6.2c2.2,3.9,7.3,3.4,5.8-1.8c0.3-0.3,0.6-0.5,0.9-0.8c0.2,0.1,0.5,0.3,0.7,0.3
		c2.5,1.2,4,4.9,7.2,4.3c1.7-0.7,5.4-3.6,3.2-5.5c-0.8-0.5-1.9-1-2.6-0.2c-1.1-0.9-2.1-2.1-3.1-3.1c1.1-2.6,1.6-5,1.5-7.8
		C42.7,154.4,49.4,156.4,47.8,151.3z M203.6,164.6c-0.7-0.5-1.6-0.4-2.3,0.1c-3.7-4.1-1.8-2.8-2.1-7.7c-0.8,2.6-4.7,3.1-3.7-0.4
		c0-0.3,0.4-0.5,0.7-0.3c0.9-0.4,1.7-1.2,2-2.2c-0.9-1.8,1-3.9-2.4-3.1c-2.4,1.5,0-5.3,2.2-4.3c0.9-1.1,1.3-2.4,1.6-3.8
		c-0.2-1.6,0.6-3.5,0.3-5.3c-1,0.1-2.1-0.2-2.7-0.9c-0.1,0.1-0.3,0.3-0.5,0.3c0,0.1,0,0.2,0,0.3c-1.6,1.1-3.5,1.8-5.4,1.2
		c-1.5,1.4-3.3,2.4-5.2,2.2c-0.1,0.1-0.1,0.2-0.2,0.2c-0.9,2,1,3.1,2.1,4.2c0.1,0.1,0.3,0.2,0.4,0.3c-0.1,0.1,0.7,0.9,0.9,1.1
		c-2.3,1.6-2.4,4.6-2.2,7.1c-1.6,2.4-1.2,5.8,0.5,7.7c-9.2,6.3,6,14.2,2.9,3.2c0.1-0.3,0.1-0.6,0.2-0.8c3.4,1.6,5.5,5.2,9,6.5
		C202.5,170.8,206.5,166.8,203.6,164.6z M223.6,164.4c0.1,0.1,0.2,0.1,0.2,0.1C223.7,164.4,223.7,164.4,223.6,164.4z M230.8,153.4
		c0.1,1.4-0.3,2.8-0.8,4.3c0.3,0.9-0.1,1.9-0.5,2.7c0.9,0.9,1.9,1.9,2.8,2.8c5.2-0.9,2.8,4.9-0.4,5.9c-3.6,0.6-5.1-4.1-8.4-4.8
		c0,0,0,0,0.1,0c-0.3-0.1-0.6-0.2-0.9-0.2c3.5,11.4-10.3,3.6-4.5-0.8c0.2-0.7,0.7-1.3,1.3-1.9c-1.1-1.4-1.5-3.5-0.5-5.4
		c-1.3-3,0.3-7.7,1.8-10c-0.7-0.5-1.9-0.5-2.8-1.5c-0.4-0.8-1.3-1.5-1.2-2.6c1.4-0.7,2.3-1.8,3.1-3.1c1.1-0.3,2.1-1,2.9-1.7
		c0.4,2.4,3.3,2.2,3.8-0.1c0,0,0,0,0,0c0.2-0.3,0.3-0.6,0.4-1c1.2,0.6,2.9,0.7,4.1-0.1c-0.1,0.9,0.5,1.7,0.3,2.6
		c-0.4,0.9-0.7,2.5-0.4,3.4c-0.1,0.3-0.1,0.5-0.2,0.8c0.4,0.1,0.8,0.2,1.1,0.4c-0.8,0.1,0.3,0.9,0.3,0.9c0.1,0,0.3,0,0.4,0
		c-0.1,0.9,1.1,0.8,1.6,0.7c0.6,0.5,1.5,0.7,2.2,1.1c0,0.5-0.1,0.9-0.4,1.4C235.2,149.8,232.1,151.2,230.8,153.4z M228,143.7
		c-0.7,2,1.4,1.2,1.9,0.1C230,142.8,228.3,143,228,143.7z M206.3,149.1c-0.4-0.2-0.8-0.2-1.2-0.1c0.4,1.7,0,3.5-0.2,5.3
		C207,154.1,208.3,150.3,206.3,149.1z"/>
</g>
<g id="clothes">
	<path class="st1" d="M175.6,150.3c0.7-8.4-7.6-14.1-10-21.5c-2.5,1.5-6.5,0.8-9.2,0c-2,0.5-4.1,1-5.8-0.5c-0.3,0.3-0.5,0.6-0.7,1
		c0,0,0,0,0,0c-1.2,4.1-0.6,8.6-1.1,12.9c-0.8,0.6-1.4,1.7-0.5,2.5c-8.9,4.1-10.7,2.1-6.1,12.3c1.1,1.4,2.9-0.8,4.2-1.2
		c4.2-1.9,11.4-2.1,11.4-8.2c1.4-1.3,1.5-3.7,2-5.5c0,0,0,0,0,0c1.3,1.1,2.5,2.3,3.7,3.5c-1.1,1.2,0.4,2.3,1.5,2.7
		c0,0.1-0.1,0.2,0,0.3c-1.3,2.3,0.7,5.9,0.6,8.6c-0.3,2.9,6.5,1.8,8.2,1.1c2.3-0.6,1.6-2.5,1.3-4.2
		C175.6,153,175.3,151.5,175.6,150.3z"/>
	<path class="st2" d="M102.7,144.9c-0.3-0.9-1.6-0.8-2.2-1.5c-3.5-3-4.2-7.7-6.7-11.3c-2.9-3.7-6.9-1.4-4.1,2.5
		c1.9,4.4,5.6,9.1,10.2,10.6c0.1,0.1,0.2,0.2,0.3,0.2C100.9,146,102.9,146.3,102.7,144.9z M126.4,142.2c-0.5-0.7-3.1-2.5-3.3-0.9
		c0.7,1.7,0.5,4,1.7,5.5C126.6,146.8,127.5,143.5,126.4,142.2z"/>
	<path class="st3" d="M126.1,119.7c0-2.4-3.9-10.7-5.1-4.8c-0.9-0.4-1.1-1.6-2.1-1.9c-0.8-1.2-1.9-2.1-2.5-3.5
		c-2.3,0.9-4.7-0.6-7.1-0.4c-2.1,1.8-7.4,0-6.1,4.3c-0.7,4.3-0.9,5,3.5,6.1c0,0,0.1,0,0.1,0c0,0,0,0,0,0c0.4,0.2,0.8,0.4,1.2,0.6
		c-0.2,0.6-0.7,1.2-0.7,1.8c0.2,0.3,0.3,0.6,0.4,1c-1.3,1.5-23.4,6.3-15.5,7.5c3.9,3.1,4.5,8.3,7.8,11.8c5.6,6.7,14.6-1.7,21.5-1.9
		c0.9,0.5,2.2,0,3.3,0.6c2.3,0.2-2.9-3.8-3.3-4.5c-0.1-3.3-1.4-6.8-0.2-10C123.9,126,129.4,122.3,126.1,119.7z"/>
	<path class="st1" d="M95.6,153.3c-0.2,8.2-10.1,13.1-6.8,1.4c-0.6-3,2.5-7.5,5.7-6.8c0.7-0.1,1.4,0.2,1.7,0.8
		c-1.3,0.6-1.1,2.3-1,3.5C95.2,152.7,95.4,153,95.6,153.3z M138.9,156.7c-0.8-0.6-1.1-1.7-1.3-2.6c-0.4-0.5-0.3-1.4-0.1-2
		c-0.3-1.4-2.2-2-3.4-2.1c-3.1,0.2-2.6,4-2.8,6.2c-8.4,2.2-7.9,17.1,2.9,7.1c1.5,1.9,5.3,3.2,4.6-0.6c-0.6-2,0.9-3.9,0.5-5.9
		C139.2,156.8,139.1,156.8,138.9,156.7z M182.5,165.3c-1.1-0.5-2.4-0.7-3.6-1c-1-1.4-3.4-2.3-5.1-2.7c-1.6,0.4-2.9,1.5-4.5,1.8
		c-2.6-1.9-4.8,8.3,2.4,6.4C174.3,170.5,185.5,169.8,182.5,165.3z"/>
</g>
<g id="white">
	<path class="st4" d="M173.3,119.4c-0.4,2.6-2.9,2.4-4.9,2.1c-1.3,0.9-1.3,2.7-2.4,3.7c-0.2,1.6,0.8,4.2-1.8,4.3
		c-2.6,0-5.3,0.3-7.7-0.7c-3.1,1.8-9.7-1.2-6.4-4.9c-0.2-1-0.1-2-0.3-3c-0.1,0-0.1-0.2-0.2-0.3c-3.3,3-6.6-1-8-3.9
		c-1.9-4.1,7.2-6.3,10.1-6.8c3.7-2.3,7,0.9,10.6,1.7c0.3-2,2.6-0.5,3.9-0.3c2.5,0.4,5.6,0.1,7.6,1.7
		C175,114.9,173.7,117.4,173.3,119.4z M127.3,152.5c-0.9-4.6-9.1,1.1-5.8,3.7c1.1,1.4,1.8,7.9,4.2,5.9
		C127.6,159,129.4,155.9,127.3,152.5z M97.8,154.1c-1.8,0.3-3-1.3-2.8-3.1c-0.5-2.5,3.2-3.3,4.8-2.3c0.5,1.4-0.3,3,0.4,4.5
		C100.5,154.8,98.8,154.4,97.8,154.1z M58.7,153.4c0.3-0.1,0.5-0.2,0.7-0.4c-0.1-2.4,2.5-6.1-0.6-7.4c0,0,0,0,0,0
		c-0.1,0-0.1,0-0.2,0c-0.2,0.3-0.6,0.3-0.9,0.1c-1.7,0.8-4.2-0.8-5.4,0.9c-0.4,0.9,0.4,1.4,1,1.9c0,0.1,0.1,0.2,0.1,0.3
		c-0.7,2.3-0.2,3.6,2.3,2.6C55.4,152.9,57.3,154.4,58.7,153.4z M22.4,149.2c-0.2,0.8-0.6,1.8-0.2,2.5c1.9-1.2,3.7-2.5,5-4.4
		C25.7,145.5,17.6,146.5,22.4,149.2z M186.7,154.3c0.1-0.3,0.3-0.6,0.5-0.9c-0.1-2-0.2-4.1,0.9-5.8c-0.9-0.8-2.2-0.3-3.1,0
		c-4.6-1.6-7.3,4-1.4,4.1C180.4,153.9,184.7,155.6,186.7,154.3z M217.9,153.7c0.3-0.1,0.5-0.3,0.7-0.5c0.1-2.1,0.9-4.4,1.6-6
		c-2.3-0.7-4.8-1.9-7.2-1.3c-1-0.3-1.7,1.1-0.9,1.8c0.1,0.4,0.5,0.6,0.8,0.8c-0.9,1.3-0.2,4.3,1.9,3.1
		C214.6,153.3,216.6,154.2,217.9,153.7z M141.7,156c-0.6-1.5-0.5-4.4-2-5.1c-1.6,0.3-3.1,1.6-2.1,3.2c0.2,0.9,0.5,2,1.3,2.6
		C139.7,156.8,141.7,157.1,141.7,156z M173.6,158.8c-0.7-1.2-3.7,0.8-5.2,0.1c-1.2,0.4-0.4,2.5-0.2,3.4
		C170.3,164.2,174.5,161.6,173.6,158.8z M70.4,153.4c0.5-0.8,1.6-2.7,2.7-1.8c0.1,1.2-1.1,2.6-2,3.4c-0.1,0-0.1,0-0.2,0
		c1.6,2.2-1.5,3.7-3.4,2.4c-4.3-1.5,5,6.6,9.3,3c7.8-2.4,6.3-11.8-0.9-13.8c-5.3-0.3-12.4,3.1-8.2,4.8
		C68.4,152.3,69.6,152.6,70.4,153.4L70.4,153.4z"/>
</g>
<g id="hair">
	<path class="st5" d="M201.6,139c0.5,1.5,0,3.8-1.8,4c-0.6-1.2,0.5-3.8,0.4-5.4c-1,0.2-2.2-0.1-3-0.9c-0.1,0.1-0.3,0.3-0.5,0.3
		c0,0.1,0,0.2,0,0.3c-1.6,1.1-3.5,1.8-5.4,1.2c-1.5,1.4-3.3,2.4-5.2,2.2c-2.9,3,5.1,4.7,0.4,5.2c-2.5,0.3-4.1-2.5-3.2-4.7
		c-0.7-0.8-0.4-2.4,0.3-3.1c0-0.3,0-0.7,0-1c-1.7-3.6,2.7-8.2,6.2-7c1.9-3.7,7.7-2.5,9,1.1c1.6-0.2,3.2,1,3.8,2.4
		C203.6,135.4,203.1,137.7,201.6,139z M233,135.9c1.8-2.7-1-6.2-3.9-6.6c-1.5-3.7-6.6-3-8.2,0.3c-3.7-1-9,3.8-6.3,7.5
		c-0.1,0.5,0.1,1.1,0.4,1.5c-0.2,1.1-0.4,2.5,0.4,3.3c-0.4,1.1,2.8,4.9,2.6,2.5c-0.6-0.6-1.1-1.4-1.1-2.2c1.4-0.7,2.3-1.8,3.1-3.2
		c1.1-0.3,2.1-1,2.9-1.7c0.4,2.4,3.4,2.2,3.8-0.1c0,0,0,0,0,0c0.2-0.3,0.3-0.6,0.4-1c1.2,0.6,2.9,0.7,4.1-0.1
		c-0.1,0.8,0.5,1.7,0.4,2.6c-0.7,0.7-0.3,2-0.6,2.9c-0.1,0.2,0,0.5,0.2,0.6c1.1,0.4,1.8-1,1.9-1.9C234,139.2,233.3,137.2,233,135.9z
		 M73.8,134.7c-0.1-0.9-0.4-1.9-1.1-2.5c-0.6-1.1-1.7-1.8-2.8-2.2c-1.6-3.6-7.3-2.9-9.1,0.1c-4.5-0.5-8.5,4.9-5.2,8.6
		c-0.4,1.1-0.4,2.4-0.1,3.6c-0.2,0.7,0.3,2.1,1.1,2.2c0.3,1.1,3.1,1.7,1.8,0.2c0,0,0,0,0,0c-0.3-0.1-0.6-0.4-0.8-0.7
		c0.3-0.7,0.1-1.5,0.6-2.1c2.2,0.6,4.1-1.3,5.2-3c1.7,0,3.3-0.6,4.5-1.8c1.1,0.4,2.5,0.3,3.5-0.4c0.1,0.1,0.2,0.3,0.3,0.4
		c0.2,1.1-1.2,4.9,0.8,4.5C74.1,139.9,73,137,73.8,134.7z M42.7,134.2c-0.1-2.2-2.2-4-4.4-3.7c-1.8-3.8-8-2.8-10,0.4
		c-4.2-0.1-6.3,5.3-4.4,8.5c-0.6,1.6-0.6,3.8,0.6,5.1c0.1,1.5,2.6,3.6,3.9,2.3c1.2,0.5,2.3-1.5,0.7-1l0,0c-0.2,0.1-0.5,0.1-0.7,0.1
		c-1.6-1.3-2.3-0.6-1.9-3.3c0,0.2,0,0,0.1-0.1c0,0,0.2-0.1,0.2-0.1c0.9-0.3,2.2-0.2,2.7-1.2c1.1-0.4,2-1.2,2.7-2.1
		c2.3,0.2,4-1.5,5.2-3.2c0.1,0,0.2,0,0.3,0.1c0.6,0.8,1.5,1.3,2.4,1.5c0,0.5,0,1.1,0.2,1.6c-0.6,3.7,3.4,2.7,1.7-2.1
		C42.9,136.3,42.8,135.1,42.7,134.2z"/>
	<path class="st6" d="M130.5,95.7c-0.6-1.8-2.2-3.4-4.1-3.9c-7.5-4.8-15.5,1.4-21.8,5.3c-3.8,2-15.5-0.5-13.7,6.2c0,0.1,0,0.3,0,0.4
		c0,0,0,0,0,0c0.3,1.1,1.3,0.2,1-0.7c0.1-0.1,0.1-0.2,0.2-0.3c0.7-0.1,0.6-0.9,1-1.4c3.6-0.6,6.4,1.3,9.8,2.3c0,0.2-0.1,0.3-0.1,0.5
		c-0.8,0-1.7,0.2-2.4,0.6c-2.3,0.5-4,2.9-3.8,5.2c0.1,1,1.7,0.3,1.1-0.5c0.1-0.3,0.3-0.5,0.5-0.7c5.3-1,5.4,3.6,11.2,0.2
		c2-0.3,4,1.2,5.8,0.6c1.4,0.4,2.2-0.9,2-2.2c-0.1-0.9-1.4-0.7-2-1.1c-0.2-0.1-0.7-0.3-1-0.5c-0.4-0.8-0.2-1.6-0.3-2.4
		c0.3-0.5,0.6-1,1.2-1c4.6,0.8,4.3-5.9,8-7.5c1.8-0.2,3.3,1,4.8,1.8c1.5,2-0.3,4-0.1,6c1,1.7,3.2-2.4,2.8-3.6
		C131.6,98.3,130.7,96.8,130.5,95.7z M118.4,97.3c-0.5,0.8-1.5,0.7-2.3,0.6c-0.7,2.1-4.2,1-3.3-1.1c-2.2-0.9-1.2-4.6,1.2-3.1
		c0.9-1.8,4.3-0.2,3.5,1.7c0.1,0.1,0.2,0.3,0.3,0.4C118.4,95.9,118.8,96.7,118.4,97.3z M167.6,98.4c0.6-1.5,0.9-3.1,0.3-4.6
		c-0.4,3.5-4.2,6.5-7.6,4.4c-0.7,0.2-1.5,0.3-2.2,0.3c-0.5,0.6-0.5,3.3-1.6,1.9c-0.5-1.1-2.4-1.4-2.8-0.1c-0.4,3-2.6-3.2-1.9-4.1
		c-1.4-5.5,5.5-9.2,10.2-7.7c2.2-1.1,5.8-0.7,6.5,2.1c1.8,0.7,2.9,2.8,3.3,4.6C172.8,97.7,168.1,101.9,167.6,98.4z"/>
</g>
<g id="primary">
	<path class="st7" d="M116.1,97.9c-0.7,2.1-4.2,1-3.3-1.1c-2.2-0.9-1.2-4.6,1.2-3.1c0.9-1.8,4.3-0.2,3.5,1.7
		c0.1,0.1,0.2,0.3,0.3,0.4c0.2,0.1,0.3,0.1,0.5,0.3C119.5,97.4,117.3,98.4,116.1,97.9z M192.2,99.2c-0.5,1.9-3.4,1.8-3.7-0.2
		c-0.1,0-0.2-0.1-0.3-0.1c-1.9,0.9-2.1-2.4-0.2-2.4c0.4-1.9,3.2-3,4-0.9c0,0,0.1,0,0.1,0C194.7,95.5,195,99.9,192.2,99.2z
		 M195.5,94.2c-0.8,1.4-3.1,0.7-2.8-1c-1.6-0.7-0.6-3.4,1-2.6c0.9-1.3,3.5-0.4,3.2,1.3C198.9,92.6,197.2,95,195.5,94.2z M201.7,96.3
		c-0.2-0.9-1.2-1.4-2.1-1.1c1-3.4-3.6-0.8-3,1.4C196.8,99.2,202.2,99.2,201.7,96.3z M193.6,102.8
		C193.6,102.9,193.6,102.9,193.6,102.8C193.6,102.9,193.6,102.9,193.6,102.8z M200.1,103c-0.2-0.9-0.8-1.7-1.7-1.8
		c1.1-2-2.2-4-3.1-1.6c-1.6-0.9-4.8,1.7-2.4,2.6c0.1,0.3,0.4,0.4,0.7,0.6c0,0,0.1,0,0.1,0c0,0,0,0,0,0c0,0,0.1,0.1,0.1,0.1
		c0,0,0,0.1,0,0.1c-0.6,2,2.2,3.1,3.4,1.5C198.3,105.7,200.6,104.8,200.1,103z M191.8,103.9c-0.1,0-0.3,0-0.4,0
		c0-1.8-2.2-1.2-2.2,0.3c-1.9,0.2-1.8,2.7,0.2,2.2c0.6,1,2.1,0.5,2.3-0.6C193.1,106.1,193.2,103.9,191.8,103.9z M186.1,104.5
		c-0.5,2.1-4.3,1.7-3.9-0.6c-3.1-0.1-0.9-4.3,1.2-2.5c0.7-1.7,4-1.3,3.2,0.8c0.5,0.2,1.1,0.6,1.2,1.1
		C188.2,104.4,186.9,105.2,186.1,104.5z M185.8,95.7c-0.2-1.1-1.4-1.8-2.5-1.5c-0.5-1.9-3.6-1.9-3.6,0.2c-2.7-0.2-2.5,4.2,0.2,3.2
		c0.7,1.4,3.4,2,3.7,0C184.7,97.9,186.1,96.8,185.8,95.7z M189.3,90.8c0.1,1.2-1.7,1.5-2,0.3c-1.1,1.4-3.4,0.1-2.8-1.5
		c-1.1-0.6-0.2-2.3,1-1.7c0,0,0.3,0.1,0.4,0.2c0.5-1.3,2.5-1,2.7,0.3c0.7-0.2,1.6,0.2,1.9,0.9C191.1,90.2,190.2,90.9,189.3,90.8z"/>
	<path class="st8" d="M200,156c-4.1,6.7-6,0.6-3.9,0.2c0.9-0.4,1.7-1.2,2-2.2c-0.9-1.8,1-3.9-2.4-3.1c-3.1,1.7,1.6-8.9,3.9-2
		c0.2-2.5,4-2.9,5.1-0.8C206.6,151.3,203.8,163.7,200,156z M240.7,143.8c0-2-1.3-4.5-3.5-3.2c-0.8,0.4-1.2,1.3-1.8,1.8
		c-0.4,0.5-1.2,0.3-1.5,0.8c-0.5,0-1,0-1.5,0c-0.9,0.2-0.4,1.3,0.4,1c-0.1,0.9,1.1,0.8,1.6,0.7c0.7,0.5,1.6,0.8,2.4,1.1
		C237.9,148.4,241.5,146,240.7,143.8z M229.8,143.4c-1.2-1.4-3.2,1.8-1.1,1.5C229.1,144.5,230.1,144.1,229.8,143.4z M84.4,152.4
		c-0.1-4.3-3.9-5.8-8-5.8c0.1,0.1,0.2,0.2,0.3,0.4c8,3.3,6.3,11.9-1.1,14.6C80.9,161.5,85.8,158.5,84.4,152.4z M73.1,151.6
		c-1.1-1-2.2,1-2.7,1.8c-0.9,0.4-0.2,1.9,0.7,1.6C72,154.2,73.2,152.8,73.1,151.6z"/>
</g>
<g id="black">
	<path d="M162.9,113.7c4.7,12.8-3.6,17.1-1.2,0.2c-1.4-1.2-1-1.4,0.2-2.4C163.6,112.1,164.2,112.1,162.9,113.7z"/>
</g>
<g id="confetti">
</g>
<g id="line">
	<path class="st9" d="M106.4,119.1c-0.9-0.2-2.1-0.6-3-0.5c-0.6-2.6-0.4-5.3-0.1-8c1.9-0.7,4.3,0.2,5.9-1.2c1.3-0.7,2.6,0.4,4,0.2
		 M105.3,111c-0.2,1.9-0.3,3.9-0.2,5.8 M102.7,112.3c-5-1.1-8.9,2.3-12.2,5.6c-2.1-0.7-5.9,0.3-5.1,3.1c-0.2,0.7-0.1,1.2,0.3,1.7
		c0.1,0.3-0.2,0.5-0.1,0.8c0.4,0.2,0.8,0.2,1.2,0.2c0.1,1.6,3.5,0.9,4-0.3 M102.6,117.3c-3.7-1.1-7,1.8-10,3.5
		c-0.2,1.7-1,5.2-3.3,3.7 M121.4,126.1c2.4-0.3,6.2-2.4,5.9-5.2c-2.4-2.2-1.5-6.7-4.5-8.3 M127.7,123.5c1.3,1.6,2.8,3.7,4.4,5
		 M123.3,126c1.9,5,7.3,5.3,11.4,7.3 M133.2,127.5c-0.3,0.4-0.6,0.8-0.8,1.3 M118.4,123.3c0.9-1.7,1.6-3.6,1.9-5.6 M106.2,123.6
		c-3.3,1.8-17.6,3.3-17.2,8.6c1.2,5.5,5.7,10.8,10.8,12.9 M89.8,130c4.3,0.1,5.9,4.8,7.2,8.2c5.4,15,19.2-1,29,3.1 M125.6,146.7
		c1.4-1.2,2.1-4,0.3-5.7c-3.5-3.7-6.9-7.6-10.2-11.4 M128.2,156.4c-1.4-5.4-3.7-10.6-5.7-15.7 M126,150.8c-2.2,0-4.9,1.7-5.5,3.8
		 M117.5,108.1c-0.3,0.4-0.5,1-0.6,1.5 M121.4,115.1c0.5,0.5,1,1.1,1.4,1.7c0.2-1.5-0.1-3-0.7-4.4c-0.4,0.7-0.9,1.6-1,2.4
		c-1.4-1.5-3.6-3.9-5-5.3c-0.4-0.1-0.9,0-1.3,0.2c0.9,2.3,1.7,4.6,2.4,7c0.8-0.7,1.7-1.3,2.7-1.7 M96.1,148.8c1.4-0.3,4.3-0.2,5.4-1
		l1.5-3.1 M95.3,150.2c-2.2,4,3.3,4.6,6,4.1c6.4,0.8,10.5-4.8,9.9-10.8 M100.1,148.9c-0.5,1.8-0.3,3.7,0.5,5.4 M95.7,148.1
		c-6.4-2.6-8.5,8.3-7.1,12.7c3.2,4,6.2-3.2,6.8-5.9 M125.6,164.5c5.3,2.7,6.7-8.7,12.2-8.4c-2.4-2.8-6.4,0.7-9.3,0.9
		c-1.7,1.5-2.1,4.2-3.2,6.2 M125.9,165.5c2.1,4.7,13.8-5.1,12-8.6 M120.7,110.8c4.5,1.8,8.3-2.4,7.6-6.8 M127.8,101.3
		c0.8-1.1,1-2.5,0.6-3.8 M130.1,94.7c-5.3-7.2-16.5-5.1-22.3,0.3c-3.5,2.9-8,2.9-12.2,3.2c-3.4,0.1-7,4.5-3.6,7
		c-0.8-1.5,0.5-3.4,2.1-3.8c3.4-0.9,6.2,2.5,9.5,2.7 M102.6,104c-3-0.2-8.6,4.6-5,7.2c-0.9-3,3.3-2.9,5-1.8 M108.6,101.2
		c11,3.3,12.2-9.8,18-5.4 M107.7,120.5c-0.2,0.5-0.4,1.1-0.7,1.6c4,2.6,8.6,4.2,13.4,4.6 M123.2,123.1c1.4-0.7,2.6-1.7,3.5-3
		 M121.7,136.3l-1-8.5 M124.4,162.5l-8.3-17l-3.3-2.6 M92.5,150.4c-1.9,2.7-2.7,6.1-2.2,9.3 M123.5,99.5c-0.9-0.3-1.8-0.3-2.7-0.1
		 M128.8,100.7c-0.6-0.2-1.2-0.6-1.9-0.6 M125.3,105.2c0.9-0.6,0.3-1.2,0-2 M126.9,103.1c-0.4,0-0.3,0.5,0,0.5
		c0.4,0,0.3-0.5-0.1-0.4c-0.3,0.2,0.1,0.4,0.1,0.1 M120.6,102.7c-0.3,0.3,0,0.8,0.3,0.4c0.1-0.7-1.3-0.1-0.3,0 M115.7,102.2
		c-2.8-0.2-2,4.9,0.6,4.5 M116.6,102.5c1-0.2,1.6-1.2,2-2 M135.3,133.3c0.6-0.1,1.5,0.2,2-0.4 M158.8,98.7c2.3,0.1,5-1.4,5.2-3.9
		 M167.6,98.7c0.8-1.2,1.4-3.4,0.2-4.5c-0.3,2.5-2.4,5.1-5.1,4.7 M157.9,98.8c-0.5,1-0.7,2.1-0.6,3.2c-2.2-5.1-6-0.5-2.2,2.4
		 M162.7,97.2c-0.8-0.1-1.5,0-2.3,0.2 M168.6,98.7c-0.5-0.3-1.1-0.5-1.6-0.4 M168.1,100c0.5-0.4,0.8-1,1-1.7 M169.4,99.6
		c4.2-1.5,2.1-7.3-0.9-9 M168.2,89.9c-1.3-1.6-3.8-2.7-5.7-1.6c-6.8-1.4-13.9,4.6-10.2,11.6 M165.3,103.3c0.8-1-0.5-1.6-0.4-2.5
		 M161.4,108.7c4.3,1.3,7.5-3,6.8-7 M163.5,104.8c0.3,0.3,0.9,0.3,1.2,0 M174.4,113.3c2.9,0.3,6.9,0,9.3-1.7 M185.6,108.6
		c0.9,0.5,1.7-0.2,1.4-1.2c-1.6-4.3-4.8,3.2-2.4,4.7 M184.9,113.5c1.3,3.2,5.3,0.5,6.9-1c0.8-1.7-0.1-3.1-0.5-4.5 M173.7,119.7
		c4.7,0,8.9-1.5,12.5-4.7 M191,110.2c-2.2-0.5-4.3,3.1-0.9,2.4 M153.4,109.5c-8.2,1.5-18.2,5.1-6.8,12.3c1.1-0.2,2-0.6,2.8-1.3
		 M149.9,121.3c0.4,4.1-3.2,5.5,2.4,7.9 M150.4,128.8c-2.3,4-0.4,9.3-1.9,13.6c-0.4,0.6-1.3,1.5-0.4,2.1 M143.4,157.4
		c10.5-4.9,13.8-2,16.5-15.2 M148.1,145c-0.9,0.2-7.5,3.2-8.4,3.4c-0.2,1.3,2,7,2.4,8.2 M167.7,159.2c0.1,2.3,0.4,4.9,3.4,3.6
		c2.3-0.7,3.1-2,2.6-4.3 M167.8,163.3c-5.5,9.4,10.9,8,15.1,4.2c2.3-3.7-6.9-3.5-8.8-6.1 M168.6,167.9c4.2,0.6,10.8,1,13.6-2.8
		 M161.6,111.5l-6.4-3c-0.2,0.3-0.5,0.5-0.7,0.8c1.3,1.8,2.5,3.6,3.8,5.4c0.9-1,1.9-1.9,2.9-2.7 M144.7,120.9
		c-2.5,0.9-4.7,3.8-5.1,6.4 M140.8,116.4c-2.5,2.6-4.2,6.6-5.2,10.1c-1.9,0.5-2.7,4.2-0.6,4.9c1,0.3,2.3,2,3.5,1
		c0.5-0.7,1.9-1,1.6-2.2 M141.2,130.4c1-1,0-2.4-0.9-3 M143.7,114.1c0.8,2.1,2.5,3.8,3.8,5.6 M157,106.7c-0.2,0.4-0.3,0.9-0.3,1.4
		 M160.6,112.9c0.1,0.2,1,1,1.1,1.1c-2.4,17.1,5.9,12.8,1.2-0.2c0.1-0.1,0.8-1.2,0.8-1.3 M166.9,121.6c1.7,0.1,3.5,0.2,5.3,0.1
		c1.9-2.3,3.5-6.5,1.4-9.2c-3-0.4-6-0.9-9-1.7 M171.3,118.8c0.8-2,0.9-4.5,0.2-6.5 M166.8,100.9c-0.4,0-0.4,0.6,0,0.5
		c0.4,0,0.4-0.5-0.1-0.4c-0.3,0.2,0.1,0.4,0.1,0.1 M160.9,100.6c-0.3,0.3,0,0.8,0.3,0.4c0.1-0.7-1.3-0.1-0.3,0 M162.3,111.7
		c0.8,0.3,1.6,0.7,2.4,1c-0.3-0.8-1-1.4-1.4-2.2 M141.4,156.3c-0.6,0.1-1.3,0.3-1.9,0.4 M139.9,150.9c-1.6,0.3-3.2,0.8-2.5,2.9
		 M143.4,149.2c0.6,2.5,1.3,5.1,2.1,7.5 M188.5,107.4c-1,0.3-1.9,1.4-0.9,2.2 M190.2,108.4c-1.1,0.4-3.9,1.5-1.9,2.7 M165.6,158.2
		c0.3-3.3-2.2-6.8-0.7-9.8c-0.5-0.8-2.7-1.5-1.2-2.8c-1.8-1.6-3.6-3.4-5.4-5 M155.5,128.8c3.3,0,8.1,2.4,10.7-0.4
		c0.2-1.2-1-2.8,0.6-3.6 M167.9,158.8c2.4,0.7,5-0.6,7.4-1c2.5-12.6-3-18-9.4-28 M167.9,155.3c2.5,0,5-0.4,7.4-1 M133.7,150.9
		c-0.2,1.1-0.2,2.1-0.2,3.2 M137.5,151.3c-3.2-2.3-6.7-1.4-6,3 M134.6,163.9c3.7,2.7,5.4-0.1,4.3-3.7c0.2-1.1,0.9-2,0.7-3.2
		 M124.7,106.9c-0.4,0-0.8,0-1.2,0c0.1,0.3,0.4,0.7,0.8,0.5 M128.8,102.8c2.6-1.3,3.2-8.4-0.8-6.3 M60.1,162
		c-8.9,5.3,6.2,13.6,3.5,3.6 M65.2,143.1c-0.6-0.6-1.1-1.6-2.1-1.5c0,0.7,0,1.4,0,2.1 M70.6,141c-1-1.6-1.8-1.8-1.6,0.4 M67.2,144.2
		c1.4,1,2,1.3,2.2-0.8 M64.7,149.3c1.4,1.8,3.7,2.6,5.7,3.8 M71.4,139.6c0.2-1.2,0.2-2.7-0.4-3.8 M58.7,142.2
		c-2.3,0.5,0,4.1,1.9,3.3 M72.6,141.5c0.9-0.7,1.1-2.2,0.5-3.2c1.7-2.6,0.8-7.5-2.8-7.7 M62.1,146.6c2.8,3,10.6,0.3,10-4.1
		 M60.7,141.4c1.4-1.2,4.6-4,3.2-5.8c-3.8,1.4,0.2,6.7,5.1,0.3 M66.5,157.7c3.3,5,12.2,4.7,15-0.7c3.7-8.5-9-14-14.5-7.6
		 M72.2,161.2c12.5,5.3,18.6-15.6,3.9-14.9 M80.8,149.3h2.9 M82.4,155.3h2.2 M78.9,160.1H81 M62.1,151.7c1.8,2.3,4,5.1,6.9,6
		c2.6,0.3,2.8-2.6,1-3.8c0.9-1,1.8-2.8,3.4-2.3c0,0-2.3,3.7-2.3,3.7 M73,150.3c-0.1,0-0.3,0.1-0.4,0.1c0,0.2,0,0.4,0,0.5
		c0.6,0.3,1.7-0.5,0.8-0.9c-0.7,0-1,1.8-0.1,1.4c2.2-1,0.8-2.6-1-1.4c-0.7,0.4-0.4,1.8,0.5,1.5 M59.9,161.8
		c-0.9,1.5-3.5,2.7-2.6,4.7c1.7,4.6,8.4,5.2,6.3-1.1 M58.9,158c-0.5,3.9,3.4,5.6,6.3,6.9c3.7,2.4,6.6,7.2,10.6,1.4
		c1.3-1.5-0.5-4.2-2.1-3.5c-1.1,0.7-1.2-0.1-1.7-0.6 M56.2,145.9c-2.5-1-6.1,0.8-2.3,2.6c-1,1.7-0.8,4.3,1.9,3
		c-0.4,1.4,1.1,2.6,2.4,2 M60.7,147.3c-1.1,2.3-1.5,5-0.9,7.5 M69.5,129.6c-2.3-2.7-6.6-2.2-8.4,0.6c-0.4,0.3-0.6,0.1-1.1,0.1
		c-4.7,0.6-7.2,4.9-4.7,8.9c-0.4,2.3,0.4,4.7,2.1,6.3 M185.9,117.4c0.1-2.2,0.2-4.4,0.3-6.6 M187.6,116.5c0-1.4-0.2-2.7-0.6-4.1
		 M189.6,116.6c-0.3-1.3-0.6-2.5-1-3.8 M180.7,92.7c-0.7,0.3-0.5,1-0.9,1.5c-0.5,0.5-1,0.1-1.5,0.7c-1.5,1.3,0.7,4.7,1.9,2.4
		c0.1,2.1,4.1,2.6,3.4,0c2.9,1.8,3-4.1,0.1-3.1C183.1,93.2,181.8,92.3,180.7,92.7z M181.5,95.1c-0.2,0.1-0.4,0.3-0.4,0.6
		c0.3,0.7,1.8,0.7,1.2-0.2 M183.4,101.3c-2.3-1.9-4.5,2.9-0.8,2.5c-1.9,1.8,3.5,3.8,3.4,0.4c2.3,1.8,2.9-1.4,0.6-1.9
		C187.7,99.4,184.9,99.9,183.4,101.3z M184.3,102.6c-0.5,1.1,1.5,1,0.6,0 M193.4,99.7c-2,0.6-1.8,3,0.3,3.2
		c-1.6,2.5,3.1,3.9,3.5,1.4c2.6,2.8,4.2-2.7,1.1-3.3c1.5-2-2.7-4.1-2.9-1.3C195.1,99.3,194,99.5,193.4,99.7z M195.9,101.4
		c-0.5,2,2.7,1,0.9,0 M186.8,96.8c-1,1.7,0.1,2.8,1.8,2c-0.8,2.7,4.9,2.5,3.2-0.1c2.9,1.9,3.5-3.4,0.2-3c0.2-2.5-4.3-1.8-3.8,0.7
		C187.9,96.2,187.1,96.4,186.8,96.8z M190,97c-0.9,0.5,0.6,1.5,1,0.8c0.2-0.3,0-0.8-0.4-0.7 M197,94.2c1.3-0.9,0.9-2-0.6-2.1
		c1.5-1.7-2.7-3.4-2.4-1c-1.4-2.4-3.7,1.4-1.2,2.1c-0.9,1.8,2.5,2.7,3,0.8C196,94.3,196.7,94.4,197,94.2z M194.4,92.1
		c-0.8,0.2,0.2,1.3,0.7,0.8c0.2-0.2,0.1-0.6-0.2-0.6 M182.9,91.9c-0.9-1.6-2.7-2.5-4.1-3.7 M179.3,89.5c-0.4,0-0.8,0-1.2,0
		 M179.4,91.1c0.5,0,0.9,0,1.4,0 M179.8,87.4c0,0.2,0,0.4,0.1,0.6 M181.8,88.6c0,0.3,0.1,0.6,0.1,0.9 M200,89.6
		c-0.8,0.8-1.7,1.6-2.2,2.7 M199,89c0.1-0.3,0.1-0.6,0-0.9 M197.8,90.3c0.1-0.3,0-0.7-0.1-1 M201.4,91c-0.4-0.1-0.8-0.1-1.2,0
		 M197,97.2c0.9,2.1,5.2,1.2,5-1.1c-0.2-1.2-1.8-1.5-2.6-0.7c1.6-2.2-1.8-2.8-2.3-0.4 M188,105c-0.9,1.3,0.8,1.3,1.6,1.4
		c0,1.6,2.2,0.6,2.4-0.4c1.9,0,1-2.9-0.5-1.8c0.5-2.3-2.2-2.1-2.1,0C188.9,104.4,188.3,104.7,188,105z M190.3,104.7
		c-1.2,0.4,0.5,1.5,0.5,0.5 M183.9,88.2c-0.2,0.5,0.1,1.2,0.7,1.3c-1,1.8,1.8,3.1,2.9,1.6c-0.2,1.8,2.1,1.1,2-0.4
		c2.5,0.2,0.8-3.6-0.9-2.1c0.3-1.4-2.6-2.3-2.7-0.7C185.3,87.7,184.1,87.7,183.9,88.2z M187.2,88.8c-1.2,0.8,1,1.8,0.7,0.3
		 M219.3,162c-0.9,1.5-3.5,2.7-2.6,4.7c1.7,4.6,8.4,5.2,6.3-1.1 M218.3,158.2c-0.5,3.9,3.4,5.6,6.3,6.9c3.7,2.4,6.6,7.2,10.6,1.4
		c1.3-1.5-0.5-4.2-2.1-3.5c-1.4,1.2-4.1-3.9-6.4-4.3 M229.5,160.1c1-2.9,2-5.8,0.9-9 M232.2,151.6c1.2-1.4,3.8-1.9,4-4 M224.4,142.7
		c-0.5-0.6-1-1.7-1.9-1.6c0,0.7-0.1,1.4-0.1,2.1 M229.9,140.9c-0.9-1.7-1.7-1.9-1.6,0.3 M227,155.6c0,0.3,0,0.7,0,1 M215.5,146.1
		c-2.5-1-6.1,0.8-2.3,2.6c-1,1.7-0.8,4.3,1.9,3c-0.4,1.4,1.1,2.6,2.4,2 M230.9,139.6c0.3-1.2,0.4-2.7-0.1-3.8 M218,141.4
		c-2.3,0.3-0.2,4.1,1.7,3.5 M232.2,141.7c1.4-1.6,1.4-3.8,0.8-5.7c1.4-2.5,0-5.8-2.9-6.3 M221.5,146.1c0.6,0.9,1.9,1.3,3,1.3
		 M220,147.5c-1.1,2.3-1.5,5-0.9,7.5 M233.6,145c2.2-0.4,3.6,2.9,5.8,1.9c1.8-1.5,1.8-5.5-0.4-6.7c-2-0.6-3,1.9-4.5,2.6
		c-1.4,0.8-9.2-1-6.3,2.3 M226.3,151.3c3.1,0.4,11.4-6.5,4.9-7.1 M231.6,143.5c-2.5-0.8-4.3,4.3-6.9,4.9 M238.3,141.5
		c-1.4,0.6-1.5,2.9-0.5,3.9 M229.1,128.8c-2.3-2.7-6.6-2.2-8.4,0.6c-0.4,0.3-0.6,0.1-1.1,0.1c-4.7,0.6-7.2,4.9-4.7,8.9
		c-0.4,2.3,0.4,4.7,2.1,6.3 M219.3,139.3c2-0.9,6.7-3.3,5.1-5.9c-1.6-0.7-1.8,2.4-1.6,3.2c2.4,6.5,5.9-1.4,3.8-4.8 M28.9,162
		c-8.9,5.3,6.2,13.6,3.5,3.6 M30,151.6c-3.3,3.5-3,10.7,1.8,12.7c4.8,1.5,8.1,9.5,12.9,2.6c0.7-0.9,0.5-1.7,0.1-2.4
		c-0.4-0.8-1.5-1.6-2.2-1.1c-1.4,1.2-4.1-3.9-6.4-4.3 M39,160.6c1-2.9,2-5.8,0.9-9 M40.6,153.3c2.7,0.9,5.8,2.8,7.5-0.7
		c-0.6-0.2-1.1-0.3-1.7-0.5 M34,143.1c-0.6-0.6-1.1-1.6-2.1-1.5c0,0.7,0,1.4,0,2.1 M39.4,141c-1-1.6-1.8-1.8-1.6,0.4 M35.9,144.2
		c1.4,1,2,1.3,2.2-0.8 M26.5,148.8c-1.6,2.6-6,2.7-7.3,5.6c0,1.2,1.5,2.4,2.6,1.8 M22.8,155.6c-0.9,4.1,5.7-3.3,6.4-4.4 M39.9,147.4
		c1.9,2.6,5.5,2.2,7.9,3.8 M35.8,156c0,0.3,0,0.7,0,1 M24.9,146.6c-2.5-1-6.1,0.8-2.3,2.6c-0.5,0.6-0.9,1.7-0.5,2.4 M40.2,139.6
		c0.2-1.2,0.2-2.7-0.4-3.8 M27.5,142.2c-2.3,0.5,0,4.1,1.9,3.3 M38.1,130.4c-2.1-3.4-7.6-2.7-9.3,0.4c-3.2-0.4-5.7,3.3-5.7,6.1
		c0.5,1.9,0.5,3.8,0.6,5.7 M41.4,141.5c0.9-0.7,1.1-2.2,0.5-3.2c1.7-2.6,0.8-7.5-2.8-7.7 M24.2,144c-0.1,2.1,2.2,3.8,4.2,3.1
		 M30.9,146.6c2.8,3,10.6,0.3,10-4.1 M29.4,141.4c1.4-1.2,4.6-4,3.2-5.8c-3.8,1.4,0.2,6.7,5.1,0.3 M187.9,148.6
		c-4.6,16.6-0.3,10.2,9,19.9c2.9,5.3,12-3.1,5.4-4.3c-1.2,0.6-1.2-0.2-1.6-0.7c-0.5-0.7-1.1-1-1.6-1.6 M192.9,142.9
		c-0.5-0.6-0.8-1.8-1.8-1.8c-0.1,0.7-0.2,1.4-0.3,2 M198.6,141.6c-0.8-1.8-1.5-2-1.6,0.2 M194.7,144.3c1.2,1.2,1.8,1.6,2.3-0.4
		 M199.6,140.4c0.4-1.2,0.7-2.6,0.2-3.8 M186.7,141c-2.4,0.1-0.6,4,1.4,3.6 M199,131c-1.5-3.7-7.1-3.9-9.3-1.1
		c-3.1-0.9-6.1,2.4-6.6,5.1c0.2,2-0.1,3.8-0.4,5.8 M200.5,142.5c1-0.6,1.4-2,1-3.1c2.1-2.3,2-7.3-1.5-8 M183.2,142.2
		c-0.4,2.1,1.5,4.1,3.6,3.7 M199,145.6c0.5-0.6,0.9-1.5,0.8-2.3 M189.3,145.8c0.5,1,1.7,1.5,2.8,1.7 M188.7,140.5
		c1.5-1,5.2-3.2,4.1-5.2c-3.9,0.7-0.9,6.6,4.9,1.1 M195.5,157.7c-0.2,0.7,0.3,1.5,1,1.6c4.4-0.2,4-7.3,3.1-10.4
		c-1.1-4.2-5-1.9-4.7,1.6 M200.2,156.3c4.8,10.2,8.1-14.6,0.4-8.6 M204.8,154.7c2.7-0.8,4.2-6.2,0.2-5.8 M190.7,150.9
		c2.3,1.2,5.1-0.3,7.2,0.5 M189.4,154.9c2.3,1.5,5.8,2.6,8.1,0.4c0.7-0.6,1-2,0-2.5 M185.6,147.8c-5.5-1.6-7.8,3.8-1.4,4.1
		c-3,0.1-1.4,3.9,1.2,2.7 M199,160.4c0.3-0.9,0.5-1.8,0.4-2.8 M202.5,155.3c0.8-1.5,1.7-6-0.9-5.9 M203.8,144
		c1.3-1.4,2.9-2.5,3.8-4.2 M206.4,145.4c1.2-0.7,2.3-1.5,3.4-2.3 M187.1,161.7c-0.9,1.5-3.5,2.7-2.6,4.7c1.7,4.6,8.4,5.2,6.3-1.1
		 M117.8,98.2c1.6-1,1.2-2.5-0.7-2.6c1.9-2-3.2-4.4-2.8-1.3c-1.7-3-4.6,1.4-1.6,2.5c-1.3,2.1,3,3.5,3.6,1.1
		C116.6,98.2,117.4,98.4,117.8,98.2z M115.1,96.6c1-0.1,0.2-1.5-0.5-1.2c-0.3,0.1-0.3,0.7,0,0.8"/>
</g>
</svg>
