<?xml version="1.0" encoding="utf-8"?>
<!-- Generator: Adobe Illustrator 27.6.1, SVG Export Plug-In . SVG Version: 6.00 Build 0)  -->
<svg version="1.1" xmlns="http://www.w3.org/2000/svg" xmlns:xlink="http://www.w3.org/1999/xlink" x="0px" y="0px"
	 viewBox="0 0 256 256" style="enable-background:new 0 0 256 256;" xml:space="preserve">
<style type="text/css">
	.st0{display:none;}
	.st1{display:inline;fill:#FCA5AB;}
	.st2{display:inline;fill:#D8EDFF;}
	.st3{display:inline;}
	.st4{display:inline;fill:#FFFFFF;}
	.st5{fill:none;stroke:#FFFFFF;stroke-miterlimit:10;}
	.st6{display:inline;fill:none;stroke:#000000;stroke-miterlimit:10;}
</style>
<g id="레이어_1" class="st0">
	<path class="st1" d="M176.7,166.7c-1.1-28.6-2-49.7-35.6-54.3c-2,0.1-3.5,0.1-5.5,0.2c-0.2,0-0.4,0-0.6,0.2
		c-0.2,0.2-0.3,0.4-0.3,0.7c0,0.3,0.1,0.5,0.3,0.8c0.7,1.3,2.2,2.7,3.5,3.5c-1.5,5-6.3,8.1-11.5,8.8c-0.6-2.2-1.7-4.3-3.2-6
		c-0.3-0.4-0.8-0.3-1.2-0.2c-0.6,0.1-1.2,0.1-1.8,0c-0.6,0-1.2-0.2-1.9-0.2h-0.1v0.1c0.1,0.2,0.5,0.3,0.7,0.5
		c0.1,0.2,0.3,0.4,0.3,0.6c0.4,1,0.1,2.3-0.1,3.3c-0.2,1.1-0.6,2.2-0.5,3.2c0,0.7,0.1,1.5,0.1,2.1c-1.4-1.3-3-2.5-4.6-3.5
		c-0.6-0.4-1.2-0.7-1.8-0.8c0.4-0.7,2.6-4.1,2.9-4.8c-2.7-0.3-5.1-0.9-6.2-2.5c-0.9,0.8-2.2,1.5-3.2,2.2
		c-9.4,6.3-15.3,17.5-15.2,28.8c0,1.1-0.1,2.6,0,3.7c1.1,0.5,2,1.5,2.7,2.6l0.1,0.1c-0.6-1.9,2.7-0.5,5.2,1.9
		c3.5,1.6,5.9,5.4,9.8,6.1c0,0.1,0,0.2-0.1,0.3c-0.2,0.5-0.2,1-0.3,1.4c-0.8,3-1.7,5.9-2,8.9c-4.3,14.3,7.4,20.1,19.8,22.2
		c0.4,0.1,0.7,0.1,1.1,0.2c6,0.8,12.1-0.1,17.6-2.6c2.7-1.2,5.3-2.8,7.6-4.8c0.8-0.7,2.1-2.6,3.2-2.5c1.2,0,1.7,1.5,2.1,2.4
		c0.7,1.3,1.4,2.6,2,4c1.2,3,1.4,5.9,1.3,9c-0.2,8.6-11.2,26.9,1,30.9c8.9,0.4,18.3-5.2,26.6,0c0.5,0.3,1.1,0.6,1.6,0.3
		c0.9-0.4,1.2-1.6,1.6-2.5C204.2,205.9,176.8,190.8,176.7,166.7z M146.4,146.7c-2.2,4.3-4.5,8.6-8.1,11.7c-2.5,1.7-5.3,3.1-7,5.7
		c-0.2,0.4-0.4,0.7-0.9,0.6c-1.7-0.3-3.5-0.5-5.3-0.4c-4.7-0.5-9.2-2.5-14-1.6c-0.3,0.1-0.6,0.1-0.8,0.2c-0.1,0-0.1-0.1-0.1-0.2
		c0-0.1,0.1-0.1,0.1-0.1c2.2-2.1,2.6-5.3,3.9-8c2.4-5.4,9.9-9.8,10.2-15.9c0.7-0.7,1.6-0.6,2.5-0.9c6.7-2.5,16.7-0.2,19.2,7.1
		C146.5,145.5,146.7,146.1,146.4,146.7z M89.7,218.5c-2.4-0.4-4.2-2.1-6.6-2.4c-8.3-1,5.1-42.2,5.1-49.3c0-0.2,0.1-0.1,0.1-0.2
		c0.2-1.1,0.9,0.3,1.2,0.6c0.4,0.4,0.9,1.1,1.5,1.3c1.3,0.5,2.6,0.8,3.9,1.2c0.5,0.1,1.5,0.2,1.9,0.5c0.4,0.4,0,1.3-0.1,1.7
		c-2.8,10.9-6.5,23.2-5,34.7c-0.1,0.7,0.9,1.2,1.6,1.8c2.5,2.6-0.8,5.4-3,6.9c-0.5,0.4-1,0.6-1.2,1.2c-0.1,0.3-0.1,0.7,0.1,1
		C89.2,217.9,89.5,218.3,89.7,218.5z"/>
</g>
<g id="primary" class="st0">
	<path class="st2" d="M101.3,169c-0.2,0-0.4,0-0.6,0c-2.5,0-5-0.3-7.4-0.9c-0.9-0.3-1.1-1-1-1.7c-0.3-0.2-0.6-0.3-0.9-0.5
		c-0.7-0.4-0.9-1.4-0.5-2.1c0-0.1,0.1-0.1,0.1-0.1c0,0,0,0,0,0c-0.3-0.3-0.5-0.7-0.6-1.1c-0.1-0.5,0-1,0.3-1.3c0,0,0-0.1-0.1-0.1
		c-0.1-0.2-0.1-0.3-0.2-0.5c-0.5-0.1-1.1-0.2-1.6-0.3c-1.3-0.2-0.7-2.2,0.5-1.9c0.6,0.1,1.3,0.2,1.9,0.3c0.3-0.1,0.7-0.2,1-0.1
		c1,0.3,2.1,0.4,3.1,0.3c0.1,0,0.2,0,0.3,0c0,0,0,0,0,0l-0.3-0.5c-1.5-2.5-2.8-5.7-6.1-5.8c-2.1-0.2-5-2-6.7-0.3
		c-1.2,1.8,2.4,6.6,3.2,8.2c1.2,2.3,2.8,6.5,5.2,7.8c2.8,1.1,6.1,1.6,9,2.6C101.8,171.7,102.4,170.4,101.3,169L101.3,169z"/>
	<path class="st2" d="M124.2,69.3c-0.7-5.8-10.7-5.2-14.3-2.3c-2,1.9,0.6,9.6,0.4,10.3c0.6,5.3,7.5,3.4,11,2.7
		c1.4-0.5,2.1-1.5,2.4-2.7c0.2,0,0.4,0,0.6-0.1C129.5,75.7,131.5,67.9,124.2,69.3z"/>
</g>
<g id="black" class="st0">
	<path class="st3" d="M151.5,114.5c0.4-0.3,0.7-0.9,0.9-1.1c0.4-0.6,0.8-1.2,1.1-1.8c0.5-1.1,0.9-2.3,0.9-3.5c0-2.4-1.1-4.6-2.6-6.4
		c-2.6-3.3-6.1-5.7-9.4-8.1c-4.9-6.5-7.9-15.3-17.3-16.3c-0.3,0-0.5-0.3-0.8-0.2c-0.7,0.2-0.9,1.2-1.3,1.7s-1.1,1.1-1.7,1.3
		c-1.7,0.3-3.4,0.7-5.1,0.9c-0.9,0.1-1.8,0.1-2.7-0.1c-0.8-0.2-1.6-0.7-2.5-0.4c-0.3,0.1-0.6,0.4-0.9,0.6c-0.4,0.4-0.7,0.8-1.1,1.2
		c-6.3,6.6-13.1,25.3,1.5,25.5c0.4,0,0.8-0.4,0.8-0.9c0-0.4,0.1-1.1-0.1-1.4c-2.7-4.1-4.4-10.1-1.2-14.4c0.4,7.3,5.9,14.8,14,12.7
		c1.2-0.3,2.4-1.1,3.3-2c0.2-0.2,0.2-0.2,0.4-0.3c1.3-1.5,3.7-3,5.4-1.2c1.4,1.6,1.3,4.2,0.5,6c-0.3,0.8-0.6,1.3-0.5,2.2
		c0.1,0.9,0.2,1.8,0.5,2.6c0.3,0.9,0.4,1.6,1.4,1.6c1.3-0.1,2.6-0.1,3.9-0.1c1.3,0,2.5,0,3.7,0.2c1.1,0.1,2.2,0.2,3.3,0.5
		c0.9,0.3,1.8,0.5,2.6,0.8c0.6,0.2,1.6,0.8,2.2,0.8C151.2,114.7,151.3,114.6,151.5,114.5z"/>
	<path class="st3" d="M116.3,67.6c-9.8,1.2-3.2,4.3,2.4,2.7C125.4,68.7,119.8,66.9,116.3,67.6z"/>
	<path class="st3" d="M146.4,146.7c-2.2,4.3-4.5,8.6-8.1,11.7c-2.5,1.7-5.3,3.1-7,5.7c-0.2,0.4-0.4,0.7-0.9,0.6
		c-1.7-0.3-3.5-0.5-5.3-0.4c-4.7-0.5-9.2-2.5-14-1.6c-0.3,0.1-0.6,0.1-0.8,0.2c-0.1,0-0.1-0.1-0.1-0.2c0-0.1,0.1-0.1,0.1-0.1
		c2.2-2.1,2.6-5.3,3.9-8c2.4-5.4,9.9-9.8,10.2-15.9c0.7-0.7,1.6-0.6,2.5-0.9c6.7-2.5,16.7-0.2,19.2,7.1
		C146.5,145.5,146.7,146.1,146.4,146.7z M156.7,219c-2.6,0-4.2,0.1-6.6-0.5l-0.3,0.5c-2.2,4.4-5.9,7.8-11.5,9.4
		c-10.3-1-20.3-4.7-30.6-4.5c-1,0-2,0.5-3,0.6c-0.5,0-1-0.2-1.5-0.4c-0.6-0.2-1.2-0.5-1.7-0.7c-1.2-0.5-2.4-1-3.5-1.5
		c-1.2-0.5-2.4-1-3.6-1.5c-0.6-0.2-1.2-0.5-1.8-0.7c-0.4-0.2-1.2-0.7-1.7-0.7c-2.2-0.7-3.1-2.4-0.9-3.7c2.2-1.5,5.5-4.3,3-6.9
		c-0.6-0.6-1.6-1-1.6-1.8c-1.5-11.4,2.2-23.8,5-34.7c0.1-0.4,0.1-0.8,0.2-1.1c0-0.1,0.1-0.2,0.2-0.3c0,0,0.2-0.2,0.5-0.1
		c0.8,0.2,1.7,0.5,2.5,0.7c0.5,0.2,1.3,0.4,1.7-0.2c0.4-0.6-0.1-1.1-0.1-1.6c0-0.1,0.1-0.2,0.2-0.2l1.1-0.1c1.6-0.2,3.2-0.5,4.8-0.3
		c-0.5,1.9-1,3.8-1.2,5.7c-4.3,14.3,7.4,20.1,19.8,22.2c0.4,0.1,0.7,0.1,1.1,0.2c6,0.8,12.1-0.1,17.6-2.6c2.7-1.2,5.3-2.8,7.6-4.8
		c0.8-0.7,2.1-2.6,3.2-2.5c1.2,0,1.7,1.5,2.1,2.4c0.7,1.3,1.4,2.6,2,4c1.2,3,1.4,5.9,1.3,9c-0.1,4.2-2.8,10.7-4.1,16.7
		C156.9,219,156.8,219,156.7,219z"/>
</g>
<g id="skin" class="st0">
	<path class="st4" d="M104.7,224.5c-0.5,0-1-0.2-1.5-0.4c-0.6-0.2-1.2-0.5-1.7-0.7c-1.2-0.5-2.4-1-3.5-1.5c-1.2-0.5-2.4-1-3.6-1.5
		c-0.6-0.2-1.1-0.5-1.7-0.7c0,0-0.1,0-0.1,0c-2.2,0.6-4.4,1.3-6.5,1.9c-1.8,0.5-3.6,1.2-5,2.5c-0.4,0.4-0.4,1.3,0.2,1.6
		c0.4,0.2,0.8,0.3,1.2,0.2c0.3,0,0.6-0.2,0.7-0.4c0,0,0,0,0,0.1c-0.2,0.5,0.1,1.1,0.7,1.3c0.3,0.1,0.6,0.2,0.9,0.2
		c0.1,0,0.2,0,0.3,0c0.1,0,0.2,0,0.2,0c0,0.3,0.2,0.6,0.5,0.7c0.6,0.3,1.1,0.2,1.8,0.1c0.3-0.1,0.5-0.1,0.7-0.1
		c0,0.2,0.1,0.3,0.2,0.4c0.4,0.4,0.8,0.5,1.3,0.5c0.2,0,0.4-0.1,0.7-0.2c0.1-0.1,0.3-0.1,0.4-0.2c0,0,0,0,0,0
		c0.1,0.3,0.3,0.5,0.6,0.7c0.8,0.3,2-0.2,2.8-0.4c1.2-0.3,2.3-0.5,3.5-0.8c2.1-0.5,4.2-1,6.1-2c0.2-0.1,0.3-0.2,0.4-0.4
		c0.6-0.3,1.1-0.7,1.6-1.2c0.1-0.1,0.2-0.2,0.3-0.4C105.8,224.3,105.3,224.4,104.7,224.5z"/>
	<path class="st4" d="M114.4,224.3c-0.3,0.3-0.5,0.5-0.8,0.8c-0.7,0.4-1.5,0.8-2.2,1.2c-0.2,0.1-0.5,0.1-0.7,0.1
		c-2.1,0.4-4.2,0.6-6.1,1.6c-0.1,0.1-0.3,0.2-0.4,0.3c-0.6,0.2-1.2,0.6-1.7,1.1c-0.7,0.7-0.5,2.3,0.7,2.5c0.7,0.1,1.4,0.1,2,0
		c0.2,0.7,0.9,1.1,1.6,1.1c0,0,0.1,0.1,0.1,0.1c0.6,0.2,1.2,0.1,1.8-0.2c0.1,0.2,0.3,0.4,0.6,0.6c0.8,0.7,1.8,0.5,2.8,0.2
		c0.4,0.4,0.9,0.7,1.5,0.7c0.6,0,1.2-0.2,1.7-0.4c0.1,0.1,0.1,0.2,0.2,0.3c1.2,1.2,3,0.3,4.3-0.3c1.6-0.7,3.2-1.6,4.7-2.5
		c1.5-0.8,3-1.6,4.7-2.1c1.8-0.5,3.6-0.8,5.5-1.2c0.2,0,0.3-0.1,0.5-0.2C128.2,227,121.4,225.1,114.4,224.3z"/>
	<path class="st4" d="M107.8,168.5c0.3-1,0.5-2,0.8-3c0.1-0.4,0.1-0.9,0.3-1.4c0.1-0.1,0.1-0.2,0.1-0.3c-3.9-0.7-6.3-4.5-9.8-6.1
		c-1.6-1.6-3.6-2.7-4.6-2.8c0,0,0,0,0,0c0,0,0,0-0.1,0c-0.1,0.1-0.1,0.1-0.2,0.2c0,0,0,0.1-0.1,0.1c-0.2,0.4-0.3,0.9,0.1,1.2
		c0.1,0.1,0.3,0.2,0.4,0.4c0.1,0.2,0.3,0.7,0.3,0.8c0.2,0.3,0.3,0.7,0.5,1c0,0.1,0.1,0.2,0.1,0.3c0,0-0.1,0-0.1,0
		c-0.1,0-0.2,0-0.3,0c-1.1,0-2.1-0.1-3.1-0.3c-0.3-0.1-0.7,0-1,0.1c-0.6-0.1-1.3-0.2-1.9-0.3c-1.3-0.2-1.8,1.7-0.5,1.9
		c0.5,0.1,1.1,0.2,1.6,0.3c0,0.2,0.1,0.3,0.2,0.5c0,0,0,0.1,0.1,0.1c-0.3,0.4-0.4,0.8-0.3,1.3c0.1,0.4,0.3,0.8,0.6,1.1c0,0,0,0,0,0
		c0,0.1-0.1,0.1-0.1,0.1c-0.4,0.7-0.2,1.7,0.5,2.1c0.3,0.2,0.6,0.3,0.9,0.5c-0.1,0.7,0.2,1.4,1,1.7c2.4,0.6,4.9,0.9,7.4,0.9
		c1.2,0,2.4-0.1,3.6-0.2c0.8-0.1,1.6-0.3,2.4-0.3C107.1,168.5,107.4,168.5,107.8,168.5z"/>
	<path class="st4" d="M110.8,107.7c0.3-0.1,0.5-0.5,0.5-0.8c0-0.4,0.1-1.1-0.1-1.4c-2.7-4.1-4.4-10.1-1.2-14.4
		c0.4,7.3,5.9,14.8,14,12.7c1.2-0.3,2.4-1.1,3.3-2c0.2-0.2,0.2-0.2,0.4-0.3c1.3-1.5,3.7-3,5.4-1.2c1.4,1.6,1.3,4.2,0.5,6
		c-0.3,0.8-0.6,1.3-0.5,2.2c0.1,0.9,0.2,1.8,0.5,2.6c0.3,0.9,0.4,1.6,1.4,1.6c0,0,0.1,0,0.1,0c0,0-0.1,0.1-0.1,0.1
		c-0.2,0.2-0.3,0.4-0.3,0.7s0.1,0.5,0.3,0.8c0.7,1.3,2.2,2.7,3.5,3.5c-1.5,5-6.3,8.1-11.5,8.8c-0.6-2.2-1.7-4.3-3.2-6
		c-0.3-0.4-0.8-0.3-1.2-0.2c-0.6,0.1-1.2,0.1-1.8,0c-0.6,0-1.2-0.2-1.9-0.2h-0.1v0.1c0.1,0.2,0.5,0.3,0.7,0.5
		c0.1,0.2,0.3,0.4,0.3,0.6c0.3,0.8,0.2,1.8,0,2.7c-0.2,0-0.3-0.1-0.5-0.1c0,0.1-0.1,0.3-0.1,0.4c0,0.9,0,1.7,0,2.6
		c0,0.3-0.1,0.6,0,1c0,0.2,0,0.4,0,0.7c0,0.4,0,0.9,0,1.3c-1.4-1.3-2.9-2.4-4.5-3.4c-0.6-0.4-1.2-0.7-1.8-0.8c1.1-1.6,2.6-2.9,3-4.8
		c-0.1,0-0.3,0-0.4,0c-1-0.1-1.9-0.3-2.8-0.5c-0.7-0.3-1.4-0.6-2-1.1c-0.8-0.6-1.4-1.4-1.5-2.3c-0.2-0.2-0.3-0.4-0.3-0.7
		c-0.1-2,0.6-3.8,1.9-5.3c-0.1-0.7-0.1-1.4-0.1-2.1L110.8,107.7z"/>
</g>
<g id="lineWhite">
	<path class="st5" d="M120.8,149.5c-0.7,5.2-1,7.2-1.8,11.8 M151.5,214.9c2.2-7.1,1.8-15.7,0.8-22.7 M112.5,195.8
		c-0.5,4.1-0.5,5.8-1.7,9.8c-1.5,4.1-2.6,8.3,0.1,12.1c0.2,1.1-0.9,2.1-1.9,3.1 M116.1,90c1.2,8.3,6.7,8.9,9.9,10.6"/>
</g>
<g id="line" class="st0">
	<path class="st6" d="M125,77.2c9.5,1.1,12.4,9.8,17.3,16.3c6.7,4.8,17.1,12.2,9.1,20.9 M118.1,115.3c0.4-0.1,0.8-0.2,1.1-0.4
		 M133.1,108.4c0.2,2.2,1,4.4,2.2,6.3 M191.9,231c12.3-25.1-15.1-40.2-15.3-64.3c-1.1-28.6-2-49.7-35.6-54.3 M153.4,183
		c4.6,6,8.4,11.2,7.7,19.3c-0.2,8.6-11.2,26.9,1,30.9c8.9,0.4,18.3-5.2,26.6,0 M110.4,162.6c2.2-2.1,2.6-5.3,3.9-8
		c2.7-6.2,12.1-11,9.9-18.6c-2.8-3.2-7.8-10.2-12.2-10.2c-1.4,0.2-2,1.7-2.8,2.8c-5,4-9.2,8.4-13.2,13.5 M141.2,171.4
		c-3.7-5.3-9.7-7.4-16.1-7.2c-4.7-0.5-9.2-2.5-14-1.6c-2.6,0.5-2.3,1.1-2.7,2.9c-0.8,3-1.7,5.9-2,8.9c-4.3,14.3,7.4,20.1,19.8,22.2
		c10.5,1.8,21.8-2,29-9.8 M131.3,164.1c1.7-2.6,4.5-4,7-5.7c5.4-4.6,7.8-11.9,11.4-17.9 M123.7,120.5c1.5,1.7,2.6,3.8,3.2,6
		c5.2-0.7,10-3.7,11.5-8.8 M146.3,144.9c-2.5-7.3-12.5-9.6-19.2-7.1 M150.1,218.5c2.4,0.6,4.1,0.4,6.6,0.5 M96.6,172
		c-2.8,10.9-6.5,23.2-5,34.7c-0.1,0.7,0.9,1.2,1.6,1.8c2.5,2.6-0.8,5.4-3,6.9c-2.1,1.3-1.3,3,0.9,3.7c4.4,1.8,8.8,3.6,13.3,5.5
		 M112.8,125.8c0.4-0.7,2.6-4.1,2.9-4.8c-4.3-0.5-7.8-1.6-6.5-6.8 M119.1,127.9c-0.1-2.1,2.1-6.9-0.5-7.6 M95.4,158.5
		c-1.5-2.5-2.8-5.7-6.1-5.8c-2.1-0.2-5-2-6.7-0.3c-1.2,1.8,2.4,6.6,3.2,8.2c1.2,2.3,2.8,6.5,5.2,7.8c2.8,1.1,6.1,1.6,9,2.6
		c1.8,0.7,2.4-0.6,1.3-2 M90.5,155.6c-0.9-0.3-1.9-0.5-2.8-0.8 M85.6,154.1c-1-0.6-1,1.2,0,0.9c0.1-0.2,0.2-0.4,0.3-0.6
		C85.8,154.3,85.7,154.3,85.6,154.1 M114.1,224.7c-2.2,1.7-4.8,2.1-7.5,2.4c-3.1,0.4-7.4,5-1.5,4.9 M107.8,230c-2.6,0.4-4,3-0.5,3.1
		 M110.4,230.9c-2.7,0.3-3,3,0,2.8 M117.2,232.1c-2.7,0.3-3,3,0,2.8c5.4-0.6,9.4-5.3,14.9-5.9 M113.4,231.3
		c-2.9,0.4-2.4,3.7,0.7,2.9 M90.2,220.4c-3.2,0.8-8.1,1.4-9.6,4.6c-0.2,1.3,1.3,1,2.1,1 M84.7,225.1c-1.9,0.7-2.6,2.4,0.1,2
		 M86.7,226.1c-1.8,1.2-2.2,2.4,0.4,2.1 M89.3,227.5c-0.4,0.3-0.8,0.7-1.1,1.1c0.4,0.5,1.1,0.7,1.7,0.3 M91.7,228.2
		c-1.8,0.8-0.4,2.1,1,1.5c2.6-1.4,5.6-1.3,8.3-2.6 M88.2,166.9c0,7.1-13.4,48.2-5.1,49.3 M121.3,80c3.6-1.3,2.6-6.1,2.9-9.2
		c0.9-7.4-10.4-6.9-14.3-3.8c-2,1.9,0.6,9.6,0.4,10.3C110.9,82.6,117.8,80.7,121.3,80z M116.3,67.6c-9.8,1.2-3.2,4.3,2.4,2.7
		C125.4,68.7,119.8,66.9,116.3,67.6z M124.3,77.2c5.2-1.5,7.2-9.3-0.1-7.9 M124,75.2c1.7-0.4,3.2-3.5,0.4-3.1 M106.3,120.6
		c-9.4,6.3-15.3,17.5-15.2,28.8 M93.1,166.1c-0.7-0.1-1.3,0.5-1.2,1.1c1.2,1.8,4.4,1.4,6.3,1.8c3.2,0.9,6.4-0.6,9.5-0.3 M90.4,161.2
		c-2,2.8,4.5,2.5,6.1,3 M92.1,163.8c-0.9-0.4-2.1,0.4-1.6,1.4c1.7,1.2,4.2,0.7,6.2,1 M108.9,163.8c-3.9-0.6-6.3-4.4-9.8-6.1
		c-3.4-3.2-8.1-4.6-3.2,1.3c-1.5,0.5-9.3-2.3-7.8,0.9c1.9,1.7,6.4,1.2,8.7,2.2 M109.1,82.3c-6.3,6.6-13.1,25.3,1.5,25.5
		 M124.1,103.7c-8,2.1-13.6-5.4-14-12.7c-3.1,4.3-1.5,10.3,1.2,14.4 M110.9,111.5c0.8,5.5,6.4,9.6,11.9,8.7c2-1.9,4.4-3.9,6.4-5.8
		 M116,112.1c-2.4-1.6,1.3-3-1.3-5.6 M127.4,101.6c0.7,0.7,1.1,1.7,0.9,3.2 M132.2,108.3c4.4-4.3,1-12.9-4.5-7 M111.6,102.9
		c-1.4-0.1-2.8,0-4.2,0.4 M112.1,108.7c0,0.2,0,0.4,0,0.7c0.2,0,0.3,0,0.5,0c0.6-1.1-0.9-1.5-0.5-0.2 M120.3,106.8
		c-0.4,1.2,1.6,1,0.9-0.1c-0.3-0.3-0.9-0.1-1,0.3 M120.8,99.7c-1.5,0.1-2.9,0.7-3.9,1.8 M112.3,108.5c0,0.1-0.1,0.3-0.1,0.4
		c0.2-0.1,0.3-0.2,0.4-0.4c-0.3,0.2-0.5,0.4-0.5,0.7c0.1-0.1,0.2-0.2,0.4-0.3c0,0.1,0,0.2,0,0.2h0.1 M120.8,106.7c0,0-0.1,0-0.2,0
		l-0.1,0.1c0,0.1-0.1,0.2-0.1,0.3c0.3,0,0.5-0.1,0.7-0.3c-0.2-0.1-0.5,0.2-0.5,0.4c0,0,0,0,0,0.1c0,0,0,0,0.1,0
		c0.2,0,0.4-0.1,0.5-0.2c0,0,0,0,0-0.1c0,0,0-0.1-0.1-0.1c0,0-0.1,0-0.1,0.1c-0.2,0.1-0.3,0.3-0.4,0.5v0.1c0,0,0,0,0.1,0
		c0.2,0,0.4,0,0.5-0.1 M107.8,223.9c10.4-0.4,20.4,3.5,30.6,4.5c5.8-1.7,9.5-5.3,11.7-9.9"/>
</g>
</svg>
