<?xml version="1.0" encoding="utf-8"?>
<!-- Generator: Adobe Illustrator 27.6.1, SVG Export Plug-In . SVG Version: 6.00 Build 0)  -->
<svg version="1.1" xmlns="http://www.w3.org/2000/svg" xmlns:xlink="http://www.w3.org/1999/xlink" x="0px" y="0px"
	 viewBox="0 0 256 160" style="enable-background:new 0 0 256 160;" xml:space="preserve">
<style type="text/css">
	.st0{display:none;}
	.st1{display:inline;}
	.st2{fill:#FFFFFF;}
	.st3{fill:#FCA5AB;}
	.st4{display:inline;fill:#04ACD3;}
	.st5{display:inline;fill:#D3D3D3;}
	.st6{display:inline;fill:#A05F68;}
	.st7{display:inline;fill:#AFCDB4;}
	.st8{display:inline;fill:none;stroke:#000000;stroke-miterlimit:10;}
</style>
<g id="bg_00000008106780772167101170000003883739718347148687_" class="st0">
	<g id="bg_00000018207453463063951330000011873510129868236196_" class="st1">
		<path class="st2" d="M50.6,143.8c19.4,11.8,28.1-6.1,21.8-23.1c5.5-4.8,8.9-12.6,9.5-20.3c2.1-1.7,4.8-4.3,6.3-7.8
			c0.7-0.1,1.6-0.2,2.5-0.4c-8.6,15.7,8.1,14.1,17,7c-5.3,9.9-6.2,22.9-1.6,33c2.3,6.2,11,15.7,16,10.4c0.6-1.2,0.3-2.7-0.7-3.6
			c-8.3-7.2-13-21.8-6.3-35.5c3.1,7.4,0.1,17.3,5.5,24.2c10,7.6,6-25.8,0.5-30.5c19.3,3,31.2-9,40.8-20.9c4.9,0.9,9.3,0.8,13.1-0.3
			c1.1,8.7,7.5,17.1,16.6,14.6c7.1-3.4,9.6-10.7,13.5-16.7c2.5,3.4,8.7,4.3,11.7,0.8c6.3-2.9,0.7-10.2-3.1-12.2c1-0.5,2-1,3-1.6
			c13,1.2,16.1,5.7,17.1,15.3c1.1,6.5,2.3,13.8,10.9,16.8c2.5,0.7,5-2.3,3.6-4.6c-7.7-12.3-2.6-32.9-24.3-33.7
			c2.5-2.7,2.8-2.7,5.1-1.2c3.3,2.1,8.7,1.7,9.7-2.7c3.7-6.4-7.5-10.7-12-12.3c-1.7-1.1-4.5-0.9-8.3,1.3c-5.6,1.3-11.3,2.7-15.5,7.6
			c-3.9-1.5-7.7-3.5-11.8-4.4c-0.2-1.3-1.3-2.3-2.6-2.5c0.6-1.4,0.6-2.8,0-4c2.3-0.9,6.2-3.7,4.4-7.5c3.7-2.2,8.4-4.2,10.6-8.2
			c1.6-4.6-3.1-8.6-7.8-8.2c-11.2,0.8-24.5,5.4-30.6,14.8c-3.4-0.5-6.7-0.1-9.9,1.1c-7.3-9.3-29.1-10.9-30.4,4.2
			c-5.2,5.2-0.8,13.2,3.6,17.7c-4.4,0.5-8.7,1.6-11.6-2.1c1.8-2.3,2.1-4.2-0.2-7.2c4.2-3.4,2.5-10.5-3.8-9.1c-0.5-4.8-7-6.8-9.3-2.2
			c-5.6-2.2-11.2,3.4-6.3,8.8c-6.3,3.8-2.4,11.2,3.6,10c0.6,3.1,3.9,5.4,6.9,4.4c0,0.8,0.3,1.6,0.7,2.2c-0.1,2,1.4,3.7,2.9,4.8
			c1.1,4.2-0.7,8.6,0.8,12.3c6.1,4.5,5.9-5.7,5.5-9.6c2.4,1.4,4.9,2.2,7.5,2.7c-0.3,0.8-0.3,1.5,0,2.3c-1.5,0.8-1.9,3-1.3,4.4
			c-4.2,2.4-7.5,6.4-9.6,9.7c1.4-3.6-2.5-5.6-5.3-5.2c2.7-4-1.9-7.2-5-5.6c-1.3,0.7-1.7,1.5-3,1.8c-5.8-5.7-9.7-4.8-13.4-2.1
			c0.4-1.4,0.2-3.2,0.6-4.7c1.9-1.2,5-2.4,3.9-5.3c0.6-0.8,0.8-1.8,0.5-2.8c0.8-2,0-4.2-2.5-4.8c-0.7-2.4-4.7-2.2-5.8-1.2
			C80.5,48,76.2,54,76.5,58c-0.1,0.1-0.2,0.3-0.2,0.3c-0.6-0.5-1.2-1-2-1.1c-3.4-0.2-3.6-1.6-5.8-2.9c-5.6-1.8-7.8,2-11,4
			c-5.4,0.3-8.7,7.5-9.7,12.3c-9.6-6.7-16.8,3.6-6.6,9.8c-0.7,2.5,1.2,5.4,4.5,6.4c0.1,1.9,1.2,3.4,2.7,4.4
			c-7.6,1.8-12.3,8.5-17.3,13.4c-12.3,5-28.1,4.9-22.9,27.2c0.6,3,5.2,3,5.8,0c2.9-15.2,4.7-15.1,19.6-18.6
			c6.5-2.4,11.4-14.9,18.1-13.2c-8.3,12.3-9,4.1-13.9,22.1c-5.1-1.6-9.9,1.9-14,4.3c-6.6-0.2-13.6,9.6-9,15.1
			c0.3,3.1,4.3,4.4,6.6,3.1c3.7-1.4,4.8-5,8.2-6.3c0,0.6,0,1.2,0.2,1.8c-1.8,7.2,7.8,5.8,11.1,3.1c3.5-2.5,6.3-1.5,9.6,0.5
			L50.6,143.8z"/>
	</g>
</g>
<g id="clothes">
	<path class="st3" d="M98.6,74.5c-10.3-10.8-16.2,11.8-8.4,2.8c2.3-5.7,6.8,2.8,10.1-1.2C99.9,75.6,99.1,75,98.6,74.5z M79.9,98.1
		c2.7-2.1,5.2-4.9,6.3-8.2C82.6,89.4,77.5,95.7,79.9,98.1z M57.1,95.1c-10.9-5.1-17.5,5.5-24.2,12c-12.8,5.3-26.5,4.5-21.7,23.9
		c4.1-17,3.4-16.1,21.8-20.8c7.4-4.3,11.6-17.6,22.3-12.2C56.5,98.2,56.6,95.9,57.1,95.1z M188.3,43.5c-28.1,7-34.1,53-70.3,48.1
		c-8.3,1,20.7-9.6,20.6-17.5c-3.7-1.4-6.2,3.7-5.9,0.1c-1.5,1.4-1.7,0-1.5-1.4c-7.6,0.3-14.2,8.6-17.6,16.5
		c-6.4-6.8-25.2,2.2-21.5,11.7c6.3,1.7,14.1-4.8,19.2-7.8c1.5,7.6-5.7,14.3-5.1,22.2c0,9.2,3.1,23.3,13.4,25.6
		c-12.6-11-13.1-30.4-4.6-43.2c8,7.3,2.4,20.2,8.2,27.9c1.3-10.3,1.1-21.5-6.4-29.5c-0.3-0.4-2.2-3.4-0.7-3.5
		C153.7,103.9,163.9,56.9,188.3,43.5z M117.4,85.6c17.8-21.1,22.2-5.3-1.3,2.4C115.9,87.4,116.9,86.1,117.4,85.6z M109,90.2
		c-14.5,16.8-22.3,7.6-2.5-0.7C107.3,89.2,109.5,88.7,109,90.2z M241.9,82c-2.1-10.5-2.7-23.5-16.7-24c-1.4,0-8.2-2.2-6.7,0.2
		c27.1,1.1,11.2,26.2,27.2,31.7C244.3,87.4,243.1,84.7,241.9,82z"/>
</g>
<g id="primary_00000137838176473133889210000013408398346496791717_" class="st0">
	<path class="st4" d="M105.6,42c-6.6,9.3,6.6,12,1.9,0.7c-0.3-0.5,0.5-1.1,0.9-1c3,10.8,13.7,1.9,0.4-1.5c8.5,1.6,10.5-9.5,1-3.7
		c-0.4,0.3-0.7,0.4-0.8,0.8c4.3-9.3-6.5-9.9-2.1,0c-1.3,0.5-1.3-3.1-2.8-3.7c-2.5-2.7-7.9-1-4.7,2.8c0.8,1.5,4.6,2,4.3,3.3
		C91.7,41,98.2,50.8,105.6,42z M105.5,38.5c0.4-0.5,1-0.7,1.6-0.6c0.3,0,0.7,0.2,0.9,0.4c0.6,0.5,0.8,1.3,0.7,2
		c-0.2,0.7-0.7,1.3-1.4,1.6c-0.6,0.2-1.4,0.2-1.7-0.4l-0.4-1.3C105,39.6,105.1,39,105.5,38.5z"/>
</g>
<g id="skin_00000107576230593949107140000004289814371366652322_" class="st0">
	<path id="skin" class="st5" d="M66.2,83.5c0,0,0.6,2,0.3,3.6c-0.3,1.7-1.2,3.2-1.2,3.2c-0.4,0.5-0.9,1-1.5,1
		c-0.9,0-1.5-0.9-1.7-1.7c-0.3,0.4-0.8,0.5-1.3,0.5c-0.4,0-0.8,0-1-0.3c0,0,0,0,0-0.1l-1,0.8c-0.2,0.1-0.4,0.2-0.7,0.2l0,0
		c-1.1,5.9-3.7,12.5-7.6,16.2c-2,1.9-4.7,3.2-6.2,5.6c-1.3,2.1-1.4,4.7-2.1,7c-0.6,1.9-1.6,3.6-2.2,5.5l-1.7,0.1
		c-2.2-0.4-4.6-0.7-6.7,0.1c-2.5,1-4.3,3.4-6.9,4c-0.8,0.2-1.6,0.1-2.4,0.3c-2.4,0.6-3.9,3-5,5.3c-0.4,0.7-0.8,1.5-0.9,2.4
		c-0.1,0.8,0.2,1.8,0.9,2.2c0.3,0.2,0.6,0.3,0.7,0.6c0.1,0.2,0,0.5-0.1,0.8c0,0.5,0.4,1,0.9,1.1s1.1,0,1.6-0.2
		c2.4-1,3.8-3.5,5.9-5.1c1.7-1.3,4-2,6.2-1.8l2,0.8c-0.1,0.2-0.3,0.3-0.4,0.5c-0.5,0.5-0.9,1-1.2,1.6s-0.2,1.4,0.3,1.9l-0.5,1.8
		c-0.1,0.7,0.8,1,1.5,1c3.9-0.1,7.1-3.8,11-3.9c1.9,0,3.6,0.8,5.3,1.6c2.5,1.3,4.9,2.8,7.6,3.6c2.7,0.9,5.7,1.1,8.2-0.2
		c4.3-2.1,5.7-7.6,5.3-12.4c-0.4-4-1.7-7.8-2.3-11.7l1.1-1c4.1-3.6,6.8-8.7,8-14.1c1-4.3,1-8.6,0.6-13l4.4-1.3h-0.1
		c0.1,0,0.2,0,0.3-0.1l0,0L83.4,90c2.2-0.3,4.4-0.5,6.6-0.9c2.9-0.6,5.6-1.8,8.3-3.1c0.8-0.3,1.6-0.7,2.3-1.1
		c1.2,1.3,2.7,2.2,4.4,2.4c0.3,0,0.7,0.1,0.9-0.1s0.4-0.6,0.2-0.8l-0.2-0.1c0.6,0,1.1,0,1.7,0c0.3,0,0.6,0,0.9-0.2
		c0.2-0.1,0.4-0.5,0.3-0.7c0-0.1,0-0.2,0-0.3c-0.1-0.2-0.3-0.3-0.4-0.4c0.2,0,0.4-0.1,0.7-0.1c0.3,0,0.6-0.1,0.9-0.2
		s0.5-0.4,0.5-0.6c0-0.3-0.3-0.5-0.7-0.6c-0.3-0.1-0.7-0.1-1-0.1c-0.5-0.1-1-0.2-1.5-0.3c0-0.2,0-0.4-0.1-0.5c0-0.1-0.1-0.2-0.1-0.3
		c0.9,0.1,1.7,0.1,2.6-0.1c0.4-0.1,0.8-0.2,1.2-0.5c0.4-0.2,0.6-0.6,0.6-1.1c0-0.2,0-0.4-0.2-0.5c-0.2-0.2-0.5-0.2-0.7-0.2
		c-0.9,0-1.7,0-2.6-0.2c-1.5-0.3-2.8-1.2-4-2.2l0.1-0.4c0.8-0.4,1.6-0.9,2.2-1.6c0.3-0.4,0.7-0.9,0.4-1.3c-0.2-0.4-0.9-0.5-1.3-0.3
		s-0.8,0.6-1.1,0.9c-1,0.8-2.5,0.9-3.7,1.6c-0.6,0.3-1.2,0.9-1.6,1.4c-2.9-0.2-5.7,0.5-8.5,1.2c-1,0.3-2,0.5-3,0.6
		c-1.1,0.1-2.2,0.1-3.3,0.1c-1,0-1.9,0.1-2.9,0.2l0.7-1.5c1-2.5,2.1-5,2.6-7.7c0.3-1.2,0.4-2.4,0.4-3.7l0.4-1.9
		c0.2-0.8,1-1.4,1.8-1.9c0.4-0.2,0.8-0.4,1.2-0.7c0.2-0.1,0.7-0.3,0.9-0.5c0.1-0.1,0-0.2-0.1-0.3s-0.2-0.1-0.4-0.1
		c-0.1,0-0.3,0-0.4,0c-0.3,0.1-0.9,0.1-1.2-0.1c-0.2-0.1-0.4-0.3-0.3-0.5c0.1-0.4,0.7-0.7,1.1-0.9c0.5-0.2,1-0.5,1.4-0.8
		c0.1-0.1,0.2-0.1,0.3-0.2s0.1-0.2,0-0.3c0,0-0.3-0.7-1.2-0.9c0.3-0.2,0.5-0.3,0.8-0.5c0.4-0.2,0.8-0.6,0.6-1
		c-0.2-0.4-0.7-0.3-1.1-0.3c-1.3,0.3-2.5,0.6-3.6,1.3l0,0c0.5-0.4,1-0.9,1.5-1.4s0.9-1.1,0.7-1.7c-0.6-0.2-1.2,0.1-1.7,0.4
		c-1.2,0.7-2.2,1.5-3.2,2.4h0.1h-0.1c-0.1-0.1-0.1-0.2-0.2-0.4c-0.1-0.1-0.2-0.3-0.2-0.5c-0.1-0.2,0-0.4,0-0.6
		c0-0.4,0.1-0.8,0.1-1.1c0-0.2,0-0.4-0.1-0.6c-0.1-0.2-0.4-0.2-0.6-0.1c-0.2,0.1-0.3,0.2-0.5,0.4c-1.1,1.3-1.5,3.1-1.3,4.7l-0.8,1.2
		c-1.2,1.4-1.9,3.1-2.5,4.8c-0.2,0.6-0.5,1.2-0.7,1.8c0,0.1-0.1,0.1-0.1,0.2c-0.1,0.3-0.2,0.6-0.3,0.8c-0.3-0.2-0.6-0.4-0.8-0.7
		c0-0.6-0.1-1.3-0.3-1.8c-1.2,1-2.8,1.7-4,2.3c0.9,2,1.2,3.1,0.1,5.4c0.1,2-1.9,2.2-3,2.9c-0.5,1.9,0.8,3.8,2.8,3.8
		c1.4,2-3.2,3.3-4.3,1.4L66.2,83.5z M57.2,90.6L57.2,90.6L57.2,90.6z M57.7,90.8L57.7,90.8L57.7,90.8z M56.9,90.4
		C56.8,90.4,56.8,90.4,56.9,90.4C56.8,90.4,56.8,90.4,56.9,90.4z M233,44.5c-2.1-1.8-5.1-1.9-7.5-3.3c-1.8-0.9-3.5,0-4.8,1.2
		c-6.2,1.5-12.7,2.6-16.6,8.6c-6.6-2.2-12.9-6.5-19.3-5.4c-9,6.5-16.2,17.3-23.9,27.1c5.8,1.3,12,1.4,17.1-1.3
		c-0.4,7.2,3.8,17.8,12.5,16.2c6.9-3.3,9.1-11.7,13.5-17.4c2.4-1.3,4,3.1,6.5,3.4c0.5,0.2,2.4,0.1,1.8-1c1.2,1.3,3.1,0.2,1.9-1.4
		c1.2,1.1,2.9,0.1,2.6-1.5c-1.5-3.9-6.2-5.4-8.8-8.4c16.4-5.5,14.4-15.6,22.3-10.6c2.2,1,4.3,1.8,4.2,0.2c1.2,0.5,1.7-0.8,1.1-1.7
		C238.7,48.8,233.9,45.5,233,44.5z M193.6,66.6l-0.1-1.7c1.4-0.1,2.9-0.3,4.3-0.6C196.6,65.3,195.1,66.1,193.6,66.6z M153.3,70.5
		c-5.3,2.7-11.5,4.4-17.4,3.2c-0.9,0-1.5,1.4-2.3,1.8c-1.1,0.1-0.9-1.4-0.4-2c-2,2.5-2.5,0.6-1.4-1.4c-0.5,1-4.1,3-3.3,0.8
		c0.8-1,2.1-1.6,3-2.5c-1,0.9-5.3,2.1-4.8-0.2c1.5-0.9,3.7-0.8,4.9-2.3c-1.5,0.2-5.7-1.5-2.2-2.1c5.9,0.8,11.7,1.8,17.2-1.3
		c-1.1-1.2-2.2-2.4-3-3.9c-8.2,2.2-18.3,3.9-25.7-1.4c-1.1-0.6-4.2,0.1-4.1-1.5c-0.7-0.1-1.3-0.5-1.4-1.2c-1.1-0.4-1-1.5-0.5-2.3
		c-1.2-0.4-1.7-2.5-0.1-2.4c0.2-0.5,0.2-2.1-0.3-2.8c2.4-0.7,4.6,3.6,7.1,4.3c5.6,1.6,11.6-0.5,17.3-0.8c-1.1-1.4-1.1-2.8-1.9-4.5
		l0.4,0.3c-0.8-1.5-2.7-2.8-2.3-4.7c2.8,2.8,7-1.3,9.6-2.2c1.7,1.3,4.2-0.4,5.8,1.2c1.2,0.3,2.1-1.4,3.2-0.3
		c2.6,2.6-1.3,4.4-1.8,6.5c1,0.7,3.9,0.2,3.9-1.5c1.2,0.5,3.8-2,1.7-2.6c7.7-1.1,14.4,5.2,21.7,4.7c-7.5,5.8-13.4,14.2-19.7,22.1
		C155.4,71.2,154.3,70.9,153.3,70.5z"/>
</g>
<g id="white_00000125594804242268465790000014595840045756049819_" class="st0">
	<path id="white" class="st6" d="M66.2,83.5c-0.9-3.2-0.3-6.7-0.2-10c-0.2-14.3-10.8-13.9-3.9,2.3c-3.3-1.1-6.2,2.3-2.3,4
		c-0.5,0.2-0.9,0.6-1.3,1c-1.8-0.3-4.9-0.2-4.6-2.7c-1.6,0.1-3.2-0.5-3.2-2.2c-11.8-9.7-16.5-0.8-4.6,3.1c-4.1,2.2-0.5,5.7,2.8,5.1
		c-1.5,5.1,4.1,6.3,7,3.3c0,2.5,2.2,4.5,4.1,2.2c0,0,0,0,0,0.1c0.7,0.5,1.8,0.4,2.3-0.2c1.3,3.5,3.9,1,4.4-2.5
		C66.8,85.5,66.2,83.5,66.2,83.5z M199.5,16.4c-9.3-3.2-29.1,4.9-32.5,14.4c-4.2-1.2-8.9-0.8-12.8,1.6c1.2,2.5,1.4,5.2-0.2,7.5
		c-0.7,1.7,3.7,3,0.2,4.9h0.1c5.9-0.9,11.3,2.7,16.8,4.2c0.1-0.1,0.2-0.2,0.3-0.3c2.2,0.3,5.5-0.5,4.9-3.3c3.6,0,6.3-1.2,2.1-3.9
		c7.4,0.6,11.9-5,1.8-5.5c5.9-0.3,17.5-7.3,4.3-6.9C188.4,27.7,205.3,21.8,199.5,16.4z"/>
</g>
<g id="hair_00000135650605508988591030000010934983497935337114_" class="st0">
	<path id="hair" class="st7" d="M74,60c-2.8-0.4-4.5-0.8-6.4-3c-4.3-1.5-6.1,3.1-9.4,4.2c-5.6-0.4-10.6,15.4-5.6,16.8
		c0.4,0.1,0.8,0.1,1.1,0.1l0,0c-0.1,0.9,0.3,1.5,1,1.9c0.6,0.3,1.4,0.5,2.2,0.6l0.8,0.1c0.4,0,0.8-0.1,1.2-0.3
		c0.3-0.2,0.6-0.4,0.9-0.6c-0.5-0.2-1.1-0.6-1.4-1c-0.3-0.5-0.5-1.1-0.4-1.7c0.2-0.7,1-1.2,1.7-1.4c0.8-0.2,1.6-0.1,2.4,0.1
		c-1.4-3.4-2.2-7.1-2.3-10.7c0-0.4,0-0.8,0.2-1.1c0.3-0.6,1-0.8,1.6-0.7s1.2,0.5,1.6,0.9c2.5,2.3,2.9,6,2.8,9.3
		c-0.1,2.6-0.5,5.3-0.2,7.9h0.1c1.3,1.6,5.5,0.2,4.2-1.6c-1.9,0-3.3-2-2.8-3.8c1.1-0.7,3.1-0.9,3-2.9c1.1-2.4,0.8-3.4-0.1-5.4
		C73.3,66.3,78.7,63.4,74,60z M154.3,44.7c3.5-1.8-0.9-3.2-0.2-4.9c2.1-3.1,0.8-9.1-2.1-9c-0.2,0-0.2-0.4-0.2-0.5
		c-1.6-3.6-5.7-5.3-8.8-4.7c-6.9-3.4-15.1,0.2-15.1,8.5c-3.9,3.1-2.4,7.5,0.4,10.6c0.1,2.5,4.1,5.6,6,3.7c-0.8-1.5-2.7-2.8-2.3-4.7
		c2.6,2.8,6.8-1.1,9.6-2.2c1.8,1.3,4.2-0.5,5.8,1.2c1.2,0.3,2-1.5,3.2-0.3c2.6,2.7-1.5,4.5-1.8,6.5c1.1,0.7,4,0.1,3.9-1.5
		C154.1,47.8,156.5,45.1,154.3,44.7z"/>
</g>
<g id="line_00000035511034630644498760000000443577023661157533_" class="st0">
	<path id="line" class="st8" d="M74.2,65.8c-0.1,2.3,2.4,2.2,3.4,3.7c0.5,0.8,0.7,1.7,0.8,2.6c0.1,1.4,0.4,3.7-0.8,4.7
		C77,77.3,76.5,77.7,76,78 M74.1,69.8c0.1,0.2-0.2,0.4-0.4,0.4c-0.2-0.1-0.3-0.3-0.3-0.6c0-0.1,0.1-0.2,0.2-0.3
		C73.8,69.2,74,69.6,74.1,69.8z M76.1,73.8c0.1-0.3,0.3-0.6,0.4-0.8 M67.3,75.9c-0.4,1.3,0.2,2.8,1.3,3.5s2.7,0.7,3.7-0.2
		 M70.4,59.6c0.7-0.1,1.4-0.1,2.1,0c0.5,0.1,1.1,0.2,1.6,0.4c1.2,0.6,1.7,2.1,1.8,3.4 M51.4,70c-0.2-2.3,0.7-4.7,2.4-6.3
		c1.2-1.2,2.7-2,4.4-2.4c0.9-0.2,1.3-0.2,1.9-0.8c0.6-0.6,0.9-1.3,1.6-1.9c1.3-1.1,2.9-1.7,4.6-1.7c0.5,0,0.9,0,1.3,0.2
		c0.7,0.3,1.3,0.9,1.8,1.6 M51.1,72.7c-0.4,1.1-0.8,3.2-0.3,4.3c0.5,1,1.8,1.1,2.9,1.1c-0.2,2,1.5,2.2,3.1,2.5 M68.1,75.5
		c1.2-0.2,2.2-1.3,2.2-2.5c0-0.2,0-0.4,0-0.6c0.1-0.2,0.2-0.4,0.4-0.6c0.8-1.2,0.5-2.9-0.6-3.8 M73.2,62.2c0.6,0.4,1.2,1,1.2,1.6
		c-0.1,0.8-1.2,1.4-2.1,1c0.5,0.3,0.8,0.9,0.6,1.5c-0.2,0.5-1.1,0.9-1.6,0.6 M75.4,67.7c0.3-0.9,0.7-1.7,1-2.6
		c0.7-1.7,1.3-3.4,2.5-4.8 M79.7,59.2c-0.2-1.7,0.3-3.4,1.3-4.7c0.1-0.2,0.3-0.3,0.5-0.4c0.2-0.1,0.4-0.1,0.6,0.1
		c0.1,0.1,0.1,0.4,0.1,0.6c0,0.4-0.1,0.8-0.1,1.1c0,0.2,0,0.4,0,0.6c0.1,0.2,0.2,0.3,0.2,0.5c0.3,0.5,0.5,1.2,0.4,1.8 M84.6,58.9
		c0.4,0.5,0.7,1.1,0.9,1.6 M82.7,57.1c1-0.9,2.1-1.8,3.2-2.4c0.5-0.3,1.1-0.6,1.7-0.4c0.1,0.6-0.3,1.3-0.7,1.7
		c-0.6,0.6-1.3,1.2-2,1.7c1.1-1,2.6-1.4,4.1-1.7c0.4-0.1,0.9-0.1,1.1,0.3c0.2,0.4-0.2,0.8-0.6,1c-1.1,0.7-2.2,1.4-3.2,2 M84.4,62.3
		c0.9,2.6,0.8,5.4,0.3,8.1c-0.6,2.7-1.6,5.2-2.6,7.7 M85.5,64.8c0.2-0.8,1-1.4,1.8-1.9c0.4-0.2,0.8-0.4,1.2-0.7
		c0.2-0.1,0.7-0.3,0.9-0.5c0.1-0.1,0-0.2-0.1-0.3s-0.2-0.1-0.4-0.1c-0.1,0-0.3,0-0.4,0c-0.3,0.1-0.9,0.1-1.2-0.1
		c-0.2-0.1-0.4-0.3-0.3-0.5c0.1-0.4,0.7-0.7,1.1-0.9c0.5-0.2,1-0.5,1.4-0.8c0.1-0.1,0.2-0.1,0.3-0.2c0.1-0.1,0.1-0.2,0-0.3
		 M73.2,81.3c3.6-1.1,7.3-1.8,11-1.8c1.1,0,2.2,0,3.3-0.1c1-0.1,2-0.4,3-0.6c2.8-0.7,5.6-1.5,8.5-1.2c0.4-0.6,1-1.1,1.6-1.4
		c1.2-0.6,2.6-0.7,3.7-1.6c0.4-0.3,0.7-0.7,1.1-0.9c0.4-0.2,1.1-0.2,1.3,0.3c0.2,0.4-0.1,1-0.4,1.3c-0.6,0.7-1.4,1.2-2.2,1.6
		l-0.1,0.4c1.2,0.9,2.5,1.8,4,2.2c0.8,0.2,1.7,0.2,2.6,0.2c0.3,0,0.6,0,0.7,0.2c0.1,0.1,0.2,0.3,0.2,0.5c0,0.4-0.3,0.8-0.6,1.1
		c-0.4,0.2-0.8,0.4-1.2,0.5c-1,0.2-2,0.2-2.9,0.1 M75.7,92.5c4.1-2.6,9.4-2.2,14.2-3.3c3.7-0.8,7.1-2.4,10.3-4.2 M99.4,83.4
		c1.1,2.1,3.2,3.6,5.6,4c0.3,0,0.7,0.1,0.9-0.1c0.3-0.2,0.4-0.6,0.2-0.8 M103.6,85.7c1.2,0.7,2.7,0.7,4.1,0.7c0.3,0,0.6,0,0.9-0.2
		s0.4-0.5,0.2-0.8 M107,82.7c0.6,0.2,1.1,0.3,1.7,0.4c0.3,0,0.7,0,1,0.1s0.6,0.3,0.7,0.6c0,0.3-0.2,0.5-0.5,0.6s-0.6,0.2-0.9,0.2
		c-0.6,0.1-1.3,0.2-1.9,0.1s-1.3-0.3-1.5-0.8 M66.2,83.5c-0.9-3.2-0.3-6.7-0.2-10c0.1-3.3-0.3-7.1-2.8-9.3c-0.5-0.4-1-0.8-1.6-0.9
		C61,63.2,60.3,63.5,60,64c-0.2,0.3-0.2,0.7-0.2,1.1c0.1,3.7,0.9,7.3,2.3,10.7c-0.8-0.1-1.6-0.2-2.4-0.1c-0.8,0.2-1.5,0.7-1.7,1.4
		c-0.2,0.6,0,1.2,0.4,1.7c0.3,0.5,0.9,0.8,1.4,1c-1.3,0.6-2.3,1.8-2.6,3.2c-0.2,0.6-0.2,1.4,0.3,1.9s1.3,0.5,2,0.5
		c0.6,0,1.2-0.1,1.8-0.1 M61.3,86.4c-0.7,0.7-1.5,1.4-1.7,2.4c-0.1,0.3,0,0.7,0.2,1c0.3,0.3,0.7,0.3,1,0.3c0.5,0,1-0.1,1.3-0.5
		c0.2,0.8,0.8,1.8,1.7,1.7c0.6,0,1.1-0.5,1.5-1 M65.8,81.1c0.6,0.8,1.7,1.2,2.7,0.9c1-0.2,1.8-1.1,1.9-2.1 M50.3,75.7
		c-2.3-1.8-4.9-3.2-7.7-4.1c-0.9-0.3-1.9-0.5-2.6,0c-1,0.7-0.9,2.3-0.3,3.4c1.3,2.2,3.8,3.4,6.3,4c-1,0.7-2.1,1.6-1.9,2.7
		c0.1,0.8,0.8,1.4,1.5,1.8c1.3,0.7,2.8,0.8,4.2,0.5 M48.6,87c0.4,1.4,1.8,2.2,3.3,2.2c1.4,0,2.7-0.7,3.8-1.7
		c0.1,0.9,0.2,1.8,0.8,2.5s1.6,1,2.3,0.5 M79,91.2c0.5,4.5,0.4,8.9-0.6,13.3c-1.2,5.3-3.9,10.5-8,14.1 M58.3,90
		c-1.1,6-3.7,13.2-7.7,17c-2,1.9-4.7,3.2-6.2,5.6c-1.3,2.1-1.4,4.7-2.1,7c-0.6,1.9-1.6,3.6-2.2,5.5 M52.9,109.8
		c-1.9,1.2-3.2,3.3-3.6,5.5c-0.5,2.8,0.4,5.6,1.3,8.2c0.7,2.1,1.4,4.3,2.1,6.4 M69.1,117.2c0.3,4.8,2.1,9.3,2.5,14.1
		c0.5,4.8-1,10.3-5.3,12.4c-2.5,1.3-5.6,1.1-8.2,0.2c-2.7-0.9-5.1-2.3-7.6-3.6c-1.6-0.9-3.4-1.7-5.3-1.6c-3.9,0.1-7.1,3.8-11,3.9
		c-0.7,0-1.5-0.3-1.5-1 M33.3,139.6c-0.5-0.5-0.6-1.2-0.3-1.9c0.2-0.6,0.7-1.1,1.2-1.6c2.7-2.8,4.7-6.1,9.1-6.4c0.4,0,0.8,0,1.1,0.2
		c0.5,0.3,0.7,0.9,1.2,1.3c0.9,0.8,2.3,0.3,3.4-0.1c3.7-1.3,7.8-1.4,11.5-0.4 M38.4,125.3c-2.2-0.4-4.6-0.7-6.7,0.1
		c-2.5,1-4.3,3.4-6.9,4c-0.8,0.2-1.6,0.1-2.4,0.3c-2.4,0.6-3.9,3-5,5.3c-0.4,0.7-0.8,1.5-0.9,2.4c-0.1,0.8,0.2,1.8,0.9,2.2
		c0.3,0.2,0.6,0.3,0.7,0.6c0.1,0.2,0,0.5-0.1,0.8c0,0.5,0.4,1,0.9,1.1s1.1,0,1.6-0.2c2.4-1,3.8-3.5,5.9-5.1c1.7-1.3,4-2,6.2-1.8
		 M22.3,132.2c0.7,0.9,1.1,2,1.1,3.2 M41.2,132.6c0.3,1,0.3,2,0.3,3 M133.8,52.8c-2.9,0.3-5.7,0.6-8.6,0.9c-2.2,0.2-4.6,0.5-6.7-0.4
		s-3.6-2.9-5.6-4.1c-0.5-0.3-1.1-0.5-1.5-0.2 M111.8,51.8c-0.5-0.1-1,0.3-1.1,0.9c-0.1,1.4,3,2.7,3.3,1.3c0.1-0.3-0.1-0.6-0.3-0.8
		c-0.2-0.2-0.5-0.3-0.8-0.4 M141.9,61c-6.2,1.8-14.6,2.9-20.7,0.1c-1.2-0.6-2.1-1.5-3.4-1.9c-0.6-0.2-1.2-0.3-1.7-0.4
		c-0.5-0.1-1-0.2-1.5-0.3c-0.3,0-0.5-0.1-0.7-0.3s-0.3-0.5-0.1-0.6c-0.3-0.1-0.7-0.1-0.9-0.3c-0.3-0.2-0.5-0.4-0.4-0.7
		c0-0.1,0-0.1,0-0.2l-0.1-0.1c-0.6-0.2-0.9-0.8-0.8-1.4 M114.4,59.3c0.5,3.7,0.6,7.4,0.2,11.1 M112.3,51.7c-0.7-1.7-1.5-3.4-2.3-5
		c-0.5-0.9-0.9-2-1.6-2.8 M105.2,40.2c-0.2-0.6-0.1-1.2,0.3-1.7s1-0.7,1.6-0.6c0.3,0,0.7,0.2,0.9,0.4c0.6,0.5,0.8,1.3,0.7,2
		c-0.2,0.7-0.7,1.3-1.4,1.6c-0.6,0.2-1.4,0.2-1.7-0.4 M105.1,39.4c-1.5-0.1-2.8-0.9-4-1.7c-0.6-0.4-1.1-0.7-1.6-1.3
		s-0.9-1.4-0.9-2.2c0-0.4,0-0.9,0.2-1.2c0.3-0.5,1-0.7,1.6-0.7c1.4-0.1,2.8,0.5,3.8,1.4s1.7,2.2,2.1,3.6 M106.9,37.3
		c-0.1-0.2-0.1-0.4-0.2-0.6c-0.6-1.8-1.2-3.8-0.6-5.6c0.3-0.8,1-1.5,1.8-1.5c0.6,0,1.2,0.5,1.4,1c0.3,0.5,0.4,1.2,0.4,1.8
		c0.1,1.7,0,3.5-0.9,4.9 M103.3,39.9c-1,0.1-2,0.2-3,0.5c-1.1,0.3-2.2,0.8-2.8,1.7c-0.7,0.9-0.8,2.3,0,3.1c0.5,0.5,1.3,0.7,2.1,0.6
		c0.7-0.1,1.4-0.4,2.1-0.8c1.3-0.7,2.6-1.6,3.5-2.8 M105.1,42.7c-1.3,2-1.9,4.6-0.7,6.7c0.4,0.6,1,1.2,1.7,1.2c1.1,0,1.7-1,2-2
		c0.5-2,0.3-4.1-0.7-5.9 M108.7,38.8c-0.2-0.9,0.4-1.7,1.1-2.3c1.4-1.1,3.1-1.7,4.9-1.7c0.4,0,0.7,0,1,0.2c0.7,0.4,0.9,1.4,0.6,2.1
		s-0.9,1.3-1.6,1.7c-1.8,1.1-3.9,1.6-5.9,1.3 M108.4,41.7c-0.3,0.7,0,1.5,0.4,2.1c0.5,0.6,1.1,1.1,1.7,1.6c0.8,0.7,1.7,1.5,2.8,1.5
		c0.7,0,1.4-0.3,1.8-0.8s0.5-1.1,0.3-1.7c-0.1-0.3-0.4-0.7-0.6-0.9c-1.4-1.6-3.4-2.7-5.5-3.1 M114.6,55.3c0.2,0.3,0.3,0.6,0.3,1
		c0.4,0.1,0.8,0.5,0.9,0.9 M150.9,57.9c-0.2,2.7-1.8,5.3-4.2,6.6c-1.1,0.6-2.2,0.9-3.4,1.3c-2.1,0.6-4.2,1.2-6.4,1.2
		c-2.5-0.7-5-1-7.6-1.1c-0.5,0-1.2,0.1-1.3,0.6c-0.1,0.3,0.1,0.5,0.3,0.7s0.5,0.3,0.7,0.3c0.8,0.2,1.6,0.4,2.4,0.5
		c-0.9,0.9-2.2,1.6-3.5,1.8c-0.3,0.1-0.7,0.1-1,0.2s-0.6,0.5-0.6,0.8c0,0.5,0.7,0.8,1.3,0.8c1.3,0.1,2.6-0.3,3.7-1.1 M130.6,71.1
		c-0.6,0.4-1.2,0.9-1.8,1.4c-0.3,0.3-0.7,0.7-0.7,1.1c0,0.1,0,0.2,0.1,0.2c0.1,0.1,0.2,0.1,0.3,0.1c0.6,0.1,1.3-0.1,1.8-0.5
		c0.5-0.3,1-0.8,1.4-1.2c-0.4,0.6-0.5,1.5-0.6,2.2c0,0.1,0,0.2,0,0.3c0.1,0.3,0.5,0.2,0.8,0c0.5-0.3,0.9-0.7,1.2-1.1
		c-0.3,0.3-0.4,0.8-0.4,1.2c0,0.4,0.4,0.9,0.8,0.7c0.2,0,0.3-0.2,0.4-0.3c0.3-0.3,0.7-0.7,1-1 M136.3,73.8c2.8,0.8,6,0.4,8.8-0.3
		c2.3-0.6,4.7-1.2,6.8-2.2c4.9-2.3,8.7-6.9,10.2-12.1 M143.1,59.3c0,0.5,0.2,0.9,0.4,1.3c0.8,1.3,1.7,2.6,2.8,3.6 M161.5,72.9
		c1.7,0.3,3.4,0.4,5.2,0.6c3.1,0.2,6.2,0.2,9.1-0.8c1.9-0.7,3.5-1.8,5.1-3c2.2-1.6,4.4-3.2,6.6-4.8 M152.5,70.2
		c1.3,0.6,2.6,1.2,4,1.6 M187.7,45c3.4,0.7,6.6,2.1,9.8,3.4c1.9,0.8,3.8,1.6,5.8,2.4 M158.3,44.8c2.9,0.4,5.7,1.5,8.4,2.7
		c1.2,0.5,2.6,1.4,3.9,0.9 M203.5,51.6c1.5-1.8,3.1-3.6,4.9-5c1.9-1.4,4-2.5,6.4-2.9c2-0.3,4.1-0.2,5.8-1.3 M222.2,41.3
		c0.9-0.6,2.2-0.5,3.3-0.1s2,1,3.1,1.4c0.7,0.2,1.5,0.4,2.2,0.6c1.6,0.6,2.9,1.9,4,3.1c0.5,0.6,1.1,1,1.6,1.7c0.2,0.3,0.4,0.7,0.1,1
		c-0.1,0.1-0.2,0.2-0.4,0.2c-0.2,0.1-0.4,0-0.6,0.1c0.1,0.4,0.5,1.1,0.1,1.5c-0.3,0.3-0.8,0.3-1.2,0.2c0.1,3.2-8.3-3.2-9.5-1.5
		c-5.3,7.1-14.2,11.6-22.8,13.8c-4.9,1.3-10,2.1-15,1.5s-10-2.5-13.6-6.1 M193.4,65.1c0.5,2.9,0,6.2-1,9.1 M177.9,72.6
		c0.2,3.3,0.7,6.6,2.2,9.5s4.3,5.3,7.5,5.8c0.9,0.1,1.9,0.1,2.7-0.2c0.9-0.3,1.7-0.8,2.4-1.4c4.6-3.8,7.1-9.5,10.1-14.7
		c0.5-0.9,1.4-1.9,2.3-1.6c0.4,0.1,0.7,0.5,1,0.8c1.2,1.3,2.6,2.3,4.1,2.9 M208.1,61.7c1.8,1.2,3.1,2.9,4.9,4.2
		c1.5,1.1,3.2,2.1,3.6,4.1c0.2,0.8-0.3,1.8-1.1,2c-0.5,0.1-1-0.2-1.5-0.5c0.2,0.3,0.3,0.6,0.4,1s-0.1,0.7-0.4,0.9
		c-0.2,0.1-0.5,0.1-0.7,0.1c-0.4-0.1-0.8-0.3-1.2-0.6c0.3,0.3,0,0.9-0.3,0.9 M169.5,68.8c0.9,0.3,1.9,0.5,2.9,0.4 M163.8,44.2
		c1.7-1.5,2.2-3.8,2.4-6s0-4.5,0.6-6.6c0.7-2.9,2.7-5.4,5.1-7.3c2.4-1.9,5.1-3.2,7.9-4.4c5.1-2.3,10.5-4.4,16.1-4.3
		c1.3,0,2.7,0.2,3.7,0.9c1.1,0.7,1.7,2.2,1.2,3.4c-0.3,0.6-0.8,1.1-1.3,1.5c-4.4,3.6-9.6,6.3-15,7.9c1.2,0.3,2.2-0.1,3.4-0.1
		s2.6,0.7,2.6,1.9c0,0.9-0.9,1.6-1.7,2.1c-2.6,1.6-5.6,2.6-8.6,3c1.3,0,2.7,0.2,3.9,0.6c0.8,0.2,1.6,0.6,1.9,1.4
		c0.2,0.7-0.1,1.5-0.6,2s-1.3,0.7-2,0.9c-1.6,0.4-3.3,0.6-5,0.6c0.6,0.5,1.1,0.9,1.7,1.4c0.3,0.3,0.7,0.6,0.6,1
		c0,0.4-0.5,0.7-0.9,0.9c-1.1,0.5-2.3,0.7-3.5,0.6c0.4,1-0.2,2.1-1.1,2.7s-2,0.7-3,0.6 M154.6,32.1c0.8-1.1,2.2-1.4,3.5-1.6
		c2.4-0.3,4.8-0.3,7.2,0 M193.6,66.6c1.5-0.4,3-1.2,4.2-2.3 M134.7,50.3c0.4,0.8,0.9,1.5,1.3,2.3c0.4,0.6,0.7,1.3,1.3,1.8
		c0.7,0.6,1.7,1,2.6,1.2c1.6,0.4,3.4,0.5,4.9-0.2c1.9-1,2.8-3.1,3.6-5.1 M148.9,47.8c0.4-0.2,0.8-0.4,1.2-0.7c1-0.9,1.5-2.4,1.1-3.7
		c-0.1-0.4-0.3-0.7-0.6-1s-0.7-0.4-1.1-0.3 M141.6,46.3c0,0.2,0.3,0.3,0.5,0.3c0.1,0,0.2-0.1,0.2-0.2s0-0.2-0.1-0.3
		C142,46,141.7,46.2,141.6,46.3c0.1,0.3,0.3,0.5,0.5,0.5s0.4-0.2,0.4-0.4s-0.3-0.3-0.4-0.1 M135.5,48.6c-0.2,0.1-0.2,0.4,0,0.5
		s0.4,0.1,0.6,0c0.1-0.1,0.2-0.1,0.3-0.3c0-0.1,0-0.3-0.2-0.3h-0.1c-0.1,0-0.2,0.1-0.3,0.1c-0.1,0.1-0.1,0.2,0,0.3
		c0.1,0.2,0.4,0,0.5-0.1 M142.1,51.6c-0.3,0.2-0.5,0.3-0.8,0.4 M131.9,44c0.1,1.4,0.8,2.9,2.1,3.8 M132.6,48.9
		c-2.2-0.2-4.1-2-4.4-4.2c0-0.2,0-0.5-0.2-0.7c-0.1-0.2-0.3-0.4-0.5-0.5c-1.3-1-2.1-2.5-2.2-4.1s0.5-3.2,1.6-4.4 M127.8,34.1
		c0.3-4.2,2.6-8.7,7.1-9.6c2.3-0.4,4.7,0,6.9,0.8c0.4,0.1,0.8,0.3,1.1,0.3c0.4,0,0.7-0.1,1.1-0.1c3.3-0.6,6.8,1.7,7.6,5
		c1.3,0.1,2.4,0.9,3,2c0.6,1.1,0.7,2.4,0.6,3.7c-0.1,0.9-0.3,1.9-0.8,2.6 M154.1,41.1c0.8,0.2,1.4,0.9,1.5,1.8s-0.5,1.6-1.3,1.9
		c0.4-0.1,0.8,0.3,0.9,0.7c0.1,0.4-0.2,0.8-0.4,1.1c-0.5,0.6-1.3,0.9-2.1,0.8 M130.7,40.3c-0.3,1.1,0.2,2.3,1,3.1
		c0.8,1,2.1,1.7,3.4,1.4c0.4-0.1,0.9-0.3,1-0.7 M133.6,39.4c0,0.2,0.1,0.5,0.2,0.7c0.2,0.3,0.5,0.7,0.7,1c0.3,0.4,0.6,0.8,1,1.2
		c1.3,1.1,3.3,1.2,4.7,0.2 M140.1,38.7c0.1,0.7,0.3,1.3,0.6,1.9c0.3,0.6,0.8,1.1,1.5,1.3c1.4,0.5,3-0.5,4.2,0.2
		c0.3,0.2,0.6,0.4,0.9,0.6s0.8,0.1,1-0.2 M113.9,89.5c0.8-3.2,2.5-6,4.6-8.5s4.6-4.6,7.1-6.8 M111.4,93.2c0.6,1.5,0.5,3.3,0,4.9
		s-1.3,3.1-1.9,4.6c-1.8,4-2.9,8.3-3.2,12.7c-0.6,8.4,3,16.3,7.6,23.3c1,0.4,1.8,1,2.7,1.4c0.6,0.2,2.7,0.5,3.1,0.9
		c-1.7-2-3.4-4.1-5.2-6.1c-3.3-3.9-4.5-10.2-5.2-15.1c-0.4-2.9-0.4-6,0.4-8.9c0.7-2.6,2.2-5,3.2-7.5c1.3-3.7,1.8-7.8,1.2-11.7
		 M113.8,90.1c-0.7-1.5-2.2-2.5-3.8-2.8 M102,88.1c-3.9,1.2-7.4,3.9-9.6,7.3c-0.6,0.9-1,1.8-1.2,2.8s0.1,2.1,0.9,2.8
		c0.8,0.8,2.1,0.8,3.2,0.6c1.1-0.3,2.1-0.9,3.1-1.4c2.6-1.3,5.4-2.1,8-3.5s5-3.4,5.7-6.2 M96.6,100.3c-0.8,0.4-1.8-0.5-1.8-1.4
		c-0.1-0.9,0.5-1.7,1-2.4c2.7-3.4,6.5-5.9,10.7-6.9c0.9-0.2,1.9-0.4,2.8,0 M100.1,97.7c2.2-1.6,4.4-3.3,6.6-4.9
		c0.6-0.4,1.1-0.9,1.4-1.5 M86.7,77.4c0.6-1.4,1.3-2.7,2.2-3.9c0.5-0.7,1-1.4,1.8-1.7c0.5-0.2,1-0.2,1.5-0.2c2.4,0,4.7,1.3,6.4,3
		 M90.2,77.3c0.2-1.1,1.2-1.9,2.2-2c1.1-0.2,2.2,0.2,3,0.9 M82.8,90.4c-0.8,1.7-1.9,3.1-3.4,4.2 M85.7,91.2c-1.4,2.7-3.4,5-5.8,6.9
		 M57.1,95.1c-4.4-1.9-9.9-1.4-13.8,1.4c-4,2.9-6.3,7.7-10.4,10.6c-2.5,1.8-5.5,2.7-8.5,3.2c-2.8,0.5-6.2,0.1-8.4,2.1
		c-5.1,4.5-7,12.1-4.7,18.5c0.6-0.2,1.2-0.5,1.7-0.8c-1.1-4.7,0.2-9.9,3.1-13.7c0.7-0.9,1.4-1.7,2.4-2.3c2.1-1.3,4.7-1.3,7.1-1.6
		c2.6-0.4,5.1-1.2,7.5-2.4c3.1-1.6,4.5-3.7,6.8-6.4c1.4-1.7,2.7-3.5,4.4-4.9c2.7-2,6.3-2.5,9.5-1.6 M133,77.5
		c-2,2.7-4.9,4.6-7.9,6.1c-3,1.5-6.1,2.8-9,4.4c-0.1-0.7,0.9-1.9,1.3-2.4c1.2-1.5,2.5-2.9,3.9-4.3c1-1,2-2.1,3-3.1
		c0.9-0.9,1.9-1.9,3.1-2.4 M115.4,91c8.5-3,16.9-7.5,22.3-14.8 M115.3,92.4c0.4,2.9,2.7,5.1,4.4,7.5c2.5,3.6,3.7,8.1,4.1,12.5
		s0,8.9-0.5,13.3c-1-1.4-2.3-2.2-2.5-4c-0.3-2.3,0-4.9-0.1-7.2c0-1.5-0.1-2.9-0.3-4.4c-0.6-4.3-2.8-8.4-4.9-12.1 M115.7,91.2
		c0.2,0.3,0.6,0.3,1,0.3c14.2,0.3,28.6-4.2,37.6-15.9c1.4-1.8,2.5-3.7,3.7-5.6c2.4-3.6,5.4-6.5,8.1-9.9c2.5-3.2,5.2-6.4,8.1-9.2
		c2.6-2.5,5.9-5.8,9.3-7.2c1.5-0.6,3.2-0.8,4.8-0.4 M187.2,45.3c-1.7,0.2-3.2,1.1-4.6,2.1c-5.4,3.7-9.5,8.8-13.5,13.9
		c-5.8,7.2-9.8,15.7-16.5,22.1c-4.5,4.3-10,7.6-16,9.3c-7.1,2.1-13.3,2.1-20.3,0.1 M219,57.2c4.6,0.3,9,1.3,13.3,2.9
		c3.5,1.2,5.9,4.7,7,8.2c1.4,4.5,0.6,9.5,2.6,13.8c1.2,2.7,2.4,5.4,3.9,8c-1.8-0.5-5.4-1.9-6.3-3.7c-0.2-0.4-0.3-0.8-0.4-1.2
		c-0.9-5-2.2-10.2-2.8-15.2c-0.2-2-0.4-3.2-1.4-4.9c-1-1.6-2.2-3.4-3.8-4.5 M231.4,63.1c-3-1.9-6.2-3.4-9.5-4.4"/>
</g>
</svg>
