<?xml version="1.0" encoding="utf-8"?>
<!-- Generator: Adobe Illustrator 27.6.1, SVG Export Plug-In . SVG Version: 6.00 Build 0)  -->
<svg version="1.1" xmlns="http://www.w3.org/2000/svg" xmlns:xlink="http://www.w3.org/1999/xlink" x="0px" y="0px"
	 viewBox="0 0 256 256" style="enable-background:new 0 0 256 256;" xml:space="preserve">
<style type="text/css">
	.st0{fill:#FFD5CF;}
	.st1{fill:#B09373;}
	.st2{fill:#DDD9D7;}
	.st3{fill:#F4ECE9;}
	.st4{fill:#FFFFFF;}
	.st5{fill:#B0CDB4;}
	.st6{fill:#4E4228;}
	.st7{fill:#FFA485;}
	.st8{fill:#FFE266;}
	.st9{fill:#8388EE;}
	.st10{fill:#EF7B84;}
	.st11{fill:#A184E1;}
	.st12{fill:#F97DBC;}
	.st13{fill:#78EBC4;}
	.st14{fill:#8CB6F0;}
	.st15{fill:#9662E1;}
	.st16{fill:none;stroke:#000000;stroke-width:0.8;stroke-linecap:round;stroke-linejoin:round;stroke-miterlimit:10;}
</style>
<g id="skin">
	<path class="st0" d="M153.5,138.9c0.2-0.1,0.3-0.4,0.1-0.6c0.3-1.4,2.3-1.1,2.8,0c1.1,1.3,1.1-1.4,1.6-1.9c0.8,0,1.5-0.1,2.2-0.3
		c3.4,2.1,7.2-0.9,7.6-4.4c1.4,1.8-1.5,4.8,0.5,5.8c0.2,3.6-0.4,8.3-4.7,8.9c-0.1,0.6-0.1,1.3-0.1,1.9c-0.6-0.2-1,0.6-1.1,1
		c-2.1-0.6-4.1-1.4-6-2.5c0-0.9,0.2-1.7,0.6-2.5C155.5,142.9,153.5,141.1,153.5,138.9z M143.9,157.6c-0.8-1-1.8-2-2.2-3.2
		c-0.2-0.2-0.3-0.4-0.3-0.6c-3,2.6-4.8,6.6-5.7,10.3c-1.3,0.1-2.6,0.8-3.2,2c-2.1-1.8-3.8-4-5.6-6c-0.6,1.5-2,2.5-3.4,3.1
		c1,5.2,13.2,10.4,16.6,5.4c2.3-0.5,1.2-3.2-0.5-3.8c0.8-2.7,2.8-4.9,5.3-6.2C144.5,158.3,144.2,158,143.9,157.6z M91.5,161.7
		c1.3-4.5,6.8-7.6,11.5-6.7c0-1.3-0.1-2.7,0.3-4c-0.1-0.2-0.1-0.5-0.1-0.7c-4.8-1.1-9.6,1.8-12.6,5.5
		C82.1,153.5,84.7,165.9,91.5,161.7z M128.5,136.6c-0.1-0.7-0.1-1.5-0.6-2.1c-1.5-0.9-2.9-2-4.8-1.8c-3.6,1.5-3.3,8-7.7,7.5
		c-1.8-0.1-1.6,2.2-1.2,3.4c0.3,0.2,0.7,0.4,1,0.5c2.1,0.3,2.7,1.6,1.2,3.1c0,0,0,0,0.1,0c0.5,1.4,1.6,2.3,2.5,3.5
		c0.8,0.2,0.9,1.1,1.5,1.5c0.2-0.1,0.4-0.2,0.5-0.3c0.1-0.4,0.3-0.8,0.6-1c0.3-0.7,0.5-1.5,0.9-2.1c4,0,6.4-4.1,5.6-7.7
		c-0.5-0.5-0.3-1.6-0.2-2.2c0-0.1,0-0.2,0-0.3C128.3,137.9,128.6,137.3,128.5,136.6z M111.6,181c-2.6,0.9-5.6,2.5-8.4,1.5
		c-0.3,0.3-0.5,0.8-0.9,1c-0.2,0.4-0.4,0.8-0.6,1.2c-0.5,0.7-1.2,1.3-1.9,1.6c0.6,0.8-0.1,1.8,0.1,2.8c-0.1,0.9,0.7,1.9,0.1,2.7
		C106.5,193.5,112.5,187.5,111.6,181z M121.8,190.3c1.1-1.1,3.6-3,4.9-1.3c-0.2-1.5-1.2-2.8-1.6-4.2c-0.2,0-0.5-0.1-0.6-0.3
		c0-1.6-1.1-3.2-1.2-4.7c-0.3-0.6-0.7-1.2-1-1.9c-1.5-0.4-2.7,0.8-4.1,0.7c-1.8,0.8-3.7,1.3-5.5,2c3.9,2.8,5.4,7.5,7.8,11.3
		C120.9,191.3,121.4,190.8,121.8,190.3z M192.2,147.9c-0.4-2-2.9-4.2-4.7-2.3c-1.5-4.3-4.3,1.1-3.4,3.4c-3,1.6-6.6,2.2-10,1.9
		c0.6,2.1-0.5,4.5-1,6.6c4.8,0.1,9.9-1.6,13.3-5.1C188.9,152.5,192.9,151,192.2,147.9z M75.3,201.1c-0.9-0.6-2.1-0.4-3.1-0.4
		c-0.4-0.7-0.6-1.5-0.8-2.2c-1,0.1-7-3.7-4-3.6c0.7,0.7,2,0.9,3,0.6c0-0.1-0.1-0.2-0.1-0.3c2.4-1.1,0.5-2.3,0-3.7
		c-0.4-1.3-1.7-1.3-2.4-2.2c-2.3,0.1-0.8-2.5,0.4-3.1c0,0,0-0.1,0-0.1c1.3-1.6,3.2-3,3.9-5c0-0.1-0.1-0.1-0.1-0.2
		c0.1-0.4,0-0.8-0.1-1.2c-1-1.4,0-3-0.2-4.6c-0.1-0.1-0.2-0.2-0.3-0.4c-1,0.7-2.4,0.8-3.5,0.4c-1.2,1.2-2.8,1.9-4.5,1.8
		c-1.1,1.7-3,3.5-5.2,3c-0.5,0.8-0.9,2.3,0.2,2.8c0,0,0,0,0,0c0.3,0.1,0.4,0.4,0.3,0.6c4,2.2-1.1,7.4,1.1,10.9
		c-1.3,1.7-0.8,3.9,0.5,5.4c-9,5.3,5.7,14.2,3.7,2.2c2.3,1.5,4.3,3.4,6.7,4.6C73.3,207.3,78.1,203.4,75.3,201.1z M47.8,189
		c-1.3-1.9-4.1-1.4-6-2.5c-1.3-0.4-1.9-1.5-2.6-2.7c1-1.5,2-3,2.2-5c-1.2,0.2-1.4-1.3-1.1-2.2c-0.2-0.5-0.2-1.1-0.2-1.6
		c-1-0.1-1.8-0.7-2.4-1.5c-0.1,0-0.2,0-0.3-0.1c-1.2,1.7-3,3.4-5.2,3.2c-0.7,0.9-1.6,1.7-2.7,2.1c-0.5,1-1.8,0.8-2.7,1.2
		c0,0,0,0,0,0c-0.5,1.5,0.3,2.8,1.6,3.3c0,0,0,0,0,0c0,0,0.1,0.1,0.1,0.1c0.2,0,0.5,0.1,0.7-0.1l0,0c1.6-0.4,0.5,1.6-0.7,1
		c-0.2,0.4-0.7,0.6-1.1,0.4c-0.7,2.8-11.9,6.7-6.5,8.7c0.5,0.5,1.2,0.3,1.9,0.4c0.1,1.6,2.5-0.7,2.8-1.3c1.2-1.2,2.6-2.2,3.8-3.4
		c-0.6,3.2-2.1,6.8-0.3,9.8c-1,2-3.8,3.7-2.4,6.2c2.2,3.9,7.3,3.4,5.8-1.8c0.3-0.3,0.6-0.5,0.9-0.8c0.2,0.1,0.5,0.3,0.7,0.3
		c2.5,1.2,4,4.9,7.2,4.3c1.7-0.7,5.4-3.6,3.2-5.5c-0.8-0.5-1.9-1-2.6-0.2c-1.1-0.9-2.1-2.1-3.1-3.1c1.1-2.6,1.6-5,1.5-7.8
		C42.7,192.1,49.4,194.1,47.8,189z M203.6,202.3c-0.7-0.5-1.6-0.4-2.3,0.1c-3.7-4.1-1.8-2.8-2.1-7.7c-0.8,2.6-4.7,3.1-3.7-0.4
		c0-0.3,0.4-0.5,0.7-0.3c0.9-0.4,1.7-1.2,2-2.2c-0.9-1.8,1-3.9-2.4-3.1c-2.4,1.5,0-5.3,2.2-4.3c0.9-1.1,1.3-2.4,1.6-3.8
		c-0.2-1.6,0.6-3.5,0.3-5.3c-1,0.1-2.1-0.2-2.7-0.9c-0.1,0.1-0.3,0.3-0.5,0.3c0,0.1,0,0.2,0,0.3c-1.6,1.1-3.5,1.8-5.4,1.2
		c-1.5,1.4-3.3,2.4-5.2,2.2c-0.1,0.1-0.1,0.2-0.2,0.2c-0.9,2,1,3.1,2.1,4.2c0.1,0.1,0.3,0.2,0.4,0.3c-0.1,0.1,0.7,0.9,0.9,1.1
		c-2.3,1.6-2.4,4.6-2.2,7.1c-1.6,2.4-1.2,5.8,0.5,7.7c-9.2,6.3,6,14.2,2.9,3.2c0.1-0.3,0.1-0.6,0.2-0.8c3.4,1.6,5.5,5.2,9,6.5
		C202.5,208.5,206.5,204.5,203.6,202.3z M223.6,202.1c0.1,0.1,0.2,0.1,0.2,0.1C223.7,202.2,223.7,202.1,223.6,202.1z M230.8,191.1
		c0.1,1.4-0.3,2.8-0.8,4.3c0.3,0.9-0.1,1.9-0.5,2.7c0.9,0.9,1.9,1.9,2.8,2.8c5.2-0.9,2.8,4.9-0.4,5.9c-3.6,0.6-5.1-4.1-8.4-4.8
		c0,0,0,0,0.1,0c-0.3-0.1-0.6-0.2-0.9-0.2c3.5,11.4-10.3,3.6-4.5-0.8c0.2-0.7,0.7-1.3,1.3-1.9c-1.1-1.4-1.5-3.5-0.5-5.4
		c-1.3-3,0.3-7.7,1.8-10c-0.7-0.5-1.9-0.5-2.8-1.5c-0.4-0.8-1.3-1.5-1.2-2.6c1.4-0.7,2.3-1.8,3.1-3.1c1.1-0.3,2.1-1,2.9-1.7
		c0.4,2.4,3.3,2.2,3.8-0.1c0,0,0,0,0,0c0.2-0.3,0.3-0.6,0.4-1c1.2,0.6,2.9,0.7,4.1-0.1c-0.1,0.9,0.5,1.7,0.3,2.6
		c-0.4,0.9-0.7,2.5-0.4,3.4c-0.1,0.3-0.1,0.5-0.2,0.8c0.4,0.1,0.8,0.2,1.1,0.4c-0.8,0.1,0.3,0.9,0.3,0.9c0.1,0,0.3,0,0.4,0
		c-0.1,0.9,1.1,0.8,1.6,0.7c0.6,0.5,1.5,0.7,2.2,1.1c0,0.5-0.1,0.9-0.4,1.4C235.2,187.5,232.1,188.9,230.8,191.1z M228,181.4
		c-0.7,2,1.4,1.2,1.9,0.1C230,180.5,228.3,180.7,228,181.4z M206.3,186.8c-0.4-0.2-0.8-0.2-1.2-0.1c0.4,1.7,0,3.5-0.2,5.3
		C207,191.8,208.3,188,206.3,186.8z"/>
</g>
<g id="clothes">
	<path class="st1" d="M175.6,188c0.7-8.4-7.6-14.1-10-21.5c-2.5,1.5-6.5,0.8-9.2,0c-2,0.5-4.1,1-5.8-0.5c-0.3,0.3-0.5,0.6-0.7,1
		c0,0,0,0,0,0c-1.2,4.1-0.6,8.6-1.1,12.9c-0.8,0.6-1.4,1.7-0.5,2.5c-8.9,4.1-10.7,2.1-6.1,12.3c1.1,1.4,2.9-0.8,4.2-1.2
		c4.2-1.9,11.4-2.1,11.4-8.2c1.4-1.3,1.5-3.7,2-5.5c0,0,0,0,0,0c1.3,1.1,2.5,2.3,3.7,3.5c-1.1,1.2,0.4,2.3,1.5,2.7
		c0,0.1-0.1,0.2,0,0.3c-1.3,2.3,0.7,5.9,0.6,8.6c-0.3,2.9,6.5,1.8,8.2,1.1c2.3-0.6,1.6-2.5,1.3-4.2
		C175.6,190.8,175.3,189.2,175.6,188z"/>
	<path class="st2" d="M102.7,182.6c-0.3-0.9-1.6-0.8-2.2-1.5c-3.5-3-4.2-7.7-6.7-11.3c-2.9-3.7-6.9-1.4-4.1,2.5
		c1.9,4.4,5.6,9.1,10.2,10.6c0.1,0.1,0.2,0.2,0.3,0.2C100.9,183.7,102.9,184,102.7,182.6z M126.4,179.9c-0.5-0.7-3.1-2.5-3.3-0.9
		c0.7,1.7,0.5,4,1.7,5.5C126.6,184.5,127.5,181.2,126.4,179.9z"/>
	<path class="st3" d="M126.1,157.4c0-2.4-3.9-10.7-5.1-4.8c-0.9-0.4-1.1-1.6-2.1-1.9c-0.8-1.2-1.9-2.1-2.5-3.5
		c-2.3,0.9-4.7-0.6-7.1-0.4c-2.1,1.8-7.4,0-6.1,4.3c-0.7,4.3-0.9,5,3.5,6.1c0,0,0.1,0,0.1,0c0,0,0,0,0,0c0.4,0.2,0.8,0.4,1.2,0.6
		c-0.2,0.6-0.7,1.2-0.7,1.8c0.2,0.3,0.3,0.6,0.4,1c-1.3,1.5-23.4,6.3-15.5,7.5c3.9,3.1,4.5,8.3,7.8,11.8c5.6,6.7,14.6-1.7,21.5-1.9
		c0.9,0.5,2.2,0,3.3,0.6c2.3,0.2-2.9-3.8-3.3-4.5c-0.1-3.3-1.4-6.8-0.2-10C123.9,163.7,129.4,160,126.1,157.4z"/>
	<path class="st1" d="M95.6,191.1c-0.2,8.2-10.1,13.1-6.8,1.4c-0.6-3,2.5-7.5,5.7-6.8c0.7-0.1,1.4,0.2,1.7,0.8
		c-1.3,0.6-1.1,2.3-1,3.5C95.2,190.4,95.4,190.7,95.6,191.1z M138.9,194.4c-0.8-0.6-1.1-1.7-1.3-2.6c-0.4-0.5-0.3-1.4-0.1-2
		c-0.3-1.4-2.2-2-3.4-2.1c-3.1,0.2-2.6,4-2.8,6.2c-8.4,2.2-7.9,17.1,2.9,7.1c1.5,1.9,5.3,3.2,4.6-0.6c-0.6-2,0.9-3.9,0.5-5.9
		C139.2,194.5,139.1,194.5,138.9,194.4z M182.5,203c-1.1-0.5-2.4-0.7-3.6-1c-1-1.4-3.4-2.3-5.1-2.7c-1.6,0.4-2.9,1.5-4.5,1.8
		c-2.6-1.9-4.8,8.3,2.4,6.4C174.3,208.2,185.5,207.5,182.5,203z"/>
</g>
<g id="white">
	<path class="st4" d="M173.3,157.1c-0.4,2.6-2.9,2.4-4.9,2.1c-1.3,0.9-1.3,2.7-2.4,3.7c-0.2,1.6,0.8,4.2-1.8,4.3
		c-2.6,0-5.3,0.3-7.7-0.7c-3.1,1.8-9.7-1.2-6.4-4.9c-0.2-1-0.1-2-0.3-3c-0.1,0-0.1-0.2-0.2-0.3c-3.3,3-6.6-1-8-3.9
		c-1.9-4.1,7.2-6.3,10.1-6.8c3.7-2.3,7,0.9,10.6,1.7c0.3-2,2.6-0.5,3.9-0.3c2.5,0.4,5.6,0.1,7.6,1.7
		C175,152.6,173.7,155.1,173.3,157.1z M127.3,190.2c-0.9-4.6-9.1,1.1-5.8,3.7c1.1,1.4,1.8,7.9,4.2,5.9
		C127.6,196.7,129.4,193.6,127.3,190.2z M97.8,191.8c-1.8,0.3-3-1.3-2.8-3.1c-0.5-2.5,3.2-3.3,4.8-2.3c0.5,1.4-0.3,3,0.4,4.5
		C100.5,192.5,98.8,192.1,97.8,191.8z M58.7,191.1c0.3-0.1,0.5-0.2,0.7-0.4c-0.1-2.4,2.5-6.1-0.6-7.4c0,0,0,0,0,0
		c-0.1,0-0.1,0-0.2,0c-0.2,0.3-0.6,0.3-0.9,0.1c-1.7,0.8-4.2-0.8-5.4,0.9c-0.4,0.9,0.4,1.4,1,1.9c0,0.1,0.1,0.2,0.1,0.3
		c-0.7,2.3-0.2,3.6,2.3,2.6C55.4,190.6,57.3,192.1,58.7,191.1z M22.4,186.9c-0.2,0.8-0.6,1.8-0.2,2.5c1.9-1.2,3.7-2.5,5-4.4
		C25.7,183.3,17.6,184.2,22.4,186.9z M186.7,192c0.1-0.3,0.3-0.6,0.5-0.9c-0.1-2-0.2-4.1,0.9-5.8c-0.9-0.8-2.2-0.3-3.1,0
		c-4.6-1.6-7.3,4-1.4,4.1C180.4,191.6,184.7,193.3,186.7,192z M217.9,191.4c0.3-0.1,0.5-0.3,0.7-0.5c0.1-2.1,0.9-4.4,1.6-6
		c-2.3-0.7-4.8-1.9-7.2-1.3c-1-0.3-1.7,1.1-0.9,1.8c0.1,0.4,0.5,0.6,0.8,0.8c-0.9,1.3-0.2,4.3,1.9,3.1
		C214.6,191,216.6,191.9,217.9,191.4z M141.7,193.7c-0.6-1.5-0.5-4.4-2-5.1c-1.6,0.3-3.1,1.6-2.1,3.2c0.2,0.9,0.5,2,1.3,2.6
		C139.7,194.5,141.7,194.8,141.7,193.7z M173.6,196.5c-0.7-1.2-3.7,0.8-5.2,0.1c-1.2,0.4-0.4,2.5-0.2,3.4
		C170.3,201.9,174.5,199.3,173.6,196.5z M226.2,115.5c-0.9-1.6-3-2.1-4.4-0.9c-0.5-0.1-1,0-1.4,0.3c-1.1-0.5-1.6-1.6-2.1-2.8
		c1.9-3.3-1-6.3-1.9-9.5c-1.2-1.4-1.7,2.2-1.3,2.9c0,0,0,0-0.1,0c-0.9-3.6-3-1.8-2.4,0.8c-0.8,0.5-0.9,1.7-0.5,2.6
		c-0.1,0.2-0.1,0.3-0.1,0.3c0,1.7-1.1,3.9,0.7,5.2c0.1,1.1,1.1,1.6,1.9,2.1c-0.7,0.6-1.8,0.6-2.4,1.4c-1.3,0.8-3.8-0.6-4.3,1.3
		c-0.4,1.4-0.4,4.2,1.4,4.5c1.3-0.6,2.2-2.1,3.6-2.5c2.2,0.1,4.4-0.5,6.4-1.2c2.5-0.8,3.7-3.8,6.3-4
		C226.2,116.2,226.3,115.8,226.2,115.5z M77.6,111.6c-1.7-1.4-3.6,0.2-5.4,0.4c-1.4-4.9-6.5-5.8-10.2-8c-0.3-0.6-1.1-0.4-1,0.3
		c0.7,1.2,0.8,2.7,1.9,3.7c0,0.1,0,0.2,0,0.3c-0.9,0.1-1.8-0.1-2.5-0.5c-3.6-0.4,5,5.8,6,6c1.5,2.5-4.9,1.3-5.6,2.7
		c-0.8,1.2-0.6,3.9,1.2,3.9c1.6-0.6,2.5-2.3,4.1-3c4.1,1.6,7.2-1.4,10-3.9C77.2,113.4,79.1,112.9,77.6,111.6z M70.4,191.1
		c0.5-0.8,1.6-2.7,2.7-1.8c0.1,1.2-1.1,2.6-2,3.4c-0.1,0-0.1,0-0.2,0c1.6,2.2-1.5,3.7-3.4,2.4c-4.3-1.5,5,6.6,9.3,3
		c7.8-2.4,6.3-11.8-0.9-13.8c-5.3-0.3-12.4,3.1-8.2,4.8C68.4,190,69.6,190.3,70.4,191.1L70.4,191.1z"/>
</g>
<g id="hair">
	<path class="st5" d="M201.6,176.7c0.5,1.5,0,3.8-1.8,4c-0.6-1.2,0.5-3.8,0.4-5.4c-1,0.2-2.2-0.1-3-0.9c-0.1,0.1-0.3,0.3-0.5,0.3
		c0,0.1,0,0.2,0,0.3c-1.6,1.1-3.5,1.8-5.4,1.2c-1.5,1.4-3.3,2.4-5.2,2.2c-2.9,3,5.1,4.7,0.4,5.2c-2.5,0.3-4.1-2.5-3.2-4.7
		c-0.7-0.8-0.4-2.4,0.3-3.1c0-0.3,0-0.7,0-1c-1.7-3.6,2.7-8.2,6.2-7c1.9-3.7,7.7-2.5,9,1.1c1.6-0.2,3.2,1,3.8,2.4
		C203.6,173.1,203.1,175.4,201.6,176.7z M233,173.6c1.8-2.7-1-6.2-3.9-6.6c-1.5-3.7-6.6-3-8.2,0.3c-3.7-1-9,3.8-6.3,7.5
		c-0.1,0.5,0.1,1.1,0.4,1.5c-0.2,1.1-0.4,2.5,0.4,3.3c-0.4,1.1,2.8,4.9,2.6,2.5c-0.6-0.6-1.1-1.4-1.1-2.2c1.4-0.7,2.3-1.8,3.1-3.2
		c1.1-0.3,2.1-1,2.9-1.7c0.4,2.4,3.4,2.2,3.8-0.1c0,0,0,0,0,0c0.2-0.3,0.3-0.6,0.4-1c1.2,0.6,2.9,0.7,4.1-0.1
		c-0.1,0.8,0.5,1.7,0.4,2.6c-0.7,0.7-0.3,2-0.6,2.9c-0.1,0.2,0,0.5,0.2,0.6c1.1,0.4,1.8-1,1.9-1.9C234,176.9,233.3,174.9,233,173.6z
		 M73.8,172.4c-0.1-0.9-0.4-1.9-1.1-2.5c-0.6-1.1-1.7-1.8-2.8-2.2c-1.6-3.6-7.3-2.9-9.1,0.1c-4.5-0.5-8.5,4.9-5.2,8.6
		c-0.4,1.1-0.4,2.4-0.1,3.6c-0.2,0.7,0.3,2.1,1.1,2.2c0.3,1.1,3.1,1.7,1.8,0.2c0,0,0,0,0,0c-0.3-0.1-0.6-0.4-0.8-0.7
		c0.3-0.7,0.1-1.5,0.6-2.1c2.2,0.6,4.1-1.3,5.2-3c1.7,0,3.3-0.6,4.5-1.8c1.1,0.4,2.5,0.3,3.5-0.4c0.1,0.1,0.2,0.3,0.3,0.4
		c0.2,1.1-1.2,4.9,0.8,4.5C74.1,177.6,73,174.7,73.8,172.4z M42.7,171.9c-0.1-2.2-2.2-4-4.4-3.7c-1.8-3.8-8-2.8-10,0.4
		c-4.2-0.1-6.3,5.3-4.4,8.5c-0.6,1.6-0.6,3.8,0.6,5.1c0.1,1.5,2.6,3.6,3.9,2.3c1.2,0.5,2.3-1.5,0.7-1l0,0c-0.2,0.1-0.5,0.1-0.7,0.1
		c-1.6-1.3-2.3-0.6-1.9-3.3c0,0.2,0,0,0.1-0.1c0,0,0.2-0.1,0.2-0.1c0.9-0.3,2.2-0.2,2.7-1.2c1.1-0.4,2-1.2,2.7-2.1
		c2.3,0.2,4-1.5,5.2-3.2c0.1,0,0.2,0,0.3,0.1c0.6,0.8,1.5,1.3,2.4,1.5c0,0.5,0,1.1,0.2,1.6c-0.6,3.7,3.4,2.7,1.7-2.1
		C42.9,174,42.8,172.8,42.7,171.9z"/>
	<path class="st6" d="M130.5,133.4c-0.6-1.8-2.2-3.4-4.1-3.9c-7.5-4.8-15.5,1.4-21.8,5.3c-3.8,2-15.5-0.5-13.7,6.2
		c0,0.1,0,0.3,0,0.4c0,0,0,0,0,0c0.3,1.1,1.3,0.2,1-0.7c0.1-0.1,0.1-0.2,0.2-0.3c0.7-0.1,0.6-0.9,1-1.4c3.6-0.6,6.4,1.3,9.8,2.3
		c0,0.2-0.1,0.3-0.1,0.5c-0.8,0-1.7,0.2-2.4,0.6c-2.3,0.5-4,2.9-3.8,5.2c0.1,1,1.7,0.3,1.1-0.5c0.1-0.3,0.3-0.5,0.5-0.7
		c5.3-1,5.4,3.6,11.2,0.2c2-0.3,4,1.2,5.8,0.6c1.4,0.4,2.2-0.9,2-2.2c-0.1-0.9-1.4-0.7-2-1.1c-0.2-0.1-0.7-0.3-1-0.5
		c-0.4-0.8-0.2-1.6-0.3-2.4c0.3-0.5,0.6-1,1.2-1c4.6,0.8,4.3-5.9,8-7.5c1.8-0.2,3.3,1,4.8,1.8c1.5,2-0.3,4-0.1,6
		c1,1.7,3.2-2.4,2.8-3.6C131.6,136,130.7,134.5,130.5,133.4z M118.4,135c-0.5,0.8-1.5,0.7-2.3,0.6c-0.7,2.1-4.2,1-3.3-1.1
		c-2.2-0.9-1.2-4.6,1.2-3.1c0.9-1.8,4.3-0.2,3.5,1.7c0.1,0.1,0.2,0.3,0.3,0.4C118.4,133.6,118.8,134.4,118.4,135z M167.6,136.1
		c0.6-1.5,0.9-3.1,0.3-4.6c-0.4,3.5-4.2,6.5-7.6,4.4c-0.7,0.2-1.5,0.3-2.2,0.3c-0.5,0.6-0.5,3.3-1.6,1.9c-0.5-1.1-2.4-1.4-2.8-0.1
		c-0.4,3-2.6-3.2-1.9-4.1c-1.4-5.5,5.5-9.2,10.2-7.7c2.2-1.1,5.8-0.7,6.5,2.1c1.8,0.7,2.9,2.8,3.3,4.6
		C172.8,135.4,168.1,139.6,167.6,136.1z"/>
</g>
<g id="primary">
	<path class="st7" d="M116.1,135.6c-0.7,2.1-4.2,1-3.3-1.1c-2.2-0.9-1.2-4.6,1.2-3.1c0.9-1.8,4.3-0.2,3.5,1.7
		c0.1,0.1,0.2,0.3,0.3,0.4c0.2,0.1,0.3,0.1,0.5,0.3C119.5,135.1,117.3,136.1,116.1,135.6z M192.2,136.9c-0.5,1.9-3.4,1.8-3.7-0.2
		c-0.1,0-0.2-0.1-0.3-0.1c-1.9,0.9-2.1-2.4-0.2-2.4c0.4-1.9,3.2-3,4-0.9c0,0,0.1,0,0.1,0C194.7,133.2,195,137.6,192.2,136.9z
		 M195.5,131.9c-0.8,1.4-3.1,0.7-2.8-1c-1.6-0.7-0.6-3.4,1-2.6c0.9-1.3,3.5-0.4,3.2,1.3C198.9,130.3,197.2,132.7,195.5,131.9z
		 M201.7,134c-0.2-0.9-1.2-1.4-2.1-1.1c1-3.4-3.6-0.8-3,1.4C196.8,136.9,202.2,136.9,201.7,134z M193.6,140.6
		C193.6,140.6,193.6,140.6,193.6,140.6C193.6,140.6,193.6,140.6,193.6,140.6z M200.1,140.7c-0.2-0.9-0.8-1.7-1.7-1.8
		c1.1-2-2.2-4-3.1-1.6c-1.6-0.9-4.8,1.7-2.4,2.6c0.1,0.3,0.4,0.4,0.7,0.6c0,0,0.1,0,0.1,0c0,0,0,0,0,0c0,0,0.1,0.1,0.1,0.1
		c0,0,0,0.1,0,0.1c-0.6,2,2.2,3.1,3.4,1.5C198.3,143.4,200.6,142.5,200.1,140.7z M191.8,141.6c-0.1,0-0.3,0-0.4,0
		c0-1.8-2.2-1.2-2.2,0.3c-1.9,0.2-1.8,2.7,0.2,2.2c0.6,1,2.1,0.5,2.3-0.6C193.1,143.8,193.2,141.6,191.8,141.6z M186.1,142.2
		c-0.5,2.1-4.3,1.7-3.9-0.6c-3.1-0.1-0.9-4.3,1.2-2.5c0.7-1.7,4-1.3,3.2,0.8c0.5,0.2,1.1,0.6,1.2,1.1
		C188.2,142.1,186.9,142.9,186.1,142.2z M185.8,133.4c-0.2-1.1-1.4-1.8-2.5-1.5c-0.5-1.9-3.6-1.9-3.6,0.2c-2.7-0.2-2.5,4.2,0.2,3.2
		c0.7,1.4,3.4,2,3.7,0C184.7,135.6,186.1,134.6,185.8,133.4z M189.3,128.5c0.1,1.2-1.7,1.5-2,0.3c-1.1,1.4-3.4,0.1-2.8-1.5
		c-1.1-0.6-0.2-2.3,1-1.7c0,0,0.3,0.1,0.4,0.2c0.5-1.3,2.5-1,2.7,0.3c0.7-0.2,1.6,0.2,1.9,0.9C191.1,127.9,190.2,128.6,189.3,128.5z
		"/>
	<path class="st8" d="M200,193.7c-4.1,6.7-6,0.6-3.9,0.2c0.9-0.4,1.7-1.2,2-2.2c-0.9-1.8,1-3.9-2.4-3.1c-3.1,1.7,1.6-8.9,3.9-2
		c0.2-2.5,4-2.9,5.1-0.8C206.6,189,203.8,201.4,200,193.7z M240.7,181.5c0-2-1.3-4.5-3.5-3.2c-0.8,0.4-1.2,1.3-1.8,1.8
		c-0.4,0.5-1.2,0.3-1.5,0.8c-0.5,0-1,0-1.5,0c-0.9,0.2-0.4,1.3,0.4,1c-0.1,0.9,1.1,0.8,1.6,0.7c0.7,0.5,1.6,0.8,2.4,1.1
		C237.9,186.1,241.5,183.7,240.7,181.5z M229.8,181.1c-1.2-1.4-3.2,1.8-1.1,1.5C229.1,182.2,230.1,181.8,229.8,181.1z M84.4,190.1
		c-0.1-4.3-3.9-5.8-8-5.8c0.1,0.1,0.2,0.2,0.3,0.4c8,3.3,6.3,11.9-1.1,14.6C80.9,199.2,85.8,196.2,84.4,190.1z M73.1,189.3
		c-1.1-1-2.2,1-2.7,1.8c-0.9,0.4-0.2,1.9,0.7,1.6C72,191.9,73.2,190.5,73.1,189.3z"/>
</g>
<g id="black">
	<path d="M162.9,151.4c4.7,12.8-3.6,17.1-1.2,0.2c-1.4-1.2-1-1.4,0.2-2.4C163.6,149.8,164.2,149.9,162.9,151.4z"/>
</g>
<g id="confetti">
	<path class="st9" d="M20,134c1.9,1.6,4.8-1.4,6.9-1.6c1.2,0.6,2.6,1.4,4,1.4C28.9,136.9,19.4,140.2,20,134z"/>
	<path class="st10" d="M109,78.7c-4-1.6-8.6-1.4-12.5,0.4C98.8,74.6,109.1,71.3,109,78.7z M117.1,82.4c4.8-1.6-2.9-6.8-5.3-7.2
		C112.2,78.2,114.2,81.5,117.1,82.4z M114.1,66.3c-1.2,0.4-2.1,1.6-2.6,2.7c1-0.1,2.1-0.2,3.1-0.1C114.4,68.2,114.2,67.2,114.1,66.3
		z M117.9,64.2c2.8-1.1,5.7,0.3,8.1,1.7c-0.3-0.9-0.7-1.8-1.2-2.7c1.3,0,2.6-0.1,3.9-0.1c-2.4-2.3-6.7-3.2-9.8-2.1
		C117.9,61.7,118,63.1,117.9,64.2z M126.8,74.4c2.6-3.9-5.4-8.7-8.9-8.7C117.5,69.1,123.6,75.1,126.8,74.4z"/>
	<path class="st11" d="M201.5,87.5c2,0.6,3.9,1.8,5.1,3.5c-7.9-2.1-16.3-1.6-24.2-0.3c1.5-1.1,2.9-2.6,4.7-2.9
		c-0.9-0.6-1.7-1-2.6-1.6c5.3-2,11.4-0.5,17-0.8C201.4,86,200.7,87.2,201.5,87.5z M246.4,110.2c0.9,0.1,1.9,0.3,2.7,0.7
		c-2.7-4.3-8.7-4-12.7-6.6c-5-3.2-4.8-10.3-8.4-14.6c-5.8-6.6-15.9-8.4-24.3-7.6c-1.2,1.3-2.1,2.9-2.6,4.6
		c13.2-2.5,27.7,3.6,29.5,17.9c2.7,7.2,12.1,4.9,16.2,10.4C247.8,113.9,247.1,111.5,246.4,110.2z M22.7,103.7
		c0.6,0.5,1.2,1.1,1.7,1.7c0.5-0.5,1.1-1.1,1.6-1.6c-0.3-0.4-0.6-0.9-0.9-1.4C24.2,102.6,23.4,103.3,22.7,103.7z M154.9,112
		c-0.5,0.6-1,1.2-1.5,1.8c0.6,0.2,1.2,0.5,1.7,0.8c0.6-0.4,1.2-0.9,1.6-1.5C156.3,112.6,155.5,112.3,154.9,112z"/>
	<path class="st12" d="M44.2,89c1.1,0.4,2.1,1.2,3.2,1.5c-0.3,0.5-0.7,1.1-1.1,1.6c-1.2-0.3-2.4-0.8-3.5-1.5
		C43.2,90,43.8,89.5,44.2,89z M170,66.5c0.3,0.7,0.5,1.5,0.7,2.2c0.8,0,1.7-0.1,2.4-0.3c0-0.6-0.1-1.1-0.3-1.6
		C172,66.8,170.8,66.8,170,66.5z"/>
	<path class="st13" d="M113.8,107.4c0,0.6,0,1.2,0,1.8c-0.5,0.4-1.1,0.6-1.7,0.7c-0.3-0.6-0.6-1.1-1-1.7
		C112,108,112.9,107.5,113.8,107.4z M105.3,41c0.4,0.1,0.8,0.5,1.1,0.9c0.8,0,1.7,0,2.6,0.1c-0.2-0.6-0.5-1.1-0.8-1.6
		C107.1,40.4,106.2,40.8,105.3,41z M178.8,68.2c0,0.8,0,1.6,0.1,2.3c1,0.4,2,0.8,2.9,1.4c0-0.6,0-1.1,0-1.7
		C180.9,69.6,179.7,68.8,178.8,68.2z"/>
	<path class="st8" d="M47,132.4c0,0.9,0,1.9,0,2.9c-1.2-0.4-2.4-1.2-3.7-1.2c0-0.8,0-1.6,0-2.4C44.4,131.9,45.8,132.1,47,132.4z
		 M193.5,116.2c0-0.5,0-1.1,0-1.6c-1,0.2-1.9,0.1-2.9,0.1c0.2,0.5,0.5,1,0.9,1.3C192.1,116.2,193,116.3,193.5,116.2z"/>
	<path class="st7" d="M92.5,90.5c-0.2,1.5-0.4,3-0.6,4.5c-4.2-6.8-0.9-14.2,5.7-17.8c-2.8,4-4.4,10-0.8,14
		C95.4,90.9,93.7,91.1,92.5,90.5z M114.4,66c-1.1,5.5,8.8,17.4,12.1,8.8c-5.2-1.5-11-7.5-8.1-13.2C117,62.8,115.7,64.5,114.4,66z
		 M111.8,68.7c-5.7,3.9-3.2,14.6,2.9,16.7c0.8-1,1.8-2.1,2.7-3C112.3,80.4,110.4,73.7,111.8,68.7z M22.3,68.8
		c0.4,0.7,0.7,1.5,0.9,2.2c1,0,2,0.1,3,0.1c0-0.7,0.1-1.5,0-2.2C25,68.9,23.6,68.8,22.3,68.8z M231,132.2c-0.2,0.9-0.6,1.8-1.1,2.6
		c0.5,0.1,1.1,0.3,1.5,0.6C232.5,133.1,234,133.2,231,132.2z"/>
	<path class="st14" d="M47.9,113.3c-10.7,3.7-30.6,8.7-27.6,23.4c-2.2-1.1-4.6-1.9-6.9-2.8c-4-13.4,18.4-20.3,28.4-22.3
		c-0.9,0.6-1.6,1.5-2,2.5C42.5,114,45.2,113.3,47.9,113.3z M10.7,158.5c0.7-1.8,1.7-3.5,3.1-4.9c0.2,2.6,1.4,5.1,3.2,7
		c-0.4-6.8,5.2-12,10.3-15.7c2.8-1.9,10.5-8.6,4.6-10.9C24.4,137.4,9.5,149,10.7,158.5z M66.9,83.1c0.4,0.3,0.7,0.7,1,1
		c1-0.8,2.1-1.7,3.2-2.4c-0.5-0.6-1-1.3-1.3-2C68.9,80.8,67.9,82,66.9,83.1z M148.1,75.3c-0.7,0.3-1.4,0.7-2,1.2
		c1.1,0.2,2.1,0.6,3,1.2c0.5-0.2,1-0.5,1.5-0.8C149.9,76.4,148.9,75.7,148.1,75.3z M221,71c0,0.6,0,1.2,0,1.9c1.2,0,2.2,0.9,3.2,1.3
		c0-0.8,0-1.6,0.1-2.4C223.4,71.4,222,71.3,221,71z"/>
	<path class="st15" d="M201.3,86.7c2.7-0.6,5.7-0.6,8.4-0.5c-0.9,1.6-1.6,3.4-2.6,4.9C205.8,89,202.4,88.8,201.3,86.7z"/>
</g>
<g id="line">
	<path class="st16" d="M106.4,156.9c-0.9-0.2-2.1-0.6-3-0.5c-0.6-2.6-0.4-5.3-0.1-8c1.9-0.7,4.3,0.2,5.9-1.2c1.3-0.7,2.6,0.4,4,0.2
		 M105.3,148.7c-0.2,1.9-0.3,3.9-0.2,5.8 M102.7,150c-5-1.1-8.9,2.3-12.2,5.6c-2.1-0.7-5.9,0.3-5.1,3.1c-0.2,0.7-0.1,1.2,0.3,1.7
		c0.1,0.3-0.2,0.5-0.1,0.8c0.4,0.2,0.8,0.2,1.2,0.2c0.1,1.6,3.5,0.9,4-0.3 M102.6,155c-3.7-1.1-7,1.8-10,3.5c-0.2,1.7-1,5.2-3.3,3.7
		 M121.4,163.8c2.4-0.3,6.2-2.4,5.9-5.2c-2.4-2.2-1.5-6.7-4.5-8.3 M127.7,161.2c1.3,1.6,2.8,3.7,4.4,5 M123.3,163.7
		c1.9,5,7.3,5.3,11.4,7.3 M133.2,165.2c-0.3,0.4-0.6,0.8-0.8,1.3 M118.4,161.1c0.9-1.7,1.6-3.6,1.9-5.6 M106.2,161.3
		c-3.3,1.8-17.6,3.3-17.2,8.6c1.2,5.5,5.7,10.8,10.8,12.9 M89.8,167.7c4.3,0.1,5.9,4.8,7.2,8.2c5.4,15,19.2-1,29,3.1 M125.6,184.4
		c1.4-1.2,2.1-4,0.3-5.7c-3.5-3.7-6.9-7.6-10.2-11.4 M128.2,194.1c-1.4-5.4-3.7-10.6-5.7-15.7 M126,188.5c-2.2,0-4.9,1.7-5.5,3.8
		 M117.5,145.8c-0.3,0.4-0.5,1-0.6,1.5 M121.4,152.8c0.5,0.5,1,1.1,1.4,1.7c0.2-1.5-0.1-3-0.7-4.4c-0.4,0.7-0.9,1.6-1,2.4
		c-1.4-1.5-3.6-3.9-5-5.3c-0.4-0.1-0.9,0-1.3,0.2c0.9,2.3,1.7,4.6,2.4,7c0.8-0.7,1.7-1.3,2.7-1.7 M96.1,186.5c1.4-0.3,4.3-0.2,5.4-1
		l1.5-3.1 M95.3,187.9c-2.2,4,3.3,4.6,6,4.1c6.4,0.8,10.5-4.8,9.9-10.8 M100.1,186.6c-0.5,1.8-0.3,3.7,0.5,5.4 M95.7,185.8
		c-6.4-2.6-8.5,8.3-7.1,12.7c3.2,4,6.2-3.2,6.8-5.9 M125.6,202.2c5.3,2.7,6.7-8.7,12.2-8.4c-2.4-2.8-6.4,0.7-9.3,0.9
		c-1.7,1.5-2.1,4.2-3.2,6.2 M125.9,203.2c2.1,4.7,13.8-5.1,12-8.6 M120.7,148.5c4.5,1.8,8.3-2.4,7.6-6.8 M127.8,139
		c0.8-1.1,1-2.5,0.6-3.8 M130.1,132.4c-5.3-7.2-16.5-5.1-22.3,0.3c-3.5,2.9-8,2.9-12.2,3.2c-3.4,0.1-7,4.5-3.6,7
		c-0.8-1.5,0.5-3.4,2.1-3.8c3.4-0.9,6.2,2.5,9.5,2.7 M102.6,141.7c-3-0.2-8.6,4.6-5,7.2c-0.9-3,3.3-2.9,5-1.8 M108.6,138.9
		c11,3.3,12.2-9.8,18-5.4 M107.7,158.2c-0.2,0.5-0.4,1.1-0.7,1.6c4,2.6,8.6,4.2,13.4,4.6 M123.2,160.8c1.4-0.7,2.6-1.7,3.5-3
		 M121.7,174l-1-8.5 M124.4,200.2l-8.3-17l-3.3-2.6 M92.5,188.1c-1.9,2.7-2.7,6.1-2.2,9.3 M123.5,137.2c-0.9-0.3-1.8-0.3-2.7-0.1
		 M128.8,138.4c-0.6-0.2-1.2-0.6-1.9-0.6 M125.3,143c0.9-0.6,0.3-1.2,0-2 M126.9,140.8c-0.4,0-0.3,0.5,0,0.5c0.4,0,0.3-0.5-0.1-0.4
		c-0.3,0.2,0.1,0.4,0.1,0.1 M120.6,140.4c-0.3,0.3,0,0.8,0.3,0.4c0.1-0.7-1.3-0.1-0.3,0 M115.7,139.9c-2.8-0.2-2,4.9,0.6,4.5
		 M116.6,140.2c1-0.2,1.6-1.2,2-2 M135.3,171c0.6-0.1,1.5,0.2,2-0.4 M158.8,136.4c2.3,0.1,5-1.4,5.2-3.9 M167.6,136.4
		c0.8-1.2,1.4-3.4,0.2-4.5c-0.3,2.5-2.4,5.1-5.1,4.7 M157.9,136.5c-0.5,1-0.7,2.1-0.6,3.2c-2.2-5.1-6-0.5-2.2,2.4 M162.7,134.9
		c-0.8-0.1-1.5,0-2.3,0.2 M168.6,136.4c-0.5-0.3-1.1-0.5-1.6-0.4 M168.1,137.7c0.5-0.4,0.8-1,1-1.7 M169.4,137.3
		c4.2-1.5,2.1-7.3-0.9-9 M168.2,127.6c-1.3-1.6-3.8-2.7-5.7-1.6c-6.8-1.4-13.9,4.6-10.2,11.6 M165.3,141c0.8-1-0.5-1.6-0.4-2.5
		 M161.4,146.5c4.3,1.3,7.5-3,6.8-7 M163.5,142.5c0.3,0.3,0.9,0.3,1.2,0 M174.4,151.1c2.9,0.3,6.9,0,9.3-1.7 M185.6,146.3
		c0.9,0.5,1.7-0.2,1.4-1.2c-1.6-4.3-4.8,3.2-2.4,4.7 M184.9,151.2c1.3,3.2,5.3,0.5,6.9-1c0.8-1.7-0.1-3.1-0.5-4.5 M173.7,157.4
		c4.7,0,8.9-1.5,12.5-4.7 M191,147.9c-2.2-0.5-4.3,3.1-0.9,2.4 M153.4,147.2c-8.2,1.5-18.2,5.1-6.8,12.3c1.1-0.2,2-0.6,2.8-1.3
		 M149.9,159c0.4,4.1-3.2,5.5,2.4,7.9 M150.4,166.5c-2.3,4-0.4,9.3-1.9,13.6c-0.4,0.6-1.3,1.5-0.4,2.1 M143.4,195.1
		c10.5-4.9,13.8-2,16.5-15.2 M148.1,182.7c-0.9,0.2-7.5,3.2-8.4,3.4c-0.2,1.3,2,7,2.4,8.2 M167.7,196.9c0.1,2.3,0.4,4.9,3.4,3.6
		c2.3-0.7,3.1-2,2.6-4.3 M167.8,201c-5.5,9.4,10.9,8,15.1,4.2c2.3-3.7-6.9-3.5-8.8-6.1 M168.6,205.6c4.2,0.6,10.8,1,13.6-2.8
		 M161.6,149.2l-6.4-3c-0.2,0.3-0.5,0.5-0.7,0.8c1.3,1.8,2.5,3.6,3.8,5.4c0.9-1,1.9-1.9,2.9-2.7 M144.7,158.6
		c-2.5,0.9-4.7,3.8-5.1,6.4 M140.8,154.1c-2.5,2.6-4.2,6.6-5.2,10.1c-1.9,0.5-2.7,4.2-0.6,4.9c1,0.3,2.3,2,3.5,1
		c0.5-0.7,1.9-1,1.6-2.2 M141.2,168.1c1-1,0-2.4-0.9-3 M143.7,151.8c0.8,2.1,2.5,3.8,3.8,5.6 M157,144.4c-0.2,0.4-0.3,0.9-0.3,1.4
		 M160.6,150.6c0.1,0.2,1,1,1.1,1.1c-2.4,17.1,5.9,12.8,1.2-0.2c0.1-0.1,0.8-1.2,0.8-1.3 M166.9,159.3c1.7,0.1,3.5,0.2,5.3,0.1
		c1.9-2.3,3.5-6.5,1.4-9.2c-3-0.4-6-0.9-9-1.7 M171.3,156.5c0.8-2,0.9-4.5,0.2-6.5 M166.8,138.6c-0.4,0-0.4,0.6,0,0.5
		c0.4,0,0.4-0.5-0.1-0.4c-0.3,0.2,0.1,0.4,0.1,0.1 M160.9,138.3c-0.3,0.3,0,0.8,0.3,0.4c0.1-0.7-1.3-0.1-0.3,0 M162.3,149.4
		c0.8,0.3,1.6,0.7,2.4,1c-0.3-0.8-1-1.4-1.4-2.2 M141.4,194.1c-0.6,0.1-1.3,0.3-1.9,0.4 M139.9,188.6c-1.6,0.3-3.2,0.8-2.5,2.9
		 M143.4,187c0.6,2.5,1.3,5.1,2.1,7.5 M188.5,145.1c-1,0.3-1.9,1.4-0.9,2.2 M190.2,146.1c-1.1,0.4-3.9,1.5-1.9,2.7 M165.6,195.9
		c0.3-3.3-2.2-6.8-0.7-9.8c-0.5-0.8-2.7-1.5-1.2-2.8c-1.8-1.6-3.6-3.4-5.4-5 M155.5,166.5c3.3,0,8.1,2.4,10.7-0.4
		c0.2-1.2-1-2.8,0.6-3.6 M167.9,196.5c2.4,0.7,5-0.6,7.4-1c2.5-12.6-3-18-9.4-28 M167.9,193.1c2.5,0,5-0.4,7.4-1 M133.7,188.6
		c-0.2,1.1-0.2,2.1-0.2,3.2 M137.5,189c-3.2-2.3-6.7-1.4-6,3 M134.6,201.7c3.7,2.7,5.4-0.1,4.3-3.7c0.2-1.1,0.9-2,0.7-3.2
		 M124.7,144.6c-0.4,0-0.8,0-1.2,0c0.1,0.3,0.4,0.7,0.8,0.5 M128.8,140.5c2.6-1.3,3.2-8.4-0.8-6.3 M60.1,199.7
		c-8.9,5.3,6.2,13.6,3.5,3.6 M65.2,180.8c-0.6-0.6-1.1-1.6-2.1-1.5c0,0.7,0,1.4,0,2.1 M70.6,178.7c-1-1.6-1.8-1.8-1.6,0.4
		 M67.2,181.9c1.4,1,2,1.3,2.2-0.8 M64.7,187c1.4,1.8,3.7,2.6,5.7,3.8 M71.4,177.3c0.2-1.2,0.2-2.7-0.4-3.8 M58.7,179.9
		c-2.3,0.5,0,4.1,1.9,3.3 M72.6,179.2c0.9-0.7,1.1-2.2,0.5-3.2c1.7-2.6,0.8-7.5-2.8-7.7 M62.1,184.3c2.8,3,10.6,0.3,10-4.1
		 M60.7,179.1c1.4-1.2,4.6-4,3.2-5.8c-3.8,1.4,0.2,6.7,5.1,0.3 M66.5,195.4c3.3,5,12.2,4.7,15-0.7c3.7-8.5-9-14-14.5-7.6
		 M72.2,198.9c12.5,5.3,18.6-15.6,3.9-14.9 M80.8,187h2.9 M82.4,193h2.2 M78.9,197.8H81 M62.1,189.5c1.8,2.3,4,5.1,6.9,6
		c2.6,0.3,2.8-2.6,1-3.8c0.9-1,1.8-2.8,3.4-2.3c0,0-2.3,3.7-2.3,3.7 M73,188c-0.1,0-0.3,0.1-0.4,0.1c0,0.2,0,0.4,0,0.5
		c0.6,0.3,1.7-0.5,0.8-0.9c-0.7,0-1,1.8-0.1,1.4c2.2-1,0.8-2.6-1-1.4c-0.7,0.4-0.4,1.8,0.5,1.5 M59.9,199.5
		c-0.9,1.5-3.5,2.7-2.6,4.7c1.7,4.6,8.4,5.2,6.3-1.1 M58.9,195.7c-0.5,3.9,3.4,5.6,6.3,6.9c3.7,2.4,6.6,7.2,10.6,1.4
		c1.3-1.5-0.5-4.2-2.1-3.5c-1.1,0.7-1.2-0.1-1.7-0.6 M56.2,183.6c-2.5-1-6.1,0.8-2.3,2.6c-1,1.7-0.8,4.3,1.9,3
		c-0.4,1.4,1.1,2.6,2.4,2 M60.7,185c-1.1,2.3-1.5,5-0.9,7.5 M69.5,167.3c-2.3-2.7-6.6-2.2-8.4,0.6c-0.4,0.3-0.6,0.1-1.1,0.1
		c-4.7,0.6-7.2,4.9-4.7,8.9c-0.4,2.3,0.4,4.7,2.1,6.3 M185.9,155.1c0.1-2.2,0.2-4.4,0.3-6.6 M187.6,154.2c0-1.4-0.2-2.7-0.6-4.1
		 M189.6,154.3c-0.3-1.3-0.6-2.5-1-3.8 M180.7,130.4c-0.7,0.3-0.5,1-0.9,1.5c-0.5,0.5-1,0.1-1.5,0.7c-1.5,1.3,0.7,4.7,1.9,2.4
		c0.1,2.1,4.1,2.6,3.4,0c2.9,1.8,3-4.1,0.1-3.1C183.1,130.9,181.8,130,180.7,130.4z M181.5,132.8c-0.2,0.1-0.4,0.3-0.4,0.6
		c0.3,0.7,1.8,0.7,1.2-0.2 M183.4,139c-2.3-1.9-4.5,2.9-0.8,2.5c-1.9,1.8,3.5,3.8,3.4,0.4c2.3,1.8,2.9-1.4,0.6-1.9
		C187.7,137.1,184.9,137.6,183.4,139z M184.3,140.3c-0.5,1.1,1.5,1,0.6,0 M193.4,137.4c-2,0.6-1.8,3,0.3,3.2
		c-1.6,2.5,3.1,3.9,3.5,1.4c2.6,2.8,4.2-2.7,1.1-3.3c1.5-2-2.7-4.1-2.9-1.3C195.1,137,194,137.2,193.4,137.4z M195.9,139.2
		c-0.5,2,2.7,1,0.9,0 M186.8,134.5c-1,1.7,0.1,2.8,1.8,2c-0.8,2.7,4.9,2.5,3.2-0.1c2.9,1.9,3.5-3.4,0.2-3c0.2-2.5-4.3-1.8-3.8,0.7
		C187.9,133.9,187.1,134.1,186.8,134.5z M190,134.7c-0.9,0.5,0.6,1.5,1,0.8c0.2-0.3,0-0.8-0.4-0.7 M197,131.9c1.3-0.9,0.9-2-0.6-2.1
		c1.5-1.7-2.7-3.4-2.4-1c-1.4-2.4-3.7,1.4-1.2,2.1c-0.9,1.8,2.5,2.7,3,0.8C196,132,196.7,132.1,197,131.9z M194.4,129.8
		c-0.8,0.2,0.2,1.3,0.7,0.8c0.2-0.2,0.1-0.6-0.2-0.6 M182.9,129.6c-0.9-1.6-2.7-2.5-4.1-3.7 M179.3,127.2c-0.4,0-0.8,0-1.2,0
		 M179.4,128.8c0.5,0,0.9,0,1.4,0 M179.8,125.1c0,0.2,0,0.4,0.1,0.6 M181.8,126.3c0,0.3,0.1,0.6,0.1,0.9 M200,127.3
		c-0.8,0.8-1.7,1.6-2.2,2.7 M199,126.7c0.1-0.3,0.1-0.6,0-0.9 M197.8,128c0.1-0.3,0-0.7-0.1-1 M201.4,128.8c-0.4-0.1-0.8-0.1-1.2,0
		 M197,134.9c0.9,2.1,5.2,1.2,5-1.1c-0.2-1.2-1.8-1.5-2.6-0.7c1.6-2.2-1.8-2.8-2.3-0.4 M188,142.7c-0.9,1.3,0.8,1.3,1.6,1.4
		c0,1.6,2.2,0.6,2.4-0.4c1.9,0,1-2.9-0.5-1.8c0.5-2.3-2.2-2.1-2.1,0C188.9,142.1,188.3,142.5,188,142.7z M190.3,142.4
		c-1.2,0.4,0.5,1.5,0.5,0.5 M183.9,125.9c-0.2,0.5,0.1,1.2,0.7,1.3c-1,1.8,1.8,3.1,2.9,1.6c-0.2,1.8,2.1,1.1,2-0.4
		c2.5,0.2,0.8-3.6-0.9-2.1c0.3-1.4-2.6-2.3-2.7-0.7C185.3,125.4,184.1,125.4,183.9,125.9z M187.2,126.5c-1.2,0.8,1,1.8,0.7,0.3
		 M219.3,199.7c-0.9,1.5-3.5,2.7-2.6,4.7c1.7,4.6,8.4,5.2,6.3-1.1 M218.3,195.9c-0.5,3.9,3.4,5.6,6.3,6.9c3.7,2.4,6.6,7.2,10.6,1.4
		c1.3-1.5-0.5-4.2-2.1-3.5c-1.4,1.2-4.1-3.9-6.4-4.3 M229.5,197.8c1-2.9,2-5.8,0.9-9 M232.2,189.3c1.2-1.4,3.8-1.9,4-4 M224.4,180.4
		c-0.5-0.6-1-1.7-1.9-1.6c0,0.7-0.1,1.4-0.1,2.1 M229.9,178.6c-0.9-1.7-1.7-1.9-1.6,0.3 M227,193.3c0,0.3,0,0.7,0,1 M215.5,183.8
		c-2.5-1-6.1,0.8-2.3,2.6c-1,1.7-0.8,4.3,1.9,3c-0.4,1.4,1.1,2.6,2.4,2 M230.9,177.3c0.3-1.2,0.4-2.7-0.1-3.8 M218,179.1
		c-2.3,0.3-0.2,4.1,1.7,3.5 M232.2,179.4c1.4-1.6,1.4-3.8,0.8-5.7c1.4-2.5,0-5.8-2.9-6.3 M221.5,183.8c0.6,0.9,1.9,1.3,3,1.3
		 M220,185.2c-1.1,2.3-1.5,5-0.9,7.5 M233.6,182.7c2.2-0.4,3.6,2.9,5.8,1.9c1.8-1.5,1.8-5.5-0.4-6.7c-2-0.6-3,1.9-4.5,2.6
		c-1.4,0.8-9.2-1-6.3,2.3 M226.3,189c3.1,0.4,11.4-6.5,4.9-7.1 M231.6,181.2c-2.5-0.8-4.3,4.3-6.9,4.9 M238.3,179.2
		c-1.4,0.6-1.5,2.9-0.5,3.9 M229.1,166.5c-2.3-2.7-6.6-2.2-8.4,0.6c-0.4,0.3-0.6,0.1-1.1,0.1c-4.7,0.6-7.2,4.9-4.7,8.9
		c-0.4,2.3,0.4,4.7,2.1,6.3 M219.3,177c2-0.9,6.7-3.3,5.1-5.9c-1.6-0.7-1.8,2.4-1.6,3.2c2.4,6.5,5.9-1.4,3.8-4.8 M28.9,199.7
		c-8.9,5.3,6.2,13.6,3.5,3.6 M30,189.3c-3.3,3.5-3,10.7,1.8,12.7c4.8,1.5,8.1,9.5,12.9,2.6c0.7-0.9,0.5-1.7,0.1-2.4
		c-0.4-0.8-1.5-1.6-2.2-1.1c-1.4,1.2-4.1-3.9-6.4-4.3 M39,198.3c1-2.9,2-5.8,0.9-9 M40.6,191c2.7,0.9,5.8,2.8,7.5-0.7
		c-0.6-0.2-1.1-0.3-1.7-0.5 M34,180.8c-0.6-0.6-1.1-1.6-2.1-1.5c0,0.7,0,1.4,0,2.1 M39.4,178.7c-1-1.6-1.8-1.8-1.6,0.4 M35.9,181.9
		c1.4,1,2,1.3,2.2-0.8 M26.5,186.5c-1.6,2.6-6,2.7-7.3,5.6c0,1.2,1.5,2.4,2.6,1.8 M22.8,193.4c-0.9,4.1,5.7-3.3,6.4-4.4 M39.9,185.1
		c1.9,2.6,5.5,2.2,7.9,3.8 M35.8,193.7c0,0.3,0,0.7,0,1 M24.9,184.3c-2.5-1-6.1,0.8-2.3,2.6c-0.5,0.6-0.9,1.7-0.5,2.4 M40.2,177.3
		c0.2-1.2,0.2-2.7-0.4-3.8 M27.5,179.9c-2.3,0.5,0,4.1,1.9,3.3 M38.1,168.1c-2.1-3.4-7.6-2.7-9.3,0.4c-3.2-0.4-5.7,3.3-5.7,6.1
		c0.5,1.9,0.5,3.8,0.6,5.7 M41.4,179.2c0.9-0.7,1.1-2.2,0.5-3.2c1.7-2.6,0.8-7.5-2.8-7.7 M24.2,181.7c-0.1,2.1,2.2,3.8,4.2,3.1
		 M30.9,184.3c2.8,3,10.6,0.3,10-4.1 M29.4,179.1c1.4-1.2,4.6-4,3.2-5.8c-3.8,1.4,0.2,6.7,5.1,0.3 M187.9,186.3
		c-4.6,16.6-0.3,10.2,9,19.9c2.9,5.3,12-3.1,5.4-4.3c-1.2,0.6-1.2-0.2-1.6-0.7c-0.5-0.7-1.1-1-1.6-1.6 M192.9,180.6
		c-0.5-0.6-0.8-1.8-1.8-1.8c-0.1,0.7-0.2,1.4-0.3,2 M198.6,179.3c-0.8-1.8-1.5-2-1.6,0.2 M194.7,182c1.2,1.2,1.8,1.6,2.3-0.4
		 M199.6,178.1c0.4-1.2,0.7-2.6,0.2-3.8 M186.7,178.7c-2.4,0.1-0.6,4,1.4,3.6 M199,168.7c-1.5-3.7-7.1-3.9-9.3-1.1
		c-3.1-0.9-6.1,2.4-6.6,5.1c0.2,2-0.1,3.8-0.4,5.8 M200.5,180.2c1-0.6,1.4-2,1-3.1c2.1-2.3,2-7.3-1.5-8 M183.2,179.9
		c-0.4,2.1,1.5,4.1,3.6,3.7 M199,183.3c0.5-0.6,0.9-1.5,0.8-2.3 M189.3,183.5c0.5,1,1.7,1.5,2.8,1.7 M188.7,178.2
		c1.5-1,5.2-3.2,4.1-5.2c-3.9,0.7-0.9,6.6,4.9,1.1 M195.5,195.4c-0.2,0.7,0.3,1.5,1,1.6c4.4-0.2,4-7.3,3.1-10.4
		c-1.1-4.2-5-1.9-4.7,1.6 M200.2,194c4.8,10.2,8.1-14.6,0.4-8.6 M204.8,192.4c2.7-0.8,4.2-6.2,0.2-5.8 M190.7,188.6
		c2.3,1.2,5.1-0.3,7.2,0.5 M189.4,192.6c2.3,1.5,5.8,2.6,8.1,0.4c0.7-0.6,1-2,0-2.5 M185.6,185.5c-5.5-1.6-7.8,3.8-1.4,4.1
		c-3,0.1-1.4,3.9,1.2,2.7 M199,198.1c0.3-0.9,0.5-1.8,0.4-2.8 M202.5,193c0.8-1.5,1.7-6-0.9-5.9 M203.8,181.7
		c1.3-1.4,2.9-2.5,3.8-4.2 M206.4,183.2c1.2-0.7,2.3-1.5,3.4-2.3 M187.1,199.4c-0.9,1.5-3.5,2.7-2.6,4.7c1.7,4.6,8.4,5.2,6.3-1.1
		 M117.8,135.9c1.6-1,1.2-2.5-0.7-2.6c1.9-2-3.2-4.4-2.8-1.3c-1.7-3-4.6,1.4-1.6,2.5c-1.3,2.1,3,3.5,3.6,1.1
		C116.6,135.9,117.4,136.1,117.8,135.9z M115.1,134.3c1-0.1,0.2-1.5-0.5-1.2c-0.3,0.1-0.3,0.7,0,0.8 M208.8,118.5
		c1.2-0.1,2.3-0.2,3.5-0.1c0.5-0.9,1.5-1.2,2.5-1.2 M207.9,119.4c-0.3,1.7-0.3,3.9,1.4,4.8c0.8-0.8,1.7-1.6,2.5-2.3 M213.1,121.3
		c6.4,1.4,8.4-4.1,12.9-4.9c0.4-2.2-2.6-3.4-4.2-2c-4.3,1.8-3.2-5-4.8-6.9c-1.4-1.3-3-3.1-3.4-5.1 M213.2,103.8
		c-0.6,0.5-1.2,1.8-0.5,2.4c-0.7,0.5-1.3,1.9-0.5,2.6c-0.5,0.7-1,1.8-0.3,2.5c-0.6,0.8-1,2.9,0.5,2.9c-0.2,0.9,0.1,1.7,1.2,1.5
		 M214.1,114.5c0.6,0,1.2,0,1.8-0.2 M213.9,111.9c0.6,0.1,1.1,0.2,1.7,0.2 M214,109.4c0.4,0.4,0.9,0.6,1.5,0.6 M214.3,107.2
		c0.2,0.4,0.5,0.6,0.9,0.7 M218.7,111.9c2-3.7-2.5-7.1-2.4-10.7c-0.6,1.1-1.3,2.3-1.1,3.7 M208.8,123c0.7-0.6,1.4-1.3,2.1-2
		 M207.8,121c0.7,0,1.3-0.2,1.9-0.6 M224.2,115c-0.5,0.1,0,0.6,0.3,0.3c0.3-0.4-0.6-0.4-0.3,0 M66.1,117.5c6.7,2.1,7.5-4.5,12.5-4.4
		c-1.8-3.5-3.7-1.3-6.5-1.4c-1.8-4.9-7.2-5.6-10.8-8.3 M76.4,112c-0.2,0.1-0.2,0.4,0.1,0.3c0.1-0.6-0.5-0.5-0.2,0
		c0.2,0.2,0.6,0,0.4-0.2 M60.9,104.3c0.8,1.1,0.5,2.8,1.8,3.5c0.1,0.9,0.6,1.8,1.4,2.2c0.3,1.9,2.3,2.8,3.5,4.1 M62.7,108.4
		c-1.3-0.1-2.6-0.6-3.6-1.5c0.8,3,4.1,4.7,6.4,6.4 M66.5,114.2c-1,1.5-3.3,1.5-5,1.5c-1.5,1.2-1.5,3.8,0.2,4.8
		c1.9-0.8,3.1-2.6,4.9-3.6 M63,117c-0.8,0.2-1.4,0.9-1.8,1.7 M67.6,112.4c0.7,0,1.5-0.1,2.2-0.3 M65.4,109.2
		c0.7,0.3,1.5,0.5,2.3,0.5 M63.9,106.6c0.7,0.5,1.5,0.9,2.4,0.9 M201.4,85.4c-5.6,0.2-11.6-1.2-17,0.8c0.9,0.6,1.7,1,2.6,1.6
		c-1.8,0.4-3.2,1.9-4.7,2.9c7.9-1.2,16.4-1.8,24.2,0.3c-1.3-1.7-3.1-2.9-5.1-3.5 M247.3,114.7c0-1.5,0-3.2-0.9-4.5
		c0.9,0.1,1.9,0.3,2.7,0.7c-2.7-4.3-8.7-4-12.7-6.6c-5-3.2-4.7-10.3-8.4-14.6c-5.8-6.6-15.9-8.4-24.3-7.6c-1.2,1.3-2.1,2.9-2.6,4.6
		c13.4-2.4,27.5,3.4,29.5,17.9c2.7,7.2,12.1,4.9,16.2,10.4C247,114.9,247.3,114.9,247.3,114.7z M209.1,87.5
		c-0.7,1.2-1.4,2.4-2.1,3.7 M39.8,114c0.5-1,1.2-1.8,2-2.5c-10,2-32.4,8.9-28.4,22.3c2.3,0.8,4.7,1.7,6.9,2.8
		c-3-14.7,16.9-19.7,27.6-23.4C45.2,113.3,42.5,114,39.8,114z M25.4,137.5c-5.9,6-15.5,11.4-14.7,21c0.7-1.8,1.7-3.5,3.1-4.9
		c0.2,2.6,1.4,5.1,3.2,7c-0.4-6.8,5.2-12,10.3-15.7c2.8-1.9,10.5-8.6,4.6-10.9 M20.6,136.7c3.3,1.9,8.1-0.2,10.3-3
		c-1.4,0-2.7-0.8-4-1.4c-2.2,0.2-5.1,3.2-6.9,1.6 M96.8,91.1c-3.6-3.9-2-10,0.8-14c-6.6,3.6-10,11.1-5.7,17.8c0.2-1.5,0.4-3,0.6-4.5
		C93.7,91.1,95.4,90.9,96.8,91.1z M114.4,66c-1.1,5.5,8.8,17.4,12.1,8.8c-5.2-1.5-11-7.5-8.1-13.2C117,62.8,115.7,64.5,114.4,66z
		 M111.8,68.7c-5.7,3.9-3.2,14.6,2.9,16.7c0.8-1,1.8-2.1,2.7-3C112.3,80.4,110.4,73.7,111.8,68.7z M107.8,74.9
		c-4.2-1.4-9.1,0.4-11.3,4.2c3.9-1.9,8.5-2,12.5-0.4 M117.1,82.4c4.8-1.6-2.9-6.8-5.3-7.2 M113.7,66.5c-1,0.6-1.7,1.5-2.1,2.6
		c1-0.1,2.1-0.2,3.1-0.1 M117.9,64.2c2.8-1.1,5.7,0.3,8.1,1.7c-0.3-0.9-0.7-1.8-1.2-2.7c1.3,0,2.6-0.1,3.9-0.1
		c-2.4-2.3-6.7-3.2-9.8-2.1 M126.8,74.5c2.2-4.3-5.2-8.6-8.9-8.8 M66.9,83.1c0.4,0.3,0.7,0.7,1,1c1-0.8,2.1-1.7,3.2-2.4
		c-0.5-0.6-1-1.3-1.3-2C68.9,80.8,67.9,82,66.9,83.1z M43,90.7c1.1,0.7,2.2,1.1,3.5,1.5c0.4-0.5,0.7-1.1,1.1-1.6
		c-1.2-0.3-2.1-1.1-3.2-1.5C43.8,89.5,43.2,90,43,90.7z M22.3,68.8c0.4,0.7,0.7,1.5,0.9,2.2c1,0,2,0.1,3,0.1c0-0.7,0.1-1.5,0-2.2
		C25,68.9,23.6,68.8,22.3,68.8z M43.2,131.6c0,0.8,0,1.6,0,2.4c1.3,0,2.5,0.8,3.7,1.2c0-0.9,0-1.9,0-2.9
		C45.8,132.1,44.4,131.9,43.2,131.6z M111.2,108.3c0.3,0.6,0.6,1.1,1,1.7c0.6-0.1,1.2-0.4,1.7-0.7c0-0.6,0-1.2,0-1.8
		C112.9,107.5,112,108,111.2,108.3z M22.7,103.7c0.6,0.5,1.2,1.1,1.7,1.7c0.5-0.5,1.1-1.1,1.6-1.6c-0.3-0.4-0.6-0.9-0.9-1.4
		C24.2,102.6,23.4,103.3,22.7,103.7z M105.3,41c0.4,0.1,0.8,0.5,1.1,0.9c0.8,0,1.7,0,2.6,0.1c-0.2-0.6-0.5-1.1-0.8-1.6
		C107.1,40.4,106.2,40.8,105.3,41z M148.1,75.3c-0.7,0.3-1.4,0.7-2,1.2c1.1,0.2,2.1,0.6,3,1.2c0.5-0.2,1-0.5,1.5-0.8
		C149.9,76.4,148.9,75.7,148.1,75.3z M154.9,112c-0.5,0.6-1,1.2-1.5,1.8c0.6,0.2,1.2,0.5,1.7,0.8c0.6-0.4,1.2-0.9,1.6-1.5
		C156.3,112.6,155.5,112.3,154.9,112z M170,66.5c0.3,0.7,0.5,1.5,0.7,2.2c0.8,0,1.7-0.1,2.4-0.3c0-0.6-0.1-1.1-0.3-1.6
		C172,66.8,170.8,66.8,170,66.5z M178.8,68.2c0,0.8,0,1.6,0.1,2.3c1,0.4,2,0.8,2.9,1.4c0-0.6,0-1.1,0-1.7
		C180.9,69.6,179.7,68.8,178.8,68.2z M193.5,116.2c0-0.5,0-1.1,0-1.6c-1,0.2-1.9,0.1-2.9,0.1c0.2,0.5,0.5,1,0.9,1.3
		C192.1,116.2,193,116.3,193.5,116.2z M231,132.2c-0.2,0.9-0.6,1.8-1.1,2.6c0.5,0.1,1.1,0.3,1.5,0.6
		C232.5,133.1,234,133.2,231,132.2z M221,71c0,0.6,0,1.2,0,1.9c1.2,0,2.2,0.9,3.2,1.3c0-0.8,0-1.6,0.1-2.4
		C223.4,71.4,222,71.3,221,71z"/>
</g>
</svg>
