<?xml version="1.0" encoding="utf-8"?>
<!-- Generator: Adobe Illustrator 27.0.0, SVG Export Plug-In . SVG Version: 6.00 Build 0)  -->
<svg version="1.1" id="레이어_1" xmlns="http://www.w3.org/2000/svg" xmlns:xlink="http://www.w3.org/1999/xlink" x="0px"
	 y="0px" viewBox="0 0 20 20" style="enable-background:new 0 0 20 20;" xml:space="preserve">
<path d="M12.9,15c0.4-0.4,0.4-1,0-1.4L9.3,10l3.5-3.5c0.4-0.4,0.4-1,0-1.4c-0.4-0.4-1-0.4-1.4,0c0,0,0,0,0,0L7.2,9.3
	c-0.4,0.4-0.4,1,0,1.4c0,0,0,0,0,0l4.2,4.3C11.8,15.4,12.5,15.4,12.9,15C12.9,15,12.9,15,12.9,15z"/>
</svg>
