<?xml version="1.0" encoding="utf-8"?>
<!-- Generator: Adobe Illustrator 27.0.0, SVG Export Plug-In . SVG Version: 6.00 Build 0)  -->
<svg version="1.1" id="레이어_1" xmlns="http://www.w3.org/2000/svg" xmlns:xlink="http://www.w3.org/1999/xlink" x="0px"
	 y="0px" viewBox="0 0 20 20" style="enable-background:new 0 0 20 20;" xml:space="preserve">
<path d="M7.2,15c0.4,0.4,1,0.4,1.4,0l4.2-4.3c0,0,0,0,0,0c0.4-0.4,0.4-1,0-1.4L8.6,5c0,0,0,0,0,0c-0.4-0.4-1-0.4-1.4,0
	c-0.4,0.4-0.4,1,0,1.4l3.5,3.5l-3.5,3.6C6.8,14,6.8,14.6,7.2,15C7.2,15,7.2,15,7.2,15z"/>
</svg>
