<?xml version="1.0" encoding="utf-8"?>
<!-- Generator: Adobe Illustrator 27.0.0, SVG Export Plug-In . SVG Version: 6.00 Build 0)  -->
<svg version="1.1" id="레이어_1" xmlns="http://www.w3.org/2000/svg" xmlns:xlink="http://www.w3.org/1999/xlink" x="0px"
	 y="0px" viewBox="0 0 20 20" style="enable-background:new 0 0 20 20;" xml:space="preserve">
<path d="M15,7.2c-0.4-0.4-1-0.4-1.4,0L10,10.7L6.5,7.2c-0.4-0.4-1-0.4-1.4,0c-0.4,0.4-0.4,1,0,1.4c0,0,0,0,0,0l4.2,4.2
	c0.4,0.4,1,0.4,1.4,0c0,0,0,0,0,0L15,8.6C15.4,8.2,15.4,7.6,15,7.2C15,7.2,15,7.2,15,7.2z"/>
</svg>
