<?xml version="1.0" encoding="utf-8"?>
<!-- Generator: Adobe Illustrator 24.3.0, SVG Export Plug-In . SVG Version: 6.00 Build 0)  -->
<svg version="1.1" id="레이어_1" xmlns="http://www.w3.org/2000/svg" xmlns:xlink="http://www.w3.org/1999/xlink" x="0px"
	 y="0px" viewBox="0 0 12 12" style="enable-background:new 0 0 12 12;" xml:space="preserve">
<style type="text/css">
	.st0{fill:#F6BF3F;}
	.st1{fill:url(#SVGID_1_);}
	.st2{fill:url(#SVGID_2_);}
	.st3{fill:url(#SVGID_3_);}
	.st4{fill:#F7CC36;}
	.st5{fill:url(#SVGID_4_);}
	.st6{fill:url(#SVGID_5_);}
	.st7{fill:none;stroke:url(#SVGID_6_);stroke-width:0.1875;stroke-miterlimit:1.5;}
	.st8{fill:url(#SVGID_7_);}
	.st9{fill-rule:evenodd;clip-rule:evenodd;fill:#FC28A2;}
	.st10{fill-rule:evenodd;clip-rule:evenodd;fill:url(#SVGID_8_);}
	.st11{fill-rule:evenodd;clip-rule:evenodd;fill:url(#SVGID_9_);}
	.st12{fill-rule:evenodd;clip-rule:evenodd;fill:url(#SVGID_10_);}
	.st13{fill-rule:evenodd;clip-rule:evenodd;fill:url(#SVGID_11_);}
	.st14{fill-rule:evenodd;clip-rule:evenodd;fill:url(#SVGID_12_);}
	.st15{fill:url(#SVGID_13_);}
	.st16{fill:url(#SVGID_14_);}
	.st17{fill:url(#SVGID_15_);}
	.st18{fill:url(#SVGID_16_);}
	.st19{fill:url(#SVGID_17_);}
	.st20{fill:url(#SVGID_18_);}
	.st21{fill:none;stroke:url(#SVGID_19_);stroke-width:0.1125;stroke-miterlimit:1.5;}
	.st22{fill:url(#SVGID_20_);}
	.st23{fill:#24A4DC;}
	.st24{fill:url(#SVGID_21_);}
	.st25{fill:url(#SVGID_22_);}
	.st26{fill:url(#SVGID_23_);}
	.st27{fill:#FA3F99;}
	.st28{fill:url(#SVGID_24_);}
	.st29{fill:url(#SVGID_25_);}
	.st30{fill:url(#SVGID_26_);}
	.st31{fill:none;stroke:#FF5CAC;stroke-width:0.15;stroke-linecap:round;stroke-miterlimit:1.5;}
	.st32{fill:#2BBAFE;}
	.st33{fill:url(#SVGID_27_);}
	.st34{fill:url(#SVGID_28_);}
	.st35{fill:none;stroke:url(#SVGID_29_);stroke-width:0.225;stroke-linecap:round;stroke-miterlimit:1.5;}
	.st36{fill:#2A82D3;}
	.st37{fill:url(#SVGID_30_);}
	.st38{fill:url(#SVGID_31_);}
	.st39{fill:url(#SVGID_32_);}
	.st40{fill:none;stroke:url(#SVGID_33_);stroke-width:0.1875;stroke-linecap:round;stroke-miterlimit:1.5;}
	.st41{fill:none;stroke:url(#SVGID_34_);stroke-width:0.1875;stroke-linecap:round;stroke-miterlimit:1.5;}
</style>
<g>
	<path class="st0" d="M5.5,3.3L5.5,3.3L5.5,3.3C5.5,3.3,5.5,3.2,5.5,3.3C4.7,2,3.1,1.7,1.9,2.5C1.2,2.9,0.8,3.7,0.8,4.6
		c0,0.9,0.5,1.7,1.2,2.2c0.5,0.3,1.5-0.2,2.4-1.1C5.3,4.8,5.8,3.8,5.5,3.3z"/>
	
		<radialGradient id="SVGID_1_" cx="-21.874" cy="3.4154" r="1" gradientTransform="matrix(-1.8281 -1.9922 -1.4458 1.3268 -30.3146 -44.4449)" gradientUnits="userSpaceOnUse">
		<stop  offset="0" style="stop-color:#FFE94C"/>
		<stop  offset="1" style="stop-color:#FFE94C;stop-opacity:0"/>
	</radialGradient>
	<path class="st1" d="M5.5,3.3L5.5,3.3L5.5,3.3C5.5,3.3,5.5,3.2,5.5,3.3C4.7,2,3.1,1.7,1.9,2.5C1.2,2.9,0.8,3.7,0.8,4.6
		c0,0.9,0.5,1.7,1.2,2.2c0.5,0.3,1.5-0.2,2.4-1.1C5.3,4.8,5.8,3.8,5.5,3.3z"/>
	
		<radialGradient id="SVGID_2_" cx="-16.6795" cy="14.3245" r="1" gradientTransform="matrix(2.4375 4.4188 4.4606 -2.4606 -21.0596 110.9832)" gradientUnits="userSpaceOnUse">
		<stop  offset="0.684" style="stop-color:#B9706D;stop-opacity:0"/>
		<stop  offset="1" style="stop-color:#B9706D"/>
	</radialGradient>
	<path class="st2" d="M5.5,3.3L5.5,3.3L5.5,3.3C5.5,3.3,5.5,3.2,5.5,3.3C4.7,2,3.1,1.7,1.9,2.5C1.2,2.9,0.8,3.7,0.8,4.6
		c0,0.9,0.5,1.7,1.2,2.2c0.5,0.3,1.5-0.2,2.4-1.1C5.3,4.8,5.8,3.8,5.5,3.3z"/>
	
		<radialGradient id="SVGID_3_" cx="-23.2742" cy="10.6059" r="1" gradientTransform="matrix(-3.436 0.1875 0.1878 3.4413 -77.7654 -27.5325)" gradientUnits="userSpaceOnUse">
		<stop  offset="0.839" style="stop-color:#F3C893;stop-opacity:0"/>
		<stop  offset="1" style="stop-color:#F3C893"/>
	</radialGradient>
	<path class="st3" d="M5.5,3.3L5.5,3.3L5.5,3.3C5.5,3.3,5.5,3.2,5.5,3.3C4.7,2,3.1,1.7,1.9,2.5C1.2,2.9,0.8,3.7,0.8,4.6
		c0,0.9,0.5,1.7,1.2,2.2c0.5,0.3,1.5-0.2,2.4-1.1C5.3,4.8,5.8,3.8,5.5,3.3z"/>
	<g>
		<path class="st4" d="M6.5,3.3L6.5,3.3L6.5,3.3C6.5,3.3,6.5,3.2,6.5,3.3C7.3,2,8.9,1.7,10.1,2.5c0.7,0.5,1.2,1.3,1.2,2.1
			c0,0.9-0.5,1.7-1.2,2.2C9.6,7.1,8.5,6.6,7.6,5.7C6.7,4.8,6.2,3.8,6.5,3.3L6.5,3.3z"/>
		
			<radialGradient id="SVGID_4_" cx="-13.0645" cy="5.9603" r="1" gradientTransform="matrix(1.8854 -2.0805 -1.7347 -1.5721 44.5167 -12.9521)" gradientUnits="userSpaceOnUse">
			<stop  offset="0" style="stop-color:#FFE76D"/>
			<stop  offset="1" style="stop-color:#FFE76D;stop-opacity:0"/>
		</radialGradient>
		<path class="st5" d="M6.5,3.3L6.5,3.3L6.5,3.3C6.5,3.3,6.5,3.2,6.5,3.3C7.3,2,8.9,1.7,10.1,2.5c0.7,0.5,1.2,1.3,1.2,2.1
			c0,0.9-0.5,1.7-1.2,2.2C9.6,7.1,8.5,6.6,7.6,5.7C6.7,4.8,6.2,3.8,6.5,3.3L6.5,3.3z"/>
		
			<radialGradient id="SVGID_5_" cx="-4.9137" cy="20.215" r="1" gradientTransform="matrix(1.0055 0.5299 0.5307 -1.007 0.8761 25.7796)" gradientUnits="userSpaceOnUse">
			<stop  offset="0" style="stop-color:#D6BE6F"/>
			<stop  offset="1" style="stop-color:#D6BE6F;stop-opacity:0"/>
		</radialGradient>
		<path class="st6" d="M6.5,3.3L6.5,3.3L6.5,3.3C6.5,3.3,6.5,3.2,6.5,3.3C7.3,2,8.9,1.7,10.1,2.5c0.7,0.5,1.2,1.3,1.2,2.1
			c0,0.9-0.5,1.7-1.2,2.2C9.6,7.1,8.5,6.6,7.6,5.7C6.7,4.8,6.2,3.8,6.5,3.3L6.5,3.3z"/>
	</g>
	<g>
		
			<linearGradient id="SVGID_6_" gradientUnits="userSpaceOnUse" x1="-56.5727" y1="-18.5917" x2="-49.9167" y2="-19.5967" gradientTransform="matrix(-0.2652 0.2652 -0.2652 -0.2652 -11.5365 15.0052)">
			<stop  offset="0" style="stop-color:#ECB43E"/>
			<stop  offset="1" style="stop-color:#925960"/>
		</linearGradient>
		<ellipse transform="matrix(0.7071 -0.7071 0.7071 0.7071 -1.0635 7.3727)" class="st7" cx="8.4" cy="5" rx="0.9" ry="2.4"/>
	</g>
	
		<linearGradient id="SVGID_7_" gradientUnits="userSpaceOnUse" x1="-56.0219" y1="-20.6034" x2="-53.6859" y2="-31.3714" gradientTransform="matrix(-0.2652 0.2652 -0.2652 -0.2652 -11.5365 15.0052)">
		<stop  offset="0" style="stop-color:#572943"/>
		<stop  offset="1" style="stop-color:#4D2C30"/>
	</linearGradient>
	<path class="st8" d="M6.7,3.3c-0.4,0.4,0.1,1.4,1,2.4s2,1.4,2.4,1S10,5.2,9,4.3S7,2.9,6.7,3.3z"/>
	<path class="st9" d="M4.1,7.2c0.2-0.1,0.4,0,0.5,0.2c0.2,0.4,0.5,1.5-0.3,2.4C4.2,10,4,10,3.8,9.9C3.6,9.8,3.6,9.5,3.7,9.4
		c0.5-0.6,0.3-1.3,0.2-1.6C3.8,7.5,3.9,7.3,4.1,7.2C4.1,7.2,4.1,7.2,4.1,7.2z"/>
	
		<linearGradient id="SVGID_8_" gradientUnits="userSpaceOnUse" x1="40.024" y1="-5.2357" x2="41.399" y2="-10.4237" gradientTransform="matrix(0.375 0 0 -0.375 -11.25 5.125)">
		<stop  offset="0" style="stop-color:#C9136C"/>
		<stop  offset="1" style="stop-color:#C9136C;stop-opacity:0"/>
	</linearGradient>
	<path class="st10" d="M4.1,7.2c0.2-0.1,0.4,0,0.5,0.2c0.2,0.4,0.5,1.5-0.3,2.4C4.2,10,4,10,3.8,9.9C3.6,9.8,3.6,9.5,3.7,9.4
		c0.5-0.6,0.3-1.3,0.2-1.6C3.8,7.5,3.9,7.3,4.1,7.2C4.1,7.2,4.1,7.2,4.1,7.2z"/>
	
		<linearGradient id="SVGID_9_" gradientUnits="userSpaceOnUse" x1="51.3666" y1="1.986" x2="46.3666" y2="-3.851" gradientTransform="matrix(0.375 0 0 -0.375 -11.25 5.125)">
		<stop  offset="0.253" style="stop-color:#1DA2CD"/>
		<stop  offset="1" style="stop-color:#255EB1"/>
	</linearGradient>
	<path class="st11" d="M8.6,4.1c0.2,0.1,0.3,0.3,0.2,0.4c0,0,0,0,0,0C8.5,5.2,8.1,5.8,7.6,6.1c0,0,0,0,0,0.1
		C7.5,6.3,7.4,6.6,7.3,6.7C7.2,6.8,7,6.9,6.8,6.7C6.7,6.6,6.7,6.5,6.8,6.3c0,0-0.1,0-0.1,0C6.4,6.2,6.2,6,6.1,5.7
		C6,5.5,6,5.3,6.2,5.1c0.1-0.2,0.3-0.3,0.5-0.3C7,4.6,7.4,4.8,7.6,5.2C7.8,5,8,4.7,8.2,4.3C8.2,4.1,8.4,4,8.6,4.1z M6.7,5.4
		C6.9,5.3,7,5.5,7,5.6C6.8,5.7,6.6,5.6,6.7,5.4L6.7,5.4z"/>
	
		<linearGradient id="SVGID_10_" gradientUnits="userSpaceOnUse" x1="53.3363" y1="2.6066" x2="52.3053" y2="1.7316" gradientTransform="matrix(0.375 0 0 -0.375 -11.25 5.125)">
		<stop  offset="0" style="stop-color:#0D8CBA"/>
		<stop  offset="1" style="stop-color:#0D8CBA;stop-opacity:0"/>
	</linearGradient>
	<path class="st12" d="M8.6,4.1c0.2,0.1,0.3,0.3,0.2,0.4c0,0,0,0,0,0C8.5,5.2,8.1,5.8,7.6,6.1c0,0,0,0,0,0.1
		C7.5,6.3,7.4,6.6,7.3,6.7C7.2,6.8,7,6.9,6.8,6.7C6.7,6.6,6.7,6.5,6.8,6.3c0,0-0.1,0-0.1,0C6.4,6.2,6.2,6,6.1,5.7
		C6,5.5,6,5.3,6.2,5.1c0.1-0.2,0.3-0.3,0.5-0.3C7,4.6,7.4,4.8,7.6,5.2C7.8,5,8,4.7,8.2,4.3C8.2,4.1,8.4,4,8.6,4.1z M6.7,5.4
		C6.9,5.3,7,5.5,7,5.6C6.8,5.7,6.6,5.6,6.7,5.4L6.7,5.4z"/>
	
		<radialGradient id="SVGID_11_" cx="-23.2172" cy="21.6433" r="1" gradientTransform="matrix(-1.043 1.8281 1.1845 0.6758 -42.2088 32.2787)" gradientUnits="userSpaceOnUse">
		<stop  offset="0.835" style="stop-color:#3165CF;stop-opacity:0"/>
		<stop  offset="1" style="stop-color:#3165CF"/>
	</radialGradient>
	<path class="st13" d="M8.6,4.1c0.2,0.1,0.3,0.3,0.2,0.4c0,0,0,0,0,0C8.5,5.2,8.1,5.8,7.6,6.1c0,0,0,0,0,0.1
		C7.5,6.3,7.4,6.6,7.3,6.7C7.2,6.8,7,6.9,6.8,6.7C6.7,6.6,6.7,6.5,6.8,6.3c0,0-0.1,0-0.1,0C6.4,6.2,6.2,6,6.1,5.7
		C6,5.5,6,5.3,6.2,5.1c0.1-0.2,0.3-0.3,0.5-0.3C7,4.6,7.4,4.8,7.6,5.2C7.8,5,8,4.7,8.2,4.3C8.2,4.1,8.4,4,8.6,4.1z M6.7,5.4
		C6.9,5.3,7,5.5,7,5.6C6.8,5.7,6.6,5.6,6.7,5.4L6.7,5.4z"/>
	
		<radialGradient id="SVGID_12_" cx="-25.1585" cy="8.4683" r="1" gradientTransform="matrix(-2.3529 -0.4865 -0.476 2.3021 -46.9435 -26.0819)" gradientUnits="userSpaceOnUse">
		<stop  offset="0.808" style="stop-color:#2471AD;stop-opacity:0"/>
		<stop  offset="0.95" style="stop-color:#2471AD"/>
	</radialGradient>
	<path class="st14" d="M8.6,4.1c0.2,0.1,0.3,0.3,0.2,0.4c0,0,0,0,0,0C8.5,5.2,8.1,5.8,7.6,6.1c0,0,0,0,0,0.1
		C7.5,6.3,7.4,6.6,7.3,6.7C7.2,6.8,7,6.9,6.8,6.7C6.7,6.6,6.7,6.5,6.8,6.3c0,0-0.1,0-0.1,0C6.4,6.2,6.2,6,6.1,5.7
		C6,5.5,6,5.3,6.2,5.1c0.1-0.2,0.3-0.3,0.5-0.3C7,4.6,7.4,4.8,7.6,5.2C7.8,5,8,4.7,8.2,4.3C8.2,4.1,8.4,4,8.6,4.1z M6.7,5.4
		C6.9,5.3,7,5.5,7,5.6C6.8,5.7,6.6,5.6,6.7,5.4L6.7,5.4z"/>
	
		<radialGradient id="SVGID_13_" cx="-41.6891" cy="32.1366" r="1" gradientTransform="matrix(-0.375 0.4336 0.4336 0.375 -23.3321 15.4423)" gradientUnits="userSpaceOnUse">
		<stop  offset="0" style="stop-color:#43C7F4"/>
		<stop  offset="1" style="stop-color:#2D64CF"/>
	</radialGradient>
	<circle class="st15" cx="6" cy="9.5" r="0.3"/>
	
		<radialGradient id="SVGID_14_" cx="-49.8915" cy="31.3594" r="1" gradientTransform="matrix(-0.3687 0.3089 0.3089 0.3687 -20.8074 11.7257)" gradientUnits="userSpaceOnUse">
		<stop  offset="0" style="stop-color:#FF48A3"/>
		<stop  offset="1" style="stop-color:#DB1D93"/>
	</radialGradient>
	<circle class="st16" cx="7.1" cy="8" r="0.3"/>
	
		<radialGradient id="SVGID_15_" cx="-47.7423" cy="26.8796" r="1" gradientTransform="matrix(-0.4394 0.3135 0.3135 0.4394 -20.5727 12.188)" gradientUnits="userSpaceOnUse">
		<stop  offset="0" style="stop-color:#F7C851"/>
		<stop  offset="1" style="stop-color:#D97654"/>
	</radialGradient>
	<circle class="st17" cx="8.6" cy="9.1" r="0.3"/>
	
		<radialGradient id="SVGID_16_" cx="-17.5974" cy="-30.1181" r="1" gradientTransform="matrix(-5.273602e-02 -0.4395 -0.4395 5.273602e-02 -9.5773 0.4778)" gradientUnits="userSpaceOnUse">
		<stop  offset="0" style="stop-color:#D48D3B"/>
		<stop  offset="1" style="stop-color:#B46518"/>
	</radialGradient>
	<circle class="st18" cx="4.5" cy="6.5" r="0.3"/>
	
		<radialGradient id="SVGID_17_" cx="-64.0194" cy="42.0112" r="1" gradientTransform="matrix(-0.2461 0.2168 0.2168 0.2461 -21.3399 12.2434)" gradientUnits="userSpaceOnUse">
		<stop  offset="0" style="stop-color:#F8AC4B"/>
		<stop  offset="1" style="stop-color:#E5A437"/>
	</radialGradient>
	<circle class="st19" cx="3.4" cy="8.7" r="0.3"/>
	
		<radialGradient id="SVGID_18_" cx="28.584" cy="-4.4522" r="1" gradientTransform="matrix(0.334 -0.1611 -0.1611 -0.334 -6.9377 11.9063)" gradientUnits="userSpaceOnUse">
		<stop  offset="0.757" style="stop-color:#EB9530;stop-opacity:0"/>
		<stop  offset="1" style="stop-color:#EB9530"/>
	</radialGradient>
	<circle class="st20" cx="3.4" cy="8.7" r="0.3"/>
	<g>
		
			<linearGradient id="SVGID_19_" gradientUnits="userSpaceOnUse" x1="17.7692" y1="33.145" x2="24.4252" y2="32.14" gradientTransform="matrix(0.2652 0.2652 0.2652 -0.2652 -10.614 7.971)">
			<stop  offset="0" style="stop-color:#EABE3F"/>
			<stop  offset="1" style="stop-color:#976061"/>
		</linearGradient>
		<ellipse transform="matrix(0.7071 -0.7071 0.7071 0.7071 -2.4365 4.0585)" class="st21" cx="3.7" cy="5" rx="2.4" ry="0.9"/>
	</g>
	
		<linearGradient id="SVGID_20_" gradientUnits="userSpaceOnUse" x1="21.2966" y1="39.0204" x2="21.2966" y2="26.2044" gradientTransform="matrix(0.2652 0.2652 0.2652 -0.2652 -10.614 7.971)">
		<stop  offset="0" style="stop-color:#5E2B40"/>
		<stop  offset="1" style="stop-color:#6E4546"/>
	</linearGradient>
	<path class="st22" d="M5.4,3.3c0.4,0.4-0.1,1.4-1,2.4S2.4,7,2,6.7C1.6,6.3,2.1,5.2,3,4.3S5,2.9,5.4,3.3z"/>
	<g>
		<path class="st23" d="M2.4,5c0.2-0.2,0.3-0.4,0.5-0.6C3,4.5,3.1,4.7,3.1,4.8c0.2,0.4,0.3,1,0.3,1.5C3.5,7,3.3,7.6,3,8
			c-0.3,0.5-0.6,0.8-0.9,1C2,9.2,1.7,9.2,1.6,9C1.5,8.8,1.5,8.6,1.7,8.5c0.2-0.1,0.5-0.4,0.7-0.8c0.2-0.4,0.4-0.8,0.4-1.3
			C2.7,5.9,2.6,5.5,2.4,5C2.4,5.1,2.4,5,2.4,5z"/>
		
			<linearGradient id="SVGID_21_" gradientUnits="userSpaceOnUse" x1="32.1088" y1="-8.5677" x2="33.9128" y2="-6.9067" gradientTransform="matrix(0.375 0 0 -0.375 -11.25 5.125)">
			<stop  offset="0" style="stop-color:#3067D9"/>
			<stop  offset="1" style="stop-color:#3067D9;stop-opacity:0"/>
		</linearGradient>
		<path class="st24" d="M2.4,5c0.2-0.2,0.3-0.4,0.5-0.6C3,4.5,3.1,4.7,3.1,4.8c0.2,0.4,0.3,1,0.3,1.5C3.5,7,3.3,7.6,3,8
			c-0.3,0.5-0.6,0.8-0.9,1C2,9.2,1.7,9.2,1.6,9C1.5,8.8,1.5,8.6,1.7,8.5c0.2-0.1,0.5-0.4,0.7-0.8c0.2-0.4,0.4-0.8,0.4-1.3
			C2.7,5.9,2.6,5.5,2.4,5C2.4,5.1,2.4,5,2.4,5z"/>
		
			<radialGradient id="SVGID_22_" cx="-8.8478" cy="11.1156" r="1" gradientTransform="matrix(1.9775 -0.2028 -0.4339 -4.2308 23.9506 51.382)" gradientUnits="userSpaceOnUse">
			<stop  offset="0.655" style="stop-color:#47CEFA;stop-opacity:0"/>
			<stop  offset="1" style="stop-color:#47CEFA"/>
		</radialGradient>
		<path class="st25" d="M2.4,5c0.2-0.2,0.3-0.4,0.5-0.6C3,4.5,3.1,4.7,3.1,4.8c0.2,0.4,0.3,1,0.3,1.5C3.5,7,3.3,7.6,3,8
			c-0.3,0.5-0.6,0.8-0.9,1C2,9.2,1.7,9.2,1.6,9C1.5,8.8,1.5,8.6,1.7,8.5c0.2-0.1,0.5-0.4,0.7-0.8c0.2-0.4,0.4-0.8,0.4-1.3
			C2.7,5.9,2.6,5.5,2.4,5C2.4,5.1,2.4,5,2.4,5z"/>
		
			<radialGradient id="SVGID_23_" cx="11.4053" cy="17.1327" r="1" gradientTransform="matrix(0.543 0.1602 0.3395 -1.1506 -9.7223 22.9778)" gradientUnits="userSpaceOnUse">
			<stop  offset="0" style="stop-color:#1569A5"/>
			<stop  offset="1" style="stop-color:#1569A5;stop-opacity:0"/>
		</radialGradient>
		<path class="st26" d="M2.4,5c0.2-0.2,0.3-0.4,0.5-0.6C3,4.5,3.1,4.7,3.1,4.8c0.2,0.4,0.3,1,0.3,1.5C3.5,7,3.3,7.6,3,8
			c-0.3,0.5-0.6,0.8-0.9,1C2,9.2,1.7,9.2,1.6,9C1.5,8.8,1.5,8.6,1.7,8.5c0.2-0.1,0.5-0.4,0.7-0.8c0.2-0.4,0.4-0.8,0.4-1.3
			C2.7,5.9,2.6,5.5,2.4,5C2.4,5.1,2.4,5,2.4,5z"/>
	</g>
	<path class="st27" d="M3,4.3L3,4.3c0.2-0.2,0.4-0.4,0.6-0.5c0.1,0.1,0.1,0.3,0.2,0.5c0.1,0.2,0.3,0.5,0.4,0.6C4.3,4.9,4.4,5,4.6,5
		l0,0c0.2,0,0.6,0,0.9,0.3c0.3,0.3,0.3,0.7,0.3,0.9c0,0,0,0.1,0,0.1V7c0,0.1,0,0.1,0.1,0.1l0.2,0.2c0.1,0.1,0.1,0.4,0,0.5
		C6,8.1,5.8,8.1,5.6,7.9C5.3,7.7,5.1,7.4,5.1,7l0-0.7c0,0,0-0.1,0-0.1v0c0,0,0-0.1,0-0.1c0-0.1,0-0.1,0-0.1c0,0,0-0.1-0.1-0.1l0,0
		l0,0C4.9,5.7,4.9,5.7,4.6,5.7h0c-0.2,0-0.6,0-0.9-0.3C3.5,5.1,3.3,4.9,3.2,4.6C3.1,4.5,3.1,4.4,3,4.3z"/>
	
		<radialGradient id="SVGID_24_" cx="-15.6865" cy="38.1915" r="1" gradientTransform="matrix(1.1054 2.2605 0.5697 -0.2786 -1.4077 50.2316)" gradientUnits="userSpaceOnUse">
		<stop  offset="0" style="stop-color:#A80963"/>
		<stop  offset="1" style="stop-color:#A80963;stop-opacity:0"/>
	</radialGradient>
	<path class="st28" d="M3,4.3L3,4.3c0.2-0.2,0.4-0.4,0.6-0.5c0.1,0.1,0.1,0.3,0.2,0.5c0.1,0.2,0.3,0.5,0.4,0.6C4.3,4.9,4.4,5,4.6,5
		l0,0c0.2,0,0.6,0,0.9,0.3c0.3,0.3,0.3,0.7,0.3,0.9c0,0,0,0.1,0,0.1V7c0,0.1,0,0.1,0.1,0.1l0.2,0.2c0.1,0.1,0.1,0.4,0,0.5
		C6,8.1,5.8,8.1,5.6,7.9C5.3,7.7,5.1,7.4,5.1,7l0-0.7c0,0,0-0.1,0-0.1v0c0,0,0-0.1,0-0.1c0-0.1,0-0.1,0-0.1c0,0,0-0.1-0.1-0.1l0,0
		l0,0C4.9,5.7,4.9,5.7,4.6,5.7h0c-0.2,0-0.6,0-0.9-0.3C3.5,5.1,3.3,4.9,3.2,4.6C3.1,4.5,3.1,4.4,3,4.3z"/>
	
		<radialGradient id="SVGID_25_" cx="-19.3476" cy="28.9951" r="1" gradientTransform="matrix(-0.1159 2.3856 0.9943 4.831500e-02 -24.9921 49.8966)" gradientUnits="userSpaceOnUse">
		<stop  offset="0.198" style="stop-color:#A80963"/>
		<stop  offset="1" style="stop-color:#A80963;stop-opacity:0"/>
	</radialGradient>
	<path class="st29" d="M3,4.3L3,4.3c0.2-0.2,0.4-0.4,0.6-0.5c0.1,0.1,0.1,0.3,0.2,0.5c0.1,0.2,0.3,0.5,0.4,0.6C4.3,4.9,4.4,5,4.6,5
		l0,0c0.2,0,0.6,0,0.9,0.3c0.3,0.3,0.3,0.7,0.3,0.9c0,0,0,0.1,0,0.1V7c0,0.1,0,0.1,0.1,0.1l0.2,0.2c0.1,0.1,0.1,0.4,0,0.5
		C6,8.1,5.8,8.1,5.6,7.9C5.3,7.7,5.1,7.4,5.1,7l0-0.7c0,0,0-0.1,0-0.1v0c0,0,0-0.1,0-0.1c0-0.1,0-0.1,0-0.1c0,0,0-0.1-0.1-0.1l0,0
		l0,0C4.9,5.7,4.9,5.7,4.6,5.7h0c-0.2,0-0.6,0-0.9-0.3C3.5,5.1,3.3,4.9,3.2,4.6C3.1,4.5,3.1,4.4,3,4.3z"/>
	
		<radialGradient id="SVGID_26_" cx="-14.9812" cy="-18.043" r="1" gradientTransform="matrix(0.1495 -1.3995 -0.6059 -6.470879e-02 -3.999 -15.0614)" gradientUnits="userSpaceOnUse">
		<stop  offset="0" style="stop-color:#A80963"/>
		<stop  offset="1" style="stop-color:#A80963;stop-opacity:0"/>
	</radialGradient>
	<path class="st30" d="M3,4.3L3,4.3c0.2-0.2,0.4-0.4,0.6-0.5c0.1,0.1,0.1,0.3,0.2,0.5c0.1,0.2,0.3,0.5,0.4,0.6C4.3,4.9,4.4,5,4.6,5
		l0,0c0.2,0,0.6,0,0.9,0.3c0.3,0.3,0.3,0.7,0.3,0.9c0,0,0,0.1,0,0.1V7c0,0.1,0,0.1,0.1,0.1l0.2,0.2c0.1,0.1,0.1,0.4,0,0.5
		C6,8.1,5.8,8.1,5.6,7.9C5.3,7.7,5.1,7.4,5.1,7l0-0.7c0,0,0-0.1,0-0.1v0c0,0,0-0.1,0-0.1c0-0.1,0-0.1,0-0.1c0,0,0-0.1-0.1-0.1l0,0
		l0,0C4.9,5.7,4.9,5.7,4.6,5.7h0c-0.2,0-0.6,0-0.9-0.3C3.5,5.1,3.3,4.9,3.2,4.6C3.1,4.5,3.1,4.4,3,4.3z"/>
	<g>
		<path class="st31" d="M5.5,6.4V7c0,0.1,0.1,0.3,0.2,0.4l0.2,0.2"/>
	</g>
	<g>
		<path class="st32" d="M9.6,4.9C9.7,5.1,9.9,5.4,10,5.6C9.8,5.9,9.7,6.2,9.6,6.5c-0.1,0.6,0,1.2,0.5,1.8c0.1,0.1,0.1,0.4,0,0.5
			C10,9,9.7,9,9.6,8.9C8.8,8.1,8.7,7.2,8.9,6.4C9,5.8,9.3,5.3,9.6,4.9L9.6,4.9z"/>
		
			<linearGradient id="SVGID_27_" gradientUnits="userSpaceOnUse" x1="58.6736" y1="-1.1927" x2="57.2566" y2="-3.2547" gradientTransform="matrix(0.375 0 0 -0.375 -11.25 5.125)">
			<stop  offset="0" style="stop-color:#184E8C"/>
			<stop  offset="1" style="stop-color:#184E8C;stop-opacity:0"/>
		</linearGradient>
		<path class="st33" d="M9.6,4.9C9.7,5.1,9.9,5.4,10,5.6C9.8,5.9,9.7,6.2,9.6,6.5c-0.1,0.6,0,1.2,0.5,1.8c0.1,0.1,0.1,0.4,0,0.5
			C10,9,9.7,9,9.6,8.9C8.8,8.1,8.7,7.2,8.9,6.4C9,5.8,9.3,5.3,9.6,4.9L9.6,4.9z"/>
	</g>
	
		<radialGradient id="SVGID_28_" cx="-49.1335" cy="12.3055" r="1" gradientTransform="matrix(-0.5587 0.1523 0.5007 1.8365 -23.3736 -7.1493)" gradientUnits="userSpaceOnUse">
		<stop  offset="0" style="stop-color:#4BDCFF"/>
		<stop  offset="1" style="stop-color:#4BDCFF;stop-opacity:0"/>
	</radialGradient>
	<path class="st34" d="M9.6,4.9C9.7,5.1,9.9,5.4,10,5.6C9.8,5.9,9.7,6.2,9.6,6.5c-0.1,0.6,0,1.2,0.5,1.8c0.1,0.1,0.1,0.4,0,0.5
		C10,9,9.7,9,9.6,8.9C8.8,8.1,8.7,7.2,8.9,6.4C9,5.8,9.3,5.3,9.6,4.9L9.6,4.9z"/>
	<g>
		
			<linearGradient id="SVGID_29_" gradientUnits="userSpaceOnUse" x1="55.9979" y1="-9.243" x2="55.1299" y2="-2.336" gradientTransform="matrix(0.375 0 0 -0.375 -11.25 5.125)">
			<stop  offset="0" style="stop-color:#4BDAFF"/>
			<stop  offset="1" style="stop-color:#4BDAFF;stop-opacity:0"/>
		</linearGradient>
		<path class="st35" d="M9.6,6C9.3,6.4,9,7.5,10,8.6"/>
	</g>
	<path class="st36" d="M7.6,6C7.6,6,7.6,6,7.6,6C7.6,6.1,7.6,6.1,7.6,6C7.5,6.3,7.4,6.6,7.3,6.7C7.2,6.8,7,6.9,6.8,6.7
		C6.7,6.6,6.7,6.5,6.8,6.3l0,0C6.9,6.3,7.4,6.2,7.6,6C7.6,6,7.6,6,7.6,6z"/>
	
		<radialGradient id="SVGID_30_" cx="-12.8078" cy="25.0572" r="1" gradientTransform="matrix(9.375000e-02 0.3809 1.2493 -0.3075 -22.9593 18.6961)" gradientUnits="userSpaceOnUse">
		<stop  offset="0.306" style="stop-color:#1E58A8"/>
		<stop  offset="1" style="stop-color:#1E58A8;stop-opacity:0"/>
	</radialGradient>
	<path class="st37" d="M7.6,6C7.6,6,7.6,6,7.6,6C7.6,6.1,7.6,6.1,7.6,6C7.5,6.3,7.4,6.6,7.3,6.7C7.2,6.8,7,6.9,6.8,6.7
		C6.7,6.6,6.7,6.5,6.8,6.3l0,0C6.9,6.3,7.4,6.2,7.6,6C7.6,6,7.6,6,7.6,6z"/>
	
		<radialGradient id="SVGID_31_" cx="-37.4499" cy="13.3335" r="1" gradientTransform="matrix(-0.8824 0.2695 0.3792 1.2415 -30.5027 -0.183)" gradientUnits="userSpaceOnUse">
		<stop  offset="0.59" style="stop-color:#1E58A8;stop-opacity:0"/>
		<stop  offset="1" style="stop-color:#1E58A8"/>
	</radialGradient>
	<path class="st38" d="M7.6,6C7.6,6,7.6,6,7.6,6C7.6,6.1,7.6,6.1,7.6,6C7.5,6.3,7.4,6.6,7.3,6.7C7.2,6.8,7,6.9,6.8,6.7
		C6.7,6.6,6.7,6.5,6.8,6.3l0,0C6.9,6.3,7.4,6.2,7.6,6C7.6,6,7.6,6,7.6,6z"/>
	
		<radialGradient id="SVGID_32_" cx="-15.3644" cy="-27.3818" r="1" gradientTransform="matrix(-2.636625e-02 -0.5742 -0.472 2.167500e-02 -6.1515 -2.5292)" gradientUnits="userSpaceOnUse">
		<stop  offset="0.187" style="stop-color:#3258A2"/>
		<stop  offset="1" style="stop-color:#3258A2;stop-opacity:0"/>
	</radialGradient>
	<path class="st39" d="M7.6,5.2C7.4,4.8,7,4.6,6.6,4.7c-0.2,0-0.4,0.2-0.5,0.3C6.1,5.2,6,5.4,6,5.5h0.7c0,0,0-0.1,0-0.1
		C6.9,5.3,7,5.5,7,5.6C7.1,5.5,7.4,5.4,7.6,5.2z"/>
	<g>
		
			<linearGradient id="SVGID_33_" gradientUnits="userSpaceOnUse" x1="48.147" y1="0.4847" x2="48.341" y2="-2.2463" gradientTransform="matrix(0.375 0 0 -0.375 -11.25 5.125)">
			<stop  offset="0" style="stop-color:#46B4E2"/>
			<stop  offset="1" style="stop-color:#46B4E2;stop-opacity:0"/>
		</linearGradient>
		<path class="st40" d="M7.1,6C6.9,6,6.6,6,6.5,5.7C6.3,5.3,6.8,4.8,7.2,5.2"/>
	</g>
	<g>
		
			<linearGradient id="SVGID_34_" gradientUnits="userSpaceOnUse" x1="52.6038" y1="1.9148" x2="50.2638" y2="-2.5242" gradientTransform="matrix(0.375 0 0 -0.375 -11.25 5.125)">
			<stop  offset="0" style="stop-color:#46B4E2"/>
			<stop  offset="1" style="stop-color:#46B4E2;stop-opacity:0"/>
		</linearGradient>
		<path class="st41" d="M8.6,4.4c-0.1,0.3-0.5,1-1.1,1.4"/>
	</g>
</g>
</svg>
