<?xml version="1.0" encoding="utf-8"?>
<!-- Generator: Adobe Illustrator 24.3.0, SVG Export Plug-In . SVG Version: 6.00 Build 0)  -->
<svg version="1.1" id="레이어_1" xmlns="http://www.w3.org/2000/svg" xmlns:xlink="http://www.w3.org/1999/xlink" x="0px"
	 y="0px" viewBox="0 0 12 12" style="enable-background:new 0 0 12 12;" xml:space="preserve">
<style type="text/css">
	.st0{fill-rule:evenodd;clip-rule:evenodd;fill:#B2B2B2;}
	.st1{fill-rule:evenodd;clip-rule:evenodd;fill:url(#SVGID_1_);}
	.st2{fill-rule:evenodd;clip-rule:evenodd;fill:#B1B1B1;}
	.st3{fill:#747474;}
	.st4{fill:url(#SVGID_2_);}
	.st5{fill:url(#SVGID_3_);}
	.st6{fill:url(#SVGID_4_);}
	.st7{fill:url(#SVGID_5_);}
	.st8{fill:url(#SVGID_6_);}
	.st9{fill:url(#SVGID_7_);}
	.st10{fill:url(#SVGID_8_);}
	.st11{fill:url(#SVGID_9_);}
	.st12{fill:url(#SVGID_10_);}
	.st13{fill:url(#SVGID_11_);}
	.st14{fill:url(#SVGID_12_);}
	.st15{fill:url(#SVGID_13_);}
	.st16{fill:url(#SVGID_14_);}
	.st17{fill:url(#SVGID_15_);}
	.st18{fill:url(#SVGID_16_);}
	.st19{fill:none;stroke:url(#SVGID_17_);stroke-width:0.1125;stroke-miterlimit:1.5;}
	.st20{fill:none;stroke:url(#SVGID_18_);stroke-width:0.1125;stroke-miterlimit:1.5;}
	.st21{fill:url(#SVGID_19_);}
	.st22{fill:none;stroke:url(#SVGID_20_);stroke-width:0.1875;stroke-linecap:round;stroke-miterlimit:1.5;}
	.st23{fill:none;stroke:url(#SVGID_21_);stroke-width:0.1875;stroke-linecap:round;stroke-miterlimit:1.5;}
	.st24{fill:none;stroke:url(#SVGID_22_);stroke-width:0.1875;stroke-linecap:round;stroke-miterlimit:1.5;}
	.st25{fill:none;stroke:url(#SVGID_23_);stroke-width:0.1875;stroke-linecap:round;stroke-miterlimit:1.5;}
	.st26{fill:none;stroke:url(#SVGID_24_);stroke-width:0.1875;stroke-linecap:round;stroke-miterlimit:1.5;}
	.st27{fill:none;stroke:url(#SVGID_25_);stroke-width:0.1875;stroke-linecap:round;stroke-miterlimit:1.5;}
	.st28{fill:none;stroke:url(#SVGID_26_);stroke-width:0.1875;stroke-linecap:round;stroke-miterlimit:1.5;}
	.st29{fill:none;stroke:url(#SVGID_27_);stroke-width:0.1875;stroke-linecap:round;stroke-miterlimit:1.5;}
	.st30{fill:none;stroke:url(#SVGID_28_);stroke-width:0.1875;stroke-linecap:round;stroke-miterlimit:1.5;}
	.st31{fill:none;stroke:url(#SVGID_29_);stroke-width:0.1875;stroke-linecap:round;stroke-miterlimit:1.5;}
	.st32{fill:url(#SVGID_30_);}
	.st33{fill:url(#SVGID_31_);}
	.st34{fill:#696969;}
	.st35{fill:url(#SVGID_32_);}
	.st36{fill:url(#SVGID_33_);}
	.st37{fill:url(#SVGID_34_);}
	.st38{fill:url(#SVGID_35_);}
	.st39{fill:url(#SVGID_36_);}
	.st40{fill:url(#SVGID_37_);}
	.st41{fill:none;stroke:url(#SVGID_38_);stroke-width:0.1125;stroke-miterlimit:1.5;}
	.st42{fill:none;stroke:url(#SVGID_39_);stroke-width:0.1125;stroke-miterlimit:1.5;}
	.st43{fill:none;stroke:url(#SVGID_40_);stroke-width:0.15;stroke-miterlimit:1.5;}
	.st44{fill:none;stroke:url(#SVGID_41_);stroke-width:0.15;stroke-miterlimit:1.5;}
	.st45{fill:none;stroke:url(#SVGID_42_);stroke-width:0.15;stroke-miterlimit:1.5;}
	.st46{fill:none;stroke:url(#SVGID_43_);stroke-width:0.15;stroke-miterlimit:1.5;}
</style>
<g>
	<g>
		<path class="st0" d="M5.8,1.4C5.2,0.8,4.1,0.8,3.6,1.5C3.3,1.7,3.2,2,3.2,2.3C2.3,2.2,1.5,2.9,1.4,3.8c0,0.3,0,0.7,0.2,0.9
			C0.8,5.2,0.5,6.1,0.9,6.9c0.2,0.3,0.4,0.5,0.7,0.7c-0.4,0.8,0,1.8,0.8,2.1c0.3,0.1,0.6,0.2,1,0.1c0.2,0.9,1,1.4,1.9,1.3
			c0.3-0.1,0.6-0.2,0.9-0.5c0.7,0.6,1.7,0.6,2.3-0.1c0.2-0.2,0.4-0.5,0.4-0.9c0.9,0.1,1.7-0.5,1.8-1.4c0-0.3,0-0.7-0.2-0.9
			c0.8-0.4,1-1.4,0.6-2.2c-0.2-0.3-0.4-0.5-0.7-0.7c0.4-0.8,0-1.8-0.8-2.1c-0.3-0.1-0.6-0.2-1-0.1c-0.2-0.9-1-1.4-1.9-1.3
			C6.4,1,6.1,1.1,5.8,1.4L5.8,1.4z M8.2,5.2C7.7,5,7.4,4.6,7.3,4.1c-0.5,0.1-1,0-1.4-0.4C5.6,4,5.1,4.2,4.6,4.2
			C4.5,4.7,4.2,5.1,3.8,5.4C3.9,5.6,4,5.9,4,6.1c0,0.2-0.1,0.5-0.1,0.7C4.3,7,4.6,7.4,4.7,7.9c0.5-0.1,1,0.1,1.4,0.4
			C6.4,8,6.9,7.8,7.4,7.8c0.1-0.5,0.4-0.9,0.8-1.2C8.1,6.4,8,6.2,8,5.9C8,5.6,8.1,5.4,8.2,5.2z"/>
		
			<linearGradient id="SVGID_1_" gradientUnits="userSpaceOnUse" x1="46" y1="-16.5446" x2="46" y2="-13.0446" gradientTransform="matrix(0.375 0 0 -0.375 -11.25 5.125)">
			<stop  offset="0" style="stop-color:#959595"/>
			<stop  offset="1" style="stop-color:#959595;stop-opacity:0"/>
		</linearGradient>
		<path class="st1" d="M5.8,1.4C5.2,0.8,4.1,0.8,3.6,1.5C3.3,1.7,3.2,2,3.2,2.3C2.3,2.2,1.5,2.9,1.4,3.8c0,0.3,0,0.7,0.2,0.9
			C0.8,5.2,0.5,6.1,0.9,6.9c0.2,0.3,0.4,0.5,0.7,0.7c-0.4,0.8,0,1.8,0.8,2.1c0.3,0.1,0.6,0.2,1,0.1c0.2,0.9,1,1.4,1.9,1.3
			c0.3-0.1,0.6-0.2,0.9-0.5c0.7,0.6,1.7,0.6,2.3-0.1c0.2-0.2,0.4-0.5,0.4-0.9c0.9,0.1,1.7-0.5,1.8-1.4c0-0.3,0-0.7-0.2-0.9
			c0.8-0.4,1-1.4,0.6-2.2c-0.2-0.3-0.4-0.5-0.7-0.7c0.4-0.8,0-1.8-0.8-2.1c-0.3-0.1-0.6-0.2-1-0.1c-0.2-0.9-1-1.4-1.9-1.3
			C6.4,1,6.1,1.1,5.8,1.4L5.8,1.4z M8.2,5.2C7.7,5,7.4,4.6,7.3,4.1c-0.5,0.1-1,0-1.4-0.4C5.6,4,5.1,4.2,4.6,4.2
			C4.5,4.7,4.2,5.1,3.8,5.4C3.9,5.6,4,5.9,4,6.1c0,0.2-0.1,0.5-0.1,0.7C4.3,7,4.6,7.4,4.7,7.9c0.5-0.1,1,0.1,1.4,0.4
			C6.4,8,6.9,7.8,7.4,7.8c0.1-0.5,0.4-0.9,0.8-1.2C8.1,6.4,8,6.2,8,5.9C8,5.6,8.1,5.4,8.2,5.2z"/>
	</g>
	<g>
		<path class="st2" d="M5.8,1.7C5.2,1.2,4.3,1.2,3.7,1.8C3.5,2,3.4,2.3,3.4,2.6C2.6,2.5,1.8,3.1,1.7,3.9c0,0.3,0,0.6,0.2,0.9
			c-0.7,0.4-1,1.3-0.6,2C1.5,7.1,1.7,7.3,2,7.5c-0.3,0.8,0,1.6,0.7,2C3,9.6,3.3,9.6,3.6,9.5c0.2,0.8,0.9,1.3,1.8,1.2
			c0.3-0.1,0.6-0.2,0.8-0.4c0.6,0.6,1.6,0.5,2.1-0.1C8.5,10,8.6,9.7,8.6,9.4c0.8,0.1,1.6-0.5,1.6-1.3c0-0.3,0-0.6-0.2-0.9
			c0.7-0.4,1-1.3,0.6-2c-0.2-0.3-0.4-0.5-0.7-0.6c0.3-0.7,0-1.6-0.7-2C9,2.4,8.7,2.4,8.4,2.4c-0.2-0.8-1-1.3-1.8-1.2
			C6.3,1.3,6.1,1.5,5.8,1.7z M8,5.3c-0.4-0.2-0.7-0.6-0.8-1c-0.5,0.1-0.9,0-1.3-0.4C5.6,4.2,5.1,4.4,4.7,4.3
			C4.6,4.8,4.3,5.2,3.9,5.4C4,5.6,4.1,5.9,4.1,6.1c0,0.2,0,0.4-0.1,0.6c0.4,0.2,0.7,0.6,0.8,1.1c0.5-0.1,0.9,0,1.3,0.4
			c0.3-0.3,0.8-0.5,1.2-0.5c0.1-0.5,0.3-0.9,0.7-1.1C8,6.4,7.9,6.1,7.9,5.9C7.9,5.7,7.9,5.5,8,5.3L8,5.3z"/>
	</g>
	<g>
		<path class="st3" d="M9.2,5C8.9,5,8.6,5.1,8.3,5.2c0,0,0,0,0,0C8.6,5.1,8.9,5,9.1,4.8c0.5-0.4,0.6-1.3-0.2-1.7
			C8.5,2.9,8,3.1,8,3.1s0-0.5-0.3-0.8C7.1,1.6,6.3,2,6.1,2.6C6,2.9,6,3.2,6,3.5h0c0-0.3,0-0.6-0.1-0.9c-0.2-0.6-1-1-1.7-0.3
			C3.9,2.6,3.9,3.1,3.9,3.1S3.4,2.9,3,3.1C2.2,3.6,2.4,4.4,2.9,4.8C3.1,5,3.4,5.1,3.7,5.2c0,0,0,0,0,0C3.4,5.2,3.1,5.1,2.8,5.1
			c-0.6,0-1.3,0.7-0.8,1.5C2.1,7,2.6,7.1,2.6,7.1S2.3,7.5,2.4,7.9C2.5,8.9,3.4,9,4,8.6C4.2,8.5,4.4,8.3,4.5,8c0,0,0,0,0,0
			C4.4,8.3,4.2,8.5,4.2,8.8C4,9.4,4.4,10.2,5.4,10C5.7,10,6,9.5,6,9.5S6.3,10,6.7,10C7.7,10.2,8,9.4,7.9,8.7C7.8,8.5,7.7,8.2,7.5,8
			c0,0,0,0,0,0c0.2,0.2,0.4,0.5,0.6,0.6c0.5,0.3,1.4,0.2,1.6-0.7C9.7,7.5,9.4,7,9.4,7s0.5-0.1,0.7-0.5C10.5,5.7,9.8,5.1,9.2,5L9.2,5
			z"/>
	</g>
	<g>
		
			<linearGradient id="SVGID_2_" gradientUnits="userSpaceOnUse" x1="39.4108" y1="5.3328" x2="40.8488" y2="7.2708" gradientTransform="matrix(0.375 0 0 -0.375 -11.25 5.125)">
			<stop  offset="0" style="stop-color:#7C7C7C"/>
			<stop  offset="1" style="stop-color:#7C7C7C;stop-opacity:0"/>
		</linearGradient>
		<path class="st4" d="M3.3,2.5l0.9,1l-0.3-2C3.5,1.7,3.3,2.3,3.3,2.5z"/>
	</g>
	<g>
		
			<linearGradient id="SVGID_3_" gradientUnits="userSpaceOnUse" x1="45.4582" y1="6.3016" x2="48.4432" y2="8.0046" gradientTransform="matrix(0.375 0 0 -0.375 -11.25 5.125)">
			<stop  offset="0" style="stop-color:#7C7C7C"/>
			<stop  offset="1" style="stop-color:#7C7C7C;stop-opacity:0"/>
		</linearGradient>
		<path class="st5" d="M6,1.5v2.4L7,1.1C6.6,1,6.1,1.3,6,1.5L6,1.5z"/>
	</g>
	<g>
		
			<linearGradient id="SVGID_4_" gradientUnits="userSpaceOnUse" x1="50.3963" y1="4.6133" x2="53.8163" y2="4.2893" gradientTransform="matrix(0.375 0 0 -0.375 -11.25 5.125)">
			<stop  offset="0" style="stop-color:#7C7C7C"/>
			<stop  offset="1" style="stop-color:#7C7C7C;stop-opacity:0"/>
		</linearGradient>
		<path class="st6" d="M8.5,2.5L7.1,4.4l2.5-1.6C9.3,2.4,8.7,2.4,8.5,2.5L8.5,2.5z"/>
	</g>
	<g>
		
			<linearGradient id="SVGID_5_" gradientUnits="userSpaceOnUse" x1="54.3792" y1="-4.4796" x2="54.7071" y2="-7.7926" gradientTransform="matrix(0.375 0 0 -0.375 -11.25 5.125)">
			<stop  offset="0" style="stop-color:#7C7C7C"/>
			<stop  offset="1" style="stop-color:#7C7C7C;stop-opacity:0"/>
		</linearGradient>
		<path class="st7" d="M10.2,7.3L8,6.6l2.3,1.8C10.5,8,10.4,7.5,10.2,7.3z"/>
	</g>
	<g>
		
			<linearGradient id="SVGID_6_" gradientUnits="userSpaceOnUse" x1="51.752" y1="-8.1224" x2="49.884" y2="-11.4104" gradientTransform="matrix(0.375 0 0 -0.375 -11.25 5.125)">
			<stop  offset="0" style="stop-color:#7C7C7C"/>
			<stop  offset="1" style="stop-color:#7C7C7C;stop-opacity:0"/>
		</linearGradient>
		<path class="st8" d="M8.7,9.3L7.1,7.5l1,2.8C8.6,10.1,8.7,9.6,8.7,9.3z"/>
	</g>
	<g>
		
			<linearGradient id="SVGID_7_" gradientUnits="userSpaceOnUse" x1="46.025" y1="-10.8102" x2="42.681" y2="-11.9032" gradientTransform="matrix(0.375 0 0 -0.375 -11.25 5.125)">
			<stop  offset="0" style="stop-color:#7C7C7C"/>
			<stop  offset="1" style="stop-color:#7C7C7C;stop-opacity:0"/>
		</linearGradient>
		<path class="st9" d="M6.1,10.3L6,7.8l-1,3C5.5,10.8,5.9,10.5,6.1,10.3z"/>
	</g>
	<g>
		
			<linearGradient id="SVGID_8_" gradientUnits="userSpaceOnUse" x1="41.1372" y1="-8.9159" x2="37.8312" y2="-7.7149" gradientTransform="matrix(0.375 0 0 -0.375 -11.25 5.125)">
			<stop  offset="0" style="stop-color:#7C7C7C"/>
			<stop  offset="1" style="stop-color:#7C7C7C;stop-opacity:0"/>
		</linearGradient>
		<path class="st10" d="M3.5,9.4l1.5-2L2.4,9.1C2.8,9.5,3.3,9.5,3.5,9.4z"/>
	</g>
	<g>
		
			<linearGradient id="SVGID_9_" gradientUnits="userSpaceOnUse" x1="38.0986" y1="-5.3798" x2="36.2716" y2="-2.3728" gradientTransform="matrix(0.375 0 0 -0.375 -11.25 5.125)">
			<stop  offset="0" style="stop-color:#7C7C7C"/>
			<stop  offset="1" style="stop-color:#7C7C7C;stop-opacity:0"/>
		</linearGradient>
		<path class="st11" d="M2,7.5l2.4-0.6L1.3,6.5C1.3,7,1.7,7.4,2,7.5z"/>
	</g>
	<g>
		
			<linearGradient id="SVGID_10_" gradientUnits="userSpaceOnUse" x1="38.4134" y1="0.2107" x2="38.4874" y2="3.7277" gradientTransform="matrix(0.375 0 0 -0.375 -11.25 5.125)">
			<stop  offset="0" style="stop-color:#7C7C7C"/>
			<stop  offset="1" style="stop-color:#7C7C7C;stop-opacity:0"/>
		</linearGradient>
		<path class="st12" d="M2.1,4.7l2.4,0.7L2,3.6C1.8,4,1.9,4.5,2.1,4.7z"/>
	</g>
	<g>
		
			<radialGradient id="SVGID_11_" cx="-18.2902" cy="15.8069" r="1" gradientTransform="matrix(0 3.6094 3.7446 0 -53.1879 72.4)" gradientUnits="userSpaceOnUse">
			<stop  offset="0.423" style="stop-color:#9F9F9F"/>
			<stop  offset="1" style="stop-color:#CACACA"/>
		</radialGradient>
		<path class="st13" d="M9,5.1c-0.5,0-0.8,0.1-0.8,0.1C8.4,5.2,8.7,5,8.9,4.9c0.5-0.4,0.6-1.2-0.2-1.6c-0.3-0.2-0.8,0-0.8,0
			s0-0.5-0.2-0.8C7,1.9,6.3,2.3,6.1,2.9C6,3.1,6,3.3,6,3.7c0,0,0-0.4-0.1-0.8c-0.2-0.5-1-0.9-1.6-0.3C4,2.9,4,3.3,4,3.3
			s-0.5-0.2-0.8,0C2.5,3.7,2.6,4.6,3.1,4.9c0.2,0.2,0.5,0.2,0.7,0.4c0,0-0.4-0.2-0.8-0.1c-0.6,0-1.2,0.6-0.8,1.4
			C2.4,6.9,2.9,7,2.9,7S2.6,7.4,2.6,7.8c0.1,0.9,1,1,1.5,0.7c0.2-0.1,0.4-0.3,0.5-0.6c0,0-0.3,0.4-0.3,0.7C4.2,9.1,4.5,9.9,5.4,9.7
			C5.8,9.7,6,9.3,6,9.3s0.3,0.4,0.6,0.5c0.9,0.1,1.2-0.6,1.1-1.2C7.7,8.3,7.5,8.1,7.4,7.8c0,0.1,0.3,0.4,0.6,0.5
			c0.5,0.3,1.3,0.2,1.5-0.7C9.4,7.2,9.1,7,9.1,7s0.4,0,0.6-0.5C10.2,5.7,9.6,5.1,9,5.1z"/>
		
			<radialGradient id="SVGID_12_" cx="-17.6187" cy="-84.2955" r="1" gradientTransform="matrix(-3.907132e-02 -1.5762 -0.189 4.686139e-03 -10.621 -22.6903)" gradientUnits="userSpaceOnUse">
			<stop  offset="0" style="stop-color:#959595"/>
			<stop  offset="1" style="stop-color:#959595;stop-opacity:0"/>
		</radialGradient>
		<path class="st14" d="M9,5.1c-0.5,0-0.8,0.1-0.8,0.1C8.4,5.2,8.7,5,8.9,4.9c0.5-0.4,0.6-1.2-0.2-1.6c-0.3-0.2-0.8,0-0.8,0
			s0-0.5-0.2-0.8C7,1.9,6.3,2.3,6.1,2.9C6,3.1,6,3.3,6,3.7c0,0,0-0.4-0.1-0.8c-0.2-0.5-1-0.9-1.6-0.3C4,2.9,4,3.3,4,3.3
			s-0.5-0.2-0.8,0C2.5,3.7,2.6,4.6,3.1,4.9c0.2,0.2,0.5,0.2,0.7,0.4c0,0-0.4-0.2-0.8-0.1c-0.6,0-1.2,0.6-0.8,1.4
			C2.4,6.9,2.9,7,2.9,7S2.6,7.4,2.6,7.8c0.1,0.9,1,1,1.5,0.7c0.2-0.1,0.4-0.3,0.5-0.6c0,0-0.3,0.4-0.3,0.7C4.2,9.1,4.5,9.9,5.4,9.7
			C5.8,9.7,6,9.3,6,9.3s0.3,0.4,0.6,0.5c0.9,0.1,1.2-0.6,1.1-1.2C7.7,8.3,7.5,8.1,7.4,7.8c0,0.1,0.3,0.4,0.6,0.5
			c0.5,0.3,1.3,0.2,1.5-0.7C9.4,7.2,9.1,7,9.1,7s0.4,0,0.6-0.5C10.2,5.7,9.6,5.1,9,5.1z"/>
		
			<radialGradient id="SVGID_13_" cx="-17.5618" cy="-8.6036" r="1" gradientTransform="matrix(0 -2.3906 -0.9182 0 -1.9361 -36.2094)" gradientUnits="userSpaceOnUse">
			<stop  offset="0" style="stop-color:#959595"/>
			<stop  offset="1" style="stop-color:#959595;stop-opacity:0"/>
		</radialGradient>
		<path class="st15" d="M9,5.1c-0.5,0-0.8,0.1-0.8,0.1C8.4,5.2,8.7,5,8.9,4.9c0.5-0.4,0.6-1.2-0.2-1.6c-0.3-0.2-0.8,0-0.8,0
			s0-0.5-0.2-0.8C7,1.9,6.3,2.3,6.1,2.9C6,3.1,6,3.3,6,3.7c0,0,0-0.4-0.1-0.8c-0.2-0.5-1-0.9-1.6-0.3C4,2.9,4,3.3,4,3.3
			s-0.5-0.2-0.8,0C2.5,3.7,2.6,4.6,3.1,4.9c0.2,0.2,0.5,0.2,0.7,0.4c0,0-0.4-0.2-0.8-0.1c-0.6,0-1.2,0.6-0.8,1.4
			C2.4,6.9,2.9,7,2.9,7S2.6,7.4,2.6,7.8c0.1,0.9,1,1,1.5,0.7c0.2-0.1,0.4-0.3,0.5-0.6c0,0-0.3,0.4-0.3,0.7C4.2,9.1,4.5,9.9,5.4,9.7
			C5.8,9.7,6,9.3,6,9.3s0.3,0.4,0.6,0.5c0.9,0.1,1.2-0.6,1.1-1.2C7.7,8.3,7.5,8.1,7.4,7.8c0,0.1,0.3,0.4,0.6,0.5
			c0.5,0.3,1.3,0.2,1.5-0.7C9.4,7.2,9.1,7,9.1,7s0.4,0,0.6-0.5C10.2,5.7,9.6,5.1,9,5.1z"/>
		
			<radialGradient id="SVGID_14_" cx="-24.4855" cy="-18.0216" r="1" gradientTransform="matrix(-2.4844 -0.7734 -6.504375e-02 0.2089 -56.7197 -9.4328)" gradientUnits="userSpaceOnUse">
			<stop  offset="0" style="stop-color:#959595"/>
			<stop  offset="1" style="stop-color:#959595;stop-opacity:0"/>
		</radialGradient>
		<path class="st16" d="M9,5.1c-0.5,0-0.8,0.1-0.8,0.1C8.4,5.2,8.7,5,8.9,4.9c0.5-0.4,0.6-1.2-0.2-1.6c-0.3-0.2-0.8,0-0.8,0
			s0-0.5-0.2-0.8C7,1.9,6.3,2.3,6.1,2.9C6,3.1,6,3.3,6,3.7c0,0,0-0.4-0.1-0.8c-0.2-0.5-1-0.9-1.6-0.3C4,2.9,4,3.3,4,3.3
			s-0.5-0.2-0.8,0C2.5,3.7,2.6,4.6,3.1,4.9c0.2,0.2,0.5,0.2,0.7,0.4c0,0-0.4-0.2-0.8-0.1c-0.6,0-1.2,0.6-0.8,1.4
			C2.4,6.9,2.9,7,2.9,7S2.6,7.4,2.6,7.8c0.1,0.9,1,1,1.5,0.7c0.2-0.1,0.4-0.3,0.5-0.6c0,0-0.3,0.4-0.3,0.7C4.2,9.1,4.5,9.9,5.4,9.7
			C5.8,9.7,6,9.3,6,9.3s0.3,0.4,0.6,0.5c0.9,0.1,1.2-0.6,1.1-1.2C7.7,8.3,7.5,8.1,7.4,7.8c0,0.1,0.3,0.4,0.6,0.5
			c0.5,0.3,1.3,0.2,1.5-0.7C9.4,7.2,9.1,7,9.1,7s0.4,0,0.6-0.5C10.2,5.7,9.6,5.1,9,5.1z"/>
		
			<radialGradient id="SVGID_15_" cx="-22.4954" cy="82.4871" r="1" gradientTransform="matrix(-1.3242 2.0039 0.1685 0.1114 -38.3706 42.7456)" gradientUnits="userSpaceOnUse">
			<stop  offset="0" style="stop-color:#959595"/>
			<stop  offset="1" style="stop-color:#959595;stop-opacity:0"/>
		</radialGradient>
		<path class="st17" d="M9,5.1c-0.5,0-0.8,0.1-0.8,0.1C8.4,5.2,8.7,5,8.9,4.9c0.5-0.4,0.6-1.2-0.2-1.6c-0.3-0.2-0.8,0-0.8,0
			s0-0.5-0.2-0.8C7,1.9,6.3,2.3,6.1,2.9C6,3.1,6,3.3,6,3.7c0,0,0-0.4-0.1-0.8c-0.2-0.5-1-0.9-1.6-0.3C4,2.9,4,3.3,4,3.3
			s-0.5-0.2-0.8,0C2.5,3.7,2.6,4.6,3.1,4.9c0.2,0.2,0.5,0.2,0.7,0.4c0,0-0.4-0.2-0.8-0.1c-0.6,0-1.2,0.6-0.8,1.4
			C2.4,6.9,2.9,7,2.9,7S2.6,7.4,2.6,7.8c0.1,0.9,1,1,1.5,0.7c0.2-0.1,0.4-0.3,0.5-0.6c0,0-0.3,0.4-0.3,0.7C4.2,9.1,4.5,9.9,5.4,9.7
			C5.8,9.7,6,9.3,6,9.3s0.3,0.4,0.6,0.5c0.9,0.1,1.2-0.6,1.1-1.2C7.7,8.3,7.5,8.1,7.4,7.8c0,0.1,0.3,0.4,0.6,0.5
			c0.5,0.3,1.3,0.2,1.5-0.7C9.4,7.2,9.1,7,9.1,7s0.4,0,0.6-0.5C10.2,5.7,9.6,5.1,9,5.1z"/>
		
			<radialGradient id="SVGID_16_" cx="-35.258" cy="75.0566" r="1" gradientTransform="matrix(-0.3281 0.5156 0.1926 0.1226 -18.0456 12.1888)" gradientUnits="userSpaceOnUse">
			<stop  offset="0" style="stop-color:#D9D9D9"/>
			<stop  offset="1" style="stop-color:#D9D9D9;stop-opacity:0"/>
		</radialGradient>
		<path class="st18" d="M9,5.1c-0.5,0-0.8,0.1-0.8,0.1C8.4,5.2,8.7,5,8.9,4.9c0.5-0.4,0.6-1.2-0.2-1.6c-0.3-0.2-0.8,0-0.8,0
			s0-0.5-0.2-0.8C7,1.9,6.3,2.3,6.1,2.9C6,3.1,6,3.3,6,3.7c0,0,0-0.4-0.1-0.8c-0.2-0.5-1-0.9-1.6-0.3C4,2.9,4,3.3,4,3.3
			s-0.5-0.2-0.8,0C2.5,3.7,2.6,4.6,3.1,4.9c0.2,0.2,0.5,0.2,0.7,0.4c0,0-0.4-0.2-0.8-0.1c-0.6,0-1.2,0.6-0.8,1.4
			C2.4,6.9,2.9,7,2.9,7S2.6,7.4,2.6,7.8c0.1,0.9,1,1,1.5,0.7c0.2-0.1,0.4-0.3,0.5-0.6c0,0-0.3,0.4-0.3,0.7C4.2,9.1,4.5,9.9,5.4,9.7
			C5.8,9.7,6,9.3,6,9.3s0.3,0.4,0.6,0.5c0.9,0.1,1.2-0.6,1.1-1.2C7.7,8.3,7.5,8.1,7.4,7.8c0,0.1,0.3,0.4,0.6,0.5
			c0.5,0.3,1.3,0.2,1.5-0.7C9.4,7.2,9.1,7,9.1,7s0.4,0,0.6-0.5C10.2,5.7,9.6,5.1,9,5.1z"/>
	</g>
	<g>
		
			<linearGradient id="SVGID_17_" gradientUnits="userSpaceOnUse" x1="48.3299" y1="-9.948" x2="44.3299" y2="-17.854" gradientTransform="matrix(0.375 0 0 -0.375 -11.25 5.125)">
			<stop  offset="0" style="stop-color:#CCCCCC"/>
			<stop  offset="1" style="stop-color:#CCCCCC;stop-opacity:0"/>
		</linearGradient>
		<path class="st19" d="M6.9,7.3l0.6,1.1c0.1,0.2,0.2,0.7-0.4,1.1"/>
	</g>
	<g>
		
			<linearGradient id="SVGID_18_" gradientUnits="userSpaceOnUse" x1="39.2313" y1="-1.8211" x2="39.1403" y2="-4.1591" gradientTransform="matrix(0.375 0 0 -0.375 -11.25 5.125)">
			<stop  offset="0" style="stop-color:#CCCCCC"/>
			<stop  offset="1" style="stop-color:#CCCCCC;stop-opacity:0"/>
		</linearGradient>
		<path class="st20" d="M2.3,6.2c0-0.3,0.1-0.8,0.9-0.8c0.5,0,1.2,0.3,1.5,0.5"/>
	</g>
	
		<linearGradient id="SVGID_19_" gradientUnits="userSpaceOnUse" x1="41.1222" y1="-2.3328" x2="51.1222" y2="-2.3328" gradientTransform="matrix(0.375 0 0 -0.375 -11.25 5.125)">
		<stop  offset="0" style="stop-color:#737373"/>
		<stop  offset="1" style="stop-color:#888888"/>
	</linearGradient>
	<path class="st21" d="M6.8,5c0.8,0,1.1,1,0.5,1.5C7.5,7.3,6.7,7.9,6,7.4C5.3,7.9,4.5,7.3,4.7,6.5C4.1,6,4.4,5,5.2,5
		C5.5,4.2,6.5,4.2,6.8,5z"/>
	<g>
		
			<linearGradient id="SVGID_20_" gradientUnits="userSpaceOnUse" x1="37.8772" y1="6.9276" x2="33.5922" y2="1.5826" gradientTransform="matrix(0.375 0 0 -0.375 -11.25 5.125)">
			<stop  offset="0" style="stop-color:#BEBEBE"/>
			<stop  offset="1" style="stop-color:#BEBEBE;stop-opacity:0"/>
		</linearGradient>
		<path class="st22" d="M1.8,3.7c0.2-0.5,0.4-1,1.5-1"/>
	</g>
	<g>
		
			<linearGradient id="SVGID_21_" gradientUnits="userSpaceOnUse" x1="43.4187" y1="10.1602" x2="42.6687" y2="8.5582" gradientTransform="matrix(0.375 0 0 -0.375 -11.25 5.125)">
			<stop  offset="0" style="stop-color:#C1C1C1"/>
			<stop  offset="1" style="stop-color:#BEBEBE;stop-opacity:0"/>
		</linearGradient>
		<path class="st23" d="M4,1.6C4.3,1.3,5,1.1,5.8,1.6"/>
	</g>
	<g>
		
			<linearGradient id="SVGID_22_" gradientUnits="userSpaceOnUse" x1="50.8009" y1="9.8256" x2="48.3859" y2="7.9356" gradientTransform="matrix(0.375 0 0 -0.375 -11.25 5.125)">
			<stop  offset="0" style="stop-color:#C1C1C1"/>
			<stop  offset="1" style="stop-color:#BEBEBE;stop-opacity:0"/>
		</linearGradient>
		<path class="st24" d="M6.7,1.3C7,1.1,7.9,1.2,8.3,2.1"/>
	</g>
	<g>
		
			<radialGradient id="SVGID_23_" cx="-36.8343" cy="16.0774" r="1" gradientTransform="matrix(-0.5273 0.5039 1.589 1.6629 -35.0465 -5.2236)" gradientUnits="userSpaceOnUse">
			<stop  offset="0" style="stop-color:#CCCCCC"/>
			<stop  offset="1" style="stop-color:#BEBEBE;stop-opacity:0"/>
		</radialGradient>
		<path class="st25" d="M9.1,2.4c0.5,0.1,1.3,0.5,1,1.7"/>
	</g>
	<g>
		
			<radialGradient id="SVGID_24_" cx="-25.332" cy="15.1799" r="1" gradientTransform="matrix(-0.7031 1.1836 3.073 1.8255 -53.6439 7.2373)" gradientUnits="userSpaceOnUse">
			<stop  offset="0" style="stop-color:#CCCCCC"/>
			<stop  offset="1" style="stop-color:#BEBEBE;stop-opacity:0"/>
		</radialGradient>
		<path class="st26" d="M10.4,4.8c0.4,0.2,1,1,0.3,2"/>
	</g>
	<g>
		
			<radialGradient id="SVGID_25_" cx="-20.179" cy="12.9742" r="1" gradientTransform="matrix(-0.918 2.8477 8.1046 2.6126 -113.277 31.0526)" gradientUnits="userSpaceOnUse">
			<stop  offset="0" style="stop-color:#CCCCCC"/>
			<stop  offset="1" style="stop-color:#BEBEBE;stop-opacity:0"/>
		</radialGradient>
		<path class="st27" d="M10.3,7.3c0.2,0.4,0.3,1.5-0.6,1.9"/>
	</g>
	<g>
		
			<radialGradient id="SVGID_26_" cx="-27.4601" cy="12.9233" r="1" gradientTransform="matrix(-1.6289 0.7255 1.3469 3.024 -53.5825 -9.21)" gradientUnits="userSpaceOnUse">
			<stop  offset="0" style="stop-color:#CCCCCC"/>
			<stop  offset="1" style="stop-color:#BEBEBE;stop-opacity:0"/>
		</radialGradient>
		<path class="st28" d="M6.6,10.6c0.6,0.2,1.8,0.3,2.1-1"/>
	</g>
	<g>
		
			<radialGradient id="SVGID_27_" cx="-24.1145" cy="9.1011" r="1" gradientTransform="matrix(-2.4609 -1.0078 -1.5549 3.7969 -39.8977 -48.1857)" gradientUnits="userSpaceOnUse">
			<stop  offset="0" style="stop-color:#CCCCCC"/>
			<stop  offset="1" style="stop-color:#BEBEBE;stop-opacity:0"/>
		</radialGradient>
		<path class="st29" d="M5.9,10.3c-0.2,0.2-0.6,0.6-1.3,0.5C4,10.6,3.8,10.1,3.8,9.9"/>
	</g>
	<g>
		
			<radialGradient id="SVGID_28_" cx="-11.1167" cy="8.7316" r="1" gradientTransform="matrix(1.2188 -1.3828 -4.237 -3.7343 52.4301 26.372)" gradientUnits="userSpaceOnUse">
			<stop  offset="0" style="stop-color:#CCCCCC"/>
			<stop  offset="0.547" style="stop-color:#BEBEBE;stop-opacity:0"/>
		</radialGradient>
		<path class="st30" d="M1.9,7.7C1.8,8,1.7,8.6,2,9c0.2,0.3,0.7,0.6,1.3,0.5"/>
	</g>
	<g>
		
			<linearGradient id="SVGID_29_" gradientUnits="userSpaceOnUse" x1="35.6552" y1="-1.1331" x2="31.2572" y2="-5.9991" gradientTransform="matrix(0.375 0 0 -0.375 -11.25 5.125)">
			<stop  offset="0" style="stop-color:#CACACA"/>
			<stop  offset="1" style="stop-color:#BEBEBE;stop-opacity:0"/>
		</linearGradient>
		<path class="st31" d="M1.8,4.9C1.5,5,0.5,5.9,1.6,7.3"/>
	</g>
	<g>
		
			<linearGradient id="SVGID_30_" gradientUnits="userSpaceOnUse" x1="43.0149" y1="-0.4495" x2="45.3579" y2="-3.6685" gradientTransform="matrix(0.375 0 0 -0.375 -11.25 5.125)">
			<stop  offset="0" style="stop-color:#A2A2A2"/>
			<stop  offset="1" style="stop-color:#959595;stop-opacity:0"/>
		</linearGradient>
		<circle class="st32" cx="5.3" cy="5.8" r="0.6"/>
	</g>
	<g>
		
			<linearGradient id="SVGID_31_" gradientUnits="userSpaceOnUse" x1="44.9873" y1="-5.4688" x2="43.8253" y2="-1.5408" gradientTransform="matrix(0.375 0 0 -0.375 -11.25 5.125)">
			<stop  offset="0" style="stop-color:#9D9D9D"/>
			<stop  offset="1" style="stop-color:#9D9D9D;stop-opacity:0"/>
		</linearGradient>
		<circle class="st33" cx="5.5" cy="6.8" r="0.6"/>
	</g>
	<g>
		<path class="st34" d="M5.9,6.7c0.4,0,0.6-0.3,0.6-0.6c0-0.4-0.3-0.6-0.6-0.6c-0.4,0-0.6,0.3-0.6,0.6C5.2,6.4,5.5,6.7,5.9,6.7z"/>
	</g>
	
		<radialGradient id="SVGID_32_" cx="-37.8351" cy="29.4108" r="1" gradientTransform="matrix(-0.4336 0.4805 0.5106 0.4607 -25.1875 10.5316)" gradientUnits="userSpaceOnUse">
		<stop  offset="0" style="stop-color:#F3F3F3"/>
		<stop  offset="1" style="stop-color:#C3C3C3"/>
	</radialGradient>
	<path class="st35" d="M6,6.6c0.3,0,0.6-0.3,0.6-0.6c0-0.3-0.3-0.6-0.6-0.6C5.7,5.4,5.4,5.7,5.4,6C5.4,6.3,5.7,6.6,6,6.6L6,6.6z"/>
	<g>
		
			<linearGradient id="SVGID_33_" gradientUnits="userSpaceOnUse" x1="48.9063" y1="-3.6425" x2="47.7443" y2="-6.4395" gradientTransform="matrix(0.375 0 0 -0.375 -11.25 5.125)">
			<stop  offset="0" style="stop-color:#AAAAAA"/>
			<stop  offset="1" style="stop-color:#AAAAAA;stop-opacity:0"/>
		</linearGradient>
		<path class="st36" d="M7.2,6.5L6.9,6.3c0.2,0.3,0,0.7-0.2,1C7.1,7.3,7.3,6.8,7.2,6.5z"/>
	</g>
	<g>
		
			<linearGradient id="SVGID_34_" gradientUnits="userSpaceOnUse" x1="47.7285" y1="6.824818e-02" x2="45.1635" y2="1.6782" gradientTransform="matrix(0.375 0 0 -0.375 -11.25 5.125)">
			<stop  offset="0" style="stop-color:#AAAAAA"/>
			<stop  offset="1" style="stop-color:#AAAAAA;stop-opacity:0"/>
		</linearGradient>
		<path class="st37" d="M6.7,5L6.6,5.3C6.5,5,6.2,4.7,5.8,4.6C6.2,4.4,6.6,4.8,6.7,5z"/>
	</g>
	<g>
		
			<linearGradient id="SVGID_35_" gradientUnits="userSpaceOnUse" x1="44.328" y1="-0.2744" x2="42.176" y2="-2.4044" gradientTransform="matrix(0.375 0 0 -0.375 -11.25 5.125)">
			<stop  offset="0" style="stop-color:#AAAAAA"/>
			<stop  offset="1" style="stop-color:#AAAAAA;stop-opacity:0"/>
		</linearGradient>
		<path class="st38" d="M5.4,5.2l0.2,0.1C5.2,5.2,4.9,5.6,4.9,5.8C4.9,5.4,5.1,5.2,5.4,5.2z"/>
	</g>
	<g>
		
			<linearGradient id="SVGID_36_" gradientUnits="userSpaceOnUse" x1="45.7811" y1="-5.2869" x2="42.8251" y2="-4.6259" gradientTransform="matrix(0.375 0 0 -0.375 -11.25 5.125)">
			<stop  offset="0" style="stop-color:#AAAAAA"/>
			<stop  offset="1" style="stop-color:#AAAAAA;stop-opacity:0"/>
		</linearGradient>
		<path class="st39" d="M6.1,7.2V6.9C5.8,7.2,5.3,7.2,5,6.7C5.2,7.4,5.8,7.3,6.1,7.2L6.1,7.2z"/>
	</g>
	<g>
		
			<linearGradient id="SVGID_37_" gradientUnits="userSpaceOnUse" x1="49.6421" y1="-1.008" x2="48.0681" y2="-2.406" gradientTransform="matrix(0.375 0 0 -0.375 -11.25 5.125)">
			<stop  offset="0" style="stop-color:#ABABAB"/>
			<stop  offset="1" style="stop-color:#AAAAAA;stop-opacity:0"/>
		</linearGradient>
		<path class="st40" d="M7.5,5.6C7.4,5.3,7.1,5.3,7,5.2c0.4,0.3,0.4,0.7,0.3,0.9C7.4,6.1,7.6,5.9,7.5,5.6z"/>
	</g>
	<g>
		
			<linearGradient id="SVGID_38_" gradientUnits="userSpaceOnUse" x1="39.6512" y1="4.2872" x2="39.6442" y2="3.9152" gradientTransform="matrix(0.375 0 0 -0.375 -11.25 5.125)">
			<stop  offset="0" style="stop-color:#CECECE"/>
			<stop  offset="1" style="stop-color:#CCCCCC;stop-opacity:0"/>
		</linearGradient>
		<path class="st41" d="M3.2,3.6C3.3,3.5,3.7,3.4,4,3.5"/>
	</g>
	<g>
		
			<linearGradient id="SVGID_39_" gradientUnits="userSpaceOnUse" x1="43.7729" y1="6.7864" x2="44.9459" y2="3.1514" gradientTransform="matrix(0.375 0 0 -0.375 -11.25 5.125)">
			<stop  offset="0" style="stop-color:#D7D7D7"/>
			<stop  offset="1" style="stop-color:#D7D7D7;stop-opacity:0"/>
		</linearGradient>
		<path class="st42" d="M4.7,2.5c0.3-0.2,1-0.1,1.2,0.7"/>
	</g>
	<g>
		
			<linearGradient id="SVGID_40_" gradientUnits="userSpaceOnUse" x1="50.292" y1="6.0686" x2="49.005" y2="5.5186" gradientTransform="matrix(0.375 0 0 -0.375 -11.25 5.125)">
			<stop  offset="0" style="stop-color:#D7D7D7"/>
			<stop  offset="1" style="stop-color:#D7D7D7;stop-opacity:0"/>
		</linearGradient>
		<path class="st43" d="M7.1,2.4c0.2,0,0.7,0.3,0.6,1"/>
	</g>
	<g>
		
			<linearGradient id="SVGID_41_" gradientUnits="userSpaceOnUse" x1="55.6457" y1="-1.4436" x2="54.3587" y2="-1.9936" gradientTransform="matrix(0.375 0 0 -0.375 -11.25 5.125)">
			<stop  offset="0" style="stop-color:#D7D7D7"/>
			<stop  offset="1" style="stop-color:#D7D7D7;stop-opacity:0"/>
		</linearGradient>
		<path class="st44" d="M9.1,5.3c0.2,0,0.7,0.3,0.6,0.9"/>
	</g>
	<g>
		
			<linearGradient id="SVGID_42_" gradientUnits="userSpaceOnUse" x1="53.6488" y1="3.4481" x2="53.1118" y2="2.7921" gradientTransform="matrix(0.375 0 0 -0.375 -11.25 5.125)">
			<stop  offset="0" style="stop-color:#D7D7D7"/>
			<stop  offset="1" style="stop-color:#D7D7D7;stop-opacity:0"/>
		</linearGradient>
		<path class="st45" d="M8.5,3.4c0.3,0,0.7,0.3,0.6,1"/>
	</g>
	<g>
		
			<linearGradient id="SVGID_43_" gradientUnits="userSpaceOnUse" x1="54.8043" y1="-5.6035" x2="53.4113" y2="-7.1715" gradientTransform="matrix(0.375 0 0 -0.375 -11.25 5.125)">
			<stop  offset="0" style="stop-color:#D7D7D7"/>
			<stop  offset="1" style="stop-color:#D7D7D7;stop-opacity:0"/>
		</linearGradient>
		<path class="st46" d="M9,6.9c0.2,0.2,0.5,0.6,0.1,1.2"/>
	</g>
</g>
</svg>
