<?xml version="1.0" encoding="utf-8"?>
<!-- Generator: Adobe Illustrator 24.3.0, SVG Export Plug-In . SVG Version: 6.00 Build 0)  -->
<svg version="1.1" id="레이어_1" xmlns="http://www.w3.org/2000/svg" xmlns:xlink="http://www.w3.org/1999/xlink" x="0px"
	 y="0px" viewBox="0 0 12 12" style="enable-background:new 0 0 12 12;" xml:space="preserve">
<style type="text/css">
	.st0{fill:url(#SVGID_1_);}
	.st1{fill:url(#SVGID_2_);}
	.st2{fill:url(#SVGID_3_);}
	.st3{fill:url(#SVGID_4_);}
	.st4{fill:url(#SVGID_5_);}
</style>
<g>
	<g>
		
			<linearGradient id="SVGID_1_" gradientUnits="userSpaceOnUse" x1="54.9541" y1="3.4638" x2="43.8771" y2="-8.1962" gradientTransform="matrix(0.375 0 0 -0.375 -11.25 5.125)">
			<stop  offset="0" style="stop-color:#FFCF5A"/>
			<stop  offset="1" style="stop-color:#FEA254"/>
		</linearGradient>
		<path class="st0" d="M6,4.2C5.9,4.5,5.7,4.6,5.4,4.8C4.7,5,4.1,5.3,3.6,5.5c-0.4,0.2-0.4,0.9,0,1.1C4.1,6.8,4.8,7,5.5,7.3
			C5.6,7.4,5.9,7.6,6,7.8c0.2,0.8,0.5,1.6,0.8,2.4c0.2,0.6,0.8,0.6,1,0c0.3-0.8,0.5-1.6,0.8-2.4c0.1-0.2,0.2-0.4,0.5-0.5
			c0.6-0.2,1.2-0.5,1.8-0.7c0.5-0.2,0.5-0.9,0-1.1C10.3,5.2,9.7,5,9.1,4.7C8.8,4.7,8.6,4.5,8.6,4.2C8.3,3.3,8.1,2.6,7.8,1.9
			c-0.2-0.6-0.8-0.6-1.1,0C6.4,2.6,6.2,3.4,6,4.2z"/>
	</g>
	
		<linearGradient id="SVGID_2_" gradientUnits="userSpaceOnUse" x1="43.3786" y1="-15.0544" x2="49.4166" y2="-2.3184" gradientTransform="matrix(0.375 0 0 -0.375 -11.25 5.125)">
		<stop  offset="0" style="stop-color:#FF886D"/>
		<stop  offset="1" style="stop-color:#FF886D;stop-opacity:0"/>
	</linearGradient>
	<path class="st1" d="M6,4.2C5.9,4.5,5.7,4.6,5.4,4.8C4.7,5,4.1,5.3,3.6,5.5c-0.4,0.2-0.4,0.9,0,1.1C4.1,6.8,4.8,7,5.5,7.3
		C5.6,7.4,5.9,7.6,6,7.8c0.2,0.8,0.5,1.6,0.8,2.4c0.2,0.6,0.8,0.6,1,0c0.3-0.8,0.5-1.6,0.8-2.4c0.1-0.2,0.2-0.4,0.5-0.5
		c0.6-0.2,1.2-0.5,1.8-0.7c0.5-0.2,0.5-0.9,0-1.1C10.3,5.2,9.7,5,9.1,4.7C8.8,4.7,8.6,4.5,8.6,4.2C8.3,3.3,8.1,2.6,7.8,1.9
		c-0.2-0.6-0.8-0.6-1.1,0C6.4,2.6,6.2,3.4,6,4.2z"/>
	<g>
		
			<linearGradient id="SVGID_3_" gradientUnits="userSpaceOnUse" x1="40.7575" y1="8.0616" x2="37.1925" y2="4.3086" gradientTransform="matrix(0.375 0 0 -0.375 -11.25 5.125)">
			<stop  offset="0" style="stop-color:#FFDA72"/>
			<stop  offset="1" style="stop-color:#F7A967"/>
		</linearGradient>
		<path class="st2" d="M2.9,2.2c0,0.1-0.1,0.1-0.2,0.2C2.5,2.5,2.3,2.6,2.2,2.6C2.1,2.7,2.1,2.9,2.2,3c0.2,0.1,0.4,0.2,0.6,0.2
			c0.1,0,0.1,0.1,0.2,0.2C3,3.6,3.1,3.9,3.2,4.2c0.1,0.2,0.3,0.2,0.3,0c0.1-0.2,0.2-0.5,0.3-0.8c0-0.1,0.1-0.1,0.2-0.2
			C4.1,3.2,4.3,3.1,4.5,3c0.1,0,0.1-0.2,0.1-0.3c0,0-0.1-0.1-0.1-0.1C4.4,2.6,4.2,2.5,3.9,2.4c-0.1,0-0.1-0.1-0.2-0.2
			C3.7,1.9,3.6,1.7,3.5,1.5c-0.1-0.2-0.3-0.2-0.3,0C3.1,1.7,3,2,2.9,2.2z"/>
	</g>
	
		<linearGradient id="SVGID_4_" gradientUnits="userSpaceOnUse" x1="38.9601" y1="1.5686" x2="38.9601" y2="5.6936" gradientTransform="matrix(0.375 0 0 -0.375 -11.25 5.125)">
		<stop  offset="0" style="stop-color:#FDA071"/>
		<stop  offset="1" style="stop-color:#FDA071;stop-opacity:0"/>
	</linearGradient>
	<path class="st3" d="M2.9,2.2c0,0.1-0.1,0.1-0.2,0.2C2.5,2.5,2.3,2.6,2.2,2.6C2.1,2.7,2.1,2.9,2.2,3c0.2,0.1,0.4,0.2,0.6,0.2
		c0.1,0,0.1,0.1,0.2,0.2C3,3.6,3.1,3.9,3.2,4.2c0.1,0.2,0.3,0.2,0.3,0c0.1-0.2,0.2-0.5,0.3-0.8c0-0.1,0.1-0.1,0.2-0.2
		C4.1,3.2,4.3,3.1,4.5,3c0.1,0,0.1-0.2,0.1-0.3c0,0-0.1-0.1-0.1-0.1C4.4,2.6,4.2,2.5,3.9,2.4c-0.1,0-0.1-0.1-0.2-0.2
		C3.7,1.9,3.6,1.7,3.5,1.5c-0.1-0.2-0.3-0.2-0.3,0C3.1,1.7,3,2,2.9,2.2z"/>
	<g>
		
			<radialGradient id="SVGID_5_" cx="-22.3964" cy="16.3318" r="1" gradientTransform="matrix(-1.6051 2.113 2.0577 1.563 -65.7704 28.8032)" gradientUnits="userSpaceOnUse">
			<stop  offset="0.365" style="stop-color:#FFBC64"/>
			<stop  offset="1" style="stop-color:#FF8F6B"/>
		</radialGradient>
		<path class="st4" d="M2,7.6c0,0.1-0.1,0.2-0.2,0.3C1.4,7.9,1.2,8,0.9,8.1C0.8,8.2,0.8,8.5,1,8.6C1.2,8.7,1.5,8.8,1.8,9
			C1.8,9,2,9.1,2,9.2c0.1,0.4,0.2,0.7,0.3,1.1c0.1,0.3,0.4,0.3,0.5,0C2.9,9.9,3,9.5,3.2,9.2C3.2,9.1,3.3,9,3.4,9
			c0.3-0.1,0.5-0.2,0.8-0.3c0.1-0.1,0.2-0.2,0.1-0.4c0-0.1-0.1-0.1-0.1-0.1C3.9,8,3.7,7.9,3.4,7.8c-0.1,0-0.2-0.1-0.2-0.2
			C3,7.2,2.9,6.9,2.8,6.5c-0.1-0.3-0.4-0.3-0.5,0C2.2,6.9,2.1,7.2,2,7.6z"/>
	</g>
</g>
</svg>
