<?xml version="1.0" encoding="utf-8"?>
<!-- Generator: Adobe Illustrator 24.3.0, SVG Export Plug-In . SVG Version: 6.00 Build 0)  -->
<svg version="1.1" id="레이어_1" xmlns="http://www.w3.org/2000/svg" xmlns:xlink="http://www.w3.org/1999/xlink" x="0px"
	 y="0px" viewBox="0 0 12 12" style="enable-background:new 0 0 12 12;" xml:space="preserve">
<style type="text/css">
	.st0{fill:url(#SVGID_1_);}
	.st1{fill:url(#SVGID_2_);}
	.st2{fill:url(#SVGID_3_);}
	.st3{fill:url(#SVGID_4_);}
	.st4{fill:url(#SVGID_5_);}
	.st5{fill:url(#SVGID_6_);}
	.st6{fill:url(#SVGID_7_);}
	.st7{fill:#FA1C56;}
	.st8{fill:url(#SVGID_8_);}
	.st9{fill:url(#SVGID_9_);fill-opacity:0.6;}
	.st10{fill:url(#SVGID_10_);}
	.st11{fill:url(#SVGID_11_);}
	.st12{fill:url(#SVGID_12_);}
	.st13{fill:url(#SVGID_13_);}
	.st14{fill:url(#SVGID_14_);}
	.st15{fill:url(#SVGID_15_);}
	.st16{fill:url(#SVGID_16_);}
	.st17{fill:url(#SVGID_17_);}
	.st18{fill:url(#SVGID_18_);fill-opacity:0.6;}
</style>
<g>
	
		<radialGradient id="SVGID_1_" cx="-17.8891" cy="9.8211" r="1" gradientTransform="matrix(0 -8.986 -15.2763 0 155.3489 -149.5845)" gradientUnits="userSpaceOnUse">
		<stop  offset="0" style="stop-color:#F12E52"/>
		<stop  offset="0.596" style="stop-color:#FF3B79"/>
		<stop  offset="1" style="stop-color:#FF4EC6"/>
	</radialGradient>
	<path class="st0" d="M4.2,11.2c0.2,0.1,0.4,0.1,0.6,0c1-0.6,2.6-1.9,3.3-3.5c1-2.2-1.3-4-2.9-2.7C5.1,5.1,4.9,5.2,4.7,5.4
		c-0.1,0.1-0.3,0.1-0.3,0C4.2,5.2,4,5,3.8,4.9C2.4,4-0.1,5.2,1,7.8C1.3,8.9,3.1,10.5,4.2,11.2L4.2,11.2z"/>
	
		<radialGradient id="SVGID_2_" cx="-20.0709" cy="11.7414" r="1" gradientTransform="matrix(-5.7761 4.3548 8.1569 10.8191 -205.2575 -33.319)" gradientUnits="userSpaceOnUse">
		<stop  offset="0.483" style="stop-color:#B91D43;stop-opacity:0"/>
		<stop  offset="0.834" style="stop-color:#B91D43"/>
	</radialGradient>
	<path class="st1" d="M4.2,11.2c0.2,0.1,0.4,0.1,0.6,0c1-0.6,2.6-1.9,3.3-3.5c1-2.2-1.3-4-2.9-2.7C5.1,5.1,4.9,5.2,4.7,5.4
		c-0.1,0.1-0.3,0.1-0.3,0C4.2,5.2,4,5,3.8,4.9C2.4,4-0.1,5.2,1,7.8C1.3,8.9,3.1,10.5,4.2,11.2L4.2,11.2z"/>
	
		<radialGradient id="SVGID_3_" cx="-20.6156" cy="10.1566" r="1" gradientTransform="matrix(-5.8446 -2.283 -3.2274 8.2621 -82.0986 -122.9013)" gradientUnits="userSpaceOnUse">
		<stop  offset="0.41" style="stop-color:#B91D43;stop-opacity:0"/>
		<stop  offset="0.834" style="stop-color:#B91D43"/>
	</radialGradient>
	<path class="st2" d="M4.2,11.2c0.2,0.1,0.4,0.1,0.6,0c1-0.6,2.6-1.9,3.3-3.5c1-2.2-1.3-4-2.9-2.7C5.1,5.1,4.9,5.2,4.7,5.4
		c-0.1,0.1-0.3,0.1-0.3,0C4.2,5.2,4,5,3.8,4.9C2.4,4-0.1,5.2,1,7.8C1.3,8.9,3.1,10.5,4.2,11.2L4.2,11.2z"/>
	
		<radialGradient id="SVGID_4_" cx="-18.1825" cy="14.2978" r="1" gradientTransform="matrix(3.343906e-16 5.461 5.461 -3.343906e-16 -73.6926 106.2792)" gradientUnits="userSpaceOnUse">
		<stop  offset="0.671" style="stop-color:#FF7AF2;stop-opacity:0"/>
		<stop  offset="0.934" style="stop-color:#FFBCE6"/>
	</radialGradient>
	<path class="st3" d="M4.2,11.2c0.2,0.1,0.4,0.1,0.6,0c1-0.6,2.6-1.9,3.3-3.5c1-2.2-1.3-4-2.9-2.7C5.1,5.1,4.9,5.2,4.7,5.4
		c-0.1,0.1-0.3,0.1-0.3,0C4.2,5.2,4,5,3.8,4.9C2.4,4-0.1,5.2,1,7.8C1.3,8.9,3.1,10.5,4.2,11.2L4.2,11.2z"/>
	
		<linearGradient id="SVGID_5_" gradientUnits="userSpaceOnUse" x1="43.6437" y1="-6.3809" x2="49.5377" y2="-13.3939" gradientTransform="matrix(0.375 0 0 -0.375 -11.25 5.125)">
		<stop  offset="0.694" style="stop-color:#FF7AF2;stop-opacity:0"/>
		<stop  offset="0.934" style="stop-color:#FFBCE6"/>
	</linearGradient>
	<path class="st4" d="M4.2,11.2c0.2,0.1,0.4,0.1,0.6,0c1-0.6,2.6-1.9,3.3-3.5c1-2.2-1.3-4-2.9-2.7C5.1,5.1,4.9,5.2,4.7,5.4
		c-0.1,0.1-0.3,0.1-0.3,0C4.2,5.2,4,5,3.8,4.9C2.4,4-0.1,5.2,1,7.8C1.3,8.9,3.1,10.5,4.2,11.2L4.2,11.2z"/>
	
		<linearGradient id="SVGID_6_" gradientUnits="userSpaceOnUse" x1="41.127" y1="-5.6676" x2="34.211" y2="-13.4606" gradientTransform="matrix(0.375 0 0 -0.375 -11.25 5.125)">
		<stop  offset="0.694" style="stop-color:#FF7AF2;stop-opacity:0"/>
		<stop  offset="0.934" style="stop-color:#FFBCE6"/>
	</linearGradient>
	<path class="st5" d="M4.2,11.2c0.2,0.1,0.4,0.1,0.6,0c1-0.6,2.6-1.9,3.3-3.5c1-2.2-1.3-4-2.9-2.7C5.1,5.1,4.9,5.2,4.7,5.4
		c-0.1,0.1-0.3,0.1-0.3,0C4.2,5.2,4,5,3.8,4.9C2.4,4-0.1,5.2,1,7.8C1.3,8.9,3.1,10.5,4.2,11.2L4.2,11.2z"/>
	
		<linearGradient id="SVGID_7_" gradientUnits="userSpaceOnUse" x1="45.8634" y1="-0.7382" x2="43.7974" y2="1.5328" gradientTransform="matrix(0.375 0 0 -0.375 -11.25 5.125)">
		<stop  offset="0.41" style="stop-color:#C12372;stop-opacity:0"/>
		<stop  offset="0.834" style="stop-color:#B5286E"/>
	</linearGradient>
	<path class="st6" d="M4.4,5.4c0.3,0.3,0.8,0.2,1.1-0.1c0.3-0.3,0.7-0.6,1.2-0.7C6.2,4.5,5.7,4.6,5.2,5c0,0-0.1,0.1-0.1,0.1
		C4.9,5.2,4.8,5.3,4.7,5.4C4.6,5.5,4.5,5.5,4.4,5.4C4.4,5.4,4.4,5.4,4.4,5.4L4.4,5.4z"/>
	<g>
		<path class="st7" d="M4.7,6.2v3.1c0,0.3,0.4,0.5,0.6,0.2c0.5-0.8,0.9-1.9,0.6-2.9C5.7,6.1,5.2,5.9,4.9,5.9C4.8,5.9,4.7,6,4.7,6.2z
			"/>
	</g>
	<g>
		
			<radialGradient id="SVGID_8_" cx="-26.3946" cy="20.6422" r="1" gradientTransform="matrix(-1.282 1.1131 0.7516 0.8657 -41.4055 17.1446)" gradientUnits="userSpaceOnUse">
			<stop  offset="0" style="stop-color:#FF93BA"/>
			<stop  offset="1" style="stop-color:#FF73A6;stop-opacity:0"/>
		</radialGradient>
		<path class="st8" d="M6.4,5.7c0.5-0.4,1.1-0.5,1.4-0.2C8.1,5.8,8,6.4,7.5,6.8C7,7.3,6.4,7.4,6.1,7.1S5.9,6.1,6.4,5.7z"/>
	</g>
	<g>
		
			<radialGradient id="SVGID_9_" cx="-14.7255" cy="20.0113" r="1" gradientTransform="matrix(1.9023 2.4683 1.3073 -1.0075 5.1411 62.1096)" gradientUnits="userSpaceOnUse">
			<stop  offset="0" style="stop-color:#FF93BA"/>
			<stop  offset="1" style="stop-color:#FF73A6;stop-opacity:0"/>
		</radialGradient>
		<path class="st9" d="M3.1,6.9C2.5,6.3,2.4,5.5,2.7,5.3s1,0,1.5,0.6s0.6,1.4,0.3,1.6S3.6,7.5,3.1,6.9z"/>
	</g>
	
		<radialGradient id="SVGID_10_" cx="-17.8314" cy="9.208" r="1" gradientTransform="matrix(0 -5.9116 -10.0498 0 101.8265 -100.3262)" gradientUnits="userSpaceOnUse">
		<stop  offset="0" style="stop-color:#F12E52"/>
		<stop  offset="0.596" style="stop-color:#FF3B79"/>
		<stop  offset="1" style="stop-color:#FF4EC6"/>
	</radialGradient>
	<path class="st10" d="M8.5,5c0.2,0.1,0.4,0.1,0.6,0c0.7-0.4,1.7-1.2,2.1-2.2c0.7-1.4-0.9-2.6-1.9-1.8C9.1,1.1,9,1.1,9,1.2
		c-0.1,0.1-0.3,0.1-0.4,0C8.5,1.1,8.4,1,8.3,1C7.4,0.3,5.7,1.1,6.4,2.9C6.7,3.6,7.7,4.6,8.5,5z"/>
	
		<radialGradient id="SVGID_11_" cx="-21.1479" cy="12.127" r="1" gradientTransform="matrix(-3.7999 2.8649 5.3662 7.1176 -135.4057 -23.8388)" gradientUnits="userSpaceOnUse">
		<stop  offset="0.483" style="stop-color:#B91D43;stop-opacity:0"/>
		<stop  offset="0.834" style="stop-color:#B91D43"/>
	</radialGradient>
	<path class="st11" d="M8.5,5c0.2,0.1,0.4,0.1,0.6,0c0.7-0.4,1.7-1.2,2.1-2.2c0.7-1.4-0.9-2.6-1.9-1.8C9.1,1.1,9,1.1,9,1.2
		c-0.1,0.1-0.3,0.1-0.4,0C8.5,1.1,8.4,1,8.3,1C7.4,0.3,5.7,1.1,6.4,2.9C6.7,3.6,7.7,4.6,8.5,5z"/>
	
		<radialGradient id="SVGID_12_" cx="-21.9759" cy="9.718" r="1" gradientTransform="matrix(-3.845 -1.502 -2.1232 5.4354 -54.383 -82.7718)" gradientUnits="userSpaceOnUse">
		<stop  offset="0.41" style="stop-color:#B91D43;stop-opacity:0"/>
		<stop  offset="0.834" style="stop-color:#B91D43"/>
	</radialGradient>
	<path class="st12" d="M8.5,5c0.2,0.1,0.4,0.1,0.6,0c0.7-0.4,1.7-1.2,2.1-2.2c0.7-1.4-0.9-2.6-1.9-1.8C9.1,1.1,9,1.1,9,1.2
		c-0.1,0.1-0.3,0.1-0.4,0C8.5,1.1,8.4,1,8.3,1C7.4,0.3,5.7,1.1,6.4,2.9C6.7,3.6,7.7,4.6,8.5,5z"/>
	
		<radialGradient id="SVGID_13_" cx="-18.2774" cy="16.0128" r="1" gradientTransform="matrix(2.199859e-16 3.5926 3.5926 -2.199859e-16 -48.8528 67.9993)" gradientUnits="userSpaceOnUse">
		<stop  offset="0.671" style="stop-color:#FF7AF2;stop-opacity:0"/>
		<stop  offset="0.934" style="stop-color:#FFBCE6"/>
	</radialGradient>
	<path class="st13" d="M8.5,5c0.2,0.1,0.4,0.1,0.6,0c0.7-0.4,1.7-1.2,2.1-2.2c0.7-1.4-0.9-2.6-1.9-1.8C9.1,1.1,9,1.1,9,1.2
		c-0.1,0.1-0.3,0.1-0.4,0C8.5,1.1,8.4,1,8.3,1C7.4,0.3,5.7,1.1,6.4,2.9C6.7,3.6,7.7,4.6,8.5,5z"/>
	
		<linearGradient id="SVGID_14_" gradientUnits="userSpaceOnUse" x1="54.4127" y1="6.5035" x2="58.2897" y2="1.8895" gradientTransform="matrix(0.375 0 0 -0.375 -11.25 5.125)">
		<stop  offset="0.694" style="stop-color:#FF7AF2;stop-opacity:0"/>
		<stop  offset="0.934" style="stop-color:#FFBCE6"/>
	</linearGradient>
	<path class="st14" d="M8.5,5c0.2,0.1,0.4,0.1,0.6,0c0.7-0.4,1.7-1.2,2.1-2.2c0.7-1.4-0.9-2.6-1.9-1.8C9.1,1.1,9,1.1,9,1.2
		c-0.1,0.1-0.3,0.1-0.4,0C8.5,1.1,8.4,1,8.3,1C7.4,0.3,5.7,1.1,6.4,2.9C6.7,3.6,7.7,4.6,8.5,5z"/>
	
		<linearGradient id="SVGID_15_" gradientUnits="userSpaceOnUse" x1="52.7576" y1="6.9727" x2="48.2076" y2="1.8457" gradientTransform="matrix(0.375 0 0 -0.375 -11.25 5.125)">
		<stop  offset="0.694" style="stop-color:#FF7AF2;stop-opacity:0"/>
		<stop  offset="0.934" style="stop-color:#FFBCE6"/>
	</linearGradient>
	<path class="st15" d="M8.5,5c0.2,0.1,0.4,0.1,0.6,0c0.7-0.4,1.7-1.2,2.1-2.2c0.7-1.4-0.9-2.6-1.9-1.8C9.1,1.1,9,1.1,9,1.2
		c-0.1,0.1-0.3,0.1-0.4,0C8.5,1.1,8.4,1,8.3,1C7.4,0.3,5.7,1.1,6.4,2.9C6.7,3.6,7.7,4.6,8.5,5z"/>
	
		<linearGradient id="SVGID_16_" gradientUnits="userSpaceOnUse" x1="55.869" y1="10.212" x2="54.509" y2="11.706" gradientTransform="matrix(0.375 0 0 -0.375 -11.25 5.125)">
		<stop  offset="0.41" style="stop-color:#C12372;stop-opacity:0"/>
		<stop  offset="0.834" style="stop-color:#B5286E"/>
	</linearGradient>
	<path class="st16" d="M8.7,1.3c0.2,0.2,0.5,0.1,0.7-0.1C9.6,1,9.9,0.8,10.2,0.8c-0.3-0.1-0.7,0-1,0.3L9.1,1.1C9,1.1,9,1.2,8.9,1.2
		C8.9,1.3,8.7,1.3,8.7,1.3C8.7,1.3,8.7,1.3,8.7,1.3L8.7,1.3z"/>
	<g>
		
			<radialGradient id="SVGID_17_" cx="-30.7602" cy="25.6567" r="1" gradientTransform="matrix(-0.8434 0.7323 0.4945 0.5695 -27.6121 9.36)" gradientUnits="userSpaceOnUse">
			<stop  offset="0" style="stop-color:#FF93BA"/>
			<stop  offset="1" style="stop-color:#FF73A6;stop-opacity:0"/>
		</radialGradient>
		<path class="st17" d="M10,1.5c0.3-0.3,0.7-0.4,0.9-0.2s0.1,0.6-0.2,0.9C10.4,2.5,10,2.6,9.8,2.4S9.7,1.8,10,1.5z"/>
	</g>
	<g>
		
			<radialGradient id="SVGID_18_" cx="-13.0226" cy="24.6977" r="1" gradientTransform="matrix(1.2515 1.6238 0.86 -0.6628 3.0093 38.9416)" gradientUnits="userSpaceOnUse">
			<stop  offset="0" style="stop-color:#FF93BA"/>
			<stop  offset="1" style="stop-color:#FF73A6;stop-opacity:0"/>
		</radialGradient>
		<path class="st18" d="M7.8,2.3C7.5,1.9,7.4,1.4,7.6,1.2c0.2-0.2,0.7,0,1,0.4C8.9,2,9,2.5,8.8,2.7C8.6,2.9,8.1,2.7,7.8,2.3z"/>
	</g>
	<g>
		<path class="st7" d="M8.9,1.6v3.2c0.4-0.4,1-1.9,0.8-2.8C9.5,1.6,9.1,1.5,8.9,1.6z"/>
	</g>
</g>
</svg>
