<?xml version="1.0" encoding="utf-8"?>
<!-- Generator: Adobe Illustrator 24.3.0, SVG Export Plug-In . SVG Version: 6.00 Build 0)  -->
<svg version="1.1" id="레이어_1" xmlns="http://www.w3.org/2000/svg" xmlns:xlink="http://www.w3.org/1999/xlink" x="0px"
	 y="0px" viewBox="0 0 12 12" style="enable-background:new 0 0 12 12;" xml:space="preserve">
<style type="text/css">
	.st0{fill:url(#SVGID_1_);}
	.st1{fill:url(#SVGID_2_);}
	.st2{fill:#3B3B3B;}
	.st3{fill:url(#SVGID_3_);}
	.st4{fill:url(#SVGID_4_);}
	.st5{fill:url(#SVGID_5_);}
	.st6{fill:url(#SVGID_6_);}
	.st7{fill:url(#SVGID_7_);}
	.st8{fill:url(#SVGID_8_);}
	.st9{fill:url(#SVGID_9_);}
	.st10{fill:#444444;}
	.st11{fill:url(#SVGID_10_);}
	.st12{fill:url(#SVGID_11_);}
	.st13{fill:url(#SVGID_12_);}
	.st14{fill:url(#SVGID_13_);}
	.st15{fill:none;stroke:url(#SVGID_14_);stroke-width:0.1875;stroke-linecap:round;stroke-miterlimit:1.5;}
	.st16{fill:url(#SVGID_15_);}
</style>
<g>
	<g>
		
			<radialGradient id="SVGID_1_" cx="-12.4291" cy="11.6649" r="1" gradientTransform="matrix(3.23 1.693500e-02 8.625000e-03 -1.6458 44.3296 21.9026)" gradientUnits="userSpaceOnUse">
			<stop  offset="0" style="stop-color:#2B2B2B"/>
			<stop  offset="1" style="stop-color:#010101"/>
		</radialGradient>
		<path class="st0" d="M7.2,3.1C6.3,2.8,5.1,3,4.7,3.1C4.5,3,4.3,2.8,4.3,2.6C4.3,2.2,4,1.1,6,1C7.5,0.9,8,1.8,8.1,2.2L7.2,3.1
			L7.2,3.1z"/>
		
			<radialGradient id="SVGID_2_" cx="-17.5199" cy="5.914" r="1" gradientTransform="matrix(0 -2.0828 -3.5391 0 27.0054 -33.2525)" gradientUnits="userSpaceOnUse">
			<stop  offset="0.801" style="stop-color:#040404;stop-opacity:0"/>
			<stop  offset="1" style="stop-color:#040404"/>
		</radialGradient>
		<path class="st1" d="M7.2,3.1C6.3,2.8,5.1,3,4.7,3.1C4.5,3,4.3,2.8,4.3,2.6C4.3,2.2,4,1.1,6,1C7.5,0.9,8,1.8,8.1,2.2L7.2,3.1
			L7.2,3.1z"/>
	</g>
	<g>
		<path class="st2" d="M7.3,5.4C8.4,6.5,9.9,7.9,11.2,9c0.1,0.1,0.1,0.2,0,0.3c0,0,0,0,0,0c-0.6,0.6-1.2,1.3-1.8,1.9
			c-0.1,0.1-0.2,0.1-0.3,0c-1.1-1-2.7-2.6-3.9-3.9C5.3,7.4,7.3,5.4,7.3,5.4z"/>
		
			<linearGradient id="SVGID_3_" gradientUnits="userSpaceOnUse" x1="49.1763" y1="-11.8041" x2="53.6013" y2="-6.7011" gradientTransform="matrix(0.375 0 0 -0.375 -11.25 5.125)">
			<stop  offset="0" style="stop-color:#202020"/>
			<stop  offset="1" style="stop-color:#202020;stop-opacity:0"/>
		</linearGradient>
		<path class="st3" d="M7.3,5.4C8.4,6.5,9.9,7.9,11.2,9c0.1,0.1,0.1,0.2,0,0.3c0,0,0,0,0,0c-0.6,0.6-1.2,1.3-1.8,1.9
			c-0.1,0.1-0.2,0.1-0.3,0c-1.1-1-2.7-2.6-3.9-3.9C5.3,7.4,7.3,5.4,7.3,5.4z"/>
	</g>
	
		<linearGradient id="SVGID_4_" gradientUnits="userSpaceOnUse" x1="54.8407" y1="-5.3767" x2="53.3047" y2="-7.0917" gradientTransform="matrix(0.375 0 0 -0.375 -11.25 5.125)">
		<stop  offset="6.800000e-02" style="stop-color:#616161"/>
		<stop  offset="1" style="stop-color:#4E4E4E;stop-opacity:0"/>
	</linearGradient>
	<path class="st4" d="M7.3,5.4C8.4,6.5,9.9,7.9,11.2,9c0.1,0.1,0.1,0.2,0,0.3c0,0,0,0,0,0c-0.6,0.6-1.2,1.3-1.8,1.9
		c-0.1,0.1-0.2,0.1-0.3,0c-1.1-1-2.7-2.6-3.9-3.9C5.3,7.4,7.3,5.4,7.3,5.4z"/>
	
		<linearGradient id="SVGID_5_" gradientUnits="userSpaceOnUse" x1="47.6846" y1="-4.7712" x2="48.7456" y2="-5.6972" gradientTransform="matrix(0.375 0 0 -0.375 -11.25 5.125)">
		<stop  offset="0" style="stop-color:#212121"/>
		<stop  offset="1" style="stop-color:#212121;stop-opacity:0"/>
	</linearGradient>
	<path class="st5" d="M7.3,5.4C8.4,6.5,9.9,7.9,11.2,9c0.1,0.1,0.1,0.2,0,0.3c0,0,0,0,0,0c-0.6,0.6-1.2,1.3-1.8,1.9
		c-0.1,0.1-0.2,0.1-0.3,0c-1.1-1-2.7-2.6-3.9-3.9C5.3,7.4,7.3,5.4,7.3,5.4z"/>
	
		<radialGradient id="SVGID_6_" cx="-20.0095" cy="15.5056" r="1" gradientTransform="matrix(-1.524 3.6238 3.3153 1.3943 -75.7415 53.5708)" gradientUnits="userSpaceOnUse">
		<stop  offset="0.357" style="stop-color:#2F2F2F"/>
		<stop  offset="1" style="stop-color:#060606"/>
	</radialGradient>
	<path class="st6" d="M6.9,5.1C6.5,4.7,6,4.2,5.6,3.8C5.1,3.4,4.4,2.5,4.5,2C4.6,1.1,5.6,1.1,6,1.1h0.1V0.7C5.4,0.7,4.7,0.8,4,1.3
		C2.9,2.2,2.1,4,3.8,5.8C4.1,6.2,4.5,6.6,5,7C5.6,6.4,6.3,5.7,6.9,5.1L6.9,5.1z"/>
	
		<linearGradient id="SVGID_7_" gradientUnits="userSpaceOnUse" x1="49.0685" y1="6.8992" x2="45.0495" y2="4.4152" gradientTransform="matrix(0.375 0 0 -0.375 -11.25 5.125)">
		<stop  offset="0" style="stop-color:#484848"/>
		<stop  offset="1" style="stop-color:#484848;stop-opacity:0"/>
	</linearGradient>
	<path class="st7" d="M6.9,5.1C6.5,4.7,6,4.2,5.6,3.8C5.1,3.4,4.4,2.5,4.5,2C4.6,1.1,5.6,1.1,6,1.1h0.1V0.7C5.4,0.7,4.7,0.8,4,1.3
		C2.9,2.2,2.1,4,3.8,5.8C4.1,6.2,4.5,6.6,5,7C5.6,6.4,6.3,5.7,6.9,5.1L6.9,5.1z"/>
	
		<linearGradient id="SVGID_8_" gradientUnits="userSpaceOnUse" x1="46.1058" y1="2.2617" x2="44.5488" y2="3.5037" gradientTransform="matrix(0.375 0 0 -0.375 -11.25 5.125)">
		<stop  offset="0" style="stop-color:#0C0C0C"/>
		<stop  offset="0.38" style="stop-color:#0C0C0C;stop-opacity:0.796"/>
		<stop  offset="1" style="stop-color:#0C0C0C;stop-opacity:0"/>
	</linearGradient>
	<path class="st8" d="M6.9,5.1C6.5,4.7,6,4.2,5.6,3.8C5.1,3.4,4.4,2.5,4.5,2C4.6,1.1,5.6,1.1,6,1.1h0.1V0.7C5.4,0.7,4.7,0.8,4,1.3
		C2.9,2.2,2.1,4,3.8,5.8C4.1,6.2,4.5,6.6,5,7C5.6,6.4,6.3,5.7,6.9,5.1L6.9,5.1z"/>
	
		<radialGradient id="SVGID_9_" cx="-25.1862" cy="3.616" r="1" gradientTransform="matrix(-0.8467 -1.1173 -1.6137 1.2228 -10.2107 -30.7299)" gradientUnits="userSpaceOnUse">
		<stop  offset="0" style="stop-color:#393939"/>
		<stop  offset="1" style="stop-color:#393939;stop-opacity:0"/>
	</radialGradient>
	<path class="st9" d="M6.9,5.1C6.5,4.7,6,4.2,5.6,3.8C5.1,3.4,4.4,2.5,4.5,2C4.6,1.1,5.6,1.1,6,1.1h0.1V0.7C5.4,0.7,4.7,0.8,4,1.3
		C2.9,2.2,2.1,4,3.8,5.8C4.1,6.2,4.5,6.6,5,7C5.6,6.4,6.3,5.7,6.9,5.1L6.9,5.1z"/>
	<g>
		<path class="st10" d="M6.3,3.8L0.7,8.9C0.7,9,0.7,9.1,0.7,9.2l1.7,1.9c0.1,0.1,0.2,0.1,0.3,0c0,0,0,0,0,0c1.5-1.5,4.1-3.9,5.4-5.3
			C9.9,4.1,9.1,2.2,8,1.3C7.3,0.8,6.7,0.7,6.1,0.7v0.4c0.4,0,1.4,0.2,1.6,0.8C7.8,2.5,6.8,3.3,6.3,3.8L6.3,3.8z"/>
		
			<radialGradient id="SVGID_10_" cx="-19.3742" cy="17.2611" r="1" gradientTransform="matrix(-1.2422 4.2187 2.6023 0.7662 -59.9607 71.7336)" gradientUnits="userSpaceOnUse">
			<stop  offset="0" style="stop-color:#626262"/>
			<stop  offset="1" style="stop-color:#626262;stop-opacity:0"/>
		</radialGradient>
		<path class="st11" d="M6.3,3.8L0.7,8.9C0.7,9,0.7,9.1,0.7,9.2l1.7,1.9c0.1,0.1,0.2,0.1,0.3,0c0,0,0,0,0,0c1.5-1.5,4.1-3.9,5.4-5.3
			C9.9,4.1,9.1,2.2,8,1.3C7.3,0.8,6.7,0.7,6.1,0.7v0.4c0.4,0,1.4,0.2,1.6,0.8C7.8,2.5,6.8,3.3,6.3,3.8L6.3,3.8z"/>
		
			<linearGradient id="SVGID_11_" gradientUnits="userSpaceOnUse" x1="29.5701" y1="-13.3583" x2="33.3121" y2="-9.9313" gradientTransform="matrix(0.375 0 0 -0.375 -11.25 5.125)">
			<stop  offset="0" style="stop-color:#1F1F1F"/>
			<stop  offset="1" style="stop-color:#1F1F1F;stop-opacity:0"/>
		</linearGradient>
		<path class="st12" d="M6.3,3.8L0.7,8.9C0.7,9,0.7,9.1,0.7,9.2l1.7,1.9c0.1,0.1,0.2,0.1,0.3,0c0,0,0,0,0,0c1.5-1.5,4.1-3.9,5.4-5.3
			C9.9,4.1,9.1,2.2,8,1.3C7.3,0.8,6.7,0.7,6.1,0.7v0.4c0.4,0,1.4,0.2,1.6,0.8C7.8,2.5,6.8,3.3,6.3,3.8L6.3,3.8z"/>
	</g>
	
		<radialGradient id="SVGID_12_" cx="-8.5482" cy="15.9431" r="1" gradientTransform="matrix(1.6512 0.5958 0.4841 -1.3416 12.3584 27.2846)" gradientUnits="userSpaceOnUse">
		<stop  offset="0.15" style="stop-color:#424242"/>
		<stop  offset="1" style="stop-color:#424242;stop-opacity:0"/>
	</radialGradient>
	<path class="st13" d="M6.3,3.8L0.7,8.9C0.7,9,0.7,9.1,0.7,9.2l1.7,1.9c0.1,0.1,0.2,0.1,0.3,0c0,0,0,0,0,0c1.5-1.5,4.1-3.9,5.4-5.3
		C9.9,4.1,9.1,2.2,8,1.3C7.3,0.8,6.7,0.7,6.1,0.7v0.4c0.4,0,1.4,0.2,1.6,0.8C7.8,2.5,6.8,3.3,6.3,3.8L6.3,3.8z"/>
	
		<radialGradient id="SVGID_13_" cx="-7.0727" cy="-17.6462" r="1" gradientTransform="matrix(0.2754 -0.6621 -0.5233 -0.2177 -2.958007e-02 -6.4222)" gradientUnits="userSpaceOnUse">
		<stop  offset="0.576" style="stop-color:#090909"/>
		<stop  offset="1" style="stop-color:#090909;stop-opacity:0"/>
	</radialGradient>
	<path class="st14" d="M6.3,3.8L0.7,8.9C0.7,9,0.7,9.1,0.7,9.2l1.7,1.9c0.1,0.1,0.2,0.1,0.3,0c0,0,0,0,0,0c1.5-1.5,4.1-3.9,5.4-5.3
		C9.9,4.1,9.1,2.2,8,1.3C7.3,0.8,6.7,0.7,6.1,0.7v0.4c0.4,0,1.4,0.2,1.6,0.8C7.8,2.5,6.8,3.3,6.3,3.8L6.3,3.8z"/>
	<g>
		
			<radialGradient id="SVGID_14_" cx="-12.0343" cy="14.511" r="1" gradientTransform="matrix(2.0859 1.3125 1.5824 -2.5149 6.4587 53.623)" gradientUnits="userSpaceOnUse">
			<stop  offset="0" style="stop-color:#5F5F5F"/>
			<stop  offset="1" style="stop-color:#5F5F5F;stop-opacity:0"/>
		</radialGradient>
		<path class="st15" d="M6.2,1C5.9,0.9,4.7,1,4.4,1.5C4,2.1,4.2,2.7,5.1,3.7"/>
	</g>
	<g>
		
			<linearGradient id="SVGID_15_" gradientUnits="userSpaceOnUse" x1="50.5397" y1="7.6039" x2="47.7607" y2="11.1349" gradientTransform="matrix(0.375 0 0 -0.375 -11.25 5.125)">
			<stop  offset="0" style="stop-color:#0F0F0F"/>
			<stop  offset="1" style="stop-color:#0F0F0F;stop-opacity:0"/>
		</linearGradient>
		<path class="st16" d="M7.8,1.5C7.5,1.1,7,1,6.8,0.9L6.7,1.2c0.2,0,0.6,0.2,0.9,0.4c0.4,0.4,0,1-0.2,1.2C7.8,2.4,8.1,1.8,7.8,1.5z"
			/>
	</g>
</g>
</svg>
