<?xml version="1.0" encoding="utf-8"?>
<!-- Generator: Adobe Illustrator 24.3.0, SVG Export Plug-In . SVG Version: 6.00 Build 0)  -->
<svg version="1.1" id="레이어_1" xmlns="http://www.w3.org/2000/svg" xmlns:xlink="http://www.w3.org/1999/xlink" x="0px"
	 y="0px" viewBox="0 0 12 12" style="enable-background:new 0 0 12 12;" xml:space="preserve">
<style type="text/css">
	.st0{fill:url(#SVGID_1_);}
	.st1{fill:url(#SVGID_2_);}
	.st2{fill:url(#SVGID_3_);}
	.st3{fill:url(#SVGID_4_);}
	.st4{fill:url(#SVGID_5_);}
	.st5{fill:url(#SVGID_6_);}
	.st6{fill:url(#SVGID_7_);}
	.st7{fill:url(#SVGID_8_);}
	.st8{fill:url(#SVGID_9_);}
	.st9{fill:url(#SVGID_10_);}
	.st10{fill:url(#SVGID_11_);}
	.st11{fill-rule:evenodd;clip-rule:evenodd;fill:#F23243;}
	.st12{fill:none;stroke:url(#SVGID_12_);stroke-width:0.225;stroke-linecap:round;stroke-miterlimit:1.5;}
	.st13{fill:none;stroke:#FFF5D4;stroke-width:0.375;stroke-miterlimit:3.75;}
	.st14{fill:none;stroke:#EDD1F8;stroke-width:0.375;stroke-miterlimit:3.75;}
	.st15{fill:none;stroke:#F0D6F8;stroke-width:0.375;stroke-miterlimit:3.75;}
	.st16{fill:none;stroke:#E8C7F7;stroke-width:0.375;stroke-miterlimit:3.75;}
	.st17{fill:none;stroke:#F2D2FA;stroke-width:0.1125;stroke-miterlimit:3.75;}
	.st18{fill:none;stroke:#E5C1F6;stroke-width:0.375;stroke-miterlimit:3.75;}
	.st19{fill:url(#SVGID_13_);}
	.st20{fill:url(#SVGID_14_);}
	.st21{fill:url(#SVGID_15_);}
	.st22{fill:url(#SVGID_16_);}
	.st23{fill:url(#SVGID_17_);}
	.st24{fill:url(#SVGID_18_);}
	.st25{fill:none;stroke:url(#SVGID_19_);stroke-width:0.225;stroke-linecap:round;stroke-miterlimit:1.5;}
	.st26{fill:none;stroke:url(#SVGID_20_);stroke-width:7.500000e-02;stroke-linecap:round;stroke-miterlimit:1.5;}
	.st27{fill:none;stroke:url(#SVGID_21_);stroke-width:0.1125;stroke-linecap:round;stroke-miterlimit:1.5;}
	.st28{fill:url(#SVGID_22_);}
	.st29{fill:none;stroke:url(#SVGID_23_);stroke-width:0.225;stroke-linecap:round;stroke-miterlimit:1.5;}
	.st30{fill:none;stroke:url(#SVGID_24_);stroke-width:0.225;stroke-linecap:round;stroke-miterlimit:1.5;}
	.st31{fill:none;stroke:url(#SVGID_25_);stroke-width:0.225;stroke-linecap:round;stroke-miterlimit:1.5;}
	.st32{fill:none;stroke:url(#SVGID_26_);stroke-width:0.1125;stroke-linecap:round;stroke-miterlimit:1.5;}
	.st33{fill:none;stroke:url(#SVGID_27_);stroke-width:7.500000e-02;stroke-linecap:round;stroke-miterlimit:1.5;}
	.st34{fill:none;stroke:url(#SVGID_28_);stroke-width:7.500000e-02;stroke-linecap:round;stroke-miterlimit:1.5;}
	.st35{fill:none;stroke:url(#SVGID_29_);stroke-width:7.500000e-02;stroke-linecap:round;stroke-miterlimit:1.5;}
</style>
<g>
	
		<radialGradient id="SVGID_1_" cx="-14.4094" cy="11.2381" r="1" gradientTransform="matrix(5.012 0 0 -5.012 78.2202 62.5665)" gradientUnits="userSpaceOnUse">
		<stop  offset="0.24" style="stop-color:#FD4D67"/>
		<stop  offset="0.854" style="stop-color:#FF7F9F"/>
	</radialGradient>
	<path class="st0" d="M9.8,7.2c0.9-0.3,1.5-1.2,1.4-2.1c0-0.1-0.1-0.2-0.2-0.2c0,0-0.3-0.1-0.4-0.1c0,0-0.1-0.1,0-0.1
		c0-0.1,0.3-0.3,0.3-0.3C11,4.4,11,4.3,11,4.2C10.5,3.4,9.5,3,8.6,3.3C8.3,3.4,8.1,3.5,7.9,3.7C8,3.5,8.1,3.2,8.1,2.9
		c0-1-0.7-1.8-1.6-2C6.4,0.9,6.3,1,6.2,1c0,0-0.2,0.3-0.2,0.4c0,0-0.1,0-0.1,0C5.9,1.3,5.7,1,5.7,1c0-0.1-0.1-0.1-0.2-0.1
		c-0.9,0.2-1.6,1-1.6,2c0,0.3,0.1,0.5,0.2,0.8C3.9,3.5,3.7,3.4,3.4,3.3C2.5,3,1.5,3.4,1,4.2c0,0.1,0,0.2,0,0.2c0,0,0.2,0.3,0.3,0.3
		c0,0,0,0.1,0,0.1L0.9,4.9C0.8,4.9,0.8,5,0.8,5.1C0.7,6,1.3,6.9,2.2,7.2C2.4,7.3,2.7,7.3,3,7.3C2.7,7.4,2.5,7.6,2.4,7.8
		c-0.6,0.8-0.5,1.8,0.1,2.6c0.1,0.1,0.2,0.1,0.2,0c0,0,0.3-0.1,0.4-0.2c0,0,0.1,0,0.1,0l0,0.4c0,0.1,0,0.2,0.1,0.2
		c0.9,0.4,1.9,0.1,2.5-0.7C5.9,10,5.9,9.7,6,9.5c0,0.3,0.1,0.5,0.3,0.8c0.6,0.8,1.6,1,2.5,0.7c0.1,0,0.1-0.1,0.1-0.2
		c0,0,0-0.3,0-0.4c0,0,0-0.1,0.1-0.1l0.4,0.2c0.1,0,0.2,0,0.2,0c0.6-0.7,0.7-1.8,0.1-2.6C9.5,7.6,9.3,7.4,9,7.3
		C9.3,7.3,9.6,7.3,9.8,7.2z"/>
	
		<linearGradient id="SVGID_2_" gradientUnits="userSpaceOnUse" x1="46" y1="-18.1305" x2="46" y2="-10.0675" gradientTransform="matrix(0.375 0 0 -0.375 -11.25 5.125)">
		<stop  offset="0" style="stop-color:#F96BC3"/>
		<stop  offset="1" style="stop-color:#F96BC3;stop-opacity:0"/>
	</linearGradient>
	<path class="st1" d="M9.8,7.2c0.9-0.3,1.5-1.2,1.4-2.1c0-0.1-0.1-0.2-0.2-0.2c0,0-0.3-0.1-0.4-0.1c0,0-0.1-0.1,0-0.1
		c0-0.1,0.3-0.3,0.3-0.3C11,4.4,11,4.3,11,4.2C10.5,3.4,9.5,3,8.6,3.3C8.3,3.4,8.1,3.5,7.9,3.7C8,3.5,8.1,3.2,8.1,2.9
		c0-1-0.7-1.8-1.6-2C6.4,0.9,6.3,1,6.2,1c0,0-0.2,0.3-0.2,0.4c0,0-0.1,0-0.1,0C5.9,1.3,5.7,1,5.7,1c0-0.1-0.1-0.1-0.2-0.1
		c-0.9,0.2-1.6,1-1.6,2c0,0.3,0.1,0.5,0.2,0.8C3.9,3.5,3.7,3.4,3.4,3.3C2.5,3,1.5,3.4,1,4.2c0,0.1,0,0.2,0,0.2c0,0,0.2,0.3,0.3,0.3
		c0,0,0,0.1,0,0.1L0.9,4.9C0.8,4.9,0.8,5,0.8,5.1C0.7,6,1.3,6.9,2.2,7.2C2.4,7.3,2.7,7.3,3,7.3C2.7,7.4,2.5,7.6,2.4,7.8
		c-0.6,0.8-0.5,1.8,0.1,2.6c0.1,0.1,0.2,0.1,0.2,0c0,0,0.3-0.1,0.4-0.2c0,0,0.1,0,0.1,0l0,0.4c0,0.1,0,0.2,0.1,0.2
		c0.9,0.4,1.9,0.1,2.5-0.7C5.9,10,5.9,9.7,6,9.5c0,0.3,0.1,0.5,0.3,0.8c0.6,0.8,1.6,1,2.5,0.7c0.1,0,0.1-0.1,0.1-0.2
		c0,0,0-0.3,0-0.4c0,0,0-0.1,0.1-0.1l0.4,0.2c0.1,0,0.2,0,0.2,0c0.6-0.7,0.7-1.8,0.1-2.6C9.5,7.6,9.3,7.4,9,7.3
		C9.3,7.3,9.6,7.3,9.8,7.2z"/>
	
		<radialGradient id="SVGID_3_" cx="-18.2868" cy="22.1353" r="1" gradientTransform="matrix(6.889161e-02 2.0508 1.618 -5.435167e-02 -28.5539 39.6954)" gradientUnits="userSpaceOnUse">
		<stop  offset="0" style="stop-color:#FF85A0"/>
		<stop  offset="1" style="stop-color:#FF85A0;stop-opacity:0"/>
	</radialGradient>
	<path class="st2" d="M9.8,7.2c0.9-0.3,1.5-1.2,1.4-2.1c0-0.1-0.1-0.2-0.2-0.2c0,0-0.3-0.1-0.4-0.1c0,0-0.1-0.1,0-0.1
		c0-0.1,0.3-0.3,0.3-0.3C11,4.4,11,4.3,11,4.2C10.5,3.4,9.5,3,8.6,3.3C8.3,3.4,8.1,3.5,7.9,3.7C8,3.5,8.1,3.2,8.1,2.9
		c0-1-0.7-1.8-1.6-2C6.4,0.9,6.3,1,6.2,1c0,0-0.2,0.3-0.2,0.4c0,0-0.1,0-0.1,0C5.9,1.3,5.7,1,5.7,1c0-0.1-0.1-0.1-0.2-0.1
		c-0.9,0.2-1.6,1-1.6,2c0,0.3,0.1,0.5,0.2,0.8C3.9,3.5,3.7,3.4,3.4,3.3C2.5,3,1.5,3.4,1,4.2c0,0.1,0,0.2,0,0.2c0,0,0.2,0.3,0.3,0.3
		c0,0,0,0.1,0,0.1L0.9,4.9C0.8,4.9,0.8,5,0.8,5.1C0.7,6,1.3,6.9,2.2,7.2C2.4,7.3,2.7,7.3,3,7.3C2.7,7.4,2.5,7.6,2.4,7.8
		c-0.6,0.8-0.5,1.8,0.1,2.6c0.1,0.1,0.2,0.1,0.2,0c0,0,0.3-0.1,0.4-0.2c0,0,0.1,0,0.1,0l0,0.4c0,0.1,0,0.2,0.1,0.2
		c0.9,0.4,1.9,0.1,2.5-0.7C5.9,10,5.9,9.7,6,9.5c0,0.3,0.1,0.5,0.3,0.8c0.6,0.8,1.6,1,2.5,0.7c0.1,0,0.1-0.1,0.1-0.2
		c0,0,0-0.3,0-0.4c0,0,0-0.1,0.1-0.1l0.4,0.2c0.1,0,0.2,0,0.2,0c0.6-0.7,0.7-1.8,0.1-2.6C9.5,7.6,9.3,7.4,9,7.3
		C9.3,7.3,9.6,7.3,9.8,7.2z"/>
	
		<radialGradient id="SVGID_4_" cx="-53.1087" cy="33.4199" r="1" gradientTransform="matrix(-0.4746 0.1523 5.948991e-02 0.1853 -16.4553 6.6367)" gradientUnits="userSpaceOnUse">
		<stop  offset="0" style="stop-color:#FFA2B7"/>
		<stop  offset="1" style="stop-color:#FFA2B7;stop-opacity:0"/>
	</radialGradient>
	<path class="st3" d="M9.8,7.2c0.9-0.3,1.5-1.2,1.4-2.1c0-0.1-0.1-0.2-0.2-0.2c0,0-0.3-0.1-0.4-0.1c0,0-0.1-0.1,0-0.1
		c0-0.1,0.3-0.3,0.3-0.3C11,4.4,11,4.3,11,4.2C10.5,3.4,9.5,3,8.6,3.3C8.3,3.4,8.1,3.5,7.9,3.7C8,3.5,8.1,3.2,8.1,2.9
		c0-1-0.7-1.8-1.6-2C6.4,0.9,6.3,1,6.2,1c0,0-0.2,0.3-0.2,0.4c0,0-0.1,0-0.1,0C5.9,1.3,5.7,1,5.7,1c0-0.1-0.1-0.1-0.2-0.1
		c-0.9,0.2-1.6,1-1.6,2c0,0.3,0.1,0.5,0.2,0.8C3.9,3.5,3.7,3.4,3.4,3.3C2.5,3,1.5,3.4,1,4.2c0,0.1,0,0.2,0,0.2c0,0,0.2,0.3,0.3,0.3
		c0,0,0,0.1,0,0.1L0.9,4.9C0.8,4.9,0.8,5,0.8,5.1C0.7,6,1.3,6.9,2.2,7.2C2.4,7.3,2.7,7.3,3,7.3C2.7,7.4,2.5,7.6,2.4,7.8
		c-0.6,0.8-0.5,1.8,0.1,2.6c0.1,0.1,0.2,0.1,0.2,0c0,0,0.3-0.1,0.4-0.2c0,0,0.1,0,0.1,0l0,0.4c0,0.1,0,0.2,0.1,0.2
		c0.9,0.4,1.9,0.1,2.5-0.7C5.9,10,5.9,9.7,6,9.5c0,0.3,0.1,0.5,0.3,0.8c0.6,0.8,1.6,1,2.5,0.7c0.1,0,0.1-0.1,0.1-0.2
		c0,0,0-0.3,0-0.4c0,0,0-0.1,0.1-0.1l0.4,0.2c0.1,0,0.2,0,0.2,0c0.6-0.7,0.7-1.8,0.1-2.6C9.5,7.6,9.3,7.4,9,7.3
		C9.3,7.3,9.6,7.3,9.8,7.2z"/>
	
		<radialGradient id="SVGID_5_" cx="-20.1634" cy="-3.8501" r="1" gradientTransform="matrix(-3.0352 -3.7382 -0.7697 0.625 -58.738 -67.7018)" gradientUnits="userSpaceOnUse">
		<stop  offset="0" style="stop-color:#F63D51"/>
		<stop  offset="1" style="stop-color:#FD5B78;stop-opacity:0"/>
	</radialGradient>
	<path class="st4" d="M9.8,7.2c0.9-0.3,1.5-1.2,1.4-2.1c0-0.1-0.1-0.2-0.2-0.2c0,0-0.3-0.1-0.4-0.1c0,0-0.1-0.1,0-0.1
		c0-0.1,0.3-0.3,0.3-0.3C11,4.4,11,4.3,11,4.2C10.5,3.4,9.5,3,8.6,3.3C8.3,3.4,8.1,3.5,7.9,3.7C8,3.5,8.1,3.2,8.1,2.9
		c0-1-0.7-1.8-1.6-2C6.4,0.9,6.3,1,6.2,1c0,0-0.2,0.3-0.2,0.4c0,0-0.1,0-0.1,0C5.9,1.3,5.7,1,5.7,1c0-0.1-0.1-0.1-0.2-0.1
		c-0.9,0.2-1.6,1-1.6,2c0,0.3,0.1,0.5,0.2,0.8C3.9,3.5,3.7,3.4,3.4,3.3C2.5,3,1.5,3.4,1,4.2c0,0.1,0,0.2,0,0.2c0,0,0.2,0.3,0.3,0.3
		c0,0,0,0.1,0,0.1L0.9,4.9C0.8,4.9,0.8,5,0.8,5.1C0.7,6,1.3,6.9,2.2,7.2C2.4,7.3,2.7,7.3,3,7.3C2.7,7.4,2.5,7.6,2.4,7.8
		c-0.6,0.8-0.5,1.8,0.1,2.6c0.1,0.1,0.2,0.1,0.2,0c0,0,0.3-0.1,0.4-0.2c0,0,0.1,0,0.1,0l0,0.4c0,0.1,0,0.2,0.1,0.2
		c0.9,0.4,1.9,0.1,2.5-0.7C5.9,10,5.9,9.7,6,9.5c0,0.3,0.1,0.5,0.3,0.8c0.6,0.8,1.6,1,2.5,0.7c0.1,0,0.1-0.1,0.1-0.2
		c0,0,0-0.3,0-0.4c0,0,0-0.1,0.1-0.1l0.4,0.2c0.1,0,0.2,0,0.2,0c0.6-0.7,0.7-1.8,0.1-2.6C9.5,7.6,9.3,7.4,9,7.3
		C9.3,7.3,9.6,7.3,9.8,7.2z"/>
	
		<radialGradient id="SVGID_6_" cx="-15.2008" cy="-1.371" r="1" gradientTransform="matrix(3.3047 -3.4336 -0.707 -0.6805 55.6853 -47.6477)" gradientUnits="userSpaceOnUse">
		<stop  offset="0" style="stop-color:#F63D51"/>
		<stop  offset="1" style="stop-color:#FD5B78;stop-opacity:0"/>
	</radialGradient>
	<path class="st5" d="M9.8,7.2c0.9-0.3,1.5-1.2,1.4-2.1c0-0.1-0.1-0.2-0.2-0.2c0,0-0.3-0.1-0.4-0.1c0,0-0.1-0.1,0-0.1
		c0-0.1,0.3-0.3,0.3-0.3C11,4.4,11,4.3,11,4.2C10.5,3.4,9.5,3,8.6,3.3C8.3,3.4,8.1,3.5,7.9,3.7C8,3.5,8.1,3.2,8.1,2.9
		c0-1-0.7-1.8-1.6-2C6.4,0.9,6.3,1,6.2,1c0,0-0.2,0.3-0.2,0.4c0,0-0.1,0-0.1,0C5.9,1.3,5.7,1,5.7,1c0-0.1-0.1-0.1-0.2-0.1
		c-0.9,0.2-1.6,1-1.6,2c0,0.3,0.1,0.5,0.2,0.8C3.9,3.5,3.7,3.4,3.4,3.3C2.5,3,1.5,3.4,1,4.2c0,0.1,0,0.2,0,0.2c0,0,0.2,0.3,0.3,0.3
		c0,0,0,0.1,0,0.1L0.9,4.9C0.8,4.9,0.8,5,0.8,5.1C0.7,6,1.3,6.9,2.2,7.2C2.4,7.3,2.7,7.3,3,7.3C2.7,7.4,2.5,7.6,2.4,7.8
		c-0.6,0.8-0.5,1.8,0.1,2.6c0.1,0.1,0.2,0.1,0.2,0c0,0,0.3-0.1,0.4-0.2c0,0,0.1,0,0.1,0l0,0.4c0,0.1,0,0.2,0.1,0.2
		c0.9,0.4,1.9,0.1,2.5-0.7C5.9,10,5.9,9.7,6,9.5c0,0.3,0.1,0.5,0.3,0.8c0.6,0.8,1.6,1,2.5,0.7c0.1,0,0.1-0.1,0.1-0.2
		c0,0,0-0.3,0-0.4c0,0,0-0.1,0.1-0.1l0.4,0.2c0.1,0,0.2,0,0.2,0c0.6-0.7,0.7-1.8,0.1-2.6C9.5,7.6,9.3,7.4,9,7.3
		C9.3,7.3,9.6,7.3,9.8,7.2z"/>
	
		<radialGradient id="SVGID_7_" cx="-13.7122" cy="22.0786" r="1" gradientTransform="matrix(3.3867 1.5234 0.3137 -0.6973 46.3541 42.5738)" gradientUnits="userSpaceOnUse">
		<stop  offset="0" style="stop-color:#F63D51"/>
		<stop  offset="1" style="stop-color:#FD5B78;stop-opacity:0"/>
	</radialGradient>
	<path class="st6" d="M9.8,7.2c0.9-0.3,1.5-1.2,1.4-2.1c0-0.1-0.1-0.2-0.2-0.2c0,0-0.3-0.1-0.4-0.1c0,0-0.1-0.1,0-0.1
		c0-0.1,0.3-0.3,0.3-0.3C11,4.4,11,4.3,11,4.2C10.5,3.4,9.5,3,8.6,3.3C8.3,3.4,8.1,3.5,7.9,3.7C8,3.5,8.1,3.2,8.1,2.9
		c0-1-0.7-1.8-1.6-2C6.4,0.9,6.3,1,6.2,1c0,0-0.2,0.3-0.2,0.4c0,0-0.1,0-0.1,0C5.9,1.3,5.7,1,5.7,1c0-0.1-0.1-0.1-0.2-0.1
		c-0.9,0.2-1.6,1-1.6,2c0,0.3,0.1,0.5,0.2,0.8C3.9,3.5,3.7,3.4,3.4,3.3C2.5,3,1.5,3.4,1,4.2c0,0.1,0,0.2,0,0.2c0,0,0.2,0.3,0.3,0.3
		c0,0,0,0.1,0,0.1L0.9,4.9C0.8,4.9,0.8,5,0.8,5.1C0.7,6,1.3,6.9,2.2,7.2C2.4,7.3,2.7,7.3,3,7.3C2.7,7.4,2.5,7.6,2.4,7.8
		c-0.6,0.8-0.5,1.8,0.1,2.6c0.1,0.1,0.2,0.1,0.2,0c0,0,0.3-0.1,0.4-0.2c0,0,0.1,0,0.1,0l0,0.4c0,0.1,0,0.2,0.1,0.2
		c0.9,0.4,1.9,0.1,2.5-0.7C5.9,10,5.9,9.7,6,9.5c0,0.3,0.1,0.5,0.3,0.8c0.6,0.8,1.6,1,2.5,0.7c0.1,0,0.1-0.1,0.1-0.2
		c0,0,0-0.3,0-0.4c0,0,0-0.1,0.1-0.1l0.4,0.2c0.1,0,0.2,0,0.2,0c0.6-0.7,0.7-1.8,0.1-2.6C9.5,7.6,9.3,7.4,9,7.3
		C9.3,7.3,9.6,7.3,9.8,7.2z"/>
	
		<radialGradient id="SVGID_8_" cx="-18.5406" cy="36.4461" r="1" gradientTransform="matrix(-0.1253 3.4219 0.7046 2.580000e-02 -21.8768 69.1777)" gradientUnits="userSpaceOnUse">
		<stop  offset="0" style="stop-color:#F63D51"/>
		<stop  offset="1" style="stop-color:#FD5B78;stop-opacity:0"/>
	</radialGradient>
	<path class="st7" d="M9.8,7.2c0.9-0.3,1.5-1.2,1.4-2.1c0-0.1-0.1-0.2-0.2-0.2c0,0-0.3-0.1-0.4-0.1c0,0-0.1-0.1,0-0.1
		c0-0.1,0.3-0.3,0.3-0.3C11,4.4,11,4.3,11,4.2C10.5,3.4,9.5,3,8.6,3.3C8.3,3.4,8.1,3.5,7.9,3.7C8,3.5,8.1,3.2,8.1,2.9
		c0-1-0.7-1.8-1.6-2C6.4,0.9,6.3,1,6.2,1c0,0-0.2,0.3-0.2,0.4c0,0-0.1,0-0.1,0C5.9,1.3,5.7,1,5.7,1c0-0.1-0.1-0.1-0.2-0.1
		c-0.9,0.2-1.6,1-1.6,2c0,0.3,0.1,0.5,0.2,0.8C3.9,3.5,3.7,3.4,3.4,3.3C2.5,3,1.5,3.4,1,4.2c0,0.1,0,0.2,0,0.2c0,0,0.2,0.3,0.3,0.3
		c0,0,0,0.1,0,0.1L0.9,4.9C0.8,4.9,0.8,5,0.8,5.1C0.7,6,1.3,6.9,2.2,7.2C2.4,7.3,2.7,7.3,3,7.3C2.7,7.4,2.5,7.6,2.4,7.8
		c-0.6,0.8-0.5,1.8,0.1,2.6c0.1,0.1,0.2,0.1,0.2,0c0,0,0.3-0.1,0.4-0.2c0,0,0.1,0,0.1,0l0,0.4c0,0.1,0,0.2,0.1,0.2
		c0.9,0.4,1.9,0.1,2.5-0.7C5.9,10,5.9,9.7,6,9.5c0,0.3,0.1,0.5,0.3,0.8c0.6,0.8,1.6,1,2.5,0.7c0.1,0,0.1-0.1,0.1-0.2
		c0,0,0-0.3,0-0.4c0,0,0-0.1,0.1-0.1l0.4,0.2c0.1,0,0.2,0,0.2,0c0.6-0.7,0.7-1.8,0.1-2.6C9.5,7.6,9.3,7.4,9,7.3
		C9.3,7.3,9.6,7.3,9.8,7.2z"/>
	
		<radialGradient id="SVGID_9_" cx="-22.6155" cy="17.3785" r="1" gradientTransform="matrix(-3.5391 1.2656 0.2606 0.7287 -78.9916 22.2231)" gradientUnits="userSpaceOnUse">
		<stop  offset="0" style="stop-color:#F63D51"/>
		<stop  offset="1" style="stop-color:#FD5B78;stop-opacity:0"/>
	</radialGradient>
	<path class="st8" d="M9.8,7.2c0.9-0.3,1.5-1.2,1.4-2.1c0-0.1-0.1-0.2-0.2-0.2c0,0-0.3-0.1-0.4-0.1c0,0-0.1-0.1,0-0.1
		c0-0.1,0.3-0.3,0.3-0.3C11,4.4,11,4.3,11,4.2C10.5,3.4,9.5,3,8.6,3.3C8.3,3.4,8.1,3.5,7.9,3.7C8,3.5,8.1,3.2,8.1,2.9
		c0-1-0.7-1.8-1.6-2C6.4,0.9,6.3,1,6.2,1c0,0-0.2,0.3-0.2,0.4c0,0-0.1,0-0.1,0C5.9,1.3,5.7,1,5.7,1c0-0.1-0.1-0.1-0.2-0.1
		c-0.9,0.2-1.6,1-1.6,2c0,0.3,0.1,0.5,0.2,0.8C3.9,3.5,3.7,3.4,3.4,3.3C2.5,3,1.5,3.4,1,4.2c0,0.1,0,0.2,0,0.2c0,0,0.2,0.3,0.3,0.3
		c0,0,0,0.1,0,0.1L0.9,4.9C0.8,4.9,0.8,5,0.8,5.1C0.7,6,1.3,6.9,2.2,7.2C2.4,7.3,2.7,7.3,3,7.3C2.7,7.4,2.5,7.6,2.4,7.8
		c-0.6,0.8-0.5,1.8,0.1,2.6c0.1,0.1,0.2,0.1,0.2,0c0,0,0.3-0.1,0.4-0.2c0,0,0.1,0,0.1,0l0,0.4c0,0.1,0,0.2,0.1,0.2
		c0.9,0.4,1.9,0.1,2.5-0.7C5.9,10,5.9,9.7,6,9.5c0,0.3,0.1,0.5,0.3,0.8c0.6,0.8,1.6,1,2.5,0.7c0.1,0,0.1-0.1,0.1-0.2
		c0,0,0-0.3,0-0.4c0,0,0-0.1,0.1-0.1l0.4,0.2c0.1,0,0.2,0,0.2,0c0.6-0.7,0.7-1.8,0.1-2.6C9.5,7.6,9.3,7.4,9,7.3
		C9.3,7.3,9.6,7.3,9.8,7.2z"/>
	
		<radialGradient id="SVGID_10_" cx="-11.3438" cy="2.7986" r="1" gradientTransform="matrix(0.2109 -0.8203 -2.0231 -0.5202 9.7975 -0.6945)" gradientUnits="userSpaceOnUse">
		<stop  offset="0" style="stop-color:#FF689A"/>
		<stop  offset="1" style="stop-color:#FF689A;stop-opacity:0"/>
	</radialGradient>
	<path class="st9" d="M9.8,7.2c0.9-0.3,1.5-1.2,1.4-2.1c0-0.1-0.1-0.2-0.2-0.2c0,0-0.3-0.1-0.4-0.1c0,0-0.1-0.1,0-0.1
		c0-0.1,0.3-0.3,0.3-0.3C11,4.4,11,4.3,11,4.2C10.5,3.4,9.5,3,8.6,3.3C8.3,3.4,8.1,3.5,7.9,3.7C8,3.5,8.1,3.2,8.1,2.9
		c0-1-0.7-1.8-1.6-2C6.4,0.9,6.3,1,6.2,1c0,0-0.2,0.3-0.2,0.4c0,0-0.1,0-0.1,0C5.9,1.3,5.7,1,5.7,1c0-0.1-0.1-0.1-0.2-0.1
		c-0.9,0.2-1.6,1-1.6,2c0,0.3,0.1,0.5,0.2,0.8C3.9,3.5,3.7,3.4,3.4,3.3C2.5,3,1.5,3.4,1,4.2c0,0.1,0,0.2,0,0.2c0,0,0.2,0.3,0.3,0.3
		c0,0,0,0.1,0,0.1L0.9,4.9C0.8,4.9,0.8,5,0.8,5.1C0.7,6,1.3,6.9,2.2,7.2C2.4,7.3,2.7,7.3,3,7.3C2.7,7.4,2.5,7.6,2.4,7.8
		c-0.6,0.8-0.5,1.8,0.1,2.6c0.1,0.1,0.2,0.1,0.2,0c0,0,0.3-0.1,0.4-0.2c0,0,0.1,0,0.1,0l0,0.4c0,0.1,0,0.2,0.1,0.2
		c0.9,0.4,1.9,0.1,2.5-0.7C5.9,10,5.9,9.7,6,9.5c0,0.3,0.1,0.5,0.3,0.8c0.6,0.8,1.6,1,2.5,0.7c0.1,0,0.1-0.1,0.1-0.2
		c0,0,0-0.3,0-0.4c0,0,0-0.1,0.1-0.1l0.4,0.2c0.1,0,0.2,0,0.2,0c0.6-0.7,0.7-1.8,0.1-2.6C9.5,7.6,9.3,7.4,9,7.3
		C9.3,7.3,9.6,7.3,9.8,7.2z"/>
	
		<radialGradient id="SVGID_11_" cx="-20.9134" cy="4.9761" r="1" gradientTransform="matrix(-0.3047 -1.1484 -2.8402 0.7535 17.7419 -20.3546)" gradientUnits="userSpaceOnUse">
		<stop  offset="0" style="stop-color:#FF689A"/>
		<stop  offset="1" style="stop-color:#FF689A;stop-opacity:0"/>
	</radialGradient>
	<path class="st10" d="M9.8,7.2c0.9-0.3,1.5-1.2,1.4-2.1c0-0.1-0.1-0.2-0.2-0.2c0,0-0.3-0.1-0.4-0.1c0,0-0.1-0.1,0-0.1
		c0-0.1,0.3-0.3,0.3-0.3C11,4.4,11,4.3,11,4.2C10.5,3.4,9.5,3,8.6,3.3C8.3,3.4,8.1,3.5,7.9,3.7C8,3.5,8.1,3.2,8.1,2.9
		c0-1-0.7-1.8-1.6-2C6.4,0.9,6.3,1,6.2,1c0,0-0.2,0.3-0.2,0.4c0,0-0.1,0-0.1,0C5.9,1.3,5.7,1,5.7,1c0-0.1-0.1-0.1-0.2-0.1
		c-0.9,0.2-1.6,1-1.6,2c0,0.3,0.1,0.5,0.2,0.8C3.9,3.5,3.7,3.4,3.4,3.3C2.5,3,1.5,3.4,1,4.2c0,0.1,0,0.2,0,0.2c0,0,0.2,0.3,0.3,0.3
		c0,0,0,0.1,0,0.1L0.9,4.9C0.8,4.9,0.8,5,0.8,5.1C0.7,6,1.3,6.9,2.2,7.2C2.4,7.3,2.7,7.3,3,7.3C2.7,7.4,2.5,7.6,2.4,7.8
		c-0.6,0.8-0.5,1.8,0.1,2.6c0.1,0.1,0.2,0.1,0.2,0c0,0,0.3-0.1,0.4-0.2c0,0,0.1,0,0.1,0l0,0.4c0,0.1,0,0.2,0.1,0.2
		c0.9,0.4,1.9,0.1,2.5-0.7C5.9,10,5.9,9.7,6,9.5c0,0.3,0.1,0.5,0.3,0.8c0.6,0.8,1.6,1,2.5,0.7c0.1,0,0.1-0.1,0.1-0.2
		c0,0,0-0.3,0-0.4c0,0,0-0.1,0.1-0.1l0.4,0.2c0.1,0,0.2,0,0.2,0c0.6-0.7,0.7-1.8,0.1-2.6C9.5,7.6,9.3,7.4,9,7.3
		C9.3,7.3,9.6,7.3,9.8,7.2z"/>
	<g>
		<path class="st11" d="M6.2,4.8c0.2-0.1,0.2-0.3,0.1-0.5S6,4,5.8,4.1C5.6,4.2,5.6,4.4,5.7,4.6c0,0.1,0.1,0.1,0.1,0.1v1.1L4.7,5.5
			c0-0.2-0.2-0.3-0.4-0.3C4.1,5.3,4,5.5,4,5.7C4,5.9,4.2,6,4.4,6c0.1,0,0.1,0,0.2-0.1l1.1,0.3L5,7.2c-0.2,0-0.4,0.1-0.4,0.3
			c0,0.2,0.1,0.4,0.3,0.4c0.2,0,0.4-0.1,0.4-0.3c0-0.1,0-0.1,0-0.2L6,6.5l0.7,0.9c-0.1,0.2,0,0.4,0.2,0.5C7,8,7.3,7.9,7.3,7.7
			c0.1-0.2,0-0.4-0.2-0.5c-0.1,0-0.1,0-0.2,0L6.3,6.3l1.1-0.3C7.5,6,7.8,6,7.9,5.9C8,5.7,8,5.5,7.9,5.3c-0.2-0.1-0.4-0.1-0.5,0
			c0,0-0.1,0.1-0.1,0.2L6.2,5.9C6.2,5.9,6.2,4.8,6.2,4.8z"/>
	</g>
	<g>
		
			<linearGradient id="SVGID_12_" gradientUnits="userSpaceOnUse" x1="53.0359" y1="-14.9365" x2="52.9599" y2="-12.8405" gradientTransform="matrix(0.375 0 0 -0.375 -11.25 5.125)">
			<stop  offset="0" style="stop-color:#FFA2B3"/>
			<stop  offset="1" style="stop-color:#FFA2B3;stop-opacity:0"/>
		</linearGradient>
		<path class="st12" d="M8.7,10.7l-0.1-0.6"/>
	</g>
	<path class="st13" d="M6,4.4v1.7"/>
	<path class="st14" d="M6,4.4v1.7"/>
	<path class="st15" d="M7.6,5.6L6,6.2"/>
	<path class="st16" d="M7,7.5L6,6.2"/>
	<g>
		<path class="st17" d="M7,7.5L6,6.1"/>
	</g>
	<path class="st18" d="M5,7.5l1-1.4 M4.4,5.6L6,6.2"/>
	<g>
		<path class="st17" d="M6.1,4.4v1.7"/>
	</g>
	
		<radialGradient id="SVGID_13_" cx="-45.7909" cy="40.4703" r="1" gradientTransform="matrix(-0.3105 0.3457 0.3178 0.2855 -20.9489 8.6227)" gradientUnits="userSpaceOnUse">
		<stop  offset="0" style="stop-color:#F3DCF8"/>
		<stop  offset="1" style="stop-color:#E2C3EC"/>
	</radialGradient>
	<path class="st19" d="M6,4.8c0.2,0,0.4-0.2,0.4-0.4S6.2,4.1,6,4.1c-0.2,0-0.4,0.2-0.4,0.4S5.8,4.8,6,4.8z"/>
	
		<radialGradient id="SVGID_14_" cx="-52.9801" cy="33.9289" r="1" gradientTransform="matrix(-0.3623 0.2525 0.2321 0.3331 -19.2588 7.6987)" gradientUnits="userSpaceOnUse">
		<stop  offset="0" style="stop-color:#F3DCF8"/>
		<stop  offset="1" style="stop-color:#E2C3EC"/>
	</radialGradient>
	<path class="st20" d="M7.6,6C7.8,6,8,5.8,8,5.6c0-0.2-0.2-0.4-0.4-0.4S7.3,5.4,7.3,5.6C7.3,5.8,7.4,6,7.6,6z"/>
	
		<radialGradient id="SVGID_15_" cx="-59.7631" cy="48.8603" r="1" gradientTransform="matrix(-0.2402 0.2288 0.2103 0.2209 -17.4857 10.424)" gradientUnits="userSpaceOnUse">
		<stop  offset="0" style="stop-color:#F3DCF8"/>
		<stop  offset="1" style="stop-color:#DFB6F4"/>
	</radialGradient>
	<path class="st21" d="M7,7.9c0.2,0,0.4-0.2,0.4-0.4S7.2,7.2,7,7.2S6.6,7.3,6.6,7.5S6.8,7.9,7,7.9z"/>
	
		<radialGradient id="SVGID_16_" cx="-59.7631" cy="48.8603" r="1" gradientTransform="matrix(-0.2402 0.2288 0.2103 0.2209 -19.4995 10.424)" gradientUnits="userSpaceOnUse">
		<stop  offset="0" style="stop-color:#F3DCF8"/>
		<stop  offset="1" style="stop-color:#DFB6F4"/>
	</radialGradient>
	<path class="st22" d="M5,7.9c0.2,0,0.4-0.2,0.4-0.4S5.2,7.2,5,7.2S4.6,7.3,4.6,7.5S4.8,7.9,5,7.9z"/>
	
		<radialGradient id="SVGID_17_" cx="-45.7909" cy="40.4703" r="1" gradientTransform="matrix(-0.3105 0.3457 0.3178 0.2855 -22.5798 9.8075)" gradientUnits="userSpaceOnUse">
		<stop  offset="0" style="stop-color:#F3DCF8"/>
		<stop  offset="1" style="stop-color:#DFB6F4"/>
	</radialGradient>
	<path class="st23" d="M4.4,6c0.2,0,0.4-0.2,0.4-0.4c0-0.2-0.2-0.4-0.4-0.4S4,5.4,4,5.6C4,5.8,4.2,6,4.4,6z"/>
	
		<radialGradient id="SVGID_18_" cx="-23.9768" cy="17.8905" r="1" gradientTransform="matrix(-1.0781 1.5469 1.6767 1.1686 -49.3454 21.9435)" gradientUnits="userSpaceOnUse">
		<stop  offset="0" style="stop-color:#F3DCF8"/>
		<stop  offset="1" style="stop-color:#DFB6F4"/>
	</radialGradient>
	<path class="st24" d="M6,7.1c0.5,0,0.9-0.4,0.9-0.9c0-0.5-0.4-0.9-0.9-0.9l0,0c-0.5,0-0.9,0.4-0.9,0.9C5.1,6.7,5.5,7.1,6,7.1z"/>
	<g>
		
			<linearGradient id="SVGID_19_" gradientUnits="userSpaceOnUse" x1="48.4393" y1="10.4053" x2="51.0353" y2="3.2043" gradientTransform="matrix(0.375 0 0 -0.375 -11.25 5.125)">
			<stop  offset="0" style="stop-color:#FFA2B3"/>
			<stop  offset="1" style="stop-color:#FFA2B3;stop-opacity:0"/>
		</linearGradient>
		<path class="st25" d="M6.5,1.1c0.2,0.1,0.6,0.3,0.9,0.7c0.5,0.6,0.5,1.4,0.1,2"/>
	</g>
	<g>
		
			<linearGradient id="SVGID_20_" gradientUnits="userSpaceOnUse" x1="44.828" y1="13.7851" x2="40.59" y2="3.2621" gradientTransform="matrix(0.375 0 0 -0.375 -11.25 5.125)">
			<stop  offset="0" style="stop-color:#FFA2B3"/>
			<stop  offset="1" style="stop-color:#FFA2B3;stop-opacity:0"/>
		</linearGradient>
		<path class="st26" d="M5.6,1c-0.3,0.1-1,0.4-1.3,1.1C4,2.6,4.1,3.5,4.4,3.9"/>
	</g>
	<g>
		
			<linearGradient id="SVGID_21_" gradientUnits="userSpaceOnUse" x1="40.8058" y1="4.218" x2="41.7338" y2="-1.277" gradientTransform="matrix(0.375 0 0 -0.375 -11.25 5.125)">
			<stop  offset="0" style="stop-color:#FFA2B3"/>
			<stop  offset="1" style="stop-color:#FFA2B3;stop-opacity:0"/>
		</linearGradient>
		<path class="st27" d="M3.2,3.4c0.2,0,0.6,0.2,1,0.6S5,5.2,5.2,5.4"/>
	</g>
	<g>
		
			<linearGradient id="SVGID_22_" gradientUnits="userSpaceOnUse" x1="44.7154" y1="10.7123" x2="45.5044" y2="9.2513" gradientTransform="matrix(0.375 0 0 -0.375 -11.25 5.125)">
			<stop  offset="0" style="stop-color:#FF9AA9"/>
			<stop  offset="1" style="stop-color:#FF9AA9;stop-opacity:0"/>
		</linearGradient>
		<path class="st28" d="M6,1.7L5.7,1C5.6,1.1,5.5,1.3,5.5,1.3L6,1.7L6,1.7z"/>
	</g>
	<g>
		
			<linearGradient id="SVGID_23_" gradientUnits="userSpaceOnUse" x1="56.4769" y1="2.8857" x2="55.4289" y2="5.6927" gradientTransform="matrix(0.375 0 0 -0.375 -11.25 5.125)">
			<stop  offset="0" style="stop-color:#FFA2B3"/>
			<stop  offset="1" style="stop-color:#FFA2B3;stop-opacity:0"/>
		</linearGradient>
		<path class="st29" d="M10.7,4.1c-0.3-0.4-1-0.9-1.8-0.7"/>
	</g>
	<g>
		
			<linearGradient id="SVGID_24_" gradientUnits="userSpaceOnUse" x1="60.6616" y1="-0.1742" x2="55.8856" y2="-4.2692" gradientTransform="matrix(0.375 0 0 -0.375 -11.25 5.125)">
			<stop  offset="0" style="stop-color:#FFA2B3"/>
			<stop  offset="1" style="stop-color:#FFA2B3;stop-opacity:0"/>
		</linearGradient>
		<path class="st30" d="M11,5.1c0,0.6-0.3,1.7-1.6,1.9"/>
	</g>
	<g>
		
			<linearGradient id="SVGID_25_" gradientUnits="userSpaceOnUse" x1="56.9306" y1="-12.4106" x2="48.5256" y2="-2.8766" gradientTransform="matrix(0.375 0 0 -0.375 -11.25 5.125)">
			<stop  offset="0" style="stop-color:#FFA2B3"/>
			<stop  offset="1" style="stop-color:#FFA2B3;stop-opacity:0"/>
		</linearGradient>
		<path class="st31" d="M7.2,6.7l1.6,0.7c0.3,0.1,0.9,0.6,1,1.2c0.1,0.7-0.2,1.2-0.4,1.5"/>
	</g>
	<g>
		
			<linearGradient id="SVGID_26_" gradientUnits="userSpaceOnUse" x1="42.5427" y1="-6.2741" x2="47.9397" y2="-13.1621" gradientTransform="matrix(0.375 0 0 -0.375 -11.25 5.125)">
			<stop  offset="0" style="stop-color:#FFA2B3"/>
			<stop  offset="1" style="stop-color:#FFA2B3;stop-opacity:0"/>
		</linearGradient>
		<path class="st32" d="M6,7.4C6,8,5.9,9.4,5.4,10.1"/>
	</g>
	<g>
		
			<linearGradient id="SVGID_27_" gradientUnits="userSpaceOnUse" x1="36.1439" y1="5.781" x2="35.8269" y2="2.074" gradientTransform="matrix(0.375 0 0 -0.375 -11.25 5.125)">
			<stop  offset="0" style="stop-color:#FFA2B3"/>
			<stop  offset="1" style="stop-color:#FFA2B3;stop-opacity:0"/>
		</linearGradient>
		<path class="st33" d="M1.2,4.2c0.2-0.4,1-1.1,2.1-0.8"/>
	</g>
	<g>
		
			<linearGradient id="SVGID_28_" gradientUnits="userSpaceOnUse" x1="35.9184" y1="2.1251" x2="34.2814" y2="-5.8259" gradientTransform="matrix(0.375 0 0 -0.375 -11.25 5.125)">
			<stop  offset="0" style="stop-color:#FFA2B3"/>
			<stop  offset="1" style="stop-color:#FFA2B3;stop-opacity:0"/>
		</linearGradient>
		<path class="st34" d="M0.9,5.2c0,0.7,0.5,2,1.9,1.9"/>
	</g>
	<g>
		
			<linearGradient id="SVGID_29_" gradientUnits="userSpaceOnUse" x1="35.3976" y1="-12.6337" x2="40.7446" y2="-4.3507" gradientTransform="matrix(0.375 0 0 -0.375 -11.25 5.125)">
			<stop  offset="0" style="stop-color:#FFA2B3"/>
			<stop  offset="1" style="stop-color:#FFA2B3;stop-opacity:0"/>
		</linearGradient>
		<path class="st35" d="M2.8,7.5C2.3,7.9,1.7,9,2.6,10.3"/>
	</g>
</g>
</svg>
