<?xml version="1.0" encoding="utf-8"?>
<!-- Generator: Adobe Illustrator 24.3.0, SVG Export Plug-In . SVG Version: 6.00 Build 0)  -->
<svg version="1.1" id="레이어_1" xmlns="http://www.w3.org/2000/svg" xmlns:xlink="http://www.w3.org/1999/xlink" x="0px"
	 y="0px" viewBox="0 0 100 50" style="enable-background:new 0 0 100 50;" xml:space="preserve">
<style type="text/css">
	.st0{fill:#362E2A;}
</style>
<path class="st0" d="M75.3,32.7c1.2,0.9,2.3,1.8,3.9,1.8c-0.6-1.9-2.6-3.4-5-3.5c0.1,0.2,0.2,0.4,0.5,0.5c1.1,0.6,2.2,1.1,3.1,2
	c-0.1,0-0.1,0.1-0.2,0.1c-0.8-0.6-1.6-1.1-2.6-1.6c0.1,0.3,0.2,0.4,0.3,0.5L75.3,32.7z M83.9,4.9c-0.2-0.2-0.5-0.1-0.6,0.2
	c-0.3,1,0.2,2.7,1.2,3.4c0.1-0.8,0.1-1.5,0-2.3C84.4,5.5,84.1,5.1,83.9,4.9z M84.7,7c0,0.3,0,0.5,0.2,0.7c0.8-1.2,0.9-2.6,1.5-3.8
	c0.1-0.3-0.1-0.4-0.3-0.5c-0.8-0.7-1.1-1.5-0.6-2.4c0.6-0.6,0.9-0.5,1.1,0.4c0.2,0.6,0,1.3,0.4,1.9c0.5-0.3,0.6-0.9,0.9-1.2
	c0.2-0.3,0.4-0.6,0.7-0.7c0.3-0.2,0.6-0.2,0.9,0c0.3,0.2,0.1,0.5,0,0.7c-0.3,1-0.8,1.8-1.7,2.3c-0.1,0.1-0.3,0.2-0.4,0.2
	c-1.5-0.1-1.5,1.1-1.8,2.1c-0.1,0.2-0.2,0.3-0.1,0.6c0.4-0.1,0.7-0.5,1-0.7c0.4-0.3,0.8-0.7,1.3-0.7c0.2,0,0.5-0.1,0.6,0.2
	c0.1,0.3,0.2,0.5,0,0.8c-0.8,1-1.8,1.9-3.1,2.2c-0.7,0.1-1,0.5-1.1,1.1c-0.1,0.4-0.3,0.8-0.4,1.2c0.4,0.1,0.6-0.2,0.8-0.4
	c0.6-0.6,1.3-1.1,2.1-1.4c0.5-0.2,0.6,0,0.5,0.5c-0.2,1.3-1.9,2.8-3.2,2.8c-0.5,0-0.7,0.2-0.9,0.6c-1.3,2.9-2.9,5.7-4.7,8.3
	c-0.1,0.2-0.6,0.6-0.4,0.8c0.2,0.2,0.6-0.2,0.8-0.3c1.6-0.9,3.2-1.9,4.8-2.9c0.4-0.2,0.5-0.5,0.3-1c-0.5-1.3-0.1-2.5,0.7-3.6
	c0.1-0.2,0.2-0.3,0.5-0.3c0.3,0.1,0.4,0.3,0.4,0.5c0.1,0.7-0.1,1.4-0.2,2.1c0,0.3-0.1,0.6-0.2,0.9c0.3,0.1,0.4,0,0.6-0.2
	c0.3-0.2,0.5-0.5,0.8-0.7c0.9-0.7,1.7-1.3,1-2.6c-0.4-0.7-0.1-1.5,0.1-2.3c0.1-0.4,0.3-0.7,0.7-0.7c0.5,0,0.5,0.5,0.6,0.8
	c0.1,0.4,0,0.9,0,1.4c-0.1,0.4-0.1,0.8-0.1,1.5c1-0.8,1.7-1.5,2.2-2.4c0.1-0.2,0.1-0.4,0-0.6c-0.5-1-0.3-2-0.1-3.1
	c0.1-0.3,0.2-0.6,0.6-0.6c0.4,0,0.5,0.4,0.5,0.7c0,0.6,0,1.2-0.1,1.8c0,0.1-0.1,0.3,0.1,0.4c0.2,0.1,0.2-0.1,0.3-0.2
	c0.3-0.4,0.6-0.7,0.9-1.1c0.6-0.6,0.8-1.2,0.2-2c-0.6-0.8-0.6-1.9-0.2-2.9c0.1-0.2,0.2-0.5,0.4-0.4c0.2,0,0.4,0.2,0.4,0.4
	c0.3,0.7,0.4,1.4,0.4,2.2c0,0.3,0,0.6-0.1,1c0.4-0.5,0.8-1,1.2-1.4c0.3-0.4,0.5-0.8,0.1-1.3c-0.6-0.7-0.3-2.5,0.4-3.3
	c0.4-0.5,0.7-0.2,0.8,0.2c0.2,0.8,0.5,1.6,0,2.5c-0.2,0.4-0.4,0.9-0.4,1.5c0.9-0.6,1.7-0.9,2.6-1.2c0.3-0.1,0.6-0.2,0.8,0.1
	c0.2,0.3,0,0.6-0.1,0.8c-1,1.5-2.2,2-4,1.6c-0.2,0-0.4,0-0.5,0.1c-0.1,0.2-0.3,0.3-0.4,0.4c-0.6,1.1-1.5,2.1-2.4,3.2
	c0.8-0.2,1.4-0.3,2-0.4c0.5-0.1,0.9-0.1,1.1,0.5c0.2,0.6-0.3,0.7-0.7,0.9c-0.9,0.5-1.9,0.6-2.8,0c-0.3-0.2-0.5-0.2-0.7,0.1
	c-0.4,0.6-0.9,1.1-1.4,1.8c0.6-0.1,1.1-0.1,1.6,0c0.4,0.1,0.9,0.2,0.9,0.7c0,0.5-0.4,0.8-0.8,0.9c-0.9,0.3-1.8,0.3-2.6-0.2
	c-0.3-0.2-0.5-0.2-0.7,0.1c-0.7,0.6-1.5,1.3-2.3,2.1c0.3,0,0.5,0,0.7,0.1c0.3,0,0.6,0.1,1,0.1c0.7,0.2,1.6,0.9,1.4,1.2
	c-0.3,0.5-0.9,0.5-1.5,0.6c-0.9,0.1-1.6-0.3-2.3-0.8c-0.4-0.3-0.7-0.3-1.1,0c-1.5,1.2-3.2,1.9-4.7,2.9c-1.5,0.9-2.8,2-3.8,3.5
	c-1,1.4-2.1,2.6-3.2,3.9c-0.1,0.1-0.4,0.3-0.2,0.5c0.2,0.3,0.4,0,0.6,0c2-1,4.3-1.6,6.5-2.1c1-0.2,2.1-0.2,3.1-0.1
	c0.2,0,0.3,0,0.4,0.2c0.1,0.2-0.1,0.3-0.2,0.4c-1.1,1-2.3,1.5-3.7,1.7c-0.7,0.1-1.3-0.2-1.8-0.5c-1.2-0.6-2.2-0.2-3.2,0.4
	c0.4,0.4,0.9,0.4,1.4,0.6c2.2,0.6,4,1.7,4.5,4.2c-1.8-0.2-3.4-0.9-4.6-2.2L75,32.7c-0.5-0.3-0.7-0.8-1-1.2c-0.5-0.8-0.9-1-1.8-0.6
	c-1.3,0.5-2.3,1.4-3.3,2.4c-3.2,2.9-7.1,4.7-11,6.4c-1.4,0.6-2.7,1.3-4.1,1.9c4,1.5,7.7,3.3,10.7,6.3c-0.1,0.1-0.1,0.2-0.2,0.3
	c-0.5-0.5-1.1-1-1.6-1.5c-2.8-2.2-5.9-3.9-9.4-4.9c-0.2-0.1-0.4-0.1-0.6,0c-3.2,1.3-6.6,2.5-9.6,4.3c-1.4,0.8-2.5,1.9-3.6,3.1
	c-0.3-0.5,0-0.7,0.3-0.9c1.1-1.1,2.3-2.1,3.7-2.8c2.4-1.4,5-2.4,7.6-3.4c0.4-0.1,0.7-0.3,1.1-0.5c-1-0.6-2.1-0.7-3.1-1.1
	c-3.7-1.6-7.5-3-11-5c-2.6-1.5-5.2-3.1-7.7-4.8c-0.2-0.1-0.3-0.2-0.5-0.2c-1.7,0.3-3.4-0.1-5.1-0.4c-0.6-0.1-1,0-1.2,0.6
	c-0.1,0.3-0.3,0.6-0.5,0.8c-0.2,0.3-0.3,0.6,0,1c0.2,0.2,0.1,0.6,0.1,0.9c-0.1,0.7-0.4,1.1-1.1,1.2c-0.4,0.1-0.8,0-0.9-0.4
	c-0.2-0.6-0.1-1.3,0.5-1.6c1-0.5,1.4-1.3,1.9-2.3c-1.6-0.1-3,0.6-4.3,1.3c-0.3,0.1-0.2,0.4-0.3,0.6c-0.2,0.5-0.4,1-1,1
	c-0.5,0-1.1-0.1-1.2-0.7c-0.1-0.6,0.6-1.5,1.3-1.3c1.5,0.4,2.5-0.9,4-1c-0.8-0.4-1.5-0.6-2-1.1c-0.2-0.2-0.3-0.1-0.5,0
	c-0.1,0.1-0.2,0.2-0.3,0.2c-0.5,0.2-0.9,0.3-1.4,0c-0.2-0.2-0.4-0.4-0.2-0.8c0.2-0.5,0.4-1,1.1-1.1c0.5-0.1,0.7,0.1,0.9,0.4
	c0.6,1.2,1.6,1.8,2.9,1.9c2.2,0.3,4.4,0.6,6.7,0.6c0.1,0,0.3,0,0.6-0.1c-0.7-0.6-1.3-1-1.8-1.5c-2.3-2.3-5-4-7.9-5.6
	c-2.3-1.2-4.3-2.9-6.4-4.4c-0.4-0.3-0.5-0.5-0.8,0.2c-0.5,1.1-2.7,1.9-3.9,1.4c0.8-1.5,2.3-1.8,3.9-2.2c-0.6-0.4-1.1-0.9-1.7-1.1
	c-0.4-0.1-0.8,0.3-1.1,0.5c-0.7,0.5-1.4,0.8-2.2,0.8c-0.5,0.1-0.8-0.1-1-0.5c-0.3-0.3-0.2-0.3,0.3-0.5C7,17.9,7.3,18,7.7,18
	c1-0.1,1.9-0.6,2.8-1.3C9.1,16.5,8,16.8,7,17.4c0.4-0.7,1.1-0.8,1.8-1c0.3-0.1,0.6,0,1.1-0.3c-1.1-0.6-2-1.1-3-1.6
	c-0.3-0.1-0.4,0.1-0.6,0.3c-0.4,0.5-0.9,0.9-1.4,1.2c-0.4,0.3-0.8,0.4-1.3,0.3C3.2,16.2,3,16,3,15.7c0-0.3,0.2-0.6,0.6-0.6
	c0,0.3-0.5,0.4-0.2,0.7C3.6,16.1,4,16,4.3,15.9c0.7-0.3,1.3-0.8,1.8-1.5c-1,0.1-1.7,0.6-2.5,0.8c0.2-0.6,0.8-0.5,1.3-0.8
	c0.3-0.1,0.6-0.2,1-0.3c-0.6-0.4-1.3-0.5-1.9-0.8c-0.3-0.1-0.4,0.2-0.6,0.3c-0.8,0.7-1.7,0.9-2.8,0.6C0.3,14.1,0,14.1,0,13.8
	c0-0.2,0.2-0.3,0.4-0.5c0.5-0.4,1.1-0.7,1.8-0.6c0.7,0.1,0.7-0.2,0.4-0.7C2.3,11.3,2,10.7,1.8,10C1.7,9.8,1.6,9.4,2,9.4
	c0.2,0,0.6,0,0.6,0.4C2.5,9.9,2,9.6,2.1,10C2.4,11,2.7,12,3.5,12.7c0.1-0.3,0.1-0.5,0.1-0.7c-0.1-0.8-0.7-1.5-0.9-2.3
	c0.5-0.1,0.5,0.4,0.6,0.6c0.2,0.4,0.4,0.8,0.4,1.2c0,1.5,1,1.7,2.2,2C5.6,12.7,5.1,12,5,11.2c-0.1-0.4-0.3-0.9,0.1-1.1
	c0.5-0.2,0.7,0.3,1,0.6c0.6,0.9,1.1,1.9,1,3.1c0,0.4,0.1,0.5,0.4,0.7c0.6,0.3,1.3,0.7,1.9,1c0.1,0,0.2,0,0.3,0c0-0.1,0-0.1-0.1-0.2
	c-0.5-0.9-0.8-1.7-0.8-2.7c0-0.3-0.1-0.6,0.3-0.7c0.4-0.1,0.7,0.1,0.9,0.4c0.5,1,0.9,2,0.9,3.1c0,0.7,0.2,1.1,0.8,1.5
	c2.8,1.7,5.4,3.8,8.2,5.6c1.1,0.7,2.2,1.2,3.5,2c-0.2-0.7-0.6-1.1-1-1.4c-2.2-2.2-4.2-4.6-5.9-7.2c-0.3-0.5-0.6-0.6-1.1-0.3
	c-1.1,0.6-2.6,0.2-3-0.7c-0.3-0.8-0.1-1,0.7-1c0.8,0,1.4,0.6,2.3,0.5c-0.5-0.7-0.9-1.4-1.3-2.1c-0.2-0.3-0.4-0.3-0.7-0.2
	c-1.1,0.1-2-0.2-2.7-1.1c-0.2-0.2-0.4-0.4-0.2-0.7c0.2-0.3,0.5-0.2,0.7-0.2c0.6,0,1.2,0.2,1.7,0.5c0.1,0.1,0.2,0.1,0.3,0
	c0,0,0-0.1-0.1-0.2c-0.1-0.2-0.3-0.4-0.4-0.6c-0.4-0.8-0.8-1.2-1.8-1.3C9.9,8.6,9,8,8.7,6.9C8.8,6,8.9,5.9,9.7,6.4
	c0,0-0.1,0.1-0.1,0.1C9.4,6.4,9.2,6.3,9,6.5C8.9,6.8,9,7,9.1,7.2c0.6,0.9,1.5,1.2,2.7,1.3c-0.4-0.5-0.7-0.8-0.7-1.3
	c0-0.5-0.5-1.1-0.8-1.6c-0.1-0.2-0.2-0.4-0.4-0.3C9.2,5.4,8.6,5.1,7.9,5.1C7.2,4.9,6.6,4.5,6.6,3.6c0-0.5,0.2-0.7,0.7-0.6
	c0.6,0.1,1.1,0.3,1.5,0.6C8.9,3.7,9,3.9,9.3,3.8C9.2,3.3,9.1,2.8,9,2.3C8.9,1.9,9.1,1.6,9.5,1.4C10,1.3,10.2,1.7,10.4,2
	c0.3,0.6,0.1,1.2,0,1.8c-0.1,1.1,0.1,1.7,1,2.8c0-0.9,0-1.7,0.3-2.5c0.1-0.2,0.1-0.4,0.3-0.5c0.3,0,0.4,0.2,0.5,0.4
	c0.4,1.1,0.8,2.4,0.2,3.4c-0.6,1.2,0,1.8,0.7,2.8c0-0.9,0.1-1.6,0.3-2.3c0.1-0.3,0.1-0.7,0.6-0.7c0.4,0,0.6,0.4,0.7,0.7
	c0.2,1.1,0.2,2.2-0.2,3.3c-0.2,0.5,0.4,2.2,0.9,2.4c0.3,0.2,0.3-0.1,0.3-0.3c0-0.7,0-1.4,0-2.2c0-0.3,0-0.8,0.4-0.8
	c0.4,0,0.4,0.4,0.5,0.7c0.4,1.3,0.6,2.6-0.1,3.9c-0.2,0.4,0.2,0.7,0.4,1c0.2,0.3,0.4,0.5,0.7,0.9c0-0.5,0-0.8,0-1.2
	c0-0.4,0-0.9,0.2-1.3c0.1-0.3,0.2-0.7,0.5-0.7c0.4,0,0.5,0.4,0.6,0.7c0.6,1.1,0.4,2.2-0.1,3.2c-0.2,0.3-0.2,0.6,0.1,0.9
	c3,3.6,6.1,7.1,9.8,10.1c0.4,0.3,0.8,0.5,1.3,0.9c-0.1-1.6-0.5-2.9-1-4.2c-0.9-2.3-1.8-4.7-2.6-7c-0.2-0.7-0.7-1.1-1.3-1.3
	c-2-0.6-3.5-1.8-4.9-3.3c-0.6-0.7-0.9-1.4-1.1-2.3c-0.2-0.6,0.3-1,0.9-0.8c0.5,0.2,0.9,0.5,1.3,0.8c1.4,1.3,2.8,3.1,4,4.6
	c0.1,0.2,0.2,0.6,0.5,0.4c0.2-0.1-0.1-0.4-0.1-0.5C24.9,14,24,11.4,23.9,9c0-0.8,0.1-1.5,0.4-2.2c0.3-0.5,0.6-0.4,0.8,0
	c0.9,1.8,1.4,3.7-0.1,5.5c-0.2,0.2-0.2,0.4-0.2,0.7c0.8,2.3,1.7,4.6,2.5,7c0.3-1,0.4-2,0.4-2.9c-0.1-2,0.3-3.8,1.2-5.6
	c0.1-0.2,0.2-0.3,0.3-0.4c0.4-0.5,0.7-0.3,0.8,0.2c0.3,0.9,0.3,1.9,0.1,2.8c-0.4,1.7-0.9,3.5-2,5c-0.7,0.9-0.4,2.1-0.1,3.1
	c0.2,1,0.6,1.9,1.1,3c0.2-1.1,0.4-2,0.6-3c0.1-0.7,0.4-1.4,0.7-2.1c0.2-0.4,0.4-0.7,0.7-0.9c0.3-0.2,0.7-0.3,1-0.1
	c0.3,0.1,0.2,0.5,0.2,0.8c-0.1,1.5-0.3,3-1.1,4.4c-0.3,0.6-0.9,0.9-1.4,1.3c-0.3,0.2-0.5,0.4-0.3,0.8c0.4,0.9,0.5,1.9,0.6,2.8
	c0.1,0.9,0.6,1.5,1.4,2.1c2.8,1.9,5.7,3.6,8.6,5.1c3.4,1.7,7,3.1,10.6,4.5c2.1,0.8,3.6,0,5.3-0.8c2.1-1,4.2-2,6.3-3
	c2.6-1.3,5-3,7.1-5c1.1-1,2.2-2,3.1-3.2c0.8-1.1,1-2.3,1.2-3.6c0.3-2,0.6-4,0.5-6.1c0-0.5-0.2-0.8-0.5-1.1c-0.4-0.5-0.7-0.2-1.1-0.1
	c-0.9,0.3-1.5,0-1.7-0.9c-0.1-0.6,0.1-1,0.7-1.2c0.6-0.2,1,0,1.2,0.6c0.1,0.3,0.2,0.6,0.5,0.7c0.3,0.1,0.3,0.7,0.6,0.5
	c0.3-0.2,0.2-0.6,0.2-0.9c0-0.7-0.4-1.2-0.6-1.9c-0.2-0.6-0.3-1.2,0.3-1.6c0.2-0.1,0.4-0.3,0.7-0.1c0.5,0.5,0.6,1.2,0.3,1.6
	c-0.7,0.9-0.4,1.9-0.4,3c0.5-0.4,0.8-0.8,0.9-1.4c0.1-0.5,0.2-1.1,0.9-1.1c0.5,0,0.8,0.3,0.8,0.8c0.1,0.8-0.4,1.1-1,1.2
	c-0.9,0.2-1.6,0.9-1.6,1.9c0.1,2.4-0.2,4.8-0.7,7.1c0,0-0.1,0.2-0.1,0.3c-0.1,0.3-0.2,0.6,0,0.7c0.3,0.2,0.6-0.4,0.7-0.6
	c1.8-2.5,3.8-4.8,5.3-7.5c1-1.9,2.1-3.7,3-5.6c0.1-0.3,0.2-0.6-0.2-0.8c-1.2-0.7-1.3-1.9-1.3-3.2c0-0.1,0-0.2,0.1-0.2
	c0.1-0.4-0.1-1,0.4-1c0.5,0,0.7,0.6,0.8,1c0.3,0.8,0.5,1.6,0.7,2.5c0.5-0.8,0.6-1.7,1-2.5c0.1-0.3-0.2-0.5-0.4-0.6
	c-1-1.1-1.5-3.5-0.8-4.1c0.2-0.2,0.5-0.1,0.8,0.2C84,4.8,84.6,5.3,84.7,7z M80.8,29.4c0.6-0.1,1.1-0.4,1.4-1
	c-1.9-0.1-3.7,0.1-5.6,0.9c0.5,0.1,0.8,0.2,1.1,0.2c0.9-0.1,1.9-0.2,2.8-0.5C81,28.8,80.9,29,80.8,29.4c-0.9-0.1-1.8,0.2-2.9,0.4
	C79,30.2,79.9,29.8,80.8,29.4z M25.5,16.9c-0.4-0.6-0.8-1.1-1.1-1.6c-1.1-1.5-2.3-2.9-3.8-4c-0.2-0.2-0.5-0.4-0.8-0.1
	c-0.3,0.2-0.1,0.5-0.1,0.8c0.5,1.8,1.9,2.9,3.4,3.9C23.7,16.3,24.4,16.8,25.5,16.9z M28.2,18.4c1.3-2.2,2.2-4.5,1.6-7.3
	c-1,1.1-1.8,3.4-1.6,4.8c0.4-0.8,0.3-1.7,0.7-2.7C28.9,15.1,28.2,16.7,28.2,18.4z M30.1,24.9c0.7-0.4,1.1-0.9,1.3-1.5
	c0.4-1.1,0.6-2.3,0.7-3.4c0-0.2,0.2-0.6-0.2-0.7c-0.3-0.1-0.6,0.1-0.8,0.4c-0.7,0.8-1.5,3.8-1.3,5c0.8-1.4,1.2-2.8,1.7-4.2
	C31.5,22,30.7,23.3,30.1,24.9z M25.2,11.5C26,9.9,25.7,8.1,24.7,7c-0.6,1.3-0.5,3.9,0.2,5.1c0.1-1.5-0.3-2.8-0.3-4.1
	C25.1,9.1,24.9,10.3,25.2,11.5z M95.7,7.5c1.6,0.7,3.3-0.1,3.9-1.5c0.1-0.2,0.1-0.5-0.2-0.4C98,6.1,96.8,6.6,95.7,7.5z M84.9,9.1
	c1.5-0.4,2.6-1.1,3.4-2.2c0.1-0.2,0.3-0.4,0.1-0.6c-0.2-0.2-0.4-0.1-0.6,0C86.7,7,85.6,7.7,84.9,9.1z M14.1,11.7
	c0.6-1.2,0.6-2.3,0.5-3.5c0-0.2-0.1-0.5-0.4-0.6C14,7.6,14,7.9,13.9,8.1C13.4,9.3,13.5,10.5,14.1,11.7z M85.3,19.1
	c1.1,0.9,2.3,1.2,3.6,0.6C88,18.6,86.8,18.4,85.3,19.1z M10.5,16.1c0.1-1.3-0.3-2.3-0.8-3.4c-0.1-0.2-0.3-0.5-0.5-0.4
	C8.9,12.3,9,12.6,9,12.8C9,14.1,9.6,15.1,10.5,16.1z M89,15.7c0.6,0.6,2,0.7,2.7,0.3c0.2-0.1,0.4-0.3,0.4-0.5c0-0.3-0.3-0.3-0.5-0.3
	C90.7,14.8,89.8,15.1,89,15.7z M18.5,18c0.9-1.4,0.8-2.3-0.1-3.7C17.7,15.5,18.1,16.7,18.5,18z M86.7,4.4c1.2,0,2.1-0.7,2.5-2.1
	c0.1-0.2,0.4-0.6,0.1-0.7C89,1.4,88.7,1.7,88.5,2C87.8,2.7,87.4,3.6,86.7,4.4z M9.6,4.9C9.1,4,8.5,3.7,7.7,3.4
	C7.5,3.3,7.1,3,6.9,3.3c-0.2,0.3,0,0.7,0.2,1c0.1,0.2,0.3,0.3,0.5,0.3C8.3,4.8,8.9,4.9,9.6,4.9z M86.9,10.1c-1.3,0.5-2.2,1.5-3,2.5
	C85.3,12.7,86.8,11.4,86.9,10.1z M83.3,12.6c-0.4-1.4-0.4-2.7-1.3-3.8C81.5,10.6,81.9,12,83.3,12.6z M15.7,15.1
	c-0.9-0.6-1.8-0.8-2.7-0.9c-0.4-0.1-0.4,0.3-0.3,0.5c0.1,0.4,0.4,0.6,0.8,0.7C14.2,15.6,14.9,15.6,15.7,15.1z M12.1,4.1
	c-0.6,1.3-0.5,2.6,0.1,4C12.8,6.7,12.7,5.4,12.1,4.1z M85.2,14.9c-0.9,1.1-1.1,2.1-1,3.2c0,0.2,0.1,0.4,0.3,0.5
	c0.1,0,0.2-0.1,0.3-0.2C85.1,17.3,85.4,16.3,85.2,14.9z M88.3,15.5c0.4-1.1,0.4-2.1,0.3-3.2c0-0.1-0.1-0.3-0.3-0.3
	c-0.1,0-0.2,0.1-0.3,0.2C87.5,13,87.6,14.7,88.3,15.5z M92.1,12.4c1,0.7,2,0.5,2.9,0c0.2-0.1,0.3-0.2,0.3-0.4c0-0.3-0.3-0.3-0.5-0.3
	C93.9,11.7,93,11.9,92.1,12.4z M5.3,10.5c-0.1,1.1,0.7,2.9,1.4,3.4C6.9,12.6,6.3,11.2,5.3,10.5z M96.2,5.8c0.5-0.9,0.8-1.8,0.5-2.8
	c0-0.1-0.1-0.3-0.2-0.3c-0.1-0.1-0.2,0.1-0.3,0.2C95.6,3.5,95.6,5,96.2,5.8z M9.5,20c1,0.2,2.5-0.6,3-1.5C11.3,18.4,10,19.1,9.5,20z
	 M21.5,33.5c0,0.3,0,0.6,0.5,0.7c0.5,0,1-0.5,0.9-1.2c0-0.3,0.1-0.7-0.4-0.7C22,32.2,21.5,32.9,21.5,33.5z M16.3,11.1
	c-0.4,1.2-0.3,2.5,0.1,3.7C17,13.5,16.8,12.3,16.3,11.1z M94.1,8.3c0.1-1.1,0.2-2.2-0.4-3.2C93.1,6.1,93.3,7.5,94.1,8.3z M13.5,11.7
	c-0.6-0.8-1.4-1.1-2.3-1.3c-0.1,0-0.3,0-0.3,0.1c-0.1,0.2,0.1,0.2,0.1,0.3C11.7,11.6,12.5,12,13.5,11.7z M72.3,17.8
	c0.2-0.2,0.8,0,0.6-0.4c-0.2-0.4,0-1.3-0.8-1.3c-0.4,0-0.7,0.3-0.7,0.8C71.4,17.6,71.7,17.7,72.3,17.8z M91.3,12
	c0.4-0.9,0.5-1.8,0.5-2.7c0-0.2,0-0.4-0.3-0.4c-0.2,0-0.2,0.2-0.3,0.3C91,10.1,90.9,11.1,91.3,12z M2.3,13c-0.6,0-1.1,0.1-1.6,0.4
	c-0.2,0.1-0.4,0.3,0,0.4c0.5,0.3,1.9,0,2.3-0.4c0.1-0.1,0.1-0.2,0.1-0.3C3.1,13,2.9,13,2.8,13C2.6,13,2.5,13,2.3,13z M18.8,28.9
	c0.3-0.2,0.8-0.1,0.8-0.6c0-0.4-0.3-0.9-0.8-0.8c-0.6,0-0.7,0.5-0.8,1C18,28.8,18.4,28.9,18.8,28.9z M10.1,4.1c0-0.7,0.2-1.3,0-1.8
	C10,2.1,10,1.7,9.6,1.8C9.3,1.9,9.2,2.2,9.3,2.5C9.4,3.1,9.6,3.6,10.1,4.1z M18.2,31.3c-0.5,0-0.9,0.3-0.9,0.8
	c0,0.2,0.5,0.6,0.8,0.6c0.6,0,0.6-0.5,0.7-0.9C18.8,31.4,18.6,31.2,18.2,31.3z M86.6,3.4c-0.2-0.9,0-1.7-0.6-2.4
	C85.3,1.9,85.4,2.7,86.6,3.4z M74.9,14.3c-0.1-0.3,0-0.7-0.5-0.7c-0.4,0-0.6,0.4-0.6,0.7c0,0.4,0.1,0.9,0.5,0.9
	C74.7,15.2,74.8,14.7,74.9,14.3z M75.9,16.5c0.1,0.2-0.1,0.5,0.3,0.5c0.4,0,0.8-0.2,0.8-0.7c0-0.3-0.2-0.6-0.5-0.5
	C76,15.8,75.9,16.1,75.9,16.5z M15.9,14.1c0-0.1-0.1-0.1-0.1-0.2c0,0-0.1,0.1-0.1,0.1c0,0.1,0.1,0.1,0.1,0.2
	C15.8,14.2,15.8,14.2,15.9,14.1z"/>
</svg>
