<?xml version="1.0" encoding="utf-8"?>
<!-- Generator: Adobe Illustrator 27.6.1, SVG Export Plug-In . SVG Version: 6.00 Build 0)  -->
<svg version="1.1" id="레이어_1" xmlns="http://www.w3.org/2000/svg" xmlns:xlink="http://www.w3.org/1999/xlink" x="0px"
	 y="0px" viewBox="0 0 256 256" style="enable-background:new 0 0 256 256;" xml:space="preserve">
<path d="M205.4,152.9c-1.9-1.1-4.1-2.2-6.1-2.8l0,0c-1.1-0.3-2.2-0.6-3.3-0.8c-3.9-1.1-10.2-2.5-12.7-3c-3.9-0.8-9.1-1.7-12.4-2.8
	c-3.3-0.8-8.6-2.2-16.6-6.4c-4.4-2.2-11.3-6.4-16.3-9.1c5.2-3,11.9-6.9,16.3-9.1c7.7-4.1,13.3-5.5,16.6-6.4
	c3.3-0.8,8.6-1.9,12.4-2.8c2.5-0.6,8.8-1.9,12.7-3c1.1-0.3,2.2-0.6,3.3-0.8l0,0c2.2-0.6,4.1-1.7,6.1-2.8c11-6.4,16.3-17.9,11.6-26
	c-4.7-8-17.4-9.4-28.4-3c-1.9,1.1-3.9,2.5-5.5,3.9l0,0c-0.8,0.8-1.7,1.7-2.5,2.5c-2.8,2.8-7.2,7.5-9.1,9.4c-2.5,2.8-6.1,6.9-8.6,9.4
	c-2.5,2.5-6.4,6.4-13.8,11c-4.1,2.8-11,6.6-16.3,9.4c0-5.8,0-13.8,0-18.8c0.3-8.8,1.9-14.1,2.8-17.4c0.8-3.3,2.8-8.3,3.9-11.9
	c0.8-2.5,2.5-8.6,3.6-12.4c0.3-1.1,0.6-2.2,0.8-3.3l0,0c0.6-2.2,0.8-4.4,0.8-6.6c0-12.7-7.5-23.2-16.8-23.2S111,36.3,111,49.3
	c0,2.2,0.3,4.7,0.8,6.6l0,0c0.3,1.1,0.6,2.2,0.8,3.3c1.1,3.9,2.8,9.9,3.6,12.4c1.1,3.6,3,8.6,3.9,11.9c0.8,3.3,2.5,8.6,2.8,17.4
	c0.3,5,0.3,12.7,0,18.8c-5.2-3-12.1-6.9-16.3-9.4c-7.5-4.7-11.3-8.6-13.8-11c-2.5-2.5-6.1-6.4-8.6-9.4c-1.7-1.9-6.1-6.6-9.1-9.4
	c-0.8-0.8-1.7-1.7-2.5-2.5l0,0c-1.7-1.4-3.3-2.8-5.5-3.9c-11-6.4-24-5-28.4,3c-4.7,8,0.6,19.6,11.6,26c1.9,1.1,4.1,2.2,6.1,2.8l0,0
	c1.1,0.3,2.2,0.6,3.3,0.8c3.9,1.1,10.2,2.5,12.7,3c3.9,0.8,9.1,1.7,12.4,2.8c3.3,0.8,8.6,2.2,16.6,6.4c4.4,2.2,11.3,6.4,16.3,9.1
	c-5.2,3-11.9,6.9-16.3,9.1c-7.7,4.1-13.3,5.5-16.6,6.4c-3.3,0.8-8.6,1.9-12.4,2.8c-2.5,0.6-8.8,1.9-12.7,3c-1.1,0.3-2.2,0.6-3.3,0.8
	l0,0c-2.2,0.6-4.1,1.7-6.1,2.8c-11,6.4-16.3,17.9-11.6,26c4.7,8,17.4,9.4,28.4,3c1.9-1.1,3.9-2.5,5.5-3.9l0,0
	c0.8-0.8,1.7-1.7,2.5-2.5c2.8-2.8,7.2-7.5,9.1-9.4c2.5-2.8,6.1-6.9,8.6-9.4c2.5-2.5,6.4-6.4,13.8-11c4.1-2.8,11-6.6,16.3-9.4
	c0,5.8,0,13.8,0,18.8c-0.3,8.8-1.9,14.1-2.8,17.4c-0.8,3.3-2.8,8.3-3.9,11.9c-0.8,2.5-2.5,8.6-3.6,12.4c-0.3,1.1-0.6,2.2-0.8,3.3
	l0,0c-0.6,2.2-0.8,4.4-0.8,6.6c0,12.7,7.5,23.2,16.8,23.2s16.8-10.2,16.8-23.2c0-2.2-0.3-4.7-0.8-6.6l0,0c-0.3-1.1-0.6-2.2-0.8-3.3
	c-1.1-3.9-2.8-9.9-3.6-12.4c-1.1-3.6-3-8.6-3.9-11.9c-0.8-3.3-2.5-8.6-2.8-17.4c-0.3-5-0.3-12.7,0-18.8c5.2,3,12.1,6.9,16.3,9.4
	c7.5,4.7,11.3,8.6,13.8,11c2.5,2.5,6.1,6.4,8.6,9.4c1.7,1.9,6.1,6.6,9.1,9.4c0.8,0.8,1.7,1.7,2.5,2.5l0,0c1.7,1.4,3.3,2.8,5.5,3.9
	c11,6.4,24,5,28.4-3C221.7,170.8,216.4,159.2,205.4,152.9z"/>
</svg>
