<?xml version="1.0" encoding="utf-8"?>
<!-- Generator: Adobe Illustrator 27.6.1, SVG Export Plug-In . SVG Version: 6.00 Build 0)  -->
<svg version="1.1" id="레이어_1" xmlns="http://www.w3.org/2000/svg" xmlns:xlink="http://www.w3.org/1999/xlink" x="0px"
	 y="0px" viewBox="0 0 256 256" style="enable-background:new 0 0 256 256;" xml:space="preserve">
<path d="M109,184.4c1.2,3.8,3.9,1.3,4.9,7.7c2.1,7,6.9,13.1,12.3,17.9c0.3,0.4,0.7,0.1,0.8-0.4c1.1-6.1,0.3-12.5,2.8-18.3
	c1.6-2.9,3.2-5.7,5.8-7.7c1.1-1,2.3-1.9,2.8-3.3c0.6-1.5,2.2-2.1,2.6-3.7c0.3-2.3-1.7-4.4-2.6-6.5c-0.6-1.4-1.3-3.7,1-3.3
	c1.1,0.1,2.3-1.4,2.3-2.8c0-3.2,1.5-5.8,2.8-8.6c1.3-2.7,1.7-6,4.1-8.1c1.7-1.4,0.4-4.1,2-5.8c2.2-2.6,4.2-5.7,7.3-7.1
	c1.3-0.4,2.1-1.5,2.4-2.4c0.6-1.9,2.5-2.8,3.3-4.4c2.2-3.7,6.5-5.3,9.8-7.9c2.3-2.2,5.4-3,7.7-5.3c1.1-1.2,2.7-2.1,4.5-2.5
	c0.3-0.1,0.5-0.2,0.8-0.5c2.3-3.7,5.8-0.9,5.8-4.5c0-0.6-0.7-1.9,0.9-1.8c2.9-0.2,2.7,6.3,1.2,7.7c-0.2,0.2-0.2,0.8-0.1,1.2
	c0.3,1.4-0.9,2.4-1.4,3.5c-0.6,1.2-1.5,2.3-1.7,3.6c-3.1,4.3-7.4,7.7-11.4,11.5c-3.3,2.9-5.7,0.7-7.6,6.3c-1.7,4.3-7.8,4.2-10.7,7.5
	c-0.5,0.5-1.2,0.2-1.8,0.6c-3.1,3.4-1.6,8.4-4.4,12.1c0.2,1.5-6.3,11.1-5.4,6c1.4-1.6,0.8-3.9,1.9-5.7c2.3-2.5,2.8-6.1,3.8-9.3
	c0.5-1.5-0.8-2.1-1.9-1.2c-0.5,0.5-1,0.7-1.6,0.8c-6,3.2-6.3,11.5-7.3,17.6c-1,1.6-2.6,2.8-1.8,4.9c0.2,0.7-1.2,1.2-0.2,1.7
	c1.2,0.6,1.1-0.7,1.6-1.2c0.8-0.8,1.9-1.3,2.6-2.3c1-0.9,2.9,0.4,1.6,1.5c-2.1,2.3-3,5.4-4.8,7.8c-2.5,3.8-6.2,6.8-8.9,10.5
	c-0.8,1.6-3.4,1.5-2.9,3.7c0.6,5.4-1.7,10.6-1.7,16c-0.1,1,0.4,2.2-0.8,3c-0.5,0.3-0.5,1.7,0.2,2.2c1.4,1.2,1.2,3.3,2.4,4.6
	c0.7,1.4,2.3,2.2,2.2,4.1c-0.1,1.7,2.4,1.9,3,3.2c-4.4,3.3-10.4-11.1-13-13.7c-1.9-3.1-5.2-5.3-6.8-8.7c-0.7-1.7-3.2-3.1-3.5-4.7
	c-0.2-2.6-2.7-4.3-2.4-7c0.1-1-1.1-1.9-1.9-2.5c-0.9-0.6-1.6-1.4-2.5-2c-2.6-0.8-3.2-9.2-1.4-6.5c0.4,1.1,1.5,1.6,2.1,2.7
	C107.6,184.4,108.3,185.3,109,184.4L109,184.4z M156.3,141.3c0.7,0.6,1.8,0.2,2-0.1c0.6-1.2,1.9-1.5,2.8-2.2
	C159.6,138,157.2,139.3,156.3,141.3c-0.8-0.2-1.2,0.6-1.9,0.8C152.4,142.8,155.3,144.3,156.3,141.3z M161.6,119.5
	c-0.3-2.3,0.8-4.8-0.9-6.8c-0.4-2.6-0.2-5.6-0.1-8.3c-0.2-4.5-4.1-7-5.4-11.1c-1.4-3.1-5.7-3.6-8.3-5.4c-2.3-1.9,4.6-2.9-4.4-6.8
	c-0.9-0.2-1.2-1-1.7-1.5c-2.1-2-4.8-2.9-7.4-3.6c-2.3,0.3-3.9-1.1-5.7-2.1c-2.4-1.4-4.6-3.3-7.7-2.7c-1.1,0.2-1.7-0.9-2.6-1
	c-1.3-0.1-2.6-0.3-3.9-0.1c-3.4,0.5-6.4-1.3-9.8-1.1c-1.6-1.3-4.2-1.6-6.3-1.7c-2.7-0.9-5.6-2.8-8.4-1.3c-1.2,0.5-2.3,1.6-3.8,1.4
	c-2.1-0.2-4.6,1.9-6.4-0.1c-0.7-0.8,0.5-0.9,0.7-1.5c2.2-3.2,6.7-4,9.7-6.5c0.6-0.5,1.8-0.6,2.3-0.6c2.1,0.2,3.7-1.5,5.8-1.3
	c0.7,0.1,1.5,0.2,2-0.8c0.8-0.7,4.6-0.2,5.3,0.8c7.2,1.5,14.2,5.6,19.3,10.9c0.4,0.5,0.8,0.8,1.4,0.7c4.4-0.2,5.6,5,10,5.3
	c4.2,0.7,8.4,1.8,11.2,5.1c0.4,0.7,1.1,0.7,1.6,0.4c1.4-1.5-2.2-5.8-2.3-8c-0.8-2.4-3.3-4.1-3.9-6.5c-0.7-3.7-5,3.9-11.4-0.5
	c-3.7-1.2-9.9-4.9-7-9.3c0.8-0.2,1.8-0.5,2.6,0.2c4,2.7,8.9,3.2,13.6,3.6c1.8,0.1,3.1,1,3.4,3.1c3.2,1.7,3.5,5.6,6.1,7.7
	c1.3,1.6,1.5,4.2,3.1,5.8c0.1,0.1,0.3,0.3,0.3,0.4c-0.5,2,1.3,3.4,1.1,5.3c0.6,3.7,2.6,7,4.4,10.2c0.5,1,1.4,1.9,1.4,3.2
	c0,1,1.2,1,1.5,1.7c0.5-0.7,1.6-0.9,1.5-1.9c-0.1-2.3,1.8-3.3,3-4.7c0.4-0.5,1.3-0.1,1.6,0.7c0.5,2.2-1.3,4.5-2.5,6.3
	c-0.4,0.4-0.9,1.2,0.3,1.7c3.4,1.8-3.2,3.1-1.9,7c0.2,1.2-0.4,2.8,0.9,3.8c0.6,2,0.1,4.5,0.3,6.6c0.1,2.2,2.2,4.1,0.4,6.4
	c-0.5,0.8-1.7,1.1-1.5,2.4c0,0.4-0.3,0.5-0.7,0.3C160.6,124.8,162,121.2,161.6,119.5C161.6,119.5,161.6,119.5,161.6,119.5z
	 M101.2,60.4c0.8-0.3,2.1,0.4,2.2-0.6c0-0.8-1.4-0.4-2.2-0.5c-0.7,0-1.9-0.4-1.9,0.4C99.3,60.8,100.5,60,101.2,60.4z M103.4,65
	c0.6,0.2,2.4,2.2,2.5,0.8c-0.6-0.2-0.3-1.2-1-1.2C104.3,64.5,103.8,64.5,103.4,65z M109,184.5c0-0.3,0.2-0.9,0-1
	c-1.5-1.1-0.5-2.8-1-4.1c-1.5-3.7-0.4-7.7-1.2-11.4c-0.5-2.1-1.2-4.3-0.5-6.3c1.5-5.1,0.9-6.8-2.9-10.2c-0.6-1,0-2.1,1.2-2.1
	c2.9,1,0.8-12.1,1.5-14.4c0-1.2-0.4-1.8-1.6-1.5c-2.8,0.7-4.7-1.4-6.9-2.2c-1.9-2.5-2.6-6.1-4.1-9c-0.3-0.8-0.5-2,0.3-2.5
	c1.6-1.1,2.4,1,3.9,0.9c3.3,0.4,6.9,2,8.4,5c0.1,1,1,1.2,1.5,1.7c0.5,0.4,1.1-0.9,1.2-1.2c0.9-2.4,3-3.7,4.7-5.2
	c1.4-1.6,4.5-1.4,6.2-2.7c1.9-1.2,4.2-1.1,5.6-0.4c3.8,1.2,7.7,3.3,9.6,6.8c3.4,1.4,1.7,4.3,1.7,6.5c-1,3.3-6.7,3.4-8.9,0.8
	c-0.3-0.4-0.7-0.3-1.1-0.3c-6.2-0.9-5.1,2.3-10,2.6c-2.6,0.8-5-0.6-7.6-0.6c-1.7-0.5-1.5,5.4-1,5.8c1.4,1.8,0,4.1,1.6,5.7
	c0.2,0.2,0.2,0.8,0.2,1.1c-0.3,2.1,0.7,4.3-0.9,6.2c-0.2,0.3-0.1,0.9,0.2,1.3c2.7,4.1-2.4,1.7,0.9,9.9c0.8,2,2.8-2.3,3,0.3
	c0.1,1,0.4,2-0.8,2.7c-0.8,0.5,0.1,1.6-0.9,2.3c-2.3,2.4,0.3,10,0.6,13.3C112.7,185.1,111.3,184.8,109,184.5
	C109,184.4,109,184.5,109,184.5z M115.9,127.5C115.9,127.5,115.9,127.4,115.9,127.5c2.7-0.2,5.9,0.3,7.3-2.8c0.5-1.2,0.4-2-1-2.1
	c-2.4-0.1-4.7,0.4-6.5,2c-1.1,0.8-3.3,0.7-3.5,2.5C112.9,128.1,114.8,127.2,115.9,127.5z M102.3,128.4c0-0.9-1.5-2.4-2.3-2.3
	C96.8,126.8,102.2,131.8,102.3,128.4z M108.6,123.6c-2.3-2.1-1.7-4.1-0.5-6.6c-0.6-2.1,1.2-3.6,1.3-5.6c1.7-3.7,4.6-8.5,8.8-9.7
	c3-1.3,4.8-4.2,8.3-4.9c2.8-1.1,5.4-0.7,8.1-0.9c2-0.2,3.4,1.8,5.2,2.1c1.6-0.4,2.6,0.8,3.4,1.6c3.4,2.4,4.5,6.7,0.7,9.4
	c-2.4,0.8-4.8,0.7-7,2.3c-0.1,0.1-0.2,0.4-0.3,0.3c-1.7-0.5-3,0.8-4.5,1.2c-1.8,0.5-3.9,0.3-5.5,1.7c-0.3,0.3-1.1,0.1-1.7,0.2
	c-1.3,0.1-2.6-0.4-3.8,0.9c-0.4,0.4-1.7,0.3-2.5,0.2C113.5,115,111.3,120.2,108.6,123.6z M133.2,105.8c0.7,0,1.4-0.1,2.1,0
	c2.5,0.1,2.7-2.8,0.1-2.1c-4.7-0.1-9.4,1.4-13.7,2.6c-2.5,2.2-6.2,3.2-7.9,6.1c-1.2,0.9,0.3,1.8,1.2,0.8c3.5-3.6,8.3-6.7,13.5-6.3
	C130.7,106.9,129.1,105.5,133.2,105.8z M141.7,54c0.4,1.9-1.6,5.1-3.5,2.6c-4.9-2.3-11.3-2.4-15.4-6.7c-3.2-2.6-0.3-6.4-2.2-9.3
	c-1.7-3-6.2-7.6-1.3-9.9c1.9-1.2,3.3,0.7,5.1,0.2c1.8-0.5,3.8,0.2,5.6-0.9c0.6-0.4,1.8,0,2.8,0.5c4.9,2,4.4,5.6,5.8-0.7
	c1-2.6,3.1,1.3,4.4,2c1.7,2.1,2,5,1,7.5c-1.5,2.7-0.9,6.1-3.1,8.4c-0.7,0.8-0.6,2.1-0.2,2.7C141.7,51.7,141.4,52.9,141.7,54z
	 M124.4,35.8c-1.7,2.3,1.8,2.9,1.4,6.1c0,0.5-0.1,1.1,0.4,1.4c2.1,1.1,3.2,3.1,4.4,5c4.1,3,1.9-5.2,0.7-6.4
	C129.2,39.7,126.8,37.9,124.4,35.8z M188.9,186.1c-0.2,1.9,1.1,4.8-1.1,5.1c-0.7-0.1-1.6-0.6-1.6-1.7c-0.2-8.4-7.9-14.7-16.2-13.9
	c-1.4,0.1-2.3,1.3-3.7,1.4c-0.1,0,0,0.4-0.1,0.5c-5,1-13.4-0.1-15.5-5.6c-4.5-4.2,3.6-6.3,6.1-8.7c2.5-0.5,5-1.5,7.7-1.1
	c2.4,0.1,4.3-2.1,6.9-0.4c3.2,2,7.7,3.1,10.1,6.3c0.7,1.8,2.7,2.2,3.8,3.7c2.5,2.6,1.9,6.7,2.9,9.7
	C189.2,183.1,188.7,184.8,188.9,186.1z M156.5,170.3c2.8,2.5,10.3,1.9,13.8,0.8c1.3-0.6,3.1-0.1,4.7-0.1c2.9,0.6,3-1.6,0.1-1.1
	C169,170.2,162.4,168.9,156.5,170.3z M100.6,178.7c-1.2,0.6-1.8-0.7-2.3-1.2c-2.6-3.3-6.9-1.7-9.7-4.4c-5.3-0.9-9.1-4.7-13.7-7.2
	c-3.1-0.9-4-4.9-6.5-6.9c-1.9-2.9-0.5-6.8-3.6-9.2c-0.5-0.4-0.8-1.2-0.9-1.9c0.1-3.3-4.5-4.6-2.9-7c0.5-0.8,0.8,0.2,1.2,0.3
	c3.8,1.7,9.3,2.4,10.2,7.3c0,0.2,0.1,0.5,0.3,0.6c1.3,0.6,2.1,1.7,2.9,2.9c0.4,0.6,1.9-0.1,2.2,1.2c2.2,0,3.8,1.7,5.8,2.4
	c2.9,0.9,5.8,2.4,7.7,5.2c3,3.2,5.9,6.9,7.8,10.9c-0.4,2.7,2.6,3.5,3.1,5.6C102.5,178.4,102.1,179,100.6,178.7z M91.9,170.9
	c1.3,0.3,2.2-0.8,0.7-1.2c-0.1,0-0.1-0.4-0.2-0.4c-0.9-0.6-1-2.2-2-2.4c-4.9-2-8.6-6.1-13.4-8.4c-4.8-2.1-5.4-9-10-11.3
	c-1.3,1.4,1.3,3.4,2.3,4.5c0.7,0.6,0,1.7,0.7,2.2c2.2,1.9,3.7,4.5,6.2,6.1c1.4,2,2.2,0,3.9,2.3c1.8,2.1,3.8,3.9,6.5,4.9
	C88.4,168.2,89.8,170,91.9,170.9z M176.2,65.8c0,3.1,0.3,6.4-0.8,9.2c0.9,1.9-0.5,7.1-2.2,8.4c-2.3,1.2,0.2,5.3-3.2,4.7
	c-1-0.1-1.5-1.1-2.5-1.3c-0.7-2,2-3.4,0.2-7.2c-0.5-1.4-1.5-2.7-1.3-4.2c0.4-3.1-1.6-5.8-1.1-8.9c-1.7-1.1-0.5-3.3-1.7-4.8
	c-1.9-2.5,1.5-4,0.7-5.8c-1.6-1.6-0.8-3.5-0.9-5.2c-0.1-1.1-0.6-2.5,0.8-3.3c0.2-0.1,0.2-0.7,0.1-1c-0.8-2,0.2-3.9,0-5.9
	c-0.1-0.6-0.5-1.7,0.9-1.8c2.5,0.2,3,3.8,3.8,5.6c2.9,7.1,8.8,13,7.3,21.4C176.3,65.8,176.3,65.8,176.2,65.8z M169.8,72.9
	c2.3-3.8-0.9-8.3-0.4-12.4c-0.1-0.5,0.3-1.3-0.5-1.4C164.7,60.8,169.3,69.5,169.8,72.9z M104.9,119.4c-2.3-3.8-7.7-8-6.8-12.7
	c0.4-1.3-0.8-2.1-1.2-3.1c-0.9-5.4-1.5-12.3,2.7-16.5c2-2.2,5.7-4.8,8.4-2c1.9,2,4.6,7.4,3.9,9.8c-1.1,2.4-0.5,4.8-1,7.2
	c-1.2,1.8-2.7,3.4-3.1,5.8c0,2.4-2,4.4-1.9,6.7C106,117.8,106,117.8,104.9,119.4z M103.8,97.3c-0.7,0.6-1.1,10,0.1,9.7
	C104.8,107,104.5,97.8,103.8,97.3z M85.5,107.9c-2.4,0-6.7-0.7-6,3c0.7,5.4-3.1,8.1,1.4,13.1c1.7,1.7,11.1,2.7,10.4-1.1
	c-0.4-1.4,0.6-3.5-0.5-4.6c-2.4-3.4,7.2-0.8,8.2,0.3c0.5,0.3,0.6,1.2,1.3,0.2c1.5-1.2-0.4-2.6-1.2-3.7
	C96.4,110.3,91,107.5,85.5,107.9C85.5,107.9,85.5,107.9,85.5,107.9z M143.8,54.4c0.3,2.6-1,6.1,1.5,7.8c1,0.4,3.4-5.4,3.4-6.7
	c0.2-3.8,5.6-5.4,5-9.6c-0.4-2.9,1.1-6.5-1.8-8.5c-3.7-2.7-4.5,3.4-6,5.6C143.7,46.5,143.7,50.5,143.8,54.4
	C143.8,54.4,143.8,54.4,143.8,54.4z"/>
</svg>
