<?xml version="1.0" encoding="utf-8"?>
<!-- Generator: Adobe Illustrator 27.6.1, SVG Export Plug-In . SVG Version: 6.00 Build 0)  -->
<svg version="1.1" id="레이어_1" xmlns="http://www.w3.org/2000/svg" xmlns:xlink="http://www.w3.org/1999/xlink" x="0px"
	 y="0px" viewBox="0 0 256 256" style="enable-background:new 0 0 256 256;" xml:space="preserve">
<style type="text/css">
	.st0{fill:none;stroke:#000000;stroke-miterlimit:10;}
</style>
<g id="_x38_NWr9y.tif">
	<g>
		<path class="st0" d="M199.4,90.1c-15,16.2-35.5,26.1-55.5,35.5c-5.8,2.7-11.6,5.5-17.7,7.3c-5.2,1.6-10.6,2.4-15.9,3.7
			c-7,1.7-13.8,4.2-20.8,5.6c-7,1.4-14.2,1.8-21.4,2.1c-17.2,0.9-34.5,1.7-51.7,2.6 M150.6,122.6c5.6-4.5,8-11.7,10.3-18.5
			c0.9-2.7,1.8-5.4,2.6-8.1c0.6-1.7,1.1-3.6,0.7-5.3 M209.5,106.3c-6.6,0.4-13.2,0.8-19.8,1.2c-6.5,0.4-13.4,0.9-18.9,4.4
			 M120.6,150.1c-1.1,0.1-2.2-0.5-3.1-1.1c-8.9-5.4-19.6-7.7-29.9-6.4 M55.9,145c9.9-2,19.3-6.2,27.3-12.3"/>
		<path d="M124.4,60.7c-0.6-1.9-2.6-2-4.2-1.2c-19.5,10-30.9,31.9-37.3,52.1c-1.5,5.4-6.7,27.3,5,21.8
			C110.8,120.9,133.6,86.9,124.4,60.7z M118.2,69c-0.7,2.6-4.9,3.8-6.5,5.7c-1.3,1.5-2.9,4.6-5.2,3.3C103.7,76,119.2,59.7,118.2,69z
			 M179.5,54.5c-6.5-2.6-15,2-19,7.3c-3.8,7.9-2.9,18.9,0.7,26.8C169.4,100.3,195.5,60.6,179.5,54.5z M168.8,64.6
			c-0.5,1.6-4,1-5.3,0.7c-2.1-2.4,4.1-8.3,6.6-7C173.3,60,169.3,63.1,168.8,64.6z M220,68c-1.1-10.9-14.2-9.1-19.8-2.7
			c-3.1,3.4-4.1,8.2-4.4,12.8c-2.2,13.2,2.8,19.2,14.3,9.4C216.7,83.6,220.5,75.6,220,68z M209.7,67.2c-1.9,0.3-4.7,0.6-6.2-0.4
			c0.4-2.6,3.6-4.4,6.2-4l0.1,0.2C212.6,62.6,212.2,66.8,209.7,67.2z M237.3,100.4c-2.1-1.9-4.9-2.7-7.6-3.2
			c-29.8-4.3-31.1,18.7-3,22.2C236.3,119.9,244.8,108,237.3,100.4z M231.7,104.2c-1,2.6-8.2,1-10.4,0.8c-1.8,0.1-2.8-1.7-1.4-3.1
			C221.5,100,233.6,99.6,231.7,104.2z M179.3,167.3C166,153.5,146,149,127.4,148.1c-7.4-0.4-12-1.1-8.9,7.4
			c4.1,11.2,12.2,20.9,22.6,26.7c14.3,7.3,30.6,10.3,44,19.3C198.6,202.8,185.5,171.3,179.3,167.3z M154.3,160.8
			c-8.4-3.3-19-0.8-26.3-6.2c0.4-5,23-2.1,25.9,1.1C155.2,156.9,157.4,160.2,154.3,160.8z"/>
	</g>
</g>
</svg>
